<?xml version="1.0" encoding="UTF-8" standalone="no"?>
<!-- Created with Inkscape (http://www.inkscape.org/) -->

<svg
   width="174.94492mm"
   height="154.94528mm"
   viewBox="0 0 174.94492 154.94528"
   version="1.1"
   id="svg5"
   xml:space="preserve"
   xmlns="http://www.w3.org/2000/svg"
   xmlns:svg="http://www.w3.org/2000/svg"><defs
     id="defs2" /><g
     id="layer1"
     transform="translate(-12.841183,-7.0774134)"><g
       id="g76"
       transform="matrix(0.26458333,0,0,0.26458333,15.313597,-137.45004)"><path
         d="m 618.89764,585.82677 a 6.614175,6.614175 0 0 0 -13.22835,0 6.614175,6.614175 0 0 0 13.22835,0 z"
         style="fill:none;stroke:#000000;stroke-width:3.571;stroke-linecap:round"
         id="path26" /><path
         d="m 323.64789,1092.2835 a 6.614173,6.614173 0 0 0 -13.22834,0 6.614173,6.614173 0 0 0 13.22834,0 z"
         style="fill:none;stroke:#000000;stroke-width:3.571;stroke-linecap:round"
         id="path28" /><path
         d="m 618.89764,843.47939 a 6.614175,6.614175 0 0 0 -13.22835,0 6.614175,6.614175 0 0 0 13.22835,0 z"
         style="fill:none;stroke:#000000;stroke-width:3.571;stroke-linecap:round"
         id="path30" /><path
         d="m 618.89764,1092.2835 a 6.614175,6.614175 0 0 0 -13.22835,0 6.614175,6.614175 0 0 0 13.22835,0 z"
         style="fill:none;stroke:#000000;stroke-width:3.571;stroke-linecap:round"
         id="path32" /><path
         d="m 36.850394,1092.2835 a 6.6141735,6.6141735 0 0 0 -13.228347,0 6.6141735,6.6141735 0 0 0 13.228347,0 z"
         style="fill:none;stroke:#000000;stroke-width:3.571;stroke-linecap:round"
         id="path34" /><path
         d="m 36.850394,781.91717 a 6.6141735,6.6141735 0 0 0 -13.228347,0 6.6141735,6.6141735 0 0 0 13.228347,0 z"
         style="fill:none;stroke:#000000;stroke-width:3.571;stroke-linecap:round"
         id="path36" /><path
         d="m 232.94079,585.82677 a 6.614175,6.614175 0 0 0 -13.22835,0 6.614175,6.614175 0 0 0 13.22835,0 z"
         style="fill:none;stroke:#000000;stroke-width:3.571;stroke-linecap:round"
         id="path38" /><path
         d="m 580.15748,822.04724 a 5.669291,5.669291 0 0 0 -11.33858,0 5.669291,5.669291 0 0 0 11.33858,0 z"
         style="fill:none;stroke:#000000;stroke-width:3.571;stroke-linecap:round"
         id="path40" /><path
         d="m 308.22047,808.8189 a 6.614173,6.614173 0 0 0 -13.22834,0 6.614173,6.614173 0 0 0 13.22834,0 z"
         style="fill:none;stroke:#000000;stroke-width:3.571;stroke-linecap:round"
         id="path42" /><path
         d="m 543.30709,808.8189 a 6.614175,6.614175 0 0 0 -13.22835,0 6.614175,6.614175 0 0 0 13.22835,0 z"
         style="fill:none;stroke:#000000;stroke-width:3.571;stroke-linecap:round"
         id="path44" /><path
         d="m 575.05512,755.90551 a 6.614175,6.614175 0 0 0 -13.22835,0 6.614175,6.614175 0 0 0 13.22835,0 z"
         style="fill:none;stroke:#000000;stroke-width:3.571;stroke-linecap:round"
         id="path46" /><path
         d="m 239.43307,823.93701 a 6.614175,6.614175 0 0 0 -13.22835,0 6.614175,6.614175 0 0 0 13.22835,0 z"
         style="fill:none;stroke:#000000;stroke-width:3.571;stroke-linecap:round"
         id="path48" /><path
         d="m 31.559055,823.93701 a 6.614173,6.614173 0 0 0 -13.228346,0 6.614173,6.614173 0 0 0 13.228346,0 z"
         style="fill:none;stroke:#000000;stroke-width:3.571;stroke-linecap:round"
         id="path50" /><path
         d="m 31.559055,1050.7087 a 6.614173,6.614173 0 0 0 -13.228346,0 6.614173,6.614173 0 0 0 13.228346,0 z"
         style="fill:none;stroke:#000000;stroke-width:3.571;stroke-linecap:round"
         id="path52" /><path
         d="m 239.43307,1050.7087 a 6.614175,6.614175 0 0 0 -13.22835,0 6.614175,6.614175 0 0 0 13.22835,0 z"
         style="fill:none;stroke:#000000;stroke-width:3.571;stroke-linecap:round"
         id="path54" /><path
         style="fill:none;stroke:#000000;stroke-width:3.571;stroke-linecap:round"
         d="M 30.2362,1130.08 H 612.283"
         id="path56" /><path
         style="fill:none;stroke:#000000;stroke-width:3.571;stroke-linecap:round"
         d="M -7.55905,781.917 V 1092.28"
         id="path58" /><path
         style="fill:none;stroke:#000000;stroke-width:3.571;stroke-linecap:round"
         d="M 199.601,559.101 3.51092,755.192"
         id="path60" /><path
         style="fill:none;stroke:#000000;stroke-width:3.571;stroke-linecap:round"
         d="M 612.283,548.031 H 226.327"
         id="path62" /><path
         style="fill:none;stroke:#000000;stroke-width:3.571;stroke-linecap:round"
         d="M 650.079,1092.28 V 585.827"
         id="path64" /><path
         d="m -7.559055,1092.2835 a 37.795276,37.795276 0 0 0 37.795275,37.7952"
         style="fill:none;stroke:#000000;stroke-width:3.571;stroke-linecap:round"
         id="path66" /><path
         d="m 3.510925,755.19187 a 37.795276,37.795276 0 0 0 -11.06998,26.7253"
         style="fill:none;stroke:#000000;stroke-width:3.571;stroke-linecap:round"
         id="path68" /><path
         d="m 226.32662,548.0315 a 37.795276,37.795276 0 0 0 -26.7253,11.06998"
         style="fill:none;stroke:#000000;stroke-width:3.571;stroke-linecap:round"
         id="path70" /><path
         d="M 650.07874,585.82677 A 37.795276,37.795276 0 0 0 612.28346,548.0315"
         style="fill:none;stroke:#000000;stroke-width:3.571;stroke-linecap:round"
         id="path72" /><path
         d="m 612.28346,1130.0787 a 37.795276,37.795276 0 0 0 37.79528,-37.7952"
         style="fill:none;stroke:#000000;stroke-width:3.571;stroke-linecap:round"
         id="path74" /></g></g></svg>
