%TF.GenerationSoftware,KiCad,Pcbnew,7.0.7*%
%TF.CreationDate,2024-02-22T09:52:38+01:00*%
%TF.ProjectId,Floppy Soldering station 3.0,466c6f70-7079-4205-936f-6c646572696e,1.0*%
%TF.SameCoordinates,Original*%
%TF.FileFunction,Copper,L2,Bot*%
%TF.FilePolarity,Positive*%
%FSLAX46Y46*%
G04 Gerber Fmt 4.6, Leading zero omitted, Abs format (unit mm)*
G04 Created by KiCad (PCBNEW 7.0.7) date 2024-02-22 09:52:38*
%MOMM*%
%LPD*%
G01*
G04 APERTURE LIST*
G04 Aperture macros list*
%AMRoundRect*
0 Rectangle with rounded corners*
0 $1 Rounding radius*
0 $2 $3 $4 $5 $6 $7 $8 $9 X,Y pos of 4 corners*
0 Add a 4 corners polygon primitive as box body*
4,1,4,$2,$3,$4,$5,$6,$7,$8,$9,$2,$3,0*
0 Add four circle primitives for the rounded corners*
1,1,$1+$1,$2,$3*
1,1,$1+$1,$4,$5*
1,1,$1+$1,$6,$7*
1,1,$1+$1,$8,$9*
0 Add four rect primitives between the rounded corners*
20,1,$1+$1,$2,$3,$4,$5,0*
20,1,$1+$1,$4,$5,$6,$7,0*
20,1,$1+$1,$6,$7,$8,$9,0*
20,1,$1+$1,$8,$9,$2,$3,0*%
G04 Aperture macros list end*
%TA.AperFunction,ComponentPad*%
%ADD10R,1.700000X1.700000*%
%TD*%
%TA.AperFunction,ComponentPad*%
%ADD11O,1.700000X1.700000*%
%TD*%
%TA.AperFunction,ComponentPad*%
%ADD12C,0.800000*%
%TD*%
%TA.AperFunction,ComponentPad*%
%ADD13C,6.400000*%
%TD*%
%TA.AperFunction,ComponentPad*%
%ADD14RoundRect,0.250000X0.750000X-0.600000X0.750000X0.600000X-0.750000X0.600000X-0.750000X-0.600000X0*%
%TD*%
%TA.AperFunction,ComponentPad*%
%ADD15O,2.000000X1.700000*%
%TD*%
%TA.AperFunction,ComponentPad*%
%ADD16RoundRect,0.250000X-0.600000X-0.750000X0.600000X-0.750000X0.600000X0.750000X-0.600000X0.750000X0*%
%TD*%
%TA.AperFunction,ComponentPad*%
%ADD17O,1.700000X2.000000*%
%TD*%
%TA.AperFunction,ComponentPad*%
%ADD18RoundRect,0.250000X-0.600000X-0.725000X0.600000X-0.725000X0.600000X0.725000X-0.600000X0.725000X0*%
%TD*%
%TA.AperFunction,ComponentPad*%
%ADD19O,1.700000X1.950000*%
%TD*%
%TA.AperFunction,ComponentPad*%
%ADD20RoundRect,0.250000X-0.725000X0.600000X-0.725000X-0.600000X0.725000X-0.600000X0.725000X0.600000X0*%
%TD*%
%TA.AperFunction,ComponentPad*%
%ADD21O,1.950000X1.700000*%
%TD*%
%TA.AperFunction,ComponentPad*%
%ADD22C,2.400000*%
%TD*%
%TA.AperFunction,ComponentPad*%
%ADD23C,1.700000*%
%TD*%
%TA.AperFunction,ComponentPad*%
%ADD24RoundRect,0.250000X-0.750000X0.600000X-0.750000X-0.600000X0.750000X-0.600000X0.750000X0.600000X0*%
%TD*%
%TA.AperFunction,ComponentPad*%
%ADD25O,2.500000X1.250000*%
%TD*%
%TA.AperFunction,ComponentPad*%
%ADD26RoundRect,0.250001X-1.099999X1.099999X-1.099999X-1.099999X1.099999X-1.099999X1.099999X1.099999X0*%
%TD*%
%TA.AperFunction,ComponentPad*%
%ADD27C,2.700000*%
%TD*%
%TA.AperFunction,ViaPad*%
%ADD28C,0.457200*%
%TD*%
%TA.AperFunction,ViaPad*%
%ADD29C,0.800000*%
%TD*%
%TA.AperFunction,Conductor*%
%ADD30C,0.254000*%
%TD*%
%TA.AperFunction,Conductor*%
%ADD31C,0.250000*%
%TD*%
%TA.AperFunction,Conductor*%
%ADD32C,1.000000*%
%TD*%
%TA.AperFunction,Conductor*%
%ADD33C,0.508000*%
%TD*%
%TA.AperFunction,Conductor*%
%ADD34C,0.200000*%
%TD*%
G04 APERTURE END LIST*
D10*
%TO.P,J7,1,Pin_1*%
%TO.N,+3V3*%
X159491000Y-106061000D03*
D11*
%TO.P,J7,2,Pin_2*%
%TO.N,/PA14{slash}SWCLK{slash}BOOT0*%
X156951000Y-106061000D03*
%TO.P,J7,3,Pin_3*%
%TO.N,GND*%
X154411000Y-106061000D03*
%TO.P,J7,4,Pin_4*%
%TO.N,/PA13{slash}SWDIO*%
X151871000Y-106061000D03*
%TO.P,J7,5,Pin_5*%
%TO.N,/NRST*%
X149331000Y-106061000D03*
%TD*%
D12*
%TO.P,H2,1*%
%TO.N,N/C*%
X128000000Y-123600000D03*
X129697056Y-124302944D03*
X126302944Y-124302944D03*
X130400000Y-126000000D03*
D13*
X128000000Y-126000000D03*
D12*
X125600000Y-126000000D03*
X129697056Y-127697056D03*
X126302944Y-127697056D03*
X128000000Y-128400000D03*
%TD*%
D14*
%TO.P,J2,1,Pin_1*%
%TO.N,Net-(J2-Pin_1)*%
X183000000Y-81000000D03*
D15*
%TO.P,J2,2,Pin_2*%
%TO.N,+3V3*%
X183000000Y-78500000D03*
%TD*%
D16*
%TO.P,J8,1,Pin_1*%
%TO.N,Net-(J8-Pin_1)*%
X150000000Y-126000000D03*
D17*
%TO.P,J8,2,Pin_2*%
%TO.N,Net-(J8-Pin_2)*%
X152500000Y-126000000D03*
%TD*%
D12*
%TO.P,H1,1*%
%TO.N,N/C*%
X128000000Y-63600000D03*
X129697056Y-64302944D03*
X126302944Y-64302944D03*
X130400000Y-66000000D03*
D13*
X128000000Y-66000000D03*
D12*
X125600000Y-66000000D03*
X129697056Y-67697056D03*
X126302944Y-67697056D03*
X128000000Y-68400000D03*
%TD*%
D18*
%TO.P,J6,1,Pin_1*%
%TO.N,+3V3*%
X136000000Y-126000000D03*
D19*
%TO.P,J6,2,Pin_2*%
%TO.N,GND*%
X138500000Y-126000000D03*
%TO.P,J6,3,Pin_3*%
%TO.N,/I2C1_SCL*%
X141000000Y-126000000D03*
%TO.P,J6,4,Pin_4*%
%TO.N,/I2C1_SDA*%
X143500000Y-126000000D03*
%TD*%
D20*
%TO.P,J5,1,Pin_1*%
%TO.N,/ENCODER_CLK*%
X128000000Y-108000000D03*
D21*
%TO.P,J5,2,Pin_2*%
%TO.N,/ENCODER_DT*%
X128000000Y-110500000D03*
%TO.P,J5,3,Pin_3*%
%TO.N,/ENCODER_SW*%
X128000000Y-113000000D03*
%TO.P,J5,4,Pin_4*%
%TO.N,+3V3*%
X128000000Y-115500000D03*
%TO.P,J5,5,Pin_5*%
%TO.N,GND*%
X128000000Y-118000000D03*
%TD*%
D12*
%TO.P,H4,1*%
%TO.N,N/C*%
X183000000Y-63600000D03*
X184697056Y-64302944D03*
X181302944Y-64302944D03*
X185400000Y-66000000D03*
D13*
X183000000Y-66000000D03*
D12*
X180600000Y-66000000D03*
X184697056Y-67697056D03*
X181302944Y-67697056D03*
X183000000Y-68400000D03*
%TD*%
D22*
%TO.P,SW2,*%
%TO.N,*%
X182425000Y-98499999D03*
X182425000Y-105499999D03*
D23*
%TO.P,SW2,1,1*%
%TO.N,+3V3*%
X184925000Y-99749999D03*
%TO.P,SW2,2,2*%
%TO.N,/PA14{slash}SWCLK{slash}BOOT0*%
X184925000Y-104249999D03*
%TD*%
D12*
%TO.P,H3,1*%
%TO.N,N/C*%
X183000000Y-123600000D03*
X184697056Y-124302944D03*
X181302944Y-124302944D03*
X185400000Y-126000000D03*
D13*
X183000000Y-126000000D03*
D12*
X180600000Y-126000000D03*
X184697056Y-127697056D03*
X181302944Y-127697056D03*
X183000000Y-128400000D03*
%TD*%
D24*
%TO.P,J9,1,Pin_1*%
%TO.N,+24V*%
X128000000Y-99097000D03*
D15*
%TO.P,J9,2,Pin_2*%
%TO.N,Net-(J9-Pin_2)*%
X128000000Y-101597000D03*
%TD*%
D25*
%TO.P,J4,13,SHIELD*%
%TO.N,GND*%
X180820000Y-119320000D03*
X185000000Y-119320000D03*
X180820000Y-110680000D03*
X185000000Y-110680000D03*
%TD*%
D22*
%TO.P,SW1,*%
%TO.N,*%
X182425000Y-87499999D03*
X182425000Y-94499999D03*
D23*
%TO.P,SW1,1,1*%
%TO.N,GND*%
X184925000Y-88749999D03*
%TO.P,SW1,2,2*%
%TO.N,/NRST*%
X184925000Y-93249999D03*
%TD*%
D26*
%TO.P,J3,1,Pin_1*%
%TO.N,+24V*%
X129550000Y-81379500D03*
D27*
%TO.P,J3,2,Pin_2*%
%TO.N,/STILO+*%
X129550000Y-85339500D03*
%TO.P,J3,3,Pin_3*%
%TO.N,/T{slash}C-*%
X129550000Y-89299500D03*
%TO.P,J3,4,Pin_4*%
%TO.N,/T{slash}C+*%
X129550000Y-93259500D03*
%TD*%
D26*
%TO.P,J1,1,Pin_1*%
%TO.N,GND*%
X129566000Y-72279000D03*
D27*
%TO.P,J1,2,Pin_2*%
%TO.N,+24V*%
X129566000Y-76239000D03*
%TD*%
D28*
%TO.N,+24V*%
X160639000Y-76216000D03*
X164385000Y-66628000D03*
%TO.N,GND*%
X132826000Y-119777000D03*
X142224000Y-82820000D03*
X157464000Y-74692000D03*
X145703800Y-71136000D03*
X157464000Y-66056000D03*
X156956000Y-77740000D03*
X140700000Y-80534000D03*
X157464000Y-73676000D03*
X157464000Y-63516000D03*
X142986000Y-65421000D03*
X155432000Y-78248000D03*
X157464000Y-70120000D03*
X150352000Y-92599000D03*
X177276000Y-69104000D03*
X168640000Y-69104000D03*
X141462000Y-79772000D03*
X149463000Y-109236000D03*
X143875000Y-65421000D03*
X174482000Y-85106000D03*
X142224000Y-81296000D03*
X144256000Y-71136000D03*
X146516600Y-71136000D03*
X126476000Y-78248000D03*
X141208000Y-78248000D03*
X124952000Y-115840000D03*
X150352000Y-67707000D03*
X163052000Y-72152000D03*
X151114000Y-86503000D03*
X157464000Y-68088000D03*
X134223000Y-66183000D03*
X144510000Y-65040000D03*
X127492000Y-78248000D03*
X151241000Y-103521000D03*
X163052000Y-118507000D03*
X141462000Y-82820000D03*
X133969000Y-88789000D03*
X153400000Y-78248000D03*
X153654000Y-118507000D03*
X144256000Y-78248000D03*
X140573000Y-92472000D03*
X166481000Y-89043000D03*
X152384000Y-78248000D03*
X157337000Y-85360000D03*
X140192000Y-78248000D03*
X140700000Y-82820000D03*
X149336000Y-78248000D03*
X145272000Y-78248000D03*
X125333000Y-110252000D03*
X142224000Y-80534000D03*
X157464000Y-64532000D03*
X140700000Y-83582000D03*
X140700000Y-81296000D03*
X124444000Y-78248000D03*
X142224000Y-78248000D03*
X185404000Y-96790000D03*
X156829000Y-113808000D03*
X156067000Y-120031000D03*
X145018000Y-71136000D03*
X156448000Y-78248000D03*
X143240000Y-78248000D03*
X154416000Y-78248000D03*
X157464000Y-69104000D03*
X158734000Y-117491000D03*
X151368000Y-78248000D03*
X141462000Y-82058000D03*
X181721000Y-102124000D03*
X148447000Y-103394000D03*
X133080000Y-78248000D03*
X141462000Y-80534000D03*
X131429000Y-98314000D03*
X174355000Y-120031000D03*
X144764000Y-112919000D03*
X131048000Y-78248000D03*
X142224000Y-79772000D03*
X184642000Y-115078000D03*
X132064000Y-78248000D03*
X152257000Y-80407000D03*
X150352000Y-78248000D03*
X142224000Y-82058000D03*
X170672000Y-127143000D03*
X159369000Y-128921000D03*
X138160000Y-78248000D03*
X158861000Y-68342000D03*
X178165000Y-123460000D03*
X157464000Y-71136000D03*
X135112000Y-78248000D03*
X136128000Y-78248000D03*
X186039000Y-102124000D03*
X134096000Y-78248000D03*
X146288000Y-78248000D03*
X137144000Y-78248000D03*
X144383000Y-106061000D03*
X141462000Y-81296000D03*
X125460000Y-78248000D03*
X138541000Y-112538000D03*
X149971000Y-103394000D03*
X157464000Y-77232000D03*
X142224000Y-83582000D03*
X157464000Y-67072000D03*
X171180000Y-95012000D03*
X185404000Y-79518000D03*
X143875000Y-87773000D03*
X146288000Y-128286000D03*
X126730000Y-121682000D03*
X142732000Y-120666000D03*
X132191000Y-104283000D03*
X147304000Y-78248000D03*
X162798000Y-93361000D03*
X140700000Y-82058000D03*
X139176000Y-78248000D03*
X141462000Y-83582000D03*
X148320000Y-78248000D03*
X157464000Y-62500000D03*
X168386000Y-122825000D03*
%TO.N,/STBY_NTC*%
X162290000Y-78502000D03*
X171815000Y-79074000D03*
D29*
%TO.N,+3V3*%
X137974552Y-100910152D03*
%TO.N,VBUS*%
X179090000Y-112626000D03*
X156575000Y-75962000D03*
X178546000Y-102124000D03*
X179090000Y-117400000D03*
D28*
%TO.N,/NRST*%
X166227000Y-91710000D03*
X155210563Y-93393563D03*
%TO.N,/D-*%
X181543200Y-115778100D03*
X181543200Y-114671600D03*
%TO.N,/I2C1_SCL*%
X165719000Y-101997000D03*
X162036000Y-101997000D03*
%TO.N,/I2C1_SDA*%
X166760400Y-100193600D03*
X162036000Y-100219000D03*
%TO.N,/PA14{slash}SWCLK{slash}BOOT0*%
X168005000Y-109363000D03*
%TO.N,/BUCKLIGHT_PWM*%
X153654000Y-99203000D03*
X155940000Y-117110000D03*
%TO.N,/FAN_PWM*%
X134553200Y-95266000D03*
X152003000Y-95266000D03*
%TO.N,/STILO_TEMP_CSN*%
X144510000Y-93234000D03*
X149590000Y-90643200D03*
%TO.N,/STILO_TEMP_SCK*%
X144510000Y-94504000D03*
X153389766Y-93869000D03*
%TO.N,/STILO_TEMP_MISO*%
X149590000Y-91964000D03*
X147685000Y-91964000D03*
D29*
%TO.N,/BUCK_SW*%
X142478000Y-72914000D03*
X147431000Y-72914000D03*
X148701000Y-70374000D03*
%TD*%
D30*
%TO.N,+24V*%
X160639000Y-70374000D02*
X164385000Y-66628000D01*
X160639000Y-76216000D02*
X160639000Y-70374000D01*
D31*
%TO.N,/STBY_NTC*%
X162862000Y-79074000D02*
X171815000Y-79074000D01*
X162290000Y-78502000D02*
X162862000Y-79074000D01*
D32*
%TO.N,+3V3*%
X137974552Y-107770448D02*
X130245000Y-115500000D01*
X137974552Y-100910152D02*
X137974552Y-107770448D01*
X130245000Y-115500000D02*
X128000000Y-115500000D01*
D33*
%TO.N,VBUS*%
X179090000Y-112626000D02*
X179090000Y-117400000D01*
D32*
X178546000Y-96790000D02*
X178546000Y-102124000D01*
X156575000Y-75962000D02*
X157718000Y-75962000D01*
X157718000Y-75962000D02*
X178546000Y-96790000D01*
D31*
%TO.N,/NRST*%
X149331000Y-99273126D02*
X149331000Y-106061000D01*
X155210563Y-93393563D02*
X149331000Y-99273126D01*
X156894126Y-91710000D02*
X155210563Y-93393563D01*
X166227000Y-91710000D02*
X156894126Y-91710000D01*
D34*
%TO.N,/D-*%
X181543200Y-115778100D02*
X181543200Y-114671600D01*
D31*
%TO.N,/I2C1_SCL*%
X165719000Y-101997000D02*
X162036000Y-101997000D01*
X145572000Y-121428000D02*
X141000000Y-126000000D01*
X153527000Y-121428000D02*
X145572000Y-121428000D01*
X162036000Y-112919000D02*
X153527000Y-121428000D01*
X162036000Y-112919000D02*
X162036000Y-101997000D01*
%TO.N,/I2C1_SDA*%
X166760400Y-110480600D02*
X154289000Y-122952000D01*
X166760400Y-100193600D02*
X166760400Y-110480600D01*
X166760400Y-100193600D02*
X166735000Y-100219000D01*
X146548000Y-122952000D02*
X143500000Y-126000000D01*
X166735000Y-100219000D02*
X162036000Y-100219000D01*
X154289000Y-122952000D02*
X146548000Y-122952000D01*
%TO.N,/PA14{slash}SWCLK{slash}BOOT0*%
X183688001Y-103013000D02*
X180451000Y-103013000D01*
X184925000Y-104249999D02*
X183688001Y-103013000D01*
X174101000Y-109363000D02*
X168005000Y-109363000D01*
X174228000Y-109236000D02*
X174101000Y-109363000D01*
X180451000Y-103013000D02*
X174228000Y-109236000D01*
%TO.N,/BUCKLIGHT_PWM*%
X153654000Y-99203000D02*
X153146000Y-99711000D01*
X153146000Y-114316000D02*
X155940000Y-117110000D01*
X153146000Y-99711000D02*
X153146000Y-114316000D01*
%TO.N,/FAN_PWM*%
X134553200Y-95266000D02*
X152003000Y-95266000D01*
%TO.N,/STILO_TEMP_CSN*%
X147100800Y-90643200D02*
X144510000Y-93234000D01*
X149590000Y-90643200D02*
X147100800Y-90643200D01*
%TO.N,/STILO_TEMP_SCK*%
X144510000Y-94504000D02*
X152754766Y-94504000D01*
X152754766Y-94504000D02*
X153389766Y-93869000D01*
%TO.N,/STILO_TEMP_MISO*%
X149590000Y-91964000D02*
X147685000Y-91964000D01*
D32*
%TO.N,/BUCK_SW*%
X148193000Y-70374000D02*
X147470600Y-71096400D01*
X147470600Y-72874400D02*
X147431000Y-72914000D01*
X147431000Y-72914000D02*
X142478000Y-72914000D01*
X148701000Y-70374000D02*
X148193000Y-70374000D01*
X147470600Y-71096400D02*
X147470600Y-72874400D01*
%TD*%
%TA.AperFunction,Conductor*%
%TO.N,GND*%
G36*
X138611039Y-62020185D02*
G01*
X138656794Y-62072989D01*
X138668000Y-62124499D01*
X138668000Y-64786000D01*
X142605000Y-64786000D01*
X142605000Y-63005000D01*
X142624685Y-62937961D01*
X142677489Y-62892206D01*
X142729000Y-62881000D01*
X144005000Y-62881000D01*
X144072039Y-62900685D01*
X144117794Y-62953489D01*
X144129000Y-63005000D01*
X144129000Y-64786000D01*
X150173638Y-64786000D01*
X150240677Y-64805685D01*
X150261319Y-64822319D01*
X151331681Y-65892681D01*
X151365166Y-65954004D01*
X151368000Y-65980362D01*
X151368000Y-73298000D01*
X151348315Y-73365039D01*
X151295511Y-73410794D01*
X151244000Y-73422000D01*
X150225000Y-73422000D01*
X150225000Y-74565000D01*
X157083000Y-74565000D01*
X157083000Y-71390000D01*
X154667000Y-71390000D01*
X154599961Y-71370315D01*
X154554206Y-71317511D01*
X154543000Y-71266000D01*
X154543000Y-66000002D01*
X179594506Y-66000002D01*
X179614469Y-66368196D01*
X179614470Y-66368213D01*
X179674122Y-66732068D01*
X179674128Y-66732094D01*
X179772768Y-67087365D01*
X179772770Y-67087371D01*
X179909255Y-67429926D01*
X179909261Y-67429938D01*
X180081973Y-67755708D01*
X180081976Y-67755713D01*
X180081978Y-67755716D01*
X180288910Y-68060917D01*
X180527627Y-68341956D01*
X180795330Y-68595538D01*
X181088881Y-68818690D01*
X181404838Y-69008795D01*
X181404840Y-69008796D01*
X181404842Y-69008797D01*
X181404846Y-69008799D01*
X181739486Y-69163620D01*
X181739497Y-69163625D01*
X182088934Y-69281364D01*
X182449052Y-69360632D01*
X182815630Y-69400500D01*
X182815636Y-69400500D01*
X183184364Y-69400500D01*
X183184370Y-69400500D01*
X183550948Y-69360632D01*
X183911066Y-69281364D01*
X184260503Y-69163625D01*
X184595162Y-69008795D01*
X184911119Y-68818690D01*
X185204670Y-68595538D01*
X185472373Y-68341956D01*
X185711090Y-68060917D01*
X185918022Y-67755716D01*
X186090743Y-67429930D01*
X186227227Y-67087379D01*
X186325875Y-66732081D01*
X186362962Y-66505863D01*
X186385529Y-66368213D01*
X186385529Y-66368210D01*
X186385531Y-66368199D01*
X186405494Y-66000000D01*
X186385531Y-65631801D01*
X186385395Y-65630973D01*
X186325877Y-65267931D01*
X186325876Y-65267930D01*
X186325875Y-65267919D01*
X186227227Y-64912621D01*
X186090743Y-64570070D01*
X185991240Y-64382388D01*
X185918026Y-64244291D01*
X185918024Y-64244288D01*
X185918022Y-64244284D01*
X185711090Y-63939083D01*
X185472373Y-63658044D01*
X185204670Y-63404462D01*
X185175120Y-63381999D01*
X185158364Y-63369261D01*
X184911119Y-63181310D01*
X184595162Y-62991205D01*
X184595161Y-62991204D01*
X184595157Y-62991202D01*
X184595153Y-62991200D01*
X184260513Y-62836379D01*
X184260508Y-62836377D01*
X184260503Y-62836375D01*
X184090172Y-62778983D01*
X183911065Y-62718635D01*
X183550946Y-62639367D01*
X183184371Y-62599500D01*
X183184370Y-62599500D01*
X182815630Y-62599500D01*
X182815628Y-62599500D01*
X182449053Y-62639367D01*
X182088934Y-62718635D01*
X181822732Y-62808330D01*
X181739497Y-62836375D01*
X181739494Y-62836376D01*
X181739486Y-62836379D01*
X181404846Y-62991200D01*
X181404842Y-62991202D01*
X181215187Y-63105314D01*
X181088881Y-63181310D01*
X181008408Y-63242484D01*
X180795330Y-63404461D01*
X180795330Y-63404462D01*
X180527626Y-63658044D01*
X180288909Y-63939083D01*
X180081979Y-64244282D01*
X180081973Y-64244291D01*
X179909261Y-64570061D01*
X179909255Y-64570073D01*
X179772770Y-64912628D01*
X179772768Y-64912634D01*
X179674128Y-65267905D01*
X179674122Y-65267931D01*
X179614470Y-65631786D01*
X179614469Y-65631803D01*
X179594506Y-65999997D01*
X179594506Y-66000002D01*
X154543000Y-66000002D01*
X154543000Y-65294000D01*
X151562460Y-62210683D01*
X151530020Y-62148801D01*
X151536184Y-62079204D01*
X151578998Y-62023988D01*
X151644866Y-62000684D01*
X151651615Y-62000500D01*
X182998560Y-62000500D01*
X183001423Y-62000566D01*
X183040986Y-62002394D01*
X183172950Y-62008495D01*
X183372549Y-62018302D01*
X183378048Y-62018819D01*
X183563357Y-62044668D01*
X183749828Y-62072329D01*
X183754871Y-62073294D01*
X183939341Y-62116681D01*
X184120221Y-62161989D01*
X184124797Y-62163327D01*
X184305568Y-62223916D01*
X184480339Y-62286450D01*
X184484471Y-62288100D01*
X184542986Y-62313936D01*
X184659474Y-62365370D01*
X184826973Y-62444592D01*
X184830601Y-62446457D01*
X184998128Y-62539770D01*
X184998142Y-62539778D01*
X185156964Y-62634972D01*
X185160119Y-62636996D01*
X185163582Y-62639368D01*
X185318603Y-62745559D01*
X185467377Y-62855897D01*
X185470001Y-62857957D01*
X185618027Y-62980876D01*
X185755321Y-63105314D01*
X185757514Y-63107402D01*
X185892596Y-63242484D01*
X185894695Y-63244688D01*
X186019129Y-63381980D01*
X186142034Y-63529989D01*
X186144109Y-63532632D01*
X186254443Y-63681400D01*
X186363002Y-63839879D01*
X186365032Y-63843044D01*
X186460221Y-64001857D01*
X186553527Y-64169371D01*
X186555410Y-64173034D01*
X186634638Y-64340547D01*
X186711899Y-64515527D01*
X186713558Y-64519685D01*
X186776093Y-64694459D01*
X186836662Y-64875173D01*
X186838018Y-64879812D01*
X186883317Y-65060654D01*
X186926696Y-65245090D01*
X186927672Y-65250189D01*
X186955337Y-65436689D01*
X186981177Y-65621933D01*
X186981697Y-65627459D01*
X186991512Y-65827238D01*
X186999434Y-65998575D01*
X186999500Y-66001439D01*
X186999500Y-125998560D01*
X186999434Y-126001424D01*
X186991512Y-126172761D01*
X186981697Y-126372539D01*
X186981177Y-126378065D01*
X186955337Y-126563310D01*
X186927672Y-126749809D01*
X186926696Y-126754908D01*
X186883317Y-126939345D01*
X186838018Y-127120186D01*
X186836662Y-127124825D01*
X186776093Y-127305540D01*
X186713557Y-127480314D01*
X186711899Y-127484470D01*
X186634638Y-127659452D01*
X186555410Y-127826964D01*
X186553527Y-127830627D01*
X186460221Y-127998142D01*
X186365032Y-128156954D01*
X186363002Y-128160118D01*
X186254437Y-128318608D01*
X186144121Y-128467350D01*
X186142021Y-128470025D01*
X186019132Y-128618016D01*
X185894695Y-128755310D01*
X185892596Y-128757514D01*
X185757514Y-128892596D01*
X185755310Y-128894695D01*
X185618016Y-129019132D01*
X185470025Y-129142021D01*
X185467350Y-129144121D01*
X185318608Y-129254437D01*
X185160118Y-129363002D01*
X185156954Y-129365032D01*
X184998142Y-129460221D01*
X184830627Y-129553527D01*
X184826964Y-129555410D01*
X184659452Y-129634638D01*
X184484470Y-129711899D01*
X184480314Y-129713557D01*
X184305540Y-129776093D01*
X184124825Y-129836662D01*
X184120186Y-129838018D01*
X183939345Y-129883317D01*
X183754908Y-129926696D01*
X183749809Y-129927672D01*
X183563310Y-129955337D01*
X183378065Y-129981177D01*
X183372539Y-129981697D01*
X183172761Y-129991512D01*
X183001424Y-129999434D01*
X182998560Y-129999500D01*
X128001440Y-129999500D01*
X127998576Y-129999434D01*
X127827238Y-129991512D01*
X127627459Y-129981697D01*
X127621933Y-129981177D01*
X127436689Y-129955337D01*
X127250189Y-129927672D01*
X127245090Y-129926696D01*
X127060654Y-129883317D01*
X126879812Y-129838018D01*
X126875173Y-129836662D01*
X126694459Y-129776093D01*
X126519685Y-129713558D01*
X126515527Y-129711899D01*
X126340547Y-129634638D01*
X126173034Y-129555410D01*
X126169371Y-129553527D01*
X126001857Y-129460221D01*
X125843044Y-129365032D01*
X125839879Y-129363002D01*
X125730371Y-129287989D01*
X125681392Y-129254437D01*
X125532632Y-129144109D01*
X125529989Y-129142034D01*
X125381980Y-129019129D01*
X125244680Y-128894687D01*
X125242484Y-128892596D01*
X125107402Y-128757514D01*
X125105314Y-128755321D01*
X124980867Y-128618016D01*
X124857957Y-128470001D01*
X124855897Y-128467377D01*
X124745559Y-128318603D01*
X124636995Y-128160118D01*
X124634966Y-128156954D01*
X124539778Y-127998142D01*
X124512261Y-127948740D01*
X124446457Y-127830601D01*
X124444588Y-127826964D01*
X124365361Y-127659452D01*
X124288100Y-127484471D01*
X124286450Y-127480339D01*
X124223906Y-127305540D01*
X124163327Y-127124797D01*
X124161989Y-127120221D01*
X124116675Y-126939315D01*
X124116338Y-126937882D01*
X124073294Y-126754871D01*
X124072329Y-126749828D01*
X124044662Y-126563310D01*
X124018819Y-126378048D01*
X124018302Y-126372549D01*
X124008487Y-126172761D01*
X124000566Y-126001423D01*
X124000533Y-126000000D01*
X124594506Y-126000000D01*
X124612448Y-126330932D01*
X124614469Y-126368196D01*
X124614470Y-126368213D01*
X124674122Y-126732068D01*
X124674128Y-126732094D01*
X124772768Y-127087365D01*
X124772770Y-127087371D01*
X124772772Y-127087377D01*
X124772773Y-127087379D01*
X124787693Y-127124825D01*
X124909255Y-127429926D01*
X124909261Y-127429938D01*
X125081973Y-127755708D01*
X125081976Y-127755713D01*
X125081978Y-127755716D01*
X125288910Y-128060917D01*
X125527627Y-128341956D01*
X125795330Y-128595538D01*
X126088881Y-128818690D01*
X126404838Y-129008795D01*
X126404840Y-129008796D01*
X126404842Y-129008797D01*
X126404846Y-129008799D01*
X126692801Y-129142021D01*
X126739497Y-129163625D01*
X127088934Y-129281364D01*
X127449052Y-129360632D01*
X127815630Y-129400500D01*
X127815636Y-129400500D01*
X128184364Y-129400500D01*
X128184370Y-129400500D01*
X128550948Y-129360632D01*
X128911066Y-129281364D01*
X129260503Y-129163625D01*
X129595162Y-129008795D01*
X129911119Y-128818690D01*
X130204670Y-128595538D01*
X130472373Y-128341956D01*
X130711090Y-128060917D01*
X130918022Y-127755716D01*
X131090743Y-127429930D01*
X131227227Y-127087379D01*
X131312773Y-126779269D01*
X134949500Y-126779269D01*
X134952353Y-126809699D01*
X134952353Y-126809701D01*
X134982695Y-126896410D01*
X134997207Y-126937882D01*
X135077850Y-127047150D01*
X135187118Y-127127793D01*
X135229845Y-127142744D01*
X135315299Y-127172646D01*
X135345730Y-127175500D01*
X135345734Y-127175500D01*
X136654270Y-127175500D01*
X136684699Y-127172646D01*
X136684701Y-127172646D01*
X136759677Y-127146410D01*
X136812882Y-127127793D01*
X136922150Y-127047150D01*
X137002793Y-126937882D01*
X137026177Y-126871055D01*
X137047646Y-126809701D01*
X137047646Y-126809699D01*
X137050500Y-126779269D01*
X137050500Y-125750000D01*
X137457229Y-125750000D01*
X137912708Y-125750000D01*
X137979747Y-125769685D01*
X138025502Y-125822489D01*
X138035446Y-125891647D01*
X138031686Y-125908933D01*
X138025000Y-125931705D01*
X138025000Y-126068294D01*
X138031686Y-126091067D01*
X138031684Y-126160937D01*
X137993909Y-126219714D01*
X137930353Y-126248738D01*
X137912708Y-126250000D01*
X137457230Y-126250000D01*
X137465191Y-126330834D01*
X137525233Y-126528766D01*
X137622728Y-126711166D01*
X137622732Y-126711173D01*
X137753944Y-126871055D01*
X137913826Y-127002267D01*
X137913833Y-127002271D01*
X138096233Y-127099766D01*
X138250000Y-127146410D01*
X138250000Y-126587044D01*
X138269685Y-126520005D01*
X138322489Y-126474250D01*
X138391647Y-126464306D01*
X138397066Y-126465085D01*
X138466025Y-126475000D01*
X138466026Y-126475000D01*
X138533974Y-126475000D01*
X138533975Y-126475000D01*
X138603570Y-126464993D01*
X138608353Y-126464306D01*
X138677512Y-126474250D01*
X138730316Y-126520005D01*
X138750000Y-126587044D01*
X138750000Y-127146410D01*
X138903766Y-127099766D01*
X139086166Y-127002271D01*
X139086173Y-127002267D01*
X139246055Y-126871055D01*
X139377267Y-126711173D01*
X139377271Y-126711166D01*
X139474766Y-126528766D01*
X139534808Y-126330834D01*
X139542770Y-126250000D01*
X139087292Y-126250000D01*
X139020253Y-126230315D01*
X138974498Y-126177511D01*
X138974368Y-126176608D01*
X139949500Y-126176608D01*
X139953746Y-126219714D01*
X139964699Y-126330932D01*
X139994734Y-126429943D01*
X140024768Y-126528954D01*
X140122315Y-126711450D01*
X140153795Y-126749809D01*
X140253589Y-126871410D01*
X140350209Y-126950702D01*
X140413550Y-127002685D01*
X140596046Y-127100232D01*
X140794066Y-127160300D01*
X140794065Y-127160300D01*
X140814347Y-127162297D01*
X141000000Y-127180583D01*
X141205934Y-127160300D01*
X141403954Y-127100232D01*
X141586450Y-127002685D01*
X141746410Y-126871410D01*
X141877685Y-126711450D01*
X141975232Y-126528954D01*
X142035300Y-126330934D01*
X142050500Y-126176608D01*
X142449500Y-126176608D01*
X142453746Y-126219714D01*
X142464699Y-126330932D01*
X142494734Y-126429943D01*
X142524768Y-126528954D01*
X142622315Y-126711450D01*
X142653795Y-126749809D01*
X142753589Y-126871410D01*
X142850209Y-126950702D01*
X142913550Y-127002685D01*
X143096046Y-127100232D01*
X143294066Y-127160300D01*
X143294065Y-127160300D01*
X143312529Y-127162118D01*
X143500000Y-127180583D01*
X143705934Y-127160300D01*
X143903954Y-127100232D01*
X144086450Y-127002685D01*
X144246410Y-126871410D01*
X144301511Y-126804269D01*
X148949500Y-126804269D01*
X148952353Y-126834699D01*
X148952353Y-126834701D01*
X148988971Y-126939345D01*
X148997207Y-126962882D01*
X149077850Y-127072150D01*
X149187118Y-127152793D01*
X149208572Y-127160300D01*
X149315299Y-127197646D01*
X149345730Y-127200500D01*
X149345734Y-127200500D01*
X150654270Y-127200500D01*
X150684699Y-127197646D01*
X150684701Y-127197646D01*
X150756145Y-127172646D01*
X150812882Y-127152793D01*
X150922150Y-127072150D01*
X151002793Y-126962882D01*
X151026052Y-126896410D01*
X151047646Y-126834701D01*
X151047646Y-126834699D01*
X151050500Y-126804269D01*
X151050500Y-126201608D01*
X151449500Y-126201608D01*
X151454142Y-126248738D01*
X151464699Y-126355932D01*
X151469737Y-126372539D01*
X151524768Y-126553954D01*
X151622315Y-126736450D01*
X151633294Y-126749828D01*
X151753589Y-126896410D01*
X151834584Y-126962880D01*
X151913550Y-127027685D01*
X152096046Y-127125232D01*
X152294066Y-127185300D01*
X152294065Y-127185300D01*
X152312529Y-127187118D01*
X152500000Y-127205583D01*
X152705934Y-127185300D01*
X152903954Y-127125232D01*
X153086450Y-127027685D01*
X153246410Y-126896410D01*
X153377685Y-126736450D01*
X153475232Y-126553954D01*
X153535300Y-126355934D01*
X153550500Y-126201608D01*
X153550500Y-126000000D01*
X179594506Y-126000000D01*
X179612448Y-126330932D01*
X179614469Y-126368196D01*
X179614470Y-126368213D01*
X179674122Y-126732068D01*
X179674128Y-126732094D01*
X179772768Y-127087365D01*
X179772770Y-127087371D01*
X179772772Y-127087377D01*
X179772773Y-127087379D01*
X179787693Y-127124825D01*
X179909255Y-127429926D01*
X179909261Y-127429938D01*
X180081973Y-127755708D01*
X180081976Y-127755713D01*
X180081978Y-127755716D01*
X180288910Y-128060917D01*
X180527627Y-128341956D01*
X180795330Y-128595538D01*
X181088881Y-128818690D01*
X181404838Y-129008795D01*
X181404840Y-129008796D01*
X181404842Y-129008797D01*
X181404846Y-129008799D01*
X181692801Y-129142021D01*
X181739497Y-129163625D01*
X182088934Y-129281364D01*
X182449052Y-129360632D01*
X182815630Y-129400500D01*
X182815636Y-129400500D01*
X183184364Y-129400500D01*
X183184370Y-129400500D01*
X183550948Y-129360632D01*
X183911066Y-129281364D01*
X184260503Y-129163625D01*
X184595162Y-129008795D01*
X184911119Y-128818690D01*
X185204670Y-128595538D01*
X185472373Y-128341956D01*
X185711090Y-128060917D01*
X185918022Y-127755716D01*
X186090743Y-127429930D01*
X186227227Y-127087379D01*
X186325875Y-126732081D01*
X186359207Y-126528766D01*
X186385529Y-126368213D01*
X186385529Y-126368210D01*
X186385531Y-126368199D01*
X186405494Y-126000000D01*
X186385531Y-125631801D01*
X186360943Y-125481824D01*
X186325877Y-125267931D01*
X186325876Y-125267930D01*
X186325875Y-125267919D01*
X186287289Y-125128944D01*
X186227231Y-124912634D01*
X186227229Y-124912628D01*
X186227228Y-124912627D01*
X186227227Y-124912621D01*
X186090743Y-124570070D01*
X185918022Y-124244284D01*
X185711090Y-123939083D01*
X185472373Y-123658044D01*
X185204670Y-123404462D01*
X184911119Y-123181310D01*
X184595162Y-122991205D01*
X184595161Y-122991204D01*
X184595157Y-122991202D01*
X184595153Y-122991200D01*
X184260513Y-122836379D01*
X184260508Y-122836377D01*
X184260503Y-122836375D01*
X184090172Y-122778983D01*
X183911065Y-122718635D01*
X183550946Y-122639367D01*
X183184371Y-122599500D01*
X183184370Y-122599500D01*
X182815630Y-122599500D01*
X182815628Y-122599500D01*
X182449053Y-122639367D01*
X182088934Y-122718635D01*
X181818812Y-122809650D01*
X181739497Y-122836375D01*
X181739494Y-122836376D01*
X181739486Y-122836379D01*
X181404846Y-122991200D01*
X181404842Y-122991202D01*
X181169538Y-123132779D01*
X181088881Y-123181310D01*
X181030840Y-123225432D01*
X180795330Y-123404461D01*
X180795330Y-123404462D01*
X180527626Y-123658044D01*
X180288909Y-123939083D01*
X180081979Y-124244282D01*
X180081973Y-124244291D01*
X179909261Y-124570061D01*
X179909255Y-124570073D01*
X179772770Y-124912628D01*
X179772768Y-124912634D01*
X179674128Y-125267905D01*
X179674122Y-125267931D01*
X179614470Y-125631786D01*
X179614469Y-125631799D01*
X179614469Y-125631801D01*
X179594506Y-126000000D01*
X153550500Y-126000000D01*
X153550500Y-125798392D01*
X153535300Y-125644066D01*
X153475232Y-125446046D01*
X153377685Y-125263550D01*
X153322027Y-125195730D01*
X153246410Y-125103589D01*
X153116913Y-124997315D01*
X153086450Y-124972315D01*
X152903954Y-124874768D01*
X152705934Y-124814700D01*
X152705932Y-124814699D01*
X152705934Y-124814699D01*
X152500000Y-124794417D01*
X152294067Y-124814699D01*
X152096043Y-124874769D01*
X151996737Y-124927850D01*
X151913550Y-124972315D01*
X151913548Y-124972316D01*
X151913547Y-124972317D01*
X151753589Y-125103589D01*
X151622317Y-125263547D01*
X151622315Y-125263550D01*
X151608954Y-125288547D01*
X151524769Y-125446043D01*
X151464699Y-125644067D01*
X151460595Y-125685742D01*
X151449500Y-125798392D01*
X151449500Y-126201608D01*
X151050500Y-126201608D01*
X151050500Y-125195730D01*
X151047646Y-125165300D01*
X151047646Y-125165298D01*
X151002793Y-125037119D01*
X151002792Y-125037117D01*
X150922150Y-124927850D01*
X150812882Y-124847207D01*
X150812880Y-124847206D01*
X150684700Y-124802353D01*
X150654270Y-124799500D01*
X150654266Y-124799500D01*
X149345734Y-124799500D01*
X149345730Y-124799500D01*
X149315300Y-124802353D01*
X149315298Y-124802353D01*
X149187119Y-124847206D01*
X149187117Y-124847207D01*
X149077850Y-124927850D01*
X148997207Y-125037117D01*
X148997206Y-125037119D01*
X148952353Y-125165298D01*
X148952353Y-125165300D01*
X148949500Y-125195730D01*
X148949500Y-126804269D01*
X144301511Y-126804269D01*
X144377685Y-126711450D01*
X144475232Y-126528954D01*
X144535300Y-126330934D01*
X144550500Y-126176608D01*
X144550500Y-125823392D01*
X144535300Y-125669066D01*
X144500074Y-125552944D01*
X144499452Y-125483078D01*
X144531053Y-125429271D01*
X146646506Y-123313819D01*
X146707830Y-123280334D01*
X146734188Y-123277500D01*
X154272078Y-123277500D01*
X154277481Y-123277735D01*
X154317807Y-123281264D01*
X154356940Y-123270777D01*
X154362162Y-123269619D01*
X154402045Y-123262588D01*
X154402050Y-123262584D01*
X154407099Y-123260747D01*
X154423824Y-123253819D01*
X154428681Y-123251554D01*
X154428684Y-123251554D01*
X154461841Y-123228335D01*
X154466390Y-123225438D01*
X154501455Y-123205194D01*
X154527481Y-123174176D01*
X154531122Y-123170202D01*
X158631324Y-119070000D01*
X179406535Y-119070000D01*
X179865021Y-119070000D01*
X179932060Y-119089685D01*
X179977815Y-119142489D01*
X179987759Y-119211647D01*
X179984287Y-119227934D01*
X179966105Y-119291837D01*
X179966104Y-119291837D01*
X179976453Y-119403517D01*
X179978885Y-119412063D01*
X179978299Y-119481930D01*
X179940034Y-119540390D01*
X179876237Y-119568881D01*
X179859619Y-119570000D01*
X179408203Y-119570000D01*
X179424076Y-119627167D01*
X179424077Y-119627171D01*
X179508130Y-119785711D01*
X179624301Y-119922477D01*
X179767158Y-120031074D01*
X179930028Y-120106425D01*
X180105275Y-120144999D01*
X180105279Y-120145000D01*
X180570000Y-120145000D01*
X180570000Y-119744000D01*
X180589685Y-119676961D01*
X180642489Y-119631206D01*
X180694000Y-119620000D01*
X180946000Y-119620000D01*
X181013039Y-119639685D01*
X181058794Y-119692489D01*
X181070000Y-119744000D01*
X181070000Y-120145000D01*
X181489726Y-120145000D01*
X181489733Y-120144999D01*
X181623394Y-120130463D01*
X181623398Y-120130462D01*
X181793456Y-120073162D01*
X181947214Y-119980648D01*
X181947215Y-119980647D01*
X182077491Y-119857244D01*
X182178195Y-119708717D01*
X182178196Y-119708716D01*
X182233465Y-119570000D01*
X181774979Y-119570000D01*
X181707940Y-119550315D01*
X181662185Y-119497511D01*
X181652241Y-119428353D01*
X181655713Y-119412066D01*
X181673894Y-119348162D01*
X181673895Y-119348160D01*
X181663546Y-119236482D01*
X181663546Y-119236479D01*
X181663544Y-119236475D01*
X181661115Y-119227937D01*
X181661701Y-119158070D01*
X181699966Y-119099610D01*
X181763763Y-119071119D01*
X181780381Y-119070000D01*
X182231796Y-119070000D01*
X183586535Y-119070000D01*
X184045021Y-119070000D01*
X184112060Y-119089685D01*
X184157815Y-119142489D01*
X184167759Y-119211647D01*
X184164287Y-119227934D01*
X184146105Y-119291837D01*
X184146104Y-119291837D01*
X184156453Y-119403517D01*
X184158885Y-119412063D01*
X184158299Y-119481930D01*
X184120034Y-119540390D01*
X184056237Y-119568881D01*
X184039619Y-119570000D01*
X183588203Y-119570000D01*
X183604076Y-119627167D01*
X183604077Y-119627171D01*
X183688130Y-119785711D01*
X183804301Y-119922477D01*
X183947158Y-120031074D01*
X184110028Y-120106425D01*
X184285275Y-120144999D01*
X184285279Y-120145000D01*
X184750000Y-120145000D01*
X184750000Y-119744000D01*
X184769685Y-119676961D01*
X184822489Y-119631206D01*
X184874000Y-119620000D01*
X185126000Y-119620000D01*
X185193039Y-119639685D01*
X185238794Y-119692489D01*
X185250000Y-119744000D01*
X185250000Y-120145000D01*
X185669726Y-120145000D01*
X185669733Y-120144999D01*
X185803394Y-120130463D01*
X185803398Y-120130462D01*
X185973456Y-120073162D01*
X186127214Y-119980648D01*
X186127215Y-119980647D01*
X186257491Y-119857244D01*
X186358195Y-119708717D01*
X186358196Y-119708716D01*
X186413465Y-119570000D01*
X185954979Y-119570000D01*
X185887940Y-119550315D01*
X185842185Y-119497511D01*
X185832241Y-119428353D01*
X185835713Y-119412066D01*
X185853894Y-119348162D01*
X185853895Y-119348160D01*
X185843546Y-119236482D01*
X185843546Y-119236479D01*
X185843544Y-119236475D01*
X185841115Y-119227937D01*
X185841701Y-119158070D01*
X185879966Y-119099610D01*
X185943763Y-119071119D01*
X185960381Y-119070000D01*
X186411796Y-119070000D01*
X186395923Y-119012832D01*
X186395922Y-119012828D01*
X186311869Y-118854288D01*
X186195698Y-118717522D01*
X186052841Y-118608925D01*
X185889971Y-118533574D01*
X185714724Y-118495000D01*
X185250000Y-118495000D01*
X185250000Y-118896000D01*
X185230315Y-118963039D01*
X185177511Y-119008794D01*
X185126000Y-119020000D01*
X184874000Y-119020000D01*
X184806961Y-119000315D01*
X184761206Y-118947511D01*
X184750000Y-118896000D01*
X184750000Y-118495000D01*
X184330266Y-118495000D01*
X184196605Y-118509536D01*
X184196601Y-118509537D01*
X184026543Y-118566837D01*
X183872785Y-118659351D01*
X183872784Y-118659352D01*
X183742508Y-118782755D01*
X183641804Y-118931282D01*
X183641803Y-118931283D01*
X183586535Y-119069999D01*
X183586535Y-119070000D01*
X182231796Y-119070000D01*
X182215923Y-119012832D01*
X182215922Y-119012828D01*
X182131869Y-118854288D01*
X182015698Y-118717522D01*
X181872838Y-118608923D01*
X181872837Y-118608922D01*
X181719303Y-118537890D01*
X181666725Y-118491876D01*
X181647371Y-118424740D01*
X181667385Y-118357799D01*
X181695879Y-118326978D01*
X181730451Y-118300451D01*
X181822698Y-118180233D01*
X181880687Y-118040236D01*
X181900466Y-117890000D01*
X181880687Y-117739764D01*
X181822698Y-117599767D01*
X181730451Y-117479549D01*
X181610233Y-117387302D01*
X181610229Y-117387300D01*
X181546801Y-117361027D01*
X181470236Y-117329313D01*
X181456171Y-117327461D01*
X181357727Y-117314500D01*
X181357720Y-117314500D01*
X181282280Y-117314500D01*
X181282272Y-117314500D01*
X181169764Y-117329313D01*
X181169763Y-117329313D01*
X181029770Y-117387300D01*
X181029767Y-117387301D01*
X181029767Y-117387302D01*
X180909549Y-117479549D01*
X180863855Y-117539099D01*
X180817300Y-117599770D01*
X180759313Y-117739763D01*
X180759312Y-117739765D01*
X180739534Y-117889999D01*
X180739534Y-117890000D01*
X180759312Y-118040234D01*
X180759313Y-118040236D01*
X180816174Y-118177511D01*
X180817302Y-118180233D01*
X180909549Y-118300451D01*
X180909550Y-118300452D01*
X180936551Y-118321171D01*
X181021487Y-118386344D01*
X181062689Y-118442771D01*
X181070000Y-118484719D01*
X181070000Y-118896000D01*
X181050315Y-118963039D01*
X180997511Y-119008794D01*
X180946000Y-119020000D01*
X180694000Y-119020000D01*
X180626961Y-119000315D01*
X180581206Y-118947511D01*
X180570000Y-118896000D01*
X180570000Y-118495000D01*
X180150266Y-118495000D01*
X180016605Y-118509536D01*
X180016601Y-118509537D01*
X179846543Y-118566837D01*
X179692785Y-118659351D01*
X179692784Y-118659352D01*
X179562508Y-118782755D01*
X179461804Y-118931282D01*
X179461803Y-118931283D01*
X179406535Y-119069999D01*
X179406535Y-119070000D01*
X158631324Y-119070000D01*
X160301323Y-117400001D01*
X178484318Y-117400001D01*
X178504955Y-117556760D01*
X178504956Y-117556762D01*
X178522770Y-117599770D01*
X178565464Y-117702841D01*
X178661718Y-117828282D01*
X178787159Y-117924536D01*
X178933238Y-117985044D01*
X179011619Y-117995362D01*
X179089999Y-118005682D01*
X179090000Y-118005682D01*
X179090001Y-118005682D01*
X179142254Y-117998802D01*
X179246762Y-117985044D01*
X179392841Y-117924536D01*
X179518282Y-117828282D01*
X179614536Y-117702841D01*
X179675044Y-117556762D01*
X179695682Y-117400000D01*
X179694010Y-117387302D01*
X179675044Y-117243239D01*
X179675044Y-117243238D01*
X179614536Y-117097159D01*
X179614535Y-117097158D01*
X179614535Y-117097157D01*
X179570124Y-117039279D01*
X179544930Y-116974109D01*
X179544500Y-116963793D01*
X179544500Y-115778100D01*
X181109687Y-115778100D01*
X181127246Y-115900234D01*
X181164482Y-115981768D01*
X181178506Y-116012475D01*
X181259309Y-116105727D01*
X181363112Y-116172437D01*
X181363115Y-116172438D01*
X181363114Y-116172438D01*
X181481502Y-116207199D01*
X181481504Y-116207200D01*
X181481505Y-116207200D01*
X181604896Y-116207200D01*
X181604896Y-116207199D01*
X181705864Y-116177553D01*
X181723285Y-116172438D01*
X181723285Y-116172437D01*
X181723288Y-116172437D01*
X181827091Y-116105727D01*
X181907894Y-116012475D01*
X181959153Y-115900235D01*
X181976713Y-115778100D01*
X181959153Y-115655965D01*
X181907894Y-115543725D01*
X181907892Y-115543723D01*
X181907891Y-115543720D01*
X181873986Y-115504591D01*
X181844962Y-115441035D01*
X181843700Y-115423390D01*
X181843700Y-115026308D01*
X181863385Y-114959269D01*
X181873988Y-114945105D01*
X181907891Y-114905979D01*
X181907891Y-114905977D01*
X181907894Y-114905975D01*
X181959153Y-114793735D01*
X181976713Y-114671600D01*
X181959153Y-114549465D01*
X181907894Y-114437225D01*
X181827091Y-114343973D01*
X181723288Y-114277263D01*
X181723286Y-114277262D01*
X181723284Y-114277261D01*
X181723285Y-114277261D01*
X181604897Y-114242500D01*
X181604895Y-114242500D01*
X181481505Y-114242500D01*
X181481502Y-114242500D01*
X181363114Y-114277261D01*
X181259310Y-114343972D01*
X181259309Y-114343972D01*
X181259309Y-114343973D01*
X181224704Y-114383910D01*
X181178506Y-114437225D01*
X181178505Y-114437226D01*
X181127246Y-114549465D01*
X181109687Y-114671600D01*
X181127246Y-114793734D01*
X181178505Y-114905973D01*
X181178508Y-114905979D01*
X181212412Y-114945105D01*
X181241438Y-115008660D01*
X181242700Y-115026308D01*
X181242700Y-115423390D01*
X181223015Y-115490429D01*
X181212414Y-115504591D01*
X181178508Y-115543720D01*
X181178505Y-115543726D01*
X181127246Y-115655965D01*
X181109687Y-115778100D01*
X179544500Y-115778100D01*
X179544500Y-113062206D01*
X179564185Y-112995167D01*
X179570124Y-112986720D01*
X179584023Y-112968605D01*
X179614536Y-112928841D01*
X179675044Y-112782762D01*
X179695682Y-112626000D01*
X179675044Y-112469238D01*
X179614536Y-112323159D01*
X179518282Y-112197718D01*
X179392841Y-112101464D01*
X179246762Y-112040956D01*
X179246760Y-112040955D01*
X179090001Y-112020318D01*
X179089999Y-112020318D01*
X178933239Y-112040955D01*
X178933237Y-112040956D01*
X178787160Y-112101463D01*
X178661718Y-112197718D01*
X178565463Y-112323160D01*
X178504956Y-112469237D01*
X178504955Y-112469239D01*
X178484318Y-112625998D01*
X178484318Y-112626001D01*
X178504955Y-112782760D01*
X178504957Y-112782765D01*
X178565461Y-112928836D01*
X178565464Y-112928841D01*
X178609876Y-112986720D01*
X178635070Y-113051889D01*
X178635500Y-113062206D01*
X178635500Y-116963793D01*
X178615815Y-117030832D01*
X178609876Y-117039279D01*
X178565464Y-117097157D01*
X178504956Y-117243237D01*
X178504955Y-117243239D01*
X178484318Y-117399998D01*
X178484318Y-117400001D01*
X160301323Y-117400001D01*
X166978604Y-110722720D01*
X166982566Y-110719089D01*
X167013594Y-110693055D01*
X167033838Y-110657990D01*
X167036735Y-110653441D01*
X167059954Y-110620284D01*
X167059954Y-110620281D01*
X167062219Y-110615424D01*
X167069147Y-110598699D01*
X167070984Y-110593650D01*
X167070988Y-110593645D01*
X167078019Y-110553762D01*
X167079177Y-110548540D01*
X167089664Y-110509407D01*
X167086135Y-110469081D01*
X167085900Y-110463678D01*
X167085900Y-110430000D01*
X179406535Y-110430000D01*
X179865021Y-110430000D01*
X179932060Y-110449685D01*
X179977815Y-110502489D01*
X179987759Y-110571647D01*
X179984287Y-110587934D01*
X179966105Y-110651837D01*
X179966104Y-110651837D01*
X179976453Y-110763517D01*
X179978885Y-110772063D01*
X179978299Y-110841930D01*
X179940034Y-110900390D01*
X179876237Y-110928881D01*
X179859619Y-110930000D01*
X179408203Y-110930000D01*
X179424076Y-110987167D01*
X179424077Y-110987171D01*
X179508130Y-111145711D01*
X179624301Y-111282477D01*
X179767158Y-111391074D01*
X179930028Y-111466425D01*
X180105275Y-111504999D01*
X180105279Y-111505000D01*
X180570000Y-111505000D01*
X180570000Y-111104000D01*
X180589685Y-111036961D01*
X180642489Y-110991206D01*
X180694000Y-110980000D01*
X180946000Y-110980000D01*
X181013039Y-110999685D01*
X181058794Y-111052489D01*
X181070000Y-111104000D01*
X181070000Y-111515280D01*
X181050315Y-111582319D01*
X181021487Y-111613655D01*
X180909551Y-111699547D01*
X180817300Y-111819770D01*
X180759313Y-111959763D01*
X180759312Y-111959765D01*
X180739534Y-112109999D01*
X180739534Y-112110000D01*
X180759312Y-112260234D01*
X180759313Y-112260236D01*
X180817302Y-112400233D01*
X180909549Y-112520451D01*
X181029767Y-112612698D01*
X181169764Y-112670687D01*
X181282280Y-112685500D01*
X181282287Y-112685500D01*
X181357713Y-112685500D01*
X181357720Y-112685500D01*
X181470236Y-112670687D01*
X181610233Y-112612698D01*
X181730451Y-112520451D01*
X181822698Y-112400233D01*
X181880687Y-112260236D01*
X181900466Y-112110000D01*
X181880687Y-111959764D01*
X181822698Y-111819767D01*
X181730451Y-111699549D01*
X181692989Y-111670803D01*
X181651787Y-111614374D01*
X181647634Y-111544628D01*
X181681847Y-111483708D01*
X181728885Y-111454919D01*
X181793454Y-111433163D01*
X181947214Y-111340648D01*
X181947215Y-111340647D01*
X182077491Y-111217244D01*
X182178195Y-111068717D01*
X182178196Y-111068716D01*
X182233465Y-110930000D01*
X181774979Y-110930000D01*
X181707940Y-110910315D01*
X181662185Y-110857511D01*
X181652241Y-110788353D01*
X181655713Y-110772066D01*
X181670295Y-110720813D01*
X181673895Y-110708160D01*
X181663546Y-110596479D01*
X181663544Y-110596475D01*
X181661115Y-110587937D01*
X181661701Y-110518070D01*
X181699966Y-110459610D01*
X181763763Y-110431119D01*
X181780381Y-110430000D01*
X182231796Y-110430000D01*
X183586535Y-110430000D01*
X184045021Y-110430000D01*
X184112060Y-110449685D01*
X184157815Y-110502489D01*
X184167759Y-110571647D01*
X184164287Y-110587934D01*
X184146105Y-110651837D01*
X184146104Y-110651837D01*
X184156453Y-110763517D01*
X184158885Y-110772063D01*
X184158299Y-110841930D01*
X184120034Y-110900390D01*
X184056237Y-110928881D01*
X184039619Y-110930000D01*
X183588203Y-110930000D01*
X183604076Y-110987167D01*
X183604077Y-110987171D01*
X183688130Y-111145711D01*
X183804301Y-111282477D01*
X183947158Y-111391074D01*
X184110028Y-111466425D01*
X184285275Y-111504999D01*
X184285279Y-111505000D01*
X184750000Y-111505000D01*
X184750000Y-111104000D01*
X184769685Y-111036961D01*
X184822489Y-110991206D01*
X184874000Y-110980000D01*
X185126000Y-110980000D01*
X185193039Y-110999685D01*
X185238794Y-111052489D01*
X185250000Y-111104000D01*
X185250000Y-111505000D01*
X185669726Y-111505000D01*
X185669733Y-111504999D01*
X185803394Y-111490463D01*
X185803398Y-111490462D01*
X185973456Y-111433162D01*
X186127214Y-111340648D01*
X186127215Y-111340647D01*
X186257491Y-111217244D01*
X186358195Y-111068717D01*
X186358196Y-111068716D01*
X186413465Y-110930000D01*
X185954979Y-110930000D01*
X185887940Y-110910315D01*
X185842185Y-110857511D01*
X185832241Y-110788353D01*
X185835713Y-110772066D01*
X185850295Y-110720813D01*
X185853895Y-110708160D01*
X185843546Y-110596479D01*
X185843544Y-110596475D01*
X185841115Y-110587937D01*
X185841701Y-110518070D01*
X185879966Y-110459610D01*
X185943763Y-110431119D01*
X185960381Y-110430000D01*
X186411796Y-110430000D01*
X186395923Y-110372832D01*
X186395922Y-110372828D01*
X186311869Y-110214288D01*
X186195698Y-110077522D01*
X186052841Y-109968925D01*
X185889971Y-109893574D01*
X185714724Y-109855000D01*
X185250000Y-109855000D01*
X185250000Y-110256000D01*
X185230315Y-110323039D01*
X185177511Y-110368794D01*
X185126000Y-110380000D01*
X184874000Y-110380000D01*
X184806961Y-110360315D01*
X184761206Y-110307511D01*
X184750000Y-110256000D01*
X184750000Y-109855000D01*
X184330266Y-109855000D01*
X184196605Y-109869536D01*
X184196601Y-109869537D01*
X184026543Y-109926837D01*
X183872785Y-110019351D01*
X183872784Y-110019352D01*
X183742508Y-110142755D01*
X183641804Y-110291282D01*
X183641803Y-110291283D01*
X183586535Y-110429999D01*
X183586535Y-110430000D01*
X182231796Y-110430000D01*
X182215923Y-110372832D01*
X182215922Y-110372828D01*
X182131869Y-110214288D01*
X182015698Y-110077522D01*
X181872841Y-109968925D01*
X181709971Y-109893574D01*
X181534724Y-109855000D01*
X181070000Y-109855000D01*
X181070000Y-110256000D01*
X181050315Y-110323039D01*
X180997511Y-110368794D01*
X180946000Y-110380000D01*
X180694000Y-110380000D01*
X180626961Y-110360315D01*
X180581206Y-110307511D01*
X180570000Y-110256000D01*
X180570000Y-109855000D01*
X180150266Y-109855000D01*
X180016605Y-109869536D01*
X180016601Y-109869537D01*
X179846543Y-109926837D01*
X179692785Y-110019351D01*
X179692784Y-110019352D01*
X179562508Y-110142755D01*
X179461804Y-110291282D01*
X179461803Y-110291283D01*
X179406535Y-110429999D01*
X179406535Y-110430000D01*
X167085900Y-110430000D01*
X167085900Y-109362999D01*
X167571487Y-109362999D01*
X167589046Y-109485134D01*
X167607147Y-109524768D01*
X167640306Y-109597375D01*
X167721109Y-109690627D01*
X167824912Y-109757337D01*
X167824915Y-109757338D01*
X167824914Y-109757338D01*
X167943302Y-109792099D01*
X167943304Y-109792100D01*
X167943305Y-109792100D01*
X168066696Y-109792100D01*
X168066696Y-109792099D01*
X168185085Y-109757338D01*
X168185086Y-109757338D01*
X168261570Y-109708185D01*
X168328610Y-109688500D01*
X174084078Y-109688500D01*
X174089481Y-109688735D01*
X174129807Y-109692264D01*
X174168940Y-109681777D01*
X174174162Y-109680619D01*
X174214045Y-109673588D01*
X174214050Y-109673584D01*
X174219099Y-109671747D01*
X174235824Y-109664819D01*
X174240681Y-109662554D01*
X174240684Y-109662554D01*
X174273841Y-109639335D01*
X174278390Y-109636438D01*
X174313455Y-109616194D01*
X174339475Y-109585182D01*
X174343116Y-109581208D01*
X174478298Y-109446028D01*
X178424321Y-105500005D01*
X181019700Y-105500005D01*
X181038864Y-105731296D01*
X181038866Y-105731307D01*
X181095842Y-105956299D01*
X181189075Y-106168847D01*
X181316016Y-106363146D01*
X181316019Y-106363150D01*
X181316021Y-106363152D01*
X181473216Y-106533912D01*
X181473219Y-106533914D01*
X181473222Y-106533917D01*
X181656365Y-106676463D01*
X181656371Y-106676467D01*
X181656374Y-106676469D01*
X181860497Y-106786935D01*
X181974487Y-106826067D01*
X182080015Y-106862296D01*
X182080017Y-106862296D01*
X182080019Y-106862297D01*
X182308951Y-106900499D01*
X182308952Y-106900499D01*
X182541048Y-106900499D01*
X182541049Y-106900499D01*
X182769981Y-106862297D01*
X182989503Y-106786935D01*
X183193626Y-106676469D01*
X183197697Y-106673301D01*
X183341982Y-106560999D01*
X183376784Y-106533912D01*
X183533979Y-106363152D01*
X183660924Y-106168848D01*
X183754157Y-105956299D01*
X183811134Y-105731304D01*
X183811135Y-105731296D01*
X183830300Y-105500005D01*
X183830300Y-105499992D01*
X183811135Y-105268701D01*
X183811133Y-105268690D01*
X183754157Y-105043698D01*
X183660924Y-104831150D01*
X183533983Y-104636851D01*
X183533980Y-104636848D01*
X183533979Y-104636846D01*
X183376784Y-104466086D01*
X183376779Y-104466082D01*
X183376777Y-104466080D01*
X183193634Y-104323534D01*
X183193628Y-104323530D01*
X182989504Y-104213063D01*
X182989495Y-104213060D01*
X182769984Y-104137701D01*
X182598282Y-104109049D01*
X182541049Y-104099499D01*
X182308951Y-104099499D01*
X182263164Y-104107139D01*
X182080015Y-104137701D01*
X181860504Y-104213060D01*
X181860495Y-104213063D01*
X181656371Y-104323530D01*
X181656365Y-104323534D01*
X181473222Y-104466080D01*
X181473219Y-104466083D01*
X181316016Y-104636851D01*
X181189075Y-104831150D01*
X181095842Y-105043698D01*
X181038866Y-105268690D01*
X181038864Y-105268701D01*
X181019700Y-105499992D01*
X181019700Y-105500005D01*
X178424321Y-105500005D01*
X180549507Y-103374819D01*
X180610830Y-103341334D01*
X180637188Y-103338500D01*
X183501813Y-103338500D01*
X183568852Y-103358185D01*
X183589494Y-103374819D01*
X183923678Y-103709003D01*
X183957163Y-103770326D01*
X183952179Y-103840018D01*
X183950563Y-103844125D01*
X183949771Y-103846037D01*
X183949769Y-103846042D01*
X183949768Y-103846045D01*
X183922653Y-103935429D01*
X183889699Y-104044066D01*
X183869417Y-104249999D01*
X183889699Y-104455931D01*
X183919733Y-104554942D01*
X183949768Y-104653953D01*
X184047315Y-104836449D01*
X184047317Y-104836451D01*
X184178589Y-104996409D01*
X184263932Y-105066447D01*
X184338550Y-105127684D01*
X184521046Y-105225231D01*
X184719066Y-105285299D01*
X184719065Y-105285299D01*
X184727442Y-105286124D01*
X184925000Y-105305582D01*
X185130934Y-105285299D01*
X185328954Y-105225231D01*
X185511450Y-105127684D01*
X185671410Y-104996409D01*
X185802685Y-104836449D01*
X185900232Y-104653953D01*
X185960300Y-104455933D01*
X185980583Y-104249999D01*
X185960300Y-104044065D01*
X185900232Y-103846045D01*
X185802685Y-103663549D01*
X185750702Y-103600208D01*
X185671410Y-103503588D01*
X185511452Y-103372316D01*
X185511453Y-103372316D01*
X185511450Y-103372314D01*
X185328954Y-103274767D01*
X185130934Y-103214699D01*
X185130932Y-103214698D01*
X185130934Y-103214698D01*
X184943463Y-103196234D01*
X184925000Y-103194416D01*
X184924999Y-103194416D01*
X184719067Y-103214698D01*
X184610430Y-103247652D01*
X184521046Y-103274767D01*
X184521043Y-103274768D01*
X184521038Y-103274770D01*
X184519126Y-103275562D01*
X184518045Y-103275678D01*
X184515217Y-103276536D01*
X184515054Y-103275999D01*
X184449656Y-103283023D01*
X184387180Y-103251742D01*
X184384004Y-103248677D01*
X184329743Y-103194416D01*
X183930120Y-102794793D01*
X183926475Y-102790814D01*
X183900457Y-102759807D01*
X183900456Y-102759806D01*
X183889059Y-102753226D01*
X183865393Y-102739561D01*
X183860832Y-102736655D01*
X183847688Y-102727452D01*
X183827685Y-102713446D01*
X183827682Y-102713445D01*
X183822862Y-102711197D01*
X183806056Y-102704235D01*
X183801044Y-102702411D01*
X183761191Y-102695383D01*
X183755911Y-102694212D01*
X183716809Y-102683735D01*
X183681893Y-102686790D01*
X183676482Y-102687264D01*
X183671079Y-102687500D01*
X180467922Y-102687500D01*
X180462518Y-102687264D01*
X180457107Y-102686790D01*
X180422192Y-102683735D01*
X180422191Y-102683735D01*
X180383091Y-102694212D01*
X180377811Y-102695383D01*
X180337959Y-102702410D01*
X180332961Y-102704229D01*
X180316117Y-102711206D01*
X180311313Y-102713446D01*
X180278166Y-102736656D01*
X180273606Y-102739562D01*
X180238548Y-102759804D01*
X180238540Y-102759810D01*
X180212523Y-102790815D01*
X180208869Y-102794804D01*
X174002491Y-109001181D01*
X173941168Y-109034666D01*
X173914810Y-109037500D01*
X168328610Y-109037500D01*
X168261571Y-109017815D01*
X168261570Y-109017815D01*
X168185086Y-108968661D01*
X168066697Y-108933900D01*
X168066695Y-108933900D01*
X167943305Y-108933900D01*
X167943302Y-108933900D01*
X167824914Y-108968661D01*
X167721110Y-109035372D01*
X167721109Y-109035372D01*
X167721109Y-109035373D01*
X167640305Y-109128624D01*
X167640306Y-109128625D01*
X167640305Y-109128626D01*
X167589046Y-109240865D01*
X167571487Y-109362999D01*
X167085900Y-109362999D01*
X167085900Y-100519456D01*
X167105585Y-100452417D01*
X167116184Y-100438257D01*
X167125094Y-100427975D01*
X167176353Y-100315735D01*
X167193913Y-100193600D01*
X167176353Y-100071465D01*
X167125094Y-99959225D01*
X167044291Y-99865973D01*
X166940488Y-99799263D01*
X166940486Y-99799262D01*
X166940484Y-99799261D01*
X166940485Y-99799261D01*
X166822097Y-99764500D01*
X166822095Y-99764500D01*
X166698705Y-99764500D01*
X166698702Y-99764500D01*
X166580314Y-99799261D01*
X166469048Y-99870768D01*
X166467710Y-99868687D01*
X166416131Y-99892239D01*
X166398491Y-99893500D01*
X162359610Y-99893500D01*
X162292571Y-99873815D01*
X162292570Y-99873815D01*
X162216086Y-99824661D01*
X162097697Y-99789900D01*
X162097695Y-99789900D01*
X161974305Y-99789900D01*
X161974302Y-99789900D01*
X161855914Y-99824661D01*
X161752110Y-99891372D01*
X161671306Y-99984625D01*
X161671305Y-99984626D01*
X161620046Y-100096865D01*
X161602487Y-100219000D01*
X161620046Y-100341134D01*
X161664399Y-100438251D01*
X161671306Y-100453375D01*
X161752109Y-100546627D01*
X161855912Y-100613337D01*
X161855915Y-100613338D01*
X161855914Y-100613338D01*
X161974302Y-100648099D01*
X161974304Y-100648100D01*
X161974305Y-100648100D01*
X162097696Y-100648100D01*
X162097696Y-100648099D01*
X162189568Y-100621123D01*
X162216085Y-100613338D01*
X162216086Y-100613338D01*
X162292570Y-100564185D01*
X162359610Y-100544500D01*
X166310900Y-100544500D01*
X166377939Y-100564185D01*
X166423694Y-100616989D01*
X166434900Y-100668500D01*
X166434900Y-110294411D01*
X166415215Y-110361450D01*
X166398581Y-110382092D01*
X154190493Y-122590181D01*
X154129170Y-122623666D01*
X154102812Y-122626500D01*
X146564922Y-122626500D01*
X146559518Y-122626264D01*
X146554107Y-122625790D01*
X146519192Y-122622735D01*
X146519191Y-122622735D01*
X146480091Y-122633212D01*
X146474811Y-122634383D01*
X146434959Y-122641410D01*
X146429961Y-122643229D01*
X146413117Y-122650206D01*
X146408313Y-122652446D01*
X146375166Y-122675656D01*
X146370606Y-122678562D01*
X146335548Y-122698804D01*
X146335540Y-122698810D01*
X146309523Y-122729815D01*
X146305869Y-122733804D01*
X144122745Y-124916927D01*
X144061422Y-124950412D01*
X143991730Y-124945428D01*
X143976616Y-124938607D01*
X143928025Y-124912634D01*
X143903957Y-124899769D01*
X143813093Y-124872206D01*
X143705934Y-124839700D01*
X143705932Y-124839699D01*
X143705934Y-124839699D01*
X143500000Y-124819417D01*
X143294067Y-124839699D01*
X143096043Y-124899769D01*
X142996737Y-124952850D01*
X142913550Y-124997315D01*
X142913548Y-124997316D01*
X142913547Y-124997317D01*
X142753589Y-125128589D01*
X142639246Y-125267919D01*
X142622315Y-125288550D01*
X142622164Y-125288833D01*
X142524769Y-125471043D01*
X142464699Y-125669067D01*
X142456604Y-125751262D01*
X142449500Y-125823392D01*
X142449500Y-126176608D01*
X142050500Y-126176608D01*
X142050500Y-125823392D01*
X142035300Y-125669066D01*
X142000074Y-125552944D01*
X141999452Y-125483078D01*
X142031053Y-125429271D01*
X145670507Y-121789819D01*
X145731831Y-121756334D01*
X145758189Y-121753500D01*
X153510078Y-121753500D01*
X153515481Y-121753735D01*
X153555807Y-121757264D01*
X153594940Y-121746777D01*
X153600162Y-121745619D01*
X153640045Y-121738588D01*
X153640050Y-121738584D01*
X153645099Y-121736747D01*
X153661824Y-121729819D01*
X153666681Y-121727554D01*
X153666684Y-121727554D01*
X153699841Y-121704335D01*
X153704390Y-121701438D01*
X153739455Y-121681194D01*
X153765481Y-121650176D01*
X153769122Y-121646202D01*
X162254210Y-113161115D01*
X162258172Y-113157484D01*
X162289194Y-113131455D01*
X162309444Y-113096379D01*
X162312328Y-113091852D01*
X162335554Y-113058684D01*
X162335554Y-113058681D01*
X162337819Y-113053824D01*
X162344747Y-113037099D01*
X162346587Y-113032046D01*
X162346588Y-113032045D01*
X162353621Y-112992150D01*
X162354777Y-112986937D01*
X162365263Y-112947807D01*
X162361735Y-112907489D01*
X162361500Y-112902086D01*
X162361500Y-102446500D01*
X162381185Y-102379461D01*
X162433989Y-102333706D01*
X162485500Y-102322500D01*
X165395390Y-102322500D01*
X165462429Y-102342185D01*
X165462430Y-102342185D01*
X165538913Y-102391338D01*
X165657302Y-102426099D01*
X165657304Y-102426100D01*
X165657305Y-102426100D01*
X165780696Y-102426100D01*
X165780696Y-102426099D01*
X165899088Y-102391337D01*
X166002891Y-102324627D01*
X166083694Y-102231375D01*
X166134953Y-102119135D01*
X166152513Y-101997000D01*
X166134953Y-101874865D01*
X166083694Y-101762625D01*
X166002891Y-101669373D01*
X165899088Y-101602663D01*
X165899086Y-101602662D01*
X165899084Y-101602661D01*
X165899085Y-101602661D01*
X165780697Y-101567900D01*
X165780695Y-101567900D01*
X165657305Y-101567900D01*
X165657302Y-101567900D01*
X165538914Y-101602661D01*
X165538913Y-101602661D01*
X165462430Y-101651815D01*
X165395390Y-101671500D01*
X162359610Y-101671500D01*
X162292571Y-101651815D01*
X162292570Y-101651815D01*
X162216086Y-101602661D01*
X162097697Y-101567900D01*
X162097695Y-101567900D01*
X161974305Y-101567900D01*
X161974302Y-101567900D01*
X161855914Y-101602661D01*
X161752110Y-101669372D01*
X161671306Y-101762625D01*
X161671305Y-101762626D01*
X161620046Y-101874865D01*
X161602487Y-101996999D01*
X161602487Y-101997000D01*
X161603056Y-102000956D01*
X161620046Y-102119134D01*
X161649419Y-102183450D01*
X161671306Y-102231375D01*
X161680211Y-102241652D01*
X161709237Y-102305206D01*
X161710500Y-102322856D01*
X161710500Y-112732811D01*
X161690815Y-112799850D01*
X161674181Y-112820492D01*
X153428493Y-121066181D01*
X153367170Y-121099666D01*
X153340812Y-121102500D01*
X145588910Y-121102500D01*
X145583506Y-121102264D01*
X145577993Y-121101781D01*
X145543192Y-121098736D01*
X145504105Y-121109210D01*
X145498825Y-121110381D01*
X145458957Y-121117411D01*
X145453983Y-121119221D01*
X145437118Y-121126207D01*
X145432313Y-121128447D01*
X145399162Y-121151659D01*
X145394603Y-121154563D01*
X145359545Y-121174805D01*
X145333523Y-121205815D01*
X145329869Y-121209803D01*
X141622745Y-124916927D01*
X141561422Y-124950412D01*
X141491730Y-124945428D01*
X141476616Y-124938607D01*
X141428025Y-124912634D01*
X141403957Y-124899769D01*
X141313093Y-124872206D01*
X141205934Y-124839700D01*
X141205932Y-124839699D01*
X141205934Y-124839699D01*
X141018463Y-124821235D01*
X141000000Y-124819417D01*
X140999999Y-124819417D01*
X140794067Y-124839699D01*
X140596043Y-124899769D01*
X140496737Y-124952850D01*
X140413550Y-124997315D01*
X140413548Y-124997316D01*
X140413547Y-124997317D01*
X140253589Y-125128589D01*
X140139246Y-125267919D01*
X140122315Y-125288550D01*
X140122164Y-125288833D01*
X140024769Y-125471043D01*
X139964699Y-125669067D01*
X139956604Y-125751262D01*
X139949500Y-125823392D01*
X139949500Y-126176608D01*
X138974368Y-126176608D01*
X138964554Y-126108353D01*
X138968314Y-126091067D01*
X138975000Y-126068294D01*
X138975000Y-125931705D01*
X138968314Y-125908933D01*
X138968316Y-125839063D01*
X139006091Y-125780286D01*
X139069647Y-125751262D01*
X139087292Y-125750000D01*
X139542770Y-125750000D01*
X139534808Y-125669165D01*
X139474766Y-125471233D01*
X139377271Y-125288833D01*
X139377267Y-125288826D01*
X139246055Y-125128944D01*
X139086173Y-124997732D01*
X139086166Y-124997728D01*
X138903763Y-124900232D01*
X138750000Y-124853587D01*
X138750000Y-125412956D01*
X138730315Y-125479995D01*
X138677511Y-125525750D01*
X138608353Y-125535694D01*
X138582064Y-125531914D01*
X138533975Y-125525000D01*
X138466025Y-125525000D01*
X138391647Y-125535694D01*
X138322488Y-125525750D01*
X138269684Y-125479995D01*
X138250000Y-125412956D01*
X138250000Y-124853587D01*
X138096236Y-124900232D01*
X137913833Y-124997728D01*
X137913826Y-124997732D01*
X137753944Y-125128944D01*
X137622732Y-125288826D01*
X137622728Y-125288833D01*
X137525233Y-125471233D01*
X137465191Y-125669165D01*
X137457229Y-125750000D01*
X137050500Y-125750000D01*
X137050500Y-125220730D01*
X137047646Y-125190300D01*
X137047646Y-125190298D01*
X137002793Y-125062119D01*
X137002792Y-125062117D01*
X136984342Y-125037118D01*
X136922150Y-124952850D01*
X136812882Y-124872207D01*
X136812880Y-124872206D01*
X136684700Y-124827353D01*
X136654270Y-124824500D01*
X136654266Y-124824500D01*
X135345734Y-124824500D01*
X135345730Y-124824500D01*
X135315300Y-124827353D01*
X135315298Y-124827353D01*
X135187119Y-124872206D01*
X135187117Y-124872207D01*
X135077850Y-124952850D01*
X134997207Y-125062117D01*
X134997206Y-125062119D01*
X134952353Y-125190298D01*
X134952353Y-125190300D01*
X134949500Y-125220730D01*
X134949500Y-126779269D01*
X131312773Y-126779269D01*
X131325875Y-126732081D01*
X131359207Y-126528766D01*
X131385529Y-126368213D01*
X131385529Y-126368210D01*
X131385531Y-126368199D01*
X131405494Y-126000000D01*
X131385531Y-125631801D01*
X131360943Y-125481824D01*
X131325877Y-125267931D01*
X131325876Y-125267930D01*
X131325875Y-125267919D01*
X131287289Y-125128944D01*
X131227231Y-124912634D01*
X131227229Y-124912628D01*
X131227228Y-124912627D01*
X131227227Y-124912621D01*
X131090743Y-124570070D01*
X130918022Y-124244284D01*
X130711090Y-123939083D01*
X130472373Y-123658044D01*
X130204670Y-123404462D01*
X129911119Y-123181310D01*
X129595162Y-122991205D01*
X129595161Y-122991204D01*
X129595157Y-122991202D01*
X129595153Y-122991200D01*
X129260513Y-122836379D01*
X129260508Y-122836377D01*
X129260503Y-122836375D01*
X129090172Y-122778983D01*
X128911065Y-122718635D01*
X128550946Y-122639367D01*
X128184371Y-122599500D01*
X128184370Y-122599500D01*
X127815630Y-122599500D01*
X127815628Y-122599500D01*
X127449053Y-122639367D01*
X127088934Y-122718635D01*
X126818812Y-122809650D01*
X126739497Y-122836375D01*
X126739494Y-122836376D01*
X126739486Y-122836379D01*
X126404846Y-122991200D01*
X126404842Y-122991202D01*
X126169538Y-123132779D01*
X126088881Y-123181310D01*
X126030840Y-123225432D01*
X125795330Y-123404461D01*
X125795330Y-123404462D01*
X125527626Y-123658044D01*
X125288909Y-123939083D01*
X125081979Y-124244282D01*
X125081973Y-124244291D01*
X124909261Y-124570061D01*
X124909255Y-124570073D01*
X124772770Y-124912628D01*
X124772768Y-124912634D01*
X124674128Y-125267905D01*
X124674122Y-125267931D01*
X124614470Y-125631786D01*
X124614469Y-125631799D01*
X124614469Y-125631801D01*
X124594506Y-126000000D01*
X124000533Y-126000000D01*
X124000500Y-125998560D01*
X124000500Y-118250000D01*
X126853590Y-118250000D01*
X126900233Y-118403766D01*
X126997728Y-118586166D01*
X126997732Y-118586173D01*
X127128944Y-118746055D01*
X127288826Y-118877267D01*
X127288833Y-118877271D01*
X127471233Y-118974766D01*
X127669165Y-119034808D01*
X127749999Y-119042769D01*
X127750000Y-119042768D01*
X127750000Y-118587044D01*
X127769685Y-118520005D01*
X127822489Y-118474250D01*
X127891647Y-118464306D01*
X127897066Y-118465085D01*
X127966025Y-118475000D01*
X127966026Y-118475000D01*
X128033974Y-118475000D01*
X128033975Y-118475000D01*
X128103570Y-118464993D01*
X128108353Y-118464306D01*
X128177512Y-118474250D01*
X128230316Y-118520005D01*
X128250000Y-118587044D01*
X128250000Y-119042769D01*
X128330834Y-119034808D01*
X128528766Y-118974766D01*
X128711166Y-118877271D01*
X128711173Y-118877267D01*
X128871055Y-118746055D01*
X129002267Y-118586173D01*
X129002271Y-118586166D01*
X129099766Y-118403766D01*
X129146410Y-118250000D01*
X128587292Y-118250000D01*
X128520253Y-118230315D01*
X128474498Y-118177511D01*
X128464554Y-118108353D01*
X128468314Y-118091067D01*
X128475000Y-118068294D01*
X128475000Y-117931705D01*
X128468314Y-117908933D01*
X128468316Y-117839063D01*
X128506091Y-117780286D01*
X128569647Y-117751262D01*
X128587292Y-117750000D01*
X129146410Y-117750000D01*
X129099766Y-117596233D01*
X129002271Y-117413833D01*
X129002267Y-117413826D01*
X128871055Y-117253944D01*
X128711173Y-117122732D01*
X128711166Y-117122728D01*
X128528766Y-117025233D01*
X128330834Y-116965191D01*
X128250000Y-116957229D01*
X128250000Y-117412956D01*
X128230315Y-117479995D01*
X128177511Y-117525750D01*
X128108353Y-117535694D01*
X128082064Y-117531914D01*
X128033975Y-117525000D01*
X127966025Y-117525000D01*
X127891647Y-117535694D01*
X127822488Y-117525750D01*
X127769684Y-117479995D01*
X127750000Y-117412956D01*
X127750000Y-116957229D01*
X127669165Y-116965191D01*
X127471233Y-117025233D01*
X127288833Y-117122728D01*
X127288826Y-117122732D01*
X127128944Y-117253944D01*
X126997732Y-117413826D01*
X126997728Y-117413833D01*
X126900233Y-117596233D01*
X126853590Y-117750000D01*
X127412708Y-117750000D01*
X127479747Y-117769685D01*
X127525502Y-117822489D01*
X127535446Y-117891647D01*
X127531686Y-117908933D01*
X127525000Y-117931705D01*
X127525000Y-118068294D01*
X127531686Y-118091067D01*
X127531684Y-118160937D01*
X127493909Y-118219714D01*
X127430353Y-118248738D01*
X127412708Y-118250000D01*
X126853590Y-118250000D01*
X124000500Y-118250000D01*
X124000500Y-115499999D01*
X126819417Y-115499999D01*
X126839699Y-115705932D01*
X126839700Y-115705934D01*
X126899768Y-115903954D01*
X126997315Y-116086450D01*
X126997317Y-116086452D01*
X127128589Y-116246410D01*
X127225209Y-116325702D01*
X127288550Y-116377685D01*
X127471046Y-116475232D01*
X127669066Y-116535300D01*
X127669065Y-116535300D01*
X127707647Y-116539100D01*
X127823392Y-116550500D01*
X127823395Y-116550500D01*
X128176605Y-116550500D01*
X128176608Y-116550500D01*
X128330934Y-116535300D01*
X128528954Y-116475232D01*
X128711450Y-116377685D01*
X128871410Y-116246410D01*
X128871885Y-116245830D01*
X128872212Y-116245608D01*
X128875713Y-116242107D01*
X128876377Y-116242771D01*
X128929632Y-116206499D01*
X128967735Y-116200500D01*
X130221952Y-116200500D01*
X130225697Y-116200613D01*
X130233042Y-116201057D01*
X130287606Y-116204358D01*
X130325314Y-116197447D01*
X130348621Y-116193177D01*
X130352325Y-116192613D01*
X130370170Y-116190446D01*
X130413872Y-116185140D01*
X130423335Y-116181550D01*
X130444961Y-116175522D01*
X130445893Y-116175351D01*
X130454932Y-116173695D01*
X130511512Y-116148229D01*
X130514942Y-116146809D01*
X130572930Y-116124818D01*
X130581266Y-116119062D01*
X130600821Y-116108034D01*
X130610057Y-116103878D01*
X130658896Y-116065613D01*
X130661876Y-116063421D01*
X130712929Y-116028183D01*
X130754065Y-115981748D01*
X130756599Y-115979056D01*
X138453608Y-108282047D01*
X138456300Y-108279513D01*
X138502735Y-108238377D01*
X138537979Y-108187314D01*
X138540169Y-108184338D01*
X138578429Y-108135505D01*
X138582581Y-108126276D01*
X138593614Y-108106716D01*
X138593971Y-108106198D01*
X138599370Y-108098378D01*
X138621364Y-108040381D01*
X138622783Y-108036953D01*
X138648246Y-107980380D01*
X138650072Y-107970413D01*
X138656100Y-107948788D01*
X138659692Y-107939320D01*
X138667167Y-107877757D01*
X138667731Y-107874053D01*
X138672008Y-107850706D01*
X138678909Y-107813054D01*
X138675165Y-107751155D01*
X138675052Y-107747411D01*
X138675052Y-100867777D01*
X138659692Y-100741283D01*
X138659691Y-100741277D01*
X138637782Y-100683510D01*
X138599370Y-100582222D01*
X138502735Y-100442223D01*
X138383343Y-100336451D01*
X138375401Y-100329415D01*
X138224778Y-100250362D01*
X138059608Y-100209652D01*
X137889496Y-100209652D01*
X137724325Y-100250362D01*
X137573702Y-100329415D01*
X137462457Y-100427970D01*
X137450853Y-100438251D01*
X137446368Y-100442224D01*
X137349734Y-100582220D01*
X137289412Y-100741277D01*
X137289411Y-100741283D01*
X137274052Y-100867777D01*
X137274052Y-107428928D01*
X137254367Y-107495967D01*
X137237733Y-107516609D01*
X129991162Y-114763181D01*
X129929839Y-114796666D01*
X129903481Y-114799500D01*
X128967735Y-114799500D01*
X128900696Y-114779815D01*
X128875880Y-114757725D01*
X128875713Y-114757893D01*
X128872834Y-114755014D01*
X128871885Y-114754169D01*
X128871408Y-114753588D01*
X128711452Y-114622317D01*
X128711453Y-114622317D01*
X128711450Y-114622315D01*
X128528954Y-114524768D01*
X128330934Y-114464700D01*
X128330932Y-114464699D01*
X128330934Y-114464699D01*
X128211805Y-114452966D01*
X128176608Y-114449500D01*
X127823392Y-114449500D01*
X127785298Y-114453251D01*
X127669067Y-114464699D01*
X127471043Y-114524769D01*
X127360898Y-114583643D01*
X127288550Y-114622315D01*
X127288548Y-114622316D01*
X127288547Y-114622317D01*
X127128589Y-114753589D01*
X127003528Y-114905979D01*
X126997315Y-114913550D01*
X126961765Y-114980059D01*
X126899769Y-115096043D01*
X126839699Y-115294067D01*
X126819417Y-115499999D01*
X124000500Y-115499999D01*
X124000500Y-113000000D01*
X126819417Y-113000000D01*
X126839699Y-113205932D01*
X126839700Y-113205934D01*
X126899768Y-113403954D01*
X126997315Y-113586450D01*
X126997317Y-113586452D01*
X127128589Y-113746410D01*
X127225209Y-113825702D01*
X127288550Y-113877685D01*
X127471046Y-113975232D01*
X127669066Y-114035300D01*
X127669065Y-114035300D01*
X127707647Y-114039100D01*
X127823392Y-114050500D01*
X127823395Y-114050500D01*
X128176605Y-114050500D01*
X128176608Y-114050500D01*
X128330934Y-114035300D01*
X128528954Y-113975232D01*
X128711450Y-113877685D01*
X128871410Y-113746410D01*
X129002685Y-113586450D01*
X129100232Y-113403954D01*
X129160300Y-113205934D01*
X129180583Y-113000000D01*
X129160300Y-112794066D01*
X129100232Y-112596046D01*
X129002685Y-112413550D01*
X128950702Y-112350209D01*
X128871410Y-112253589D01*
X128711452Y-112122317D01*
X128711453Y-112122317D01*
X128711450Y-112122315D01*
X128528954Y-112024768D01*
X128330934Y-111964700D01*
X128330932Y-111964699D01*
X128330934Y-111964699D01*
X128211805Y-111952966D01*
X128176608Y-111949500D01*
X127823392Y-111949500D01*
X127785298Y-111953251D01*
X127669067Y-111964699D01*
X127471043Y-112024769D01*
X127360898Y-112083643D01*
X127288550Y-112122315D01*
X127288548Y-112122316D01*
X127288547Y-112122317D01*
X127128589Y-112253589D01*
X126997317Y-112413547D01*
X126997315Y-112413550D01*
X126967549Y-112469238D01*
X126899769Y-112596043D01*
X126839699Y-112794067D01*
X126819417Y-113000000D01*
X124000500Y-113000000D01*
X124000500Y-110499999D01*
X126819417Y-110499999D01*
X126839699Y-110705932D01*
X126859760Y-110772063D01*
X126899768Y-110903954D01*
X126997315Y-111086450D01*
X126997317Y-111086452D01*
X127128589Y-111246410D01*
X127225209Y-111325702D01*
X127288550Y-111377685D01*
X127471046Y-111475232D01*
X127669066Y-111535300D01*
X127669065Y-111535300D01*
X127707647Y-111539100D01*
X127823392Y-111550500D01*
X127823395Y-111550500D01*
X128176605Y-111550500D01*
X128176608Y-111550500D01*
X128330934Y-111535300D01*
X128528954Y-111475232D01*
X128711450Y-111377685D01*
X128871410Y-111246410D01*
X129002685Y-111086450D01*
X129100232Y-110903954D01*
X129160300Y-110705934D01*
X129180583Y-110500000D01*
X129160300Y-110294066D01*
X129100232Y-110096046D01*
X129002685Y-109913550D01*
X128950702Y-109850209D01*
X128871410Y-109753589D01*
X128730303Y-109637787D01*
X128711450Y-109622315D01*
X128528954Y-109524768D01*
X128330934Y-109464700D01*
X128330932Y-109464699D01*
X128330934Y-109464699D01*
X128211805Y-109452966D01*
X128176608Y-109449500D01*
X127823392Y-109449500D01*
X127785298Y-109453251D01*
X127669067Y-109464699D01*
X127471043Y-109524769D01*
X127365478Y-109581196D01*
X127288550Y-109622315D01*
X127288548Y-109622316D01*
X127288547Y-109622317D01*
X127128589Y-109753589D01*
X126997317Y-109913547D01*
X126899769Y-110096043D01*
X126839699Y-110294067D01*
X126819417Y-110499999D01*
X124000500Y-110499999D01*
X124000500Y-108654269D01*
X126824500Y-108654269D01*
X126827353Y-108684699D01*
X126827353Y-108684701D01*
X126872206Y-108812880D01*
X126872207Y-108812882D01*
X126952850Y-108922150D01*
X127062118Y-109002793D01*
X127104845Y-109017744D01*
X127190299Y-109047646D01*
X127220730Y-109050500D01*
X127220734Y-109050500D01*
X128779270Y-109050500D01*
X128809699Y-109047646D01*
X128809701Y-109047646D01*
X128894951Y-109017815D01*
X128937882Y-109002793D01*
X129047150Y-108922150D01*
X129127793Y-108812882D01*
X129150219Y-108748790D01*
X129172646Y-108684701D01*
X129172646Y-108684699D01*
X129175500Y-108654269D01*
X129175500Y-107345730D01*
X129172646Y-107315300D01*
X129172646Y-107315298D01*
X129127793Y-107187119D01*
X129127792Y-107187117D01*
X129047150Y-107077850D01*
X128937882Y-106997207D01*
X128937880Y-106997206D01*
X128809700Y-106952353D01*
X128779270Y-106949500D01*
X128779266Y-106949500D01*
X127220734Y-106949500D01*
X127220730Y-106949500D01*
X127190300Y-106952353D01*
X127190298Y-106952353D01*
X127062119Y-106997206D01*
X127062117Y-106997207D01*
X126952850Y-107077850D01*
X126872207Y-107187117D01*
X126872206Y-107187119D01*
X126827353Y-107315298D01*
X126827353Y-107315300D01*
X126824500Y-107345730D01*
X126824500Y-108654269D01*
X124000500Y-108654269D01*
X124000500Y-101597000D01*
X126794417Y-101597000D01*
X126814699Y-101802932D01*
X126814700Y-101802934D01*
X126874768Y-102000954D01*
X126972315Y-102183450D01*
X126972317Y-102183452D01*
X127103589Y-102343410D01*
X127200209Y-102422702D01*
X127263550Y-102474685D01*
X127446046Y-102572232D01*
X127644066Y-102632300D01*
X127644065Y-102632300D01*
X127682647Y-102636100D01*
X127798392Y-102647500D01*
X127798395Y-102647500D01*
X128201605Y-102647500D01*
X128201608Y-102647500D01*
X128355934Y-102632300D01*
X128553954Y-102572232D01*
X128736450Y-102474685D01*
X128896410Y-102343410D01*
X129027685Y-102183450D01*
X129125232Y-102000954D01*
X129185300Y-101802934D01*
X129205583Y-101597000D01*
X129185300Y-101391066D01*
X129125232Y-101193046D01*
X129027685Y-101010550D01*
X128975702Y-100947209D01*
X128896410Y-100850589D01*
X128763218Y-100741283D01*
X128736450Y-100719315D01*
X128553954Y-100621768D01*
X128355934Y-100561700D01*
X128355932Y-100561699D01*
X128355934Y-100561699D01*
X128236805Y-100549966D01*
X128201608Y-100546500D01*
X127798392Y-100546500D01*
X127760298Y-100550251D01*
X127644067Y-100561699D01*
X127473840Y-100613337D01*
X127461801Y-100616989D01*
X127446043Y-100621769D01*
X127358617Y-100668500D01*
X127263550Y-100719315D01*
X127263548Y-100719316D01*
X127263547Y-100719317D01*
X127103589Y-100850589D01*
X126972317Y-101010547D01*
X126874769Y-101193043D01*
X126814699Y-101391067D01*
X126794417Y-101597000D01*
X124000500Y-101597000D01*
X124000500Y-99751269D01*
X126799500Y-99751269D01*
X126802353Y-99781699D01*
X126802353Y-99781701D01*
X126847206Y-99909880D01*
X126847207Y-99909882D01*
X126927850Y-100019150D01*
X127037118Y-100099793D01*
X127079845Y-100114743D01*
X127165299Y-100144646D01*
X127195730Y-100147500D01*
X127195734Y-100147500D01*
X128804270Y-100147500D01*
X128834699Y-100144646D01*
X128834701Y-100144646D01*
X128898790Y-100122219D01*
X128962882Y-100099793D01*
X129072150Y-100019150D01*
X129152793Y-99909882D01*
X129180693Y-99830149D01*
X129197646Y-99781701D01*
X129197646Y-99781699D01*
X129200500Y-99751269D01*
X129200500Y-98442730D01*
X129197646Y-98412300D01*
X129197646Y-98412298D01*
X129152793Y-98284119D01*
X129152792Y-98284117D01*
X129072150Y-98174850D01*
X128962882Y-98094207D01*
X128962880Y-98094206D01*
X128834700Y-98049353D01*
X128804270Y-98046500D01*
X128804266Y-98046500D01*
X127195734Y-98046500D01*
X127195730Y-98046500D01*
X127165300Y-98049353D01*
X127165298Y-98049353D01*
X127037119Y-98094206D01*
X127037117Y-98094207D01*
X126927850Y-98174850D01*
X126847207Y-98284117D01*
X126847206Y-98284119D01*
X126802353Y-98412298D01*
X126802353Y-98412300D01*
X126799500Y-98442730D01*
X126799500Y-99751269D01*
X124000500Y-99751269D01*
X124000500Y-95266000D01*
X134119687Y-95266000D01*
X134137246Y-95388134D01*
X134141132Y-95396642D01*
X134188506Y-95500375D01*
X134269309Y-95593627D01*
X134373112Y-95660337D01*
X134373115Y-95660338D01*
X134373114Y-95660338D01*
X134491502Y-95695099D01*
X134491504Y-95695100D01*
X134491505Y-95695100D01*
X134614896Y-95695100D01*
X134614896Y-95695099D01*
X134733285Y-95660338D01*
X134733286Y-95660338D01*
X134809770Y-95611185D01*
X134876810Y-95591500D01*
X151679390Y-95591500D01*
X151746429Y-95611185D01*
X151746430Y-95611185D01*
X151822913Y-95660338D01*
X151941302Y-95695099D01*
X151941304Y-95695100D01*
X151941305Y-95695100D01*
X152064695Y-95695100D01*
X152142175Y-95672350D01*
X152212043Y-95672350D01*
X152270822Y-95710124D01*
X152299847Y-95773679D01*
X152289904Y-95842838D01*
X152264790Y-95879008D01*
X149112803Y-99030996D01*
X149108814Y-99034651D01*
X149077805Y-99060671D01*
X149057562Y-99095732D01*
X149054656Y-99100292D01*
X149031446Y-99133439D01*
X149029206Y-99138243D01*
X149022229Y-99155087D01*
X149020410Y-99160085D01*
X149013383Y-99199937D01*
X149012212Y-99205217D01*
X149001735Y-99244317D01*
X149005264Y-99284639D01*
X149005500Y-99290046D01*
X149005500Y-104970417D01*
X148985815Y-105037456D01*
X148933011Y-105083211D01*
X148928951Y-105084979D01*
X148927045Y-105085768D01*
X148848633Y-105127681D01*
X148744550Y-105183315D01*
X148744548Y-105183316D01*
X148744547Y-105183317D01*
X148584589Y-105314589D01*
X148453317Y-105474547D01*
X148453315Y-105474550D01*
X148431300Y-105515737D01*
X148355769Y-105657043D01*
X148295699Y-105855067D01*
X148275417Y-106060999D01*
X148295699Y-106266932D01*
X148295700Y-106266934D01*
X148355768Y-106464954D01*
X148453315Y-106647450D01*
X148477130Y-106676469D01*
X148584589Y-106807410D01*
X148622706Y-106838691D01*
X148744550Y-106938685D01*
X148927046Y-107036232D01*
X149125066Y-107096300D01*
X149125065Y-107096300D01*
X149143529Y-107098118D01*
X149331000Y-107116583D01*
X149536934Y-107096300D01*
X149734954Y-107036232D01*
X149917450Y-106938685D01*
X150077410Y-106807410D01*
X150208685Y-106647450D01*
X150306232Y-106464954D01*
X150366300Y-106266934D01*
X150386583Y-106061000D01*
X150815417Y-106061000D01*
X150835699Y-106266932D01*
X150835700Y-106266934D01*
X150895768Y-106464954D01*
X150993315Y-106647450D01*
X151017130Y-106676469D01*
X151124589Y-106807410D01*
X151162706Y-106838691D01*
X151284550Y-106938685D01*
X151467046Y-107036232D01*
X151665066Y-107096300D01*
X151665065Y-107096300D01*
X151683529Y-107098118D01*
X151871000Y-107116583D01*
X152076934Y-107096300D01*
X152274954Y-107036232D01*
X152457450Y-106938685D01*
X152617410Y-106807410D01*
X152617410Y-106807409D01*
X152617835Y-106807061D01*
X152682145Y-106779748D01*
X152751013Y-106791539D01*
X152802573Y-106838691D01*
X152820500Y-106902914D01*
X152820500Y-114299078D01*
X152820264Y-114304485D01*
X152816735Y-114344808D01*
X152827212Y-114383910D01*
X152828383Y-114389190D01*
X152835411Y-114429043D01*
X152837235Y-114434055D01*
X152844197Y-114450861D01*
X152846445Y-114455681D01*
X152846446Y-114455684D01*
X152852759Y-114464700D01*
X152869655Y-114488831D01*
X152872561Y-114493392D01*
X152892806Y-114528455D01*
X152923815Y-114554475D01*
X152927805Y-114558131D01*
X155481805Y-117112131D01*
X155515290Y-117173454D01*
X155516862Y-117182165D01*
X155524046Y-117232131D01*
X155524047Y-117232136D01*
X155529118Y-117243239D01*
X155575306Y-117344375D01*
X155656109Y-117437627D01*
X155759912Y-117504337D01*
X155759915Y-117504338D01*
X155759914Y-117504338D01*
X155878302Y-117539099D01*
X155878304Y-117539100D01*
X155878305Y-117539100D01*
X156001696Y-117539100D01*
X156001696Y-117539099D01*
X156120088Y-117504337D01*
X156223891Y-117437627D01*
X156304694Y-117344375D01*
X156355953Y-117232135D01*
X156373513Y-117110000D01*
X156355953Y-116987865D01*
X156304694Y-116875625D01*
X156223891Y-116782373D01*
X156120088Y-116715663D01*
X156120086Y-116715662D01*
X156120084Y-116715661D01*
X156120085Y-116715661D01*
X155993186Y-116678401D01*
X155993970Y-116675729D01*
X155943383Y-116652614D01*
X155936925Y-116646599D01*
X153507819Y-114217492D01*
X153474334Y-114156169D01*
X153471500Y-114129811D01*
X153471500Y-106910475D01*
X153491185Y-106843436D01*
X153543989Y-106797681D01*
X153613147Y-106787737D01*
X153674165Y-106814622D01*
X153824826Y-106938267D01*
X153824833Y-106938271D01*
X154007233Y-107035766D01*
X154161000Y-107082410D01*
X154161000Y-106673301D01*
X154180685Y-106606262D01*
X154233489Y-106560507D01*
X154302647Y-106550563D01*
X154375237Y-106561000D01*
X154375238Y-106561000D01*
X154446762Y-106561000D01*
X154446763Y-106561000D01*
X154519353Y-106550563D01*
X154588512Y-106560507D01*
X154641315Y-106606262D01*
X154661000Y-106673301D01*
X154661000Y-107082410D01*
X154814766Y-107035766D01*
X154997166Y-106938271D01*
X154997173Y-106938267D01*
X155157055Y-106807055D01*
X155288267Y-106647173D01*
X155288271Y-106647166D01*
X155385766Y-106464766D01*
X155432410Y-106311000D01*
X155024347Y-106311000D01*
X154957308Y-106291315D01*
X154911553Y-106238511D01*
X154901609Y-106169353D01*
X154905369Y-106152067D01*
X154911000Y-106132888D01*
X154911000Y-106061000D01*
X155895417Y-106061000D01*
X155915699Y-106266932D01*
X155915700Y-106266934D01*
X155975768Y-106464954D01*
X156073315Y-106647450D01*
X156097130Y-106676469D01*
X156204589Y-106807410D01*
X156242706Y-106838691D01*
X156364550Y-106938685D01*
X156547046Y-107036232D01*
X156745066Y-107096300D01*
X156745065Y-107096300D01*
X156763529Y-107098118D01*
X156951000Y-107116583D01*
X157156934Y-107096300D01*
X157354954Y-107036232D01*
X157537450Y-106938685D01*
X157547116Y-106930752D01*
X158440500Y-106930752D01*
X158452131Y-106989229D01*
X158452132Y-106989230D01*
X158496447Y-107055552D01*
X158562769Y-107099867D01*
X158562770Y-107099868D01*
X158621247Y-107111499D01*
X158621250Y-107111500D01*
X158621252Y-107111500D01*
X160360750Y-107111500D01*
X160360751Y-107111499D01*
X160375568Y-107108552D01*
X160419229Y-107099868D01*
X160419229Y-107099867D01*
X160419231Y-107099867D01*
X160485552Y-107055552D01*
X160529867Y-106989231D01*
X160529867Y-106989229D01*
X160529868Y-106989229D01*
X160539922Y-106938682D01*
X160541500Y-106930748D01*
X160541500Y-105191252D01*
X160541500Y-105191251D01*
X160541500Y-105191249D01*
X160541499Y-105191247D01*
X160529868Y-105132770D01*
X160529867Y-105132769D01*
X160485552Y-105066447D01*
X160419230Y-105022132D01*
X160419229Y-105022131D01*
X160360752Y-105010500D01*
X160360748Y-105010500D01*
X158621252Y-105010500D01*
X158621247Y-105010500D01*
X158562770Y-105022131D01*
X158562769Y-105022132D01*
X158496447Y-105066447D01*
X158452132Y-105132769D01*
X158452131Y-105132770D01*
X158440500Y-105191247D01*
X158440500Y-106930752D01*
X157547116Y-106930752D01*
X157697410Y-106807410D01*
X157828685Y-106647450D01*
X157926232Y-106464954D01*
X157986300Y-106266934D01*
X158006583Y-106061000D01*
X157986300Y-105855066D01*
X157926232Y-105657046D01*
X157828685Y-105474550D01*
X157776702Y-105411209D01*
X157697410Y-105314589D01*
X157547121Y-105191252D01*
X157537450Y-105183315D01*
X157354954Y-105085768D01*
X157156934Y-105025700D01*
X157156932Y-105025699D01*
X157156934Y-105025699D01*
X156951000Y-105005417D01*
X156745067Y-105025699D01*
X156610736Y-105066448D01*
X156555476Y-105083211D01*
X156547043Y-105085769D01*
X156468633Y-105127681D01*
X156364550Y-105183315D01*
X156364548Y-105183316D01*
X156364547Y-105183317D01*
X156204589Y-105314589D01*
X156073317Y-105474547D01*
X156073315Y-105474550D01*
X156051300Y-105515737D01*
X155975769Y-105657043D01*
X155915699Y-105855067D01*
X155895417Y-106061000D01*
X154911000Y-106061000D01*
X154911000Y-105989111D01*
X154905369Y-105969933D01*
X154905370Y-105900064D01*
X154943145Y-105841286D01*
X155006701Y-105812262D01*
X155024347Y-105811000D01*
X155432410Y-105811000D01*
X155385766Y-105657233D01*
X155288271Y-105474833D01*
X155288267Y-105474826D01*
X155157055Y-105314944D01*
X154997173Y-105183732D01*
X154997166Y-105183728D01*
X154814763Y-105086232D01*
X154660999Y-105039587D01*
X154661000Y-105448698D01*
X154641315Y-105515737D01*
X154588511Y-105561492D01*
X154519355Y-105571436D01*
X154446766Y-105561000D01*
X154446763Y-105561000D01*
X154375237Y-105561000D01*
X154375233Y-105561000D01*
X154302645Y-105571436D01*
X154233487Y-105561492D01*
X154180684Y-105515736D01*
X154161000Y-105448698D01*
X154161000Y-105039587D01*
X154007236Y-105086232D01*
X153824833Y-105183728D01*
X153824826Y-105183733D01*
X153674165Y-105307377D01*
X153609855Y-105334690D01*
X153540987Y-105322899D01*
X153489427Y-105275747D01*
X153471500Y-105211524D01*
X153471500Y-99897188D01*
X153491185Y-99830149D01*
X153507813Y-99809513D01*
X153650931Y-99666395D01*
X153707459Y-99635528D01*
X153707186Y-99634599D01*
X153711460Y-99633343D01*
X153712248Y-99632914D01*
X153714000Y-99632598D01*
X153834085Y-99597338D01*
X153834085Y-99597337D01*
X153834088Y-99597337D01*
X153937891Y-99530627D01*
X154018694Y-99437375D01*
X154069953Y-99325135D01*
X154087513Y-99203000D01*
X154069953Y-99080865D01*
X154018694Y-98968625D01*
X153937891Y-98875373D01*
X153834088Y-98808663D01*
X153834086Y-98808662D01*
X153834084Y-98808661D01*
X153834085Y-98808661D01*
X153715697Y-98773900D01*
X153715695Y-98773900D01*
X153592305Y-98773900D01*
X153592302Y-98773900D01*
X153473914Y-98808661D01*
X153370110Y-98875372D01*
X153370109Y-98875372D01*
X153370109Y-98875373D01*
X153289305Y-98968625D01*
X153289306Y-98968625D01*
X153289305Y-98968626D01*
X153238047Y-99080863D01*
X153238046Y-99080868D01*
X153230862Y-99130833D01*
X153201836Y-99194389D01*
X153195805Y-99200866D01*
X152927803Y-99468870D01*
X152923814Y-99472525D01*
X152892805Y-99498545D01*
X152872562Y-99533606D01*
X152869656Y-99538166D01*
X152846446Y-99571313D01*
X152844206Y-99576117D01*
X152837229Y-99592961D01*
X152835410Y-99597959D01*
X152828383Y-99637811D01*
X152827212Y-99643091D01*
X152816735Y-99682191D01*
X152820264Y-99722513D01*
X152820500Y-99727920D01*
X152820500Y-105219085D01*
X152800815Y-105286124D01*
X152748011Y-105331879D01*
X152678853Y-105341823D01*
X152617836Y-105314939D01*
X152467121Y-105191252D01*
X152457450Y-105183315D01*
X152274954Y-105085768D01*
X152076934Y-105025700D01*
X152076932Y-105025699D01*
X152076934Y-105025699D01*
X151871000Y-105005417D01*
X151665067Y-105025699D01*
X151530736Y-105066448D01*
X151475476Y-105083211D01*
X151467043Y-105085769D01*
X151388633Y-105127681D01*
X151284550Y-105183315D01*
X151284548Y-105183316D01*
X151284547Y-105183317D01*
X151124589Y-105314589D01*
X150993317Y-105474547D01*
X150993315Y-105474550D01*
X150971300Y-105515737D01*
X150895769Y-105657043D01*
X150835699Y-105855067D01*
X150815417Y-106061000D01*
X150386583Y-106061000D01*
X150366300Y-105855066D01*
X150306232Y-105657046D01*
X150208685Y-105474550D01*
X150156702Y-105411209D01*
X150077410Y-105314589D01*
X149927121Y-105191252D01*
X149917450Y-105183315D01*
X149734954Y-105085768D01*
X149733049Y-105084979D01*
X149732203Y-105084298D01*
X149729581Y-105082896D01*
X149729846Y-105082398D01*
X149678645Y-105041138D01*
X149656579Y-104974844D01*
X149656500Y-104970417D01*
X149656500Y-99459313D01*
X149676185Y-99392274D01*
X149692819Y-99371632D01*
X152443324Y-96621127D01*
X155207490Y-93856961D01*
X155264022Y-93826092D01*
X155263749Y-93825162D01*
X155268027Y-93823905D01*
X155268811Y-93823478D01*
X155270557Y-93823162D01*
X155272256Y-93822663D01*
X155272258Y-93822663D01*
X155390651Y-93787900D01*
X155494454Y-93721190D01*
X155575257Y-93627938D01*
X155626516Y-93515698D01*
X155633699Y-93465728D01*
X155662722Y-93402175D01*
X155668742Y-93395708D01*
X156992632Y-92071819D01*
X157053956Y-92038334D01*
X157080314Y-92035500D01*
X165903390Y-92035500D01*
X165970429Y-92055185D01*
X165970430Y-92055185D01*
X166046913Y-92104338D01*
X166165302Y-92139099D01*
X166165304Y-92139100D01*
X166165305Y-92139100D01*
X166288696Y-92139100D01*
X166288696Y-92139099D01*
X166407088Y-92104337D01*
X166510891Y-92037627D01*
X166591694Y-91944375D01*
X166642953Y-91832135D01*
X166660513Y-91710000D01*
X166642953Y-91587865D01*
X166591694Y-91475625D01*
X166510891Y-91382373D01*
X166407088Y-91315663D01*
X166407086Y-91315662D01*
X166407084Y-91315661D01*
X166407085Y-91315661D01*
X166288697Y-91280900D01*
X166288695Y-91280900D01*
X166165305Y-91280900D01*
X166165302Y-91280900D01*
X166046914Y-91315661D01*
X166046913Y-91315661D01*
X165970430Y-91364815D01*
X165903390Y-91384500D01*
X156911048Y-91384500D01*
X156905644Y-91384264D01*
X156900233Y-91383790D01*
X156865318Y-91380735D01*
X156865317Y-91380735D01*
X156826217Y-91391212D01*
X156820937Y-91392383D01*
X156781085Y-91399410D01*
X156776087Y-91401229D01*
X156759243Y-91408206D01*
X156754439Y-91410446D01*
X156721292Y-91433656D01*
X156716732Y-91436562D01*
X156681674Y-91456804D01*
X156681666Y-91456810D01*
X156655649Y-91487815D01*
X156651995Y-91491804D01*
X155213637Y-92930162D01*
X155157103Y-92961031D01*
X155157377Y-92961964D01*
X155153092Y-92963222D01*
X155152314Y-92963647D01*
X155150577Y-92963960D01*
X155030477Y-92999224D01*
X154926673Y-93065935D01*
X154926672Y-93065935D01*
X154926672Y-93065936D01*
X154864488Y-93137701D01*
X154845869Y-93159188D01*
X154845868Y-93159189D01*
X154794610Y-93271426D01*
X154794609Y-93271431D01*
X154787425Y-93321397D01*
X154758399Y-93384952D01*
X154752368Y-93391430D01*
X154000076Y-94143722D01*
X153938753Y-94177207D01*
X153869061Y-94172223D01*
X153813128Y-94130351D01*
X153788711Y-94064887D01*
X153799602Y-94004528D01*
X153805719Y-93991135D01*
X153823279Y-93869000D01*
X153805719Y-93746865D01*
X153754460Y-93634625D01*
X153673657Y-93541373D01*
X153569854Y-93474663D01*
X153569852Y-93474662D01*
X153569850Y-93474661D01*
X153569851Y-93474661D01*
X153451463Y-93439900D01*
X153451461Y-93439900D01*
X153328071Y-93439900D01*
X153328068Y-93439900D01*
X153209680Y-93474661D01*
X153105876Y-93541372D01*
X153025072Y-93634625D01*
X153025071Y-93634626D01*
X152973813Y-93746863D01*
X152973812Y-93746868D01*
X152966628Y-93796834D01*
X152937602Y-93860389D01*
X152931572Y-93866867D01*
X152656257Y-94142182D01*
X152594937Y-94175666D01*
X152568578Y-94178500D01*
X144833610Y-94178500D01*
X144766571Y-94158815D01*
X144766570Y-94158815D01*
X144690086Y-94109661D01*
X144571697Y-94074900D01*
X144571695Y-94074900D01*
X144448305Y-94074900D01*
X144448302Y-94074900D01*
X144329914Y-94109661D01*
X144226110Y-94176372D01*
X144226109Y-94176372D01*
X144226109Y-94176373D01*
X144150755Y-94263337D01*
X144145306Y-94269625D01*
X144145305Y-94269626D01*
X144094046Y-94381865D01*
X144076487Y-94504000D01*
X144094046Y-94626134D01*
X144145305Y-94738373D01*
X144150101Y-94745836D01*
X144148053Y-94747151D01*
X144171664Y-94798855D01*
X144161720Y-94868013D01*
X144115964Y-94920816D01*
X144048926Y-94940500D01*
X134876810Y-94940500D01*
X134809771Y-94920815D01*
X134809770Y-94920815D01*
X134733286Y-94871661D01*
X134614897Y-94836900D01*
X134614895Y-94836900D01*
X134491505Y-94836900D01*
X134491502Y-94836900D01*
X134373114Y-94871661D01*
X134269310Y-94938372D01*
X134188506Y-95031625D01*
X134188505Y-95031626D01*
X134137246Y-95143865D01*
X134119687Y-95266000D01*
X124000500Y-95266000D01*
X124000500Y-93259499D01*
X127994706Y-93259499D01*
X128013853Y-93502797D01*
X128013853Y-93502800D01*
X128013854Y-93502802D01*
X128045502Y-93634625D01*
X128070830Y-93740119D01*
X128164222Y-93965589D01*
X128291737Y-94173673D01*
X128291738Y-94173676D01*
X128311340Y-94196627D01*
X128450241Y-94359259D01*
X128588981Y-94477754D01*
X128635823Y-94517761D01*
X128635826Y-94517762D01*
X128843910Y-94645277D01*
X129069381Y-94738669D01*
X129069378Y-94738669D01*
X129069384Y-94738670D01*
X129069388Y-94738672D01*
X129306698Y-94795646D01*
X129550000Y-94814794D01*
X129793302Y-94795646D01*
X130030612Y-94738672D01*
X130256089Y-94645277D01*
X130464179Y-94517759D01*
X130649759Y-94359259D01*
X130808259Y-94173679D01*
X130935777Y-93965589D01*
X131029172Y-93740112D01*
X131086146Y-93502802D01*
X131105294Y-93259500D01*
X131103287Y-93234000D01*
X144076487Y-93234000D01*
X144094046Y-93356134D01*
X144144258Y-93466080D01*
X144145306Y-93468375D01*
X144226109Y-93561627D01*
X144329912Y-93628337D01*
X144329915Y-93628338D01*
X144329914Y-93628338D01*
X144448302Y-93663099D01*
X144448304Y-93663100D01*
X144448305Y-93663100D01*
X144571696Y-93663100D01*
X144571696Y-93663099D01*
X144663568Y-93636123D01*
X144690085Y-93628338D01*
X144690085Y-93628337D01*
X144690088Y-93628337D01*
X144793891Y-93561627D01*
X144874694Y-93468375D01*
X144925953Y-93356135D01*
X144933136Y-93306165D01*
X144962159Y-93242612D01*
X144968179Y-93236145D01*
X146240325Y-91964000D01*
X147251487Y-91964000D01*
X147269046Y-92086134D01*
X147302662Y-92159741D01*
X147320306Y-92198375D01*
X147401109Y-92291627D01*
X147504912Y-92358337D01*
X147504915Y-92358338D01*
X147504914Y-92358338D01*
X147623302Y-92393099D01*
X147623304Y-92393100D01*
X147623305Y-92393100D01*
X147746696Y-92393100D01*
X147746696Y-92393099D01*
X147865085Y-92358338D01*
X147865086Y-92358338D01*
X147885334Y-92345326D01*
X147941570Y-92309184D01*
X148008610Y-92289500D01*
X149266390Y-92289500D01*
X149333429Y-92309185D01*
X149333430Y-92309185D01*
X149409913Y-92358338D01*
X149528302Y-92393099D01*
X149528304Y-92393100D01*
X149528305Y-92393100D01*
X149651696Y-92393100D01*
X149651696Y-92393099D01*
X149770088Y-92358337D01*
X149873891Y-92291627D01*
X149954694Y-92198375D01*
X150005953Y-92086135D01*
X150023513Y-91964000D01*
X150005953Y-91841865D01*
X149954694Y-91729625D01*
X149873891Y-91636373D01*
X149770088Y-91569663D01*
X149770086Y-91569662D01*
X149770084Y-91569661D01*
X149770085Y-91569661D01*
X149651697Y-91534900D01*
X149651695Y-91534900D01*
X149528305Y-91534900D01*
X149528302Y-91534900D01*
X149409914Y-91569661D01*
X149409913Y-91569661D01*
X149333430Y-91618815D01*
X149266390Y-91638500D01*
X148008610Y-91638500D01*
X147941571Y-91618815D01*
X147941570Y-91618815D01*
X147865086Y-91569661D01*
X147746697Y-91534900D01*
X147746695Y-91534900D01*
X147623305Y-91534900D01*
X147623302Y-91534900D01*
X147504914Y-91569661D01*
X147401110Y-91636372D01*
X147320306Y-91729625D01*
X147320305Y-91729626D01*
X147269046Y-91841865D01*
X147251487Y-91964000D01*
X146240325Y-91964000D01*
X147199307Y-91005019D01*
X147260631Y-90971534D01*
X147286989Y-90968700D01*
X149266390Y-90968700D01*
X149333429Y-90988385D01*
X149333430Y-90988385D01*
X149409913Y-91037538D01*
X149528302Y-91072299D01*
X149528304Y-91072300D01*
X149528305Y-91072300D01*
X149651696Y-91072300D01*
X149651696Y-91072299D01*
X149770088Y-91037537D01*
X149873891Y-90970827D01*
X149954694Y-90877575D01*
X150005953Y-90765335D01*
X150023513Y-90643200D01*
X150005953Y-90521065D01*
X149954694Y-90408825D01*
X149873891Y-90315573D01*
X149770088Y-90248863D01*
X149770086Y-90248862D01*
X149770084Y-90248861D01*
X149770085Y-90248861D01*
X149651697Y-90214100D01*
X149651695Y-90214100D01*
X149528305Y-90214100D01*
X149528302Y-90214100D01*
X149409914Y-90248861D01*
X149409913Y-90248861D01*
X149333430Y-90298015D01*
X149266390Y-90317700D01*
X147117710Y-90317700D01*
X147112306Y-90317464D01*
X147106793Y-90316981D01*
X147071992Y-90313936D01*
X147032905Y-90324410D01*
X147027625Y-90325581D01*
X146987757Y-90332611D01*
X146982783Y-90334421D01*
X146965918Y-90341407D01*
X146961113Y-90343647D01*
X146927962Y-90366859D01*
X146923403Y-90369763D01*
X146888345Y-90390005D01*
X146862323Y-90421015D01*
X146858669Y-90425003D01*
X144513074Y-92770599D01*
X144456540Y-92801468D01*
X144456814Y-92802401D01*
X144452529Y-92803659D01*
X144451751Y-92804084D01*
X144450014Y-92804397D01*
X144329914Y-92839661D01*
X144226110Y-92906372D01*
X144145306Y-92999625D01*
X144145305Y-92999626D01*
X144094046Y-93111865D01*
X144076487Y-93234000D01*
X131103287Y-93234000D01*
X131086146Y-93016198D01*
X131029172Y-92778888D01*
X131025739Y-92770599D01*
X130935777Y-92553410D01*
X130808262Y-92345326D01*
X130808261Y-92345323D01*
X130696697Y-92214699D01*
X130649759Y-92159741D01*
X130527063Y-92054949D01*
X130464176Y-92001238D01*
X130464173Y-92001237D01*
X130256089Y-91873722D01*
X130030618Y-91780330D01*
X130030621Y-91780330D01*
X129819422Y-91729625D01*
X129793302Y-91723354D01*
X129793300Y-91723353D01*
X129793297Y-91723353D01*
X129550000Y-91704206D01*
X129306702Y-91723353D01*
X129069380Y-91780330D01*
X128843910Y-91873722D01*
X128635826Y-92001237D01*
X128635823Y-92001238D01*
X128450241Y-92159741D01*
X128291738Y-92345323D01*
X128291737Y-92345326D01*
X128164222Y-92553410D01*
X128070830Y-92778880D01*
X128070828Y-92778887D01*
X128070828Y-92778888D01*
X128054705Y-92846045D01*
X128013853Y-93016202D01*
X127994706Y-93259499D01*
X124000500Y-93259499D01*
X124000500Y-89299499D01*
X127994706Y-89299499D01*
X128013853Y-89542797D01*
X128013853Y-89542800D01*
X128013854Y-89542802D01*
X128039355Y-89649021D01*
X128070830Y-89780119D01*
X128164222Y-90005589D01*
X128291737Y-90213673D01*
X128291738Y-90213676D01*
X128321789Y-90248861D01*
X128450241Y-90399259D01*
X128592858Y-90521065D01*
X128635823Y-90557761D01*
X128635826Y-90557762D01*
X128843910Y-90685277D01*
X129069381Y-90778669D01*
X129069378Y-90778669D01*
X129069384Y-90778670D01*
X129069388Y-90778672D01*
X129306698Y-90835646D01*
X129550000Y-90854794D01*
X129793302Y-90835646D01*
X130030612Y-90778672D01*
X130256089Y-90685277D01*
X130464179Y-90557759D01*
X130649759Y-90399259D01*
X130808259Y-90213679D01*
X130935777Y-90005589D01*
X131029172Y-89780112D01*
X131086146Y-89542802D01*
X131105294Y-89299500D01*
X131086146Y-89056198D01*
X131029172Y-88818888D01*
X131015937Y-88786935D01*
X130935777Y-88593410D01*
X130808262Y-88385326D01*
X130808261Y-88385323D01*
X130756780Y-88325047D01*
X130649759Y-88199741D01*
X130527063Y-88094949D01*
X130464176Y-88041238D01*
X130464173Y-88041237D01*
X130256089Y-87913722D01*
X130030618Y-87820330D01*
X130030621Y-87820330D01*
X129924992Y-87794970D01*
X129793302Y-87763354D01*
X129793300Y-87763353D01*
X129793297Y-87763353D01*
X129550000Y-87744206D01*
X129306702Y-87763353D01*
X129069380Y-87820330D01*
X128843910Y-87913722D01*
X128635826Y-88041237D01*
X128635823Y-88041238D01*
X128450241Y-88199741D01*
X128291738Y-88385323D01*
X128291737Y-88385326D01*
X128164222Y-88593410D01*
X128070830Y-88818880D01*
X128070828Y-88818887D01*
X128070828Y-88818888D01*
X128060406Y-88862297D01*
X128013853Y-89056202D01*
X127994706Y-89299499D01*
X124000500Y-89299499D01*
X124000500Y-85339499D01*
X127994706Y-85339499D01*
X128013853Y-85582797D01*
X128070830Y-85820119D01*
X128164222Y-86045589D01*
X128291737Y-86253673D01*
X128291738Y-86253676D01*
X128291741Y-86253679D01*
X128450241Y-86439259D01*
X128593897Y-86561953D01*
X128635823Y-86597761D01*
X128635826Y-86597762D01*
X128843910Y-86725277D01*
X129069381Y-86818669D01*
X129069378Y-86818669D01*
X129069384Y-86818670D01*
X129069388Y-86818672D01*
X129306698Y-86875646D01*
X129550000Y-86894794D01*
X129793302Y-86875646D01*
X130030612Y-86818672D01*
X130256089Y-86725277D01*
X130464179Y-86597759D01*
X130649759Y-86439259D01*
X130808259Y-86253679D01*
X130935777Y-86045589D01*
X131029172Y-85820112D01*
X131086146Y-85582802D01*
X131105294Y-85339500D01*
X131086146Y-85096198D01*
X131029172Y-84858888D01*
X130935777Y-84633411D01*
X130935777Y-84633410D01*
X130808262Y-84425326D01*
X130808261Y-84425323D01*
X130772453Y-84383397D01*
X130649759Y-84239741D01*
X130527063Y-84134949D01*
X130464176Y-84081238D01*
X130464173Y-84081237D01*
X130256089Y-83953722D01*
X130030618Y-83860330D01*
X130030621Y-83860330D01*
X129924992Y-83834970D01*
X129793302Y-83803354D01*
X129793300Y-83803353D01*
X129793297Y-83803353D01*
X129550000Y-83784206D01*
X129306702Y-83803353D01*
X129069380Y-83860330D01*
X128843910Y-83953722D01*
X128635826Y-84081237D01*
X128635823Y-84081238D01*
X128450241Y-84239741D01*
X128291738Y-84425323D01*
X128291737Y-84425326D01*
X128164222Y-84633410D01*
X128070830Y-84858880D01*
X128013853Y-85096202D01*
X127994706Y-85339499D01*
X124000500Y-85339499D01*
X124000500Y-82533758D01*
X127999500Y-82533758D01*
X128002354Y-82564198D01*
X128002354Y-82564199D01*
X128047206Y-82692381D01*
X128047207Y-82692382D01*
X128127850Y-82801650D01*
X128237118Y-82882293D01*
X128365302Y-82927146D01*
X128365301Y-82927146D01*
X128369271Y-82927518D01*
X128395735Y-82930000D01*
X130704264Y-82929999D01*
X130734698Y-82927146D01*
X130862882Y-82882293D01*
X130972150Y-82801650D01*
X131052793Y-82692382D01*
X131097646Y-82564198D01*
X131100500Y-82533765D01*
X131100499Y-80225236D01*
X131097646Y-80194802D01*
X131052793Y-80066618D01*
X130972150Y-79957350D01*
X130862882Y-79876707D01*
X130862881Y-79876706D01*
X130734695Y-79831853D01*
X130734698Y-79831853D01*
X130704268Y-79829000D01*
X128395741Y-79829000D01*
X128365301Y-79831854D01*
X128365300Y-79831854D01*
X128237118Y-79876706D01*
X128127850Y-79957350D01*
X128047206Y-80066618D01*
X128002353Y-80194802D01*
X127999500Y-80225231D01*
X127999500Y-82533758D01*
X124000500Y-82533758D01*
X124000500Y-79822800D01*
X142173200Y-79822800D01*
X142173200Y-84496400D01*
X146389600Y-84496400D01*
X146389600Y-79822800D01*
X142173200Y-79822800D01*
X124000500Y-79822800D01*
X124000500Y-76239000D01*
X128010706Y-76239000D01*
X128029853Y-76482297D01*
X128029853Y-76482300D01*
X128029854Y-76482302D01*
X128077842Y-76682185D01*
X128086830Y-76719619D01*
X128180222Y-76945089D01*
X128307737Y-77153173D01*
X128307738Y-77153176D01*
X128307741Y-77153179D01*
X128466241Y-77338759D01*
X128595902Y-77449500D01*
X128651823Y-77497261D01*
X128651826Y-77497262D01*
X128859910Y-77624777D01*
X129085381Y-77718169D01*
X129085378Y-77718169D01*
X129085384Y-77718170D01*
X129085388Y-77718172D01*
X129322698Y-77775146D01*
X129566000Y-77794294D01*
X129809302Y-77775146D01*
X130046612Y-77718172D01*
X130272089Y-77624777D01*
X130480179Y-77497259D01*
X130665759Y-77338759D01*
X130824259Y-77153179D01*
X130951777Y-76945089D01*
X131045172Y-76719612D01*
X131102146Y-76482302D01*
X131121294Y-76239000D01*
X131106188Y-76047055D01*
X155874500Y-76047055D01*
X155915210Y-76212226D01*
X155994263Y-76362849D01*
X155994266Y-76362852D01*
X156107071Y-76490183D01*
X156197318Y-76552476D01*
X156247068Y-76586817D01*
X156247069Y-76586817D01*
X156247070Y-76586818D01*
X156406128Y-76647140D01*
X156482028Y-76656356D01*
X156532626Y-76662500D01*
X156532628Y-76662500D01*
X157376481Y-76662500D01*
X157443520Y-76682185D01*
X157464162Y-76698819D01*
X177809180Y-97043838D01*
X177842665Y-97105161D01*
X177845499Y-97131519D01*
X177845499Y-102166374D01*
X177860859Y-102292868D01*
X177860860Y-102292874D01*
X177921182Y-102451931D01*
X177983475Y-102542177D01*
X178017817Y-102591929D01*
X178063387Y-102632300D01*
X178145150Y-102704736D01*
X178250085Y-102759810D01*
X178295775Y-102783790D01*
X178460944Y-102824500D01*
X178631056Y-102824500D01*
X178796225Y-102783790D01*
X178934521Y-102711206D01*
X178946849Y-102704736D01*
X178946850Y-102704734D01*
X178946852Y-102704734D01*
X179074183Y-102591929D01*
X179170818Y-102451930D01*
X179231140Y-102292872D01*
X179246500Y-102166372D01*
X179246500Y-98500005D01*
X181019700Y-98500005D01*
X181038864Y-98731296D01*
X181038866Y-98731307D01*
X181095842Y-98956299D01*
X181189075Y-99168847D01*
X181316016Y-99363146D01*
X181316019Y-99363150D01*
X181316021Y-99363152D01*
X181473216Y-99533912D01*
X181473219Y-99533914D01*
X181473222Y-99533917D01*
X181656365Y-99676463D01*
X181656371Y-99676467D01*
X181656374Y-99676469D01*
X181860497Y-99786935D01*
X181926247Y-99809507D01*
X182080015Y-99862296D01*
X182080017Y-99862296D01*
X182080019Y-99862297D01*
X182308951Y-99900499D01*
X182308952Y-99900499D01*
X182541048Y-99900499D01*
X182541049Y-99900499D01*
X182769981Y-99862297D01*
X182989503Y-99786935D01*
X183057757Y-99749998D01*
X183869417Y-99749998D01*
X183889699Y-99955931D01*
X183898404Y-99984626D01*
X183949768Y-100153953D01*
X184047315Y-100336449D01*
X184047317Y-100336451D01*
X184178589Y-100496409D01*
X184258148Y-100561700D01*
X184338550Y-100627684D01*
X184521046Y-100725231D01*
X184719066Y-100785299D01*
X184719065Y-100785299D01*
X184737529Y-100787117D01*
X184925000Y-100805582D01*
X185130934Y-100785299D01*
X185328954Y-100725231D01*
X185511450Y-100627684D01*
X185671410Y-100496409D01*
X185802685Y-100336449D01*
X185900232Y-100153953D01*
X185960300Y-99955933D01*
X185980583Y-99749999D01*
X185960300Y-99544065D01*
X185900232Y-99346045D01*
X185802685Y-99163549D01*
X185734831Y-99080868D01*
X185671410Y-99003588D01*
X185511452Y-98872316D01*
X185511453Y-98872316D01*
X185511450Y-98872314D01*
X185328954Y-98774767D01*
X185130934Y-98714699D01*
X185130932Y-98714698D01*
X185130934Y-98714698D01*
X184925000Y-98694416D01*
X184719067Y-98714698D01*
X184521043Y-98774768D01*
X184410898Y-98833642D01*
X184338550Y-98872314D01*
X184338548Y-98872315D01*
X184338547Y-98872316D01*
X184178589Y-99003588D01*
X184047317Y-99163546D01*
X184047315Y-99163549D01*
X184026228Y-99203000D01*
X183949769Y-99346042D01*
X183889699Y-99544066D01*
X183869417Y-99749998D01*
X183057757Y-99749998D01*
X183193626Y-99676469D01*
X183376784Y-99533912D01*
X183533979Y-99363152D01*
X183660924Y-99168848D01*
X183754157Y-98956299D01*
X183811134Y-98731304D01*
X183830300Y-98499999D01*
X183830300Y-98499992D01*
X183811135Y-98268701D01*
X183811133Y-98268690D01*
X183754157Y-98043698D01*
X183660924Y-97831150D01*
X183533983Y-97636851D01*
X183533980Y-97636848D01*
X183533979Y-97636846D01*
X183376784Y-97466086D01*
X183376779Y-97466082D01*
X183376777Y-97466080D01*
X183193634Y-97323534D01*
X183193628Y-97323530D01*
X182989504Y-97213063D01*
X182989495Y-97213060D01*
X182769984Y-97137701D01*
X182598282Y-97109049D01*
X182541049Y-97099499D01*
X182308951Y-97099499D01*
X182263164Y-97107139D01*
X182080015Y-97137701D01*
X181860504Y-97213060D01*
X181860495Y-97213063D01*
X181656371Y-97323530D01*
X181656365Y-97323534D01*
X181473222Y-97466080D01*
X181473219Y-97466083D01*
X181316016Y-97636851D01*
X181189075Y-97831150D01*
X181095842Y-98043698D01*
X181038866Y-98268690D01*
X181038864Y-98268701D01*
X181019700Y-98499992D01*
X181019700Y-98500005D01*
X179246500Y-98500005D01*
X179246500Y-96813035D01*
X179246613Y-96809290D01*
X179250357Y-96747394D01*
X179239173Y-96686366D01*
X179238614Y-96682686D01*
X179231140Y-96621127D01*
X179227548Y-96611656D01*
X179221522Y-96590042D01*
X179219695Y-96580068D01*
X179194234Y-96523496D01*
X179192806Y-96520049D01*
X179170818Y-96462071D01*
X179170818Y-96462070D01*
X179165063Y-96453733D01*
X179154036Y-96434182D01*
X179149879Y-96424946D01*
X179149878Y-96424943D01*
X179132287Y-96402490D01*
X179111630Y-96376122D01*
X179109410Y-96373106D01*
X179074182Y-96322070D01*
X179069148Y-96317610D01*
X179027750Y-96280935D01*
X179025056Y-96278399D01*
X177246662Y-94500005D01*
X181019700Y-94500005D01*
X181038864Y-94731296D01*
X181038866Y-94731307D01*
X181095842Y-94956299D01*
X181189075Y-95168847D01*
X181316016Y-95363146D01*
X181316019Y-95363150D01*
X181316021Y-95363152D01*
X181473216Y-95533912D01*
X181473219Y-95533914D01*
X181473222Y-95533917D01*
X181656365Y-95676463D01*
X181656371Y-95676467D01*
X181656374Y-95676469D01*
X181860497Y-95786935D01*
X181974487Y-95826067D01*
X182080015Y-95862296D01*
X182080017Y-95862296D01*
X182080019Y-95862297D01*
X182308951Y-95900499D01*
X182308952Y-95900499D01*
X182541048Y-95900499D01*
X182541049Y-95900499D01*
X182769981Y-95862297D01*
X182989503Y-95786935D01*
X183193626Y-95676469D01*
X183214353Y-95660337D01*
X183300062Y-95593627D01*
X183376784Y-95533912D01*
X183533979Y-95363152D01*
X183660924Y-95168848D01*
X183754157Y-94956299D01*
X183811134Y-94731304D01*
X183811135Y-94731296D01*
X183830300Y-94500005D01*
X183830300Y-94499992D01*
X183811135Y-94268701D01*
X183811133Y-94268690D01*
X183754157Y-94043698D01*
X183660924Y-93831150D01*
X183533983Y-93636851D01*
X183533980Y-93636848D01*
X183533979Y-93636846D01*
X183376784Y-93466086D01*
X183376779Y-93466082D01*
X183376777Y-93466080D01*
X183193634Y-93323534D01*
X183193628Y-93323530D01*
X183057755Y-93249999D01*
X183869417Y-93249999D01*
X183889699Y-93455931D01*
X183903916Y-93502797D01*
X183949768Y-93653953D01*
X184047315Y-93836449D01*
X184047317Y-93836451D01*
X184178589Y-93996409D01*
X184188479Y-94004525D01*
X184338550Y-94127684D01*
X184521046Y-94225231D01*
X184719066Y-94285299D01*
X184719065Y-94285299D01*
X184737529Y-94287117D01*
X184925000Y-94305582D01*
X185130934Y-94285299D01*
X185328954Y-94225231D01*
X185511450Y-94127684D01*
X185671410Y-93996409D01*
X185802685Y-93836449D01*
X185900232Y-93653953D01*
X185960300Y-93455933D01*
X185980583Y-93249999D01*
X185960300Y-93044065D01*
X185900232Y-92846045D01*
X185802685Y-92663549D01*
X185712297Y-92553410D01*
X185671410Y-92503588D01*
X185511452Y-92372316D01*
X185511453Y-92372316D01*
X185511450Y-92372314D01*
X185328954Y-92274767D01*
X185130934Y-92214699D01*
X185130932Y-92214698D01*
X185130934Y-92214698D01*
X184943463Y-92196234D01*
X184925000Y-92194416D01*
X184924999Y-92194416D01*
X184719067Y-92214698D01*
X184521043Y-92274768D01*
X184489503Y-92291627D01*
X184338550Y-92372314D01*
X184338548Y-92372315D01*
X184338547Y-92372316D01*
X184178589Y-92503588D01*
X184047317Y-92663546D01*
X183949769Y-92846042D01*
X183889699Y-93044066D01*
X183869417Y-93249999D01*
X183057755Y-93249999D01*
X182989504Y-93213063D01*
X182989495Y-93213060D01*
X182769984Y-93137701D01*
X182598282Y-93109049D01*
X182541049Y-93099499D01*
X182308951Y-93099499D01*
X182263164Y-93107139D01*
X182080015Y-93137701D01*
X181860504Y-93213060D01*
X181860495Y-93213063D01*
X181656371Y-93323530D01*
X181656365Y-93323534D01*
X181473222Y-93466080D01*
X181473219Y-93466083D01*
X181473216Y-93466085D01*
X181473216Y-93466086D01*
X181439421Y-93502797D01*
X181316016Y-93636851D01*
X181189075Y-93831150D01*
X181095842Y-94043698D01*
X181038866Y-94268690D01*
X181038864Y-94268701D01*
X181019700Y-94499992D01*
X181019700Y-94500005D01*
X177246662Y-94500005D01*
X170246662Y-87500005D01*
X181019700Y-87500005D01*
X181038864Y-87731296D01*
X181038866Y-87731307D01*
X181095842Y-87956299D01*
X181189075Y-88168847D01*
X181316016Y-88363146D01*
X181316019Y-88363150D01*
X181316021Y-88363152D01*
X181473216Y-88533912D01*
X181473219Y-88533914D01*
X181473222Y-88533917D01*
X181656365Y-88676463D01*
X181656371Y-88676467D01*
X181656374Y-88676469D01*
X181860497Y-88786935D01*
X181953550Y-88818880D01*
X182080015Y-88862296D01*
X182080017Y-88862296D01*
X182080019Y-88862297D01*
X182308951Y-88900499D01*
X182308952Y-88900499D01*
X182541048Y-88900499D01*
X182541049Y-88900499D01*
X182769981Y-88862297D01*
X182989503Y-88786935D01*
X183057757Y-88749998D01*
X183869919Y-88749998D01*
X183890191Y-88955833D01*
X183950233Y-89153765D01*
X184025975Y-89295468D01*
X184025976Y-89295468D01*
X184316050Y-89005394D01*
X184377373Y-88971909D01*
X184447064Y-88976893D01*
X184502998Y-89018764D01*
X184508039Y-89026024D01*
X184543239Y-89080797D01*
X184627447Y-89153763D01*
X184658602Y-89180758D01*
X184656293Y-89183421D01*
X184691006Y-89223498D01*
X184700935Y-89292659D01*
X184671898Y-89356209D01*
X184665882Y-89362668D01*
X184379529Y-89649021D01*
X184521235Y-89724765D01*
X184719165Y-89784807D01*
X184925000Y-89805079D01*
X185130834Y-89784807D01*
X185328764Y-89724765D01*
X185470469Y-89649021D01*
X185184116Y-89362668D01*
X185150631Y-89301345D01*
X185155615Y-89231653D01*
X185192641Y-89182192D01*
X185191398Y-89180758D01*
X185222550Y-89153765D01*
X185306761Y-89080797D01*
X185341954Y-89026036D01*
X185394755Y-88980282D01*
X185463914Y-88970338D01*
X185527470Y-88999362D01*
X185533949Y-89005395D01*
X185824022Y-89295468D01*
X185899766Y-89153763D01*
X185959808Y-88955833D01*
X185980080Y-88749998D01*
X185959808Y-88544164D01*
X185899766Y-88346234D01*
X185824022Y-88204528D01*
X185533949Y-88494601D01*
X185472626Y-88528086D01*
X185402934Y-88523102D01*
X185347001Y-88481230D01*
X185341953Y-88473960D01*
X185306761Y-88419201D01*
X185191398Y-88319240D01*
X185193698Y-88316584D01*
X185158960Y-88276427D01*
X185149074Y-88207260D01*
X185178152Y-88143728D01*
X185184116Y-88137328D01*
X185470469Y-87850975D01*
X185470469Y-87850974D01*
X185328766Y-87775232D01*
X185130834Y-87715190D01*
X184925000Y-87694918D01*
X184719166Y-87715190D01*
X184521234Y-87775233D01*
X184379529Y-87850974D01*
X184379529Y-87850975D01*
X184665883Y-88137329D01*
X184699368Y-88198652D01*
X184694384Y-88268344D01*
X184657357Y-88317804D01*
X184658602Y-88319240D01*
X184543238Y-88419201D01*
X184508046Y-88473961D01*
X184455242Y-88519716D01*
X184386083Y-88529659D01*
X184322528Y-88500633D01*
X184316050Y-88494602D01*
X184025976Y-88204528D01*
X184025975Y-88204528D01*
X183950234Y-88346233D01*
X183890191Y-88544165D01*
X183869919Y-88749998D01*
X183057757Y-88749998D01*
X183193626Y-88676469D01*
X183376784Y-88533912D01*
X183533979Y-88363152D01*
X183660924Y-88168848D01*
X183754157Y-87956299D01*
X183811134Y-87731304D01*
X183811135Y-87731296D01*
X183830300Y-87500005D01*
X183830300Y-87499992D01*
X183811135Y-87268701D01*
X183811133Y-87268690D01*
X183754157Y-87043698D01*
X183660924Y-86831150D01*
X183533983Y-86636851D01*
X183533980Y-86636848D01*
X183533979Y-86636846D01*
X183376784Y-86466086D01*
X183376779Y-86466082D01*
X183376777Y-86466080D01*
X183193634Y-86323534D01*
X183193628Y-86323530D01*
X182989504Y-86213063D01*
X182989495Y-86213060D01*
X182769984Y-86137701D01*
X182598282Y-86109049D01*
X182541049Y-86099499D01*
X182308951Y-86099499D01*
X182263164Y-86107139D01*
X182080015Y-86137701D01*
X181860504Y-86213060D01*
X181860495Y-86213063D01*
X181656371Y-86323530D01*
X181656365Y-86323534D01*
X181473222Y-86466080D01*
X181473219Y-86466083D01*
X181316016Y-86636851D01*
X181189075Y-86831150D01*
X181095842Y-87043698D01*
X181038866Y-87268690D01*
X181038864Y-87268701D01*
X181019700Y-87499992D01*
X181019700Y-87500005D01*
X170246662Y-87500005D01*
X164400926Y-81654269D01*
X181799500Y-81654269D01*
X181802353Y-81684699D01*
X181802353Y-81684701D01*
X181847206Y-81812880D01*
X181847207Y-81812882D01*
X181927850Y-81922150D01*
X182037118Y-82002793D01*
X182079845Y-82017744D01*
X182165299Y-82047646D01*
X182195730Y-82050500D01*
X182195734Y-82050500D01*
X183804270Y-82050500D01*
X183834699Y-82047646D01*
X183834701Y-82047646D01*
X183898790Y-82025219D01*
X183962882Y-82002793D01*
X184072150Y-81922150D01*
X184152793Y-81812882D01*
X184175219Y-81748790D01*
X184197646Y-81684701D01*
X184197646Y-81684699D01*
X184200500Y-81654269D01*
X184200500Y-80345730D01*
X184197646Y-80315300D01*
X184197646Y-80315298D01*
X184164006Y-80219163D01*
X184152793Y-80187118D01*
X184072150Y-80077850D01*
X183962882Y-79997207D01*
X183962880Y-79997206D01*
X183834700Y-79952353D01*
X183804270Y-79949500D01*
X183804266Y-79949500D01*
X182195734Y-79949500D01*
X182195730Y-79949500D01*
X182165300Y-79952353D01*
X182165298Y-79952353D01*
X182037119Y-79997206D01*
X182037117Y-79997207D01*
X181927850Y-80077850D01*
X181847207Y-80187117D01*
X181847206Y-80187119D01*
X181802353Y-80315298D01*
X181802353Y-80315300D01*
X181799500Y-80345730D01*
X181799500Y-81654269D01*
X164400926Y-81654269D01*
X161248657Y-78502000D01*
X161856487Y-78502000D01*
X161874046Y-78624134D01*
X161883530Y-78644900D01*
X161925306Y-78736375D01*
X162006109Y-78829627D01*
X162109912Y-78896337D01*
X162109915Y-78896338D01*
X162109914Y-78896338D01*
X162236814Y-78933599D01*
X162236028Y-78936274D01*
X162286596Y-78959369D01*
X162293073Y-78965400D01*
X162619868Y-79292195D01*
X162623523Y-79296184D01*
X162649541Y-79327190D01*
X162649543Y-79327191D01*
X162649545Y-79327194D01*
X162684605Y-79347435D01*
X162689159Y-79350337D01*
X162722316Y-79373554D01*
X162722319Y-79373554D01*
X162727176Y-79375820D01*
X162743933Y-79382760D01*
X162748953Y-79384587D01*
X162748955Y-79384588D01*
X162788830Y-79391618D01*
X162794087Y-79392784D01*
X162833193Y-79403263D01*
X162873510Y-79399735D01*
X162878912Y-79399500D01*
X171491390Y-79399500D01*
X171558429Y-79419185D01*
X171558430Y-79419185D01*
X171634913Y-79468338D01*
X171753302Y-79503099D01*
X171753304Y-79503100D01*
X171753305Y-79503100D01*
X171876696Y-79503100D01*
X171876696Y-79503099D01*
X171995088Y-79468337D01*
X172098891Y-79401627D01*
X172179694Y-79308375D01*
X172230953Y-79196135D01*
X172248513Y-79074000D01*
X172230953Y-78951865D01*
X172179694Y-78839625D01*
X172098891Y-78746373D01*
X171995088Y-78679663D01*
X171995086Y-78679662D01*
X171995084Y-78679661D01*
X171995085Y-78679661D01*
X171876697Y-78644900D01*
X171876695Y-78644900D01*
X171753305Y-78644900D01*
X171753302Y-78644900D01*
X171634914Y-78679661D01*
X171634913Y-78679661D01*
X171558430Y-78728815D01*
X171491390Y-78748500D01*
X163048189Y-78748500D01*
X162981150Y-78728815D01*
X162960508Y-78712181D01*
X162748325Y-78499999D01*
X181794417Y-78499999D01*
X181814699Y-78705932D01*
X181826967Y-78746373D01*
X181874768Y-78903954D01*
X181972315Y-79086450D01*
X181972317Y-79086452D01*
X182103589Y-79246410D01*
X182179094Y-79308374D01*
X182263550Y-79377685D01*
X182446046Y-79475232D01*
X182644066Y-79535300D01*
X182644065Y-79535300D01*
X182682647Y-79539100D01*
X182798392Y-79550500D01*
X182798395Y-79550500D01*
X183201605Y-79550500D01*
X183201608Y-79550500D01*
X183355934Y-79535300D01*
X183553954Y-79475232D01*
X183736450Y-79377685D01*
X183896410Y-79246410D01*
X184027685Y-79086450D01*
X184125232Y-78903954D01*
X184185300Y-78705934D01*
X184205583Y-78500000D01*
X184185300Y-78294066D01*
X184125232Y-78096046D01*
X184027685Y-77913550D01*
X183929814Y-77794293D01*
X183896410Y-77753589D01*
X183736452Y-77622317D01*
X183736453Y-77622317D01*
X183736450Y-77622315D01*
X183553954Y-77524768D01*
X183355934Y-77464700D01*
X183355932Y-77464699D01*
X183355934Y-77464699D01*
X183236805Y-77452966D01*
X183201608Y-77449500D01*
X182798392Y-77449500D01*
X182760298Y-77453251D01*
X182644067Y-77464699D01*
X182446043Y-77524769D01*
X182335898Y-77583643D01*
X182263550Y-77622315D01*
X182263548Y-77622316D01*
X182263547Y-77622317D01*
X182103589Y-77753589D01*
X181972317Y-77913547D01*
X181874769Y-78096043D01*
X181814699Y-78294067D01*
X181794417Y-78499999D01*
X162748325Y-78499999D01*
X162748193Y-78499867D01*
X162714708Y-78438544D01*
X162713136Y-78429830D01*
X162705954Y-78379871D01*
X162705953Y-78379870D01*
X162705953Y-78379865D01*
X162654694Y-78267625D01*
X162573891Y-78174373D01*
X162470088Y-78107663D01*
X162470086Y-78107662D01*
X162470084Y-78107661D01*
X162470085Y-78107661D01*
X162351697Y-78072900D01*
X162351695Y-78072900D01*
X162228305Y-78072900D01*
X162228302Y-78072900D01*
X162109914Y-78107661D01*
X162006110Y-78174372D01*
X161925306Y-78267625D01*
X161925305Y-78267626D01*
X161874046Y-78379865D01*
X161856487Y-78502000D01*
X161248657Y-78502000D01*
X158962657Y-76216000D01*
X160205487Y-76216000D01*
X160223046Y-76338134D01*
X160234335Y-76362852D01*
X160274306Y-76450375D01*
X160355109Y-76543627D01*
X160458912Y-76610337D01*
X160458915Y-76610338D01*
X160458914Y-76610338D01*
X160577302Y-76645099D01*
X160577304Y-76645100D01*
X160577305Y-76645100D01*
X160700696Y-76645100D01*
X160700696Y-76645099D01*
X160819088Y-76610337D01*
X160922891Y-76543627D01*
X161003694Y-76450375D01*
X161054953Y-76338135D01*
X161072513Y-76216000D01*
X161054953Y-76093865D01*
X161003694Y-75981625D01*
X161003692Y-75981623D01*
X161003691Y-75981620D01*
X160996784Y-75973649D01*
X160967761Y-75910092D01*
X160966500Y-75892450D01*
X160966500Y-70561016D01*
X160986185Y-70493977D01*
X161002819Y-70473335D01*
X162657464Y-68818690D01*
X164385230Y-67090923D01*
X164438795Y-67061674D01*
X164438186Y-67059599D01*
X164565085Y-67022338D01*
X164565085Y-67022337D01*
X164565088Y-67022337D01*
X164668891Y-66955627D01*
X164749694Y-66862375D01*
X164800953Y-66750135D01*
X164818513Y-66628000D01*
X164800953Y-66505865D01*
X164749694Y-66393625D01*
X164668891Y-66300373D01*
X164565088Y-66233663D01*
X164565086Y-66233662D01*
X164565084Y-66233661D01*
X164565085Y-66233661D01*
X164446697Y-66198900D01*
X164446695Y-66198900D01*
X164323305Y-66198900D01*
X164323302Y-66198900D01*
X164204914Y-66233661D01*
X164101110Y-66300372D01*
X164020306Y-66393625D01*
X164020305Y-66393626D01*
X163969047Y-66505863D01*
X163969046Y-66505868D01*
X163962337Y-66552531D01*
X163933311Y-66616086D01*
X163927280Y-66622564D01*
X160419451Y-70130393D01*
X160415462Y-70134049D01*
X160384250Y-70160239D01*
X160384248Y-70160241D01*
X160363876Y-70195526D01*
X160360971Y-70200087D01*
X160337604Y-70233459D01*
X160335473Y-70238028D01*
X160328225Y-70255528D01*
X160326502Y-70260264D01*
X160319427Y-70300383D01*
X160318256Y-70305662D01*
X160307712Y-70345016D01*
X160311264Y-70385598D01*
X160311500Y-70391005D01*
X160311500Y-75892450D01*
X160291815Y-75959489D01*
X160281216Y-75973649D01*
X160274308Y-75981620D01*
X160274305Y-75981626D01*
X160223046Y-76093865D01*
X160205487Y-76216000D01*
X158962657Y-76216000D01*
X158229598Y-75482941D01*
X158227064Y-75480250D01*
X158185929Y-75433817D01*
X158185928Y-75433816D01*
X158185924Y-75433812D01*
X158134896Y-75398591D01*
X158131887Y-75396377D01*
X158083060Y-75358124D01*
X158083055Y-75358120D01*
X158073813Y-75353961D01*
X158054266Y-75342936D01*
X158045931Y-75337183D01*
X158045932Y-75337183D01*
X158045930Y-75337182D01*
X157987941Y-75315189D01*
X157984490Y-75313759D01*
X157927930Y-75288304D01*
X157917946Y-75286474D01*
X157896343Y-75280451D01*
X157886874Y-75276860D01*
X157886870Y-75276859D01*
X157825313Y-75269384D01*
X157821612Y-75268821D01*
X157760608Y-75257642D01*
X157760603Y-75257642D01*
X157698697Y-75261387D01*
X157694952Y-75261500D01*
X156532626Y-75261500D01*
X156406131Y-75276859D01*
X156406125Y-75276860D01*
X156247068Y-75337182D01*
X156107072Y-75433816D01*
X155994263Y-75561150D01*
X155915210Y-75711773D01*
X155874500Y-75876944D01*
X155874500Y-76047055D01*
X131106188Y-76047055D01*
X131102146Y-75995698D01*
X131045172Y-75758388D01*
X131045169Y-75758380D01*
X130951777Y-75532910D01*
X130824262Y-75324826D01*
X130824261Y-75324823D01*
X130788453Y-75282897D01*
X130665759Y-75139241D01*
X130543063Y-75034449D01*
X130480176Y-74980738D01*
X130480173Y-74980737D01*
X130272089Y-74853222D01*
X130046618Y-74759830D01*
X130046621Y-74759830D01*
X129940992Y-74734470D01*
X129809302Y-74702854D01*
X129809300Y-74702853D01*
X129809297Y-74702853D01*
X129593943Y-74685905D01*
X129566000Y-74683706D01*
X129565999Y-74683706D01*
X129322702Y-74702853D01*
X129085380Y-74759830D01*
X128859910Y-74853222D01*
X128651826Y-74980737D01*
X128651823Y-74980738D01*
X128466241Y-75139241D01*
X128307738Y-75324823D01*
X128307737Y-75324826D01*
X128180222Y-75532910D01*
X128086830Y-75758380D01*
X128029853Y-75995702D01*
X128010706Y-76239000D01*
X124000500Y-76239000D01*
X124000500Y-73433205D01*
X128016000Y-73433205D01*
X128018850Y-73463599D01*
X128018850Y-73463603D01*
X128063653Y-73591644D01*
X128144208Y-73700791D01*
X128253355Y-73781346D01*
X128381398Y-73826149D01*
X128411794Y-73829000D01*
X129315999Y-73829000D01*
X129316000Y-73248581D01*
X129335685Y-73181542D01*
X129388489Y-73135787D01*
X129457647Y-73125843D01*
X129466628Y-73127474D01*
X129473557Y-73129000D01*
X129473561Y-73129000D01*
X129612079Y-73129000D01*
X129612084Y-73129000D01*
X129678594Y-73121766D01*
X129747367Y-73134086D01*
X129798563Y-73181633D01*
X129816000Y-73245039D01*
X129815999Y-73829000D01*
X130720206Y-73829000D01*
X130750599Y-73826149D01*
X130750603Y-73826149D01*
X130878644Y-73781346D01*
X130987791Y-73700791D01*
X131068346Y-73591644D01*
X131113149Y-73463603D01*
X131113149Y-73463599D01*
X131116000Y-73433205D01*
X131116000Y-72999056D01*
X141777500Y-72999056D01*
X141788397Y-73043267D01*
X141818210Y-73164226D01*
X141897263Y-73314849D01*
X141897266Y-73314852D01*
X142010071Y-73442183D01*
X142064325Y-73479632D01*
X142150068Y-73538817D01*
X142150069Y-73538817D01*
X142150070Y-73538818D01*
X142208043Y-73560804D01*
X142278949Y-73587695D01*
X142309128Y-73599140D01*
X142385028Y-73608356D01*
X142435626Y-73614500D01*
X142435628Y-73614500D01*
X147407952Y-73614500D01*
X147411697Y-73614613D01*
X147419042Y-73615057D01*
X147473606Y-73618358D01*
X147511314Y-73611447D01*
X147534621Y-73607177D01*
X147538325Y-73606613D01*
X147556170Y-73604446D01*
X147599872Y-73599140D01*
X147609335Y-73595550D01*
X147630961Y-73589522D01*
X147631893Y-73589351D01*
X147640932Y-73587695D01*
X147697512Y-73562229D01*
X147700942Y-73560809D01*
X147758930Y-73538818D01*
X147767266Y-73533062D01*
X147786821Y-73522034D01*
X147796057Y-73517878D01*
X147844896Y-73479613D01*
X147847876Y-73477421D01*
X147898929Y-73442183D01*
X147940065Y-73395748D01*
X147942599Y-73393056D01*
X147949656Y-73385999D01*
X147952348Y-73383465D01*
X147998783Y-73342329D01*
X148034021Y-73291276D01*
X148036213Y-73288296D01*
X148074478Y-73239457D01*
X148078634Y-73230221D01*
X148089662Y-73210666D01*
X148095418Y-73202330D01*
X148117412Y-73144331D01*
X148118827Y-73140915D01*
X148144295Y-73084331D01*
X148146122Y-73074359D01*
X148152146Y-73052747D01*
X148155740Y-73043272D01*
X148163213Y-72981724D01*
X148163777Y-72978019D01*
X148167139Y-72959669D01*
X148174958Y-72917006D01*
X148171213Y-72855096D01*
X148171100Y-72851351D01*
X148171100Y-71437919D01*
X148190785Y-71370880D01*
X148207419Y-71350238D01*
X148446838Y-71110819D01*
X148508161Y-71077334D01*
X148534519Y-71074500D01*
X148743374Y-71074500D01*
X148785538Y-71069380D01*
X148869872Y-71059140D01*
X149028930Y-70998818D01*
X149168929Y-70902183D01*
X149281734Y-70774852D01*
X149285089Y-70768461D01*
X149330192Y-70682524D01*
X149360790Y-70624225D01*
X149401500Y-70459056D01*
X149401500Y-70288944D01*
X149360790Y-70123775D01*
X149360789Y-70123773D01*
X149281736Y-69973150D01*
X149262560Y-69951505D01*
X149168929Y-69845817D01*
X149059267Y-69770122D01*
X149028931Y-69749182D01*
X148869874Y-69688860D01*
X148869868Y-69688859D01*
X148743374Y-69673500D01*
X148743372Y-69673500D01*
X148216048Y-69673500D01*
X148212303Y-69673387D01*
X148150396Y-69669642D01*
X148150389Y-69669642D01*
X148089386Y-69680821D01*
X148085685Y-69681384D01*
X148024128Y-69688859D01*
X148024121Y-69688861D01*
X148014647Y-69692454D01*
X147993049Y-69698475D01*
X147983068Y-69700305D01*
X147983063Y-69700306D01*
X147926505Y-69725761D01*
X147923046Y-69727193D01*
X147865070Y-69749181D01*
X147865066Y-69749184D01*
X147856723Y-69754942D01*
X147837188Y-69765960D01*
X147827948Y-69770119D01*
X147827939Y-69770124D01*
X147779124Y-69808368D01*
X147776109Y-69810586D01*
X147725068Y-69845818D01*
X147683942Y-69892240D01*
X147681375Y-69894966D01*
X146991566Y-70584775D01*
X146988840Y-70587342D01*
X146942418Y-70628468D01*
X146907186Y-70679509D01*
X146904968Y-70682524D01*
X146866724Y-70731339D01*
X146866719Y-70731348D01*
X146862560Y-70740588D01*
X146851542Y-70760123D01*
X146845787Y-70768461D01*
X146845783Y-70768467D01*
X146845782Y-70768470D01*
X146845780Y-70768474D01*
X146845779Y-70768477D01*
X146823789Y-70826455D01*
X146822357Y-70829913D01*
X146796905Y-70886468D01*
X146795077Y-70896442D01*
X146789053Y-70918053D01*
X146785460Y-70927527D01*
X146785459Y-70927528D01*
X146777984Y-70989085D01*
X146777421Y-70992786D01*
X146766242Y-71053790D01*
X146766242Y-71053795D01*
X146769987Y-71115702D01*
X146770100Y-71119447D01*
X146770100Y-71708917D01*
X146750415Y-71775956D01*
X146733781Y-71796598D01*
X146353198Y-72177181D01*
X146291875Y-72210666D01*
X146265517Y-72213500D01*
X142435626Y-72213500D01*
X142309131Y-72228859D01*
X142309125Y-72228860D01*
X142150068Y-72289182D01*
X142010072Y-72385816D01*
X141897263Y-72513150D01*
X141818210Y-72663773D01*
X141818210Y-72663775D01*
X141777500Y-72828944D01*
X141777500Y-72999056D01*
X131116000Y-72999056D01*
X131116000Y-72529000D01*
X130532345Y-72529000D01*
X130465306Y-72509315D01*
X130419551Y-72456511D01*
X130409607Y-72387353D01*
X130409979Y-72384939D01*
X130419758Y-72325289D01*
X130410781Y-72159712D01*
X130426807Y-72091706D01*
X130477057Y-72043160D01*
X130534599Y-72029000D01*
X131116000Y-72029000D01*
X131116000Y-71124794D01*
X131113149Y-71094400D01*
X131113149Y-71094396D01*
X131068346Y-70966355D01*
X130987791Y-70857208D01*
X130878644Y-70776653D01*
X130750601Y-70731850D01*
X130720206Y-70729000D01*
X129816000Y-70729000D01*
X129816000Y-71309418D01*
X129796315Y-71376457D01*
X129743511Y-71422212D01*
X129674353Y-71432156D01*
X129665360Y-71430522D01*
X129658443Y-71429000D01*
X129519916Y-71429000D01*
X129519911Y-71429000D01*
X129453406Y-71436233D01*
X129384631Y-71423912D01*
X129333436Y-71376364D01*
X129316000Y-71312960D01*
X129316000Y-70729000D01*
X128411794Y-70729000D01*
X128381400Y-70731850D01*
X128381396Y-70731850D01*
X128253355Y-70776653D01*
X128144208Y-70857208D01*
X128063653Y-70966355D01*
X128018850Y-71094396D01*
X128018850Y-71094400D01*
X128016000Y-71124794D01*
X128016000Y-72029000D01*
X128599655Y-72029000D01*
X128666694Y-72048685D01*
X128712449Y-72101489D01*
X128722393Y-72170647D01*
X128722021Y-72173061D01*
X128712242Y-72232708D01*
X128712242Y-72232711D01*
X128721219Y-72398287D01*
X128705193Y-72466294D01*
X128654943Y-72514840D01*
X128597401Y-72529000D01*
X128016000Y-72529000D01*
X128016000Y-73433205D01*
X124000500Y-73433205D01*
X124000500Y-66001439D01*
X124000533Y-66000002D01*
X124594506Y-66000002D01*
X124614469Y-66368196D01*
X124614470Y-66368213D01*
X124674122Y-66732068D01*
X124674128Y-66732094D01*
X124772768Y-67087365D01*
X124772770Y-67087371D01*
X124909255Y-67429926D01*
X124909261Y-67429938D01*
X125081973Y-67755708D01*
X125081976Y-67755713D01*
X125081978Y-67755716D01*
X125288910Y-68060917D01*
X125527627Y-68341956D01*
X125795330Y-68595538D01*
X126088881Y-68818690D01*
X126404838Y-69008795D01*
X126404840Y-69008796D01*
X126404842Y-69008797D01*
X126404846Y-69008799D01*
X126739486Y-69163620D01*
X126739497Y-69163625D01*
X127088934Y-69281364D01*
X127449052Y-69360632D01*
X127815630Y-69400500D01*
X127815636Y-69400500D01*
X128184364Y-69400500D01*
X128184370Y-69400500D01*
X128550948Y-69360632D01*
X128911066Y-69281364D01*
X129260503Y-69163625D01*
X129595162Y-69008795D01*
X129911119Y-68818690D01*
X130204670Y-68595538D01*
X130472373Y-68341956D01*
X130711090Y-68060917D01*
X130918022Y-67755716D01*
X131090743Y-67429930D01*
X131227227Y-67087379D01*
X131325875Y-66732081D01*
X131362962Y-66505863D01*
X131385529Y-66368213D01*
X131385529Y-66368210D01*
X131385531Y-66368199D01*
X131405494Y-66000000D01*
X131385531Y-65631801D01*
X131385395Y-65630973D01*
X131325877Y-65267931D01*
X131325876Y-65267930D01*
X131325875Y-65267919D01*
X131227227Y-64912621D01*
X131090743Y-64570070D01*
X130991240Y-64382388D01*
X130918026Y-64244291D01*
X130918024Y-64244288D01*
X130918022Y-64244284D01*
X130711090Y-63939083D01*
X130472373Y-63658044D01*
X130204670Y-63404462D01*
X130175120Y-63381999D01*
X130158364Y-63369261D01*
X129911119Y-63181310D01*
X129595162Y-62991205D01*
X129595161Y-62991204D01*
X129595157Y-62991202D01*
X129595153Y-62991200D01*
X129260513Y-62836379D01*
X129260508Y-62836377D01*
X129260503Y-62836375D01*
X129090172Y-62778983D01*
X128911065Y-62718635D01*
X128550946Y-62639367D01*
X128184371Y-62599500D01*
X128184370Y-62599500D01*
X127815630Y-62599500D01*
X127815628Y-62599500D01*
X127449053Y-62639367D01*
X127088934Y-62718635D01*
X126822732Y-62808330D01*
X126739497Y-62836375D01*
X126739494Y-62836376D01*
X126739486Y-62836379D01*
X126404846Y-62991200D01*
X126404842Y-62991202D01*
X126215187Y-63105314D01*
X126088881Y-63181310D01*
X126008408Y-63242484D01*
X125795330Y-63404461D01*
X125795330Y-63404462D01*
X125527626Y-63658044D01*
X125288909Y-63939083D01*
X125081979Y-64244282D01*
X125081973Y-64244291D01*
X124909261Y-64570061D01*
X124909255Y-64570073D01*
X124772770Y-64912628D01*
X124772768Y-64912634D01*
X124674128Y-65267905D01*
X124674122Y-65267931D01*
X124614470Y-65631786D01*
X124614469Y-65631803D01*
X124594506Y-65999997D01*
X124594506Y-66000002D01*
X124000533Y-66000002D01*
X124000566Y-65998576D01*
X124008487Y-65827238D01*
X124018088Y-65631803D01*
X124018302Y-65627446D01*
X124018818Y-65621955D01*
X124044670Y-65436633D01*
X124072331Y-65250162D01*
X124073292Y-65245137D01*
X124116689Y-65060626D01*
X124161993Y-64879764D01*
X124163323Y-64875216D01*
X124223915Y-64694431D01*
X124286457Y-64519641D01*
X124288100Y-64515527D01*
X124365368Y-64340530D01*
X124444615Y-64172977D01*
X124446444Y-64169423D01*
X124539781Y-64001852D01*
X124634990Y-63843005D01*
X124636979Y-63839904D01*
X124745570Y-63681381D01*
X124855924Y-63532586D01*
X124857928Y-63530033D01*
X124980875Y-63381973D01*
X125105351Y-63244636D01*
X125107361Y-63242526D01*
X125242526Y-63107361D01*
X125244636Y-63105351D01*
X125381973Y-62980875D01*
X125530033Y-62857928D01*
X125532586Y-62855924D01*
X125681381Y-62745570D01*
X125839904Y-62636979D01*
X125843005Y-62634990D01*
X126001858Y-62539778D01*
X126169423Y-62446444D01*
X126172977Y-62444615D01*
X126340530Y-62365368D01*
X126515538Y-62288095D01*
X126519641Y-62286457D01*
X126694431Y-62223915D01*
X126875216Y-62163323D01*
X126879764Y-62161993D01*
X127060626Y-62116689D01*
X127245137Y-62073292D01*
X127250162Y-62072331D01*
X127436651Y-62044667D01*
X127621955Y-62018818D01*
X127627446Y-62018302D01*
X127826958Y-62008500D01*
X127968945Y-62001935D01*
X127998577Y-62000566D01*
X128001440Y-62000500D01*
X138544000Y-62000500D01*
X138611039Y-62020185D01*
G37*
%TD.AperFunction*%
%TD*%
%TA.AperFunction,Conductor*%
%TO.N,GND*%
G36*
X146389600Y-84496400D02*
G01*
X142173200Y-84496400D01*
X142173200Y-79822800D01*
X146389600Y-79822800D01*
X146389600Y-84496400D01*
G37*
%TD.AperFunction*%
%TD*%
%TA.AperFunction,Conductor*%
%TO.N,/BUCK_SW*%
G36*
X147159834Y-71763680D02*
G01*
X147215767Y-71805552D01*
X147240184Y-71871016D01*
X147240500Y-71879862D01*
X147240500Y-72599500D01*
X147220815Y-72666539D01*
X147168011Y-72712294D01*
X147116500Y-72723500D01*
X146396862Y-72723500D01*
X146329823Y-72703815D01*
X146284068Y-72651011D01*
X146274124Y-72581853D01*
X146303149Y-72518297D01*
X146309181Y-72511819D01*
X147028819Y-71792181D01*
X147090142Y-71758696D01*
X147159834Y-71763680D01*
G37*
%TD.AperFunction*%
%TD*%
M02*
