%TF.GenerationSoftware,KiCad,Pcbnew,7.0.7*%
%TF.CreationDate,2024-02-22T09:52:38+01:00*%
%TF.ProjectId,Floppy Soldering station 3.0,466c6f70-7079-4205-936f-6c646572696e,1.0*%
%TF.SameCoordinates,Original*%
%TF.FileFunction,Paste,Top*%
%TF.FilePolarity,Positive*%
%FSLAX46Y46*%
G04 Gerber Fmt 4.6, Leading zero omitted, Abs format (unit mm)*
G04 Created by KiCad (PCBNEW 7.0.7) date 2024-02-22 09:52:38*
%MOMM*%
%LPD*%
G01*
G04 APERTURE LIST*
G04 Aperture macros list*
%AMRoundRect*
0 Rectangle with rounded corners*
0 $1 Rounding radius*
0 $2 $3 $4 $5 $6 $7 $8 $9 X,Y pos of 4 corners*
0 Add a 4 corners polygon primitive as box body*
4,1,4,$2,$3,$4,$5,$6,$7,$8,$9,$2,$3,0*
0 Add four circle primitives for the rounded corners*
1,1,$1+$1,$2,$3*
1,1,$1+$1,$4,$5*
1,1,$1+$1,$6,$7*
1,1,$1+$1,$8,$9*
0 Add four rect primitives between the rounded corners*
20,1,$1+$1,$2,$3,$4,$5,0*
20,1,$1+$1,$4,$5,$6,$7,0*
20,1,$1+$1,$6,$7,$8,$9,0*
20,1,$1+$1,$8,$9,$2,$3,0*%
G04 Aperture macros list end*
%ADD10RoundRect,0.250000X-0.325000X-0.650000X0.325000X-0.650000X0.325000X0.650000X-0.325000X0.650000X0*%
%ADD11RoundRect,0.225000X0.250000X-0.225000X0.250000X0.225000X-0.250000X0.225000X-0.250000X-0.225000X0*%
%ADD12RoundRect,0.200000X-0.275000X0.200000X-0.275000X-0.200000X0.275000X-0.200000X0.275000X0.200000X0*%
%ADD13RoundRect,0.200000X-0.200000X-0.275000X0.200000X-0.275000X0.200000X0.275000X-0.200000X0.275000X0*%
%ADD14RoundRect,0.075000X0.415425X0.521491X-0.521491X-0.415425X-0.415425X-0.521491X0.521491X0.415425X0*%
%ADD15RoundRect,0.075000X-0.415425X0.521491X-0.521491X0.415425X0.415425X-0.521491X0.521491X-0.415425X0*%
%ADD16RoundRect,0.150000X-0.150000X0.587500X-0.150000X-0.587500X0.150000X-0.587500X0.150000X0.587500X0*%
%ADD17RoundRect,0.200000X0.200000X0.275000X-0.200000X0.275000X-0.200000X-0.275000X0.200000X-0.275000X0*%
%ADD18RoundRect,0.225000X-0.225000X-0.250000X0.225000X-0.250000X0.225000X0.250000X-0.225000X0.250000X0*%
%ADD19RoundRect,0.225000X0.335876X0.017678X0.017678X0.335876X-0.335876X-0.017678X-0.017678X-0.335876X0*%
%ADD20RoundRect,0.235000X1.465000X-0.940000X1.465000X0.940000X-1.465000X0.940000X-1.465000X-0.940000X0*%
%ADD21RoundRect,0.250000X-0.300000X-0.300000X0.300000X-0.300000X0.300000X0.300000X-0.300000X0.300000X0*%
%ADD22RoundRect,0.200000X0.275000X-0.200000X0.275000X0.200000X-0.275000X0.200000X-0.275000X-0.200000X0*%
%ADD23RoundRect,0.243750X0.456250X-0.243750X0.456250X0.243750X-0.456250X0.243750X-0.456250X-0.243750X0*%
%ADD24RoundRect,0.225000X-0.335876X-0.017678X-0.017678X-0.335876X0.335876X0.017678X0.017678X0.335876X0*%
%ADD25RoundRect,0.150000X-0.825000X-0.150000X0.825000X-0.150000X0.825000X0.150000X-0.825000X0.150000X0*%
%ADD26RoundRect,0.150000X0.825000X0.150000X-0.825000X0.150000X-0.825000X-0.150000X0.825000X-0.150000X0*%
%ADD27R,1.150000X0.600000*%
%ADD28R,1.150000X0.300000*%
%ADD29R,1.310000X0.650000*%
%ADD30R,1.310000X0.600000*%
%ADD31RoundRect,0.243750X-0.456250X0.243750X-0.456250X-0.243750X0.456250X-0.243750X0.456250X0.243750X0*%
%ADD32RoundRect,0.225000X0.225000X0.250000X-0.225000X0.250000X-0.225000X-0.250000X0.225000X-0.250000X0*%
%ADD33RoundRect,0.150000X-0.512500X-0.150000X0.512500X-0.150000X0.512500X0.150000X-0.512500X0.150000X0*%
G04 APERTURE END LIST*
D10*
%TO.C,C13*%
X140368000Y-63770000D03*
X143318000Y-63770000D03*
%TD*%
D11*
%TO.C,C2*%
X138160000Y-76229000D03*
X138160000Y-74679000D03*
%TD*%
D12*
%TO.C,R8*%
X153019000Y-72216000D03*
X153019000Y-73866000D03*
%TD*%
D13*
%TO.C,R17*%
X162989000Y-101997000D03*
X164639000Y-101997000D03*
%TD*%
D12*
%TO.C,R1*%
X174863000Y-80725000D03*
X174863000Y-82375000D03*
%TD*%
D11*
%TO.C,C6*%
X146161000Y-73689000D03*
X146161000Y-72139000D03*
%TD*%
D14*
%TO.C,U5*%
X159303876Y-95664212D03*
X158950322Y-95310658D03*
X158596769Y-94957105D03*
X158243215Y-94603551D03*
X157889662Y-94249998D03*
X157536109Y-93896445D03*
X157182555Y-93542891D03*
X156829002Y-93189338D03*
X156475449Y-92835785D03*
X156121895Y-92482231D03*
X155768342Y-92128678D03*
X155414788Y-91775124D03*
D15*
X153417212Y-91775124D03*
X153063658Y-92128678D03*
X152710105Y-92482231D03*
X152356551Y-92835785D03*
X152002998Y-93189338D03*
X151649445Y-93542891D03*
X151295891Y-93896445D03*
X150942338Y-94249998D03*
X150588785Y-94603551D03*
X150235231Y-94957105D03*
X149881678Y-95310658D03*
X149528124Y-95664212D03*
D14*
X149528124Y-97661788D03*
X149881678Y-98015342D03*
X150235231Y-98368895D03*
X150588785Y-98722449D03*
X150942338Y-99076002D03*
X151295891Y-99429555D03*
X151649445Y-99783109D03*
X152002998Y-100136662D03*
X152356551Y-100490215D03*
X152710105Y-100843769D03*
X153063658Y-101197322D03*
X153417212Y-101550876D03*
D15*
X155414788Y-101550876D03*
X155768342Y-101197322D03*
X156121895Y-100843769D03*
X156475449Y-100490215D03*
X156829002Y-100136662D03*
X157182555Y-99783109D03*
X157536109Y-99429555D03*
X157889662Y-99076002D03*
X158243215Y-98722449D03*
X158596769Y-98368895D03*
X158950322Y-98015342D03*
X159303876Y-97661788D03*
%TD*%
D16*
%TO.C,Q2*%
X158224000Y-124046500D03*
X156324000Y-124046500D03*
X157274000Y-125921500D03*
%TD*%
D12*
%TO.C,R13*%
X162544000Y-95838000D03*
X162544000Y-97488000D03*
%TD*%
D17*
%TO.C,R4*%
X177974000Y-116221000D03*
X176324000Y-116221000D03*
%TD*%
D18*
%TO.C,C12*%
X169262000Y-110125000D03*
X170812000Y-110125000D03*
%TD*%
D11*
%TO.C,C3*%
X174863000Y-79150000D03*
X174863000Y-77600000D03*
%TD*%
D19*
%TO.C,C14*%
X162330008Y-90607008D03*
X161233992Y-89510992D03*
%TD*%
D20*
%TO.C,L1*%
X140319000Y-72510000D03*
X140319000Y-66460000D03*
%TD*%
D18*
%TO.C,C9*%
X149577000Y-70374000D03*
X151127000Y-70374000D03*
%TD*%
D21*
%TO.C,D2*%
X137903000Y-85360000D03*
X140703000Y-85360000D03*
%TD*%
D12*
%TO.C,R6*%
X145272000Y-79455000D03*
X145272000Y-81105000D03*
%TD*%
D22*
%TO.C,R9*%
X159814000Y-124031000D03*
X159814000Y-122381000D03*
%TD*%
D23*
%TO.C,D4*%
X165719000Y-71692500D03*
X165719000Y-69817500D03*
%TD*%
D17*
%TO.C,R19*%
X164639000Y-100219000D03*
X162989000Y-100219000D03*
%TD*%
%TO.C,R14*%
X136191000Y-96155000D03*
X134541000Y-96155000D03*
%TD*%
D11*
%TO.C,C17*%
X179689000Y-91723000D03*
X179689000Y-90173000D03*
%TD*%
D13*
%TO.C,R3*%
X176197000Y-113554000D03*
X177847000Y-113554000D03*
%TD*%
D24*
%TO.C,C18*%
X158693992Y-92050992D03*
X159790008Y-93147008D03*
%TD*%
D16*
%TO.C,Q3*%
X136189000Y-99662500D03*
X134289000Y-99662500D03*
X135239000Y-101537500D03*
%TD*%
D25*
%TO.C,U2*%
X137971000Y-90694000D03*
X137971000Y-91964000D03*
X137971000Y-93234000D03*
X137971000Y-94504000D03*
X142921000Y-94504000D03*
X142921000Y-93234000D03*
X142921000Y-91964000D03*
X142921000Y-90694000D03*
%TD*%
D26*
%TO.C,U3*%
X174163000Y-115662200D03*
X174163000Y-114392200D03*
X174163000Y-113122200D03*
X174163000Y-111852200D03*
X169213000Y-111852200D03*
X169213000Y-113122200D03*
X169213000Y-114392200D03*
X169213000Y-115662200D03*
%TD*%
D11*
%TO.C,C11*%
X154670000Y-73816000D03*
X154670000Y-72266000D03*
%TD*%
D27*
%TO.C,J4*%
X180245000Y-118200000D03*
X180245000Y-117400000D03*
D28*
X180245000Y-116750000D03*
X180245000Y-116250000D03*
X180245000Y-115750000D03*
X180245000Y-115250000D03*
X180245000Y-114750000D03*
X180245000Y-114250000D03*
X180245000Y-113750000D03*
X180245000Y-113250000D03*
D27*
X180245000Y-112600000D03*
X180245000Y-111800000D03*
%TD*%
D11*
%TO.C,C4*%
X144637000Y-73689000D03*
X144637000Y-72139000D03*
%TD*%
D18*
%TO.C,C10*%
X169262000Y-117364000D03*
X170812000Y-117364000D03*
%TD*%
D29*
%TO.C,Q1*%
X143572500Y-83301000D03*
X143572500Y-82031000D03*
X143572500Y-80761000D03*
D30*
X143572500Y-79491000D03*
D29*
X137882500Y-83301000D03*
X137882500Y-82031000D03*
X137882500Y-80761000D03*
X137882500Y-79491000D03*
%TD*%
D18*
%TO.C,C16*%
X135988000Y-120412000D03*
X137538000Y-120412000D03*
%TD*%
D12*
%TO.C,R16*%
X165719000Y-66628000D03*
X165719000Y-68278000D03*
%TD*%
D31*
%TO.C,D3*%
X164576000Y-95725500D03*
X164576000Y-97600500D03*
%TD*%
D11*
%TO.C,C1*%
X136636000Y-76229000D03*
X136636000Y-74679000D03*
%TD*%
D32*
%TO.C,C8*%
X178559000Y-108855000D03*
X177009000Y-108855000D03*
%TD*%
D13*
%TO.C,R12*%
X171625000Y-105680000D03*
X173275000Y-105680000D03*
%TD*%
D22*
%TO.C,R7*%
X156321000Y-73866000D03*
X156321000Y-72216000D03*
%TD*%
D33*
%TO.C,U1*%
X148833500Y-71964000D03*
X148833500Y-72914000D03*
X148833500Y-73864000D03*
X151108500Y-73864000D03*
X151108500Y-72914000D03*
X151108500Y-71964000D03*
%TD*%
D32*
%TO.C,C5*%
X139524552Y-96329745D03*
X137974552Y-96329745D03*
%TD*%
%TO.C,C7*%
X178559000Y-110506000D03*
X177009000Y-110506000D03*
%TD*%
D22*
%TO.C,R5*%
X146923000Y-81105000D03*
X146923000Y-79455000D03*
%TD*%
D21*
%TO.C,D1*%
X147936000Y-75962000D03*
X150736000Y-75962000D03*
%TD*%
D12*
%TO.C,R18*%
X171434000Y-66628000D03*
X171434000Y-68278000D03*
%TD*%
D17*
%TO.C,R10*%
X158226000Y-122190000D03*
X156576000Y-122190000D03*
%TD*%
D22*
%TO.C,R2*%
X173212000Y-80724000D03*
X173212000Y-79074000D03*
%TD*%
D19*
%TO.C,C15*%
X161060008Y-91877008D03*
X159963992Y-90780992D03*
%TD*%
D17*
%TO.C,R15*%
X136191000Y-97806000D03*
X134541000Y-97806000D03*
%TD*%
D23*
%TO.C,D5*%
X171434000Y-71692500D03*
X171434000Y-69817500D03*
%TD*%
D17*
%TO.C,R11*%
X150034000Y-118507000D03*
X148384000Y-118507000D03*
%TD*%
D26*
%TO.C,U4*%
X174290000Y-104029000D03*
X174290000Y-102759000D03*
X174290000Y-101489000D03*
X174290000Y-100219000D03*
X169340000Y-100219000D03*
X169340000Y-101489000D03*
X169340000Y-102759000D03*
X169340000Y-104029000D03*
%TD*%
M02*
