M48
; DRILL file {KiCad 7.0.7} date Thu Feb 22 09:52:41 2024
; FORMAT={-:-/ absolute / inch / decimal}
; #@! TF.CreationDate,2024-02-22T09:52:41+01:00
; #@! TF.GenerationSoftware,Kicad,Pcbnew,7.0.7
; #@! TF.FileFunction,Plated,1,2,PTH
FMAT,2
INCH
; #@! TA.AperFunction,Plated,PTH,ViaDrill
T1C0.0100
; #@! TA.AperFunction,Plated,PTH,ViaDrill
T2C0.0157
; #@! TA.AperFunction,Plated,PTH,ComponentDrill
T3C0.0197
; #@! TA.AperFunction,Plated,PTH,ComponentDrill
T4C0.0236
; #@! TA.AperFunction,Plated,PTH,ComponentDrill
T5C0.0374
; #@! TA.AperFunction,Plated,PTH,ComponentDrill
T6C0.0394
; #@! TA.AperFunction,Plated,PTH,ComponentDrill
T7C0.0591
; #@! TA.AperFunction,Plated,PTH,ComponentDrill
T8C0.0669
; #@! TA.AperFunction,Plated,PTH,ComponentDrill
T9C0.1260
%
G90
G05
T1
X4.8994Y-3.0806
X4.9194Y-4.5606
X4.9344Y-4.3406
X4.9394Y-3.0806
X4.9794Y-3.0806
X4.9894Y-4.7906
X5.0194Y-3.0806
X5.1594Y-3.0806
X5.1744Y-3.8706
X5.1994Y-3.0806
X5.2044Y-4.1056
X5.2294Y-4.7156
X5.2394Y-3.0806
X5.2744Y-3.4956
X5.2794Y-3.0806
X5.2844Y-2.6056
X5.2974Y-3.7506
X5.3194Y-3.0806
X5.3594Y-3.0806
X5.3994Y-3.0806
X5.4394Y-3.0806
X5.4544Y-4.4306
X5.4794Y-3.0806
X5.5194Y-3.0806
X5.5344Y-3.6406
X5.5394Y-3.1706
X5.5394Y-3.2006
X5.5394Y-3.2306
X5.5394Y-3.2606
X5.5394Y-3.2906
X5.5594Y-3.0806
X5.5694Y-3.1406
X5.5694Y-3.1706
X5.5694Y-3.2006
X5.5694Y-3.2306
X5.5694Y-3.2606
X5.5694Y-3.2906
X5.5994Y-3.0806
X5.5994Y-3.1406
X5.5994Y-3.1706
X5.5994Y-3.2006
X5.5994Y-3.2306
X5.5994Y-3.2606
X5.5994Y-3.2906
X5.6194Y-4.7506
X5.6294Y-2.5756
X5.6394Y-3.0806
X5.6644Y-2.5756
X5.6644Y-3.4556
X5.6794Y-2.8006
X5.6794Y-3.0806
X5.6844Y-4.1756
X5.6894Y-2.5606
X5.6894Y-3.6706
X5.6894Y-3.7206
X5.6994Y-4.4456
X5.7094Y-2.8006
X5.7194Y-3.0806
X5.7364Y-2.8006
X5.7594Y-3.0806
X5.7594Y-5.0506
X5.7684Y-2.8006
X5.7994Y-3.0806
X5.8144Y-3.6206
X5.8394Y-3.0806
X5.8444Y-4.0706
X5.8794Y-3.0806
X5.8844Y-4.3006
X5.8894Y-3.5686
X5.8894Y-3.6206
X5.9044Y-4.0706
X5.9194Y-2.6656
X5.9194Y-3.0806
X5.9194Y-3.6456
X5.9494Y-3.4056
X5.9544Y-4.0756
X5.9594Y-3.0806
X5.9844Y-3.7506
X5.9944Y-3.1656
X5.9994Y-3.0806
X6.039Y-3.6956
X6.0394Y-3.0806
X6.0494Y-3.9056
X6.0494Y-4.6656
X6.0794Y-3.0806
X6.1107Y-3.6769
X6.1194Y-3.0806
X6.1394Y-4.6106
X6.1444Y-4.7256
X6.1594Y-3.0806
X6.1744Y-4.4806
X6.1794Y-3.0606
X6.1944Y-3.3606
X6.1994Y-2.4606
X6.1994Y-2.5006
X6.1994Y-2.5406
X6.1994Y-2.6006
X6.1994Y-2.6406
X6.1994Y-2.6806
X6.1994Y-2.7206
X6.1994Y-2.7606
X6.1994Y-2.8006
X6.1994Y-2.9006
X6.1994Y-2.9406
X6.1994Y-3.0406
X6.2494Y-4.6256
X6.2544Y-2.6906
X6.2744Y-5.0756
X6.3244Y-3.0006
X6.3794Y-3.9456
X6.3794Y-4.0156
X6.3894Y-3.0906
X6.4094Y-3.6756
X6.4194Y-2.8406
X6.4194Y-4.6656
X6.4719Y-2.6231
X6.5244Y-4.0156
X6.5444Y-3.6106
X6.5544Y-3.5056
X6.5654Y-3.9446
X6.6144Y-4.3056
X6.6294Y-4.8356
X6.6394Y-2.7206
X6.7194Y-5.0056
X6.7394Y-3.7406
X6.7644Y-3.1131
X6.8644Y-4.7256
X6.8694Y-3.3506
X6.9794Y-2.7206
X7.0144Y-4.8606
X7.1474Y-4.5146
X7.1474Y-4.5582
X7.1544Y-4.0206
X7.2694Y-4.5306
X7.2994Y-3.1306
X7.2994Y-3.8106
X7.3244Y-4.0206
T2
X5.4321Y-3.9728
X5.6094Y-2.8706
X5.8044Y-2.8706
X5.8544Y-2.7706
X6.1644Y-2.9906
X7.0294Y-4.0206
X7.0508Y-4.4341
X7.0508Y-4.622
T3
X4.9449Y-2.5984
X4.9449Y-4.9606
X4.9726Y-2.5316
X4.9726Y-2.6652
X4.9726Y-4.8938
X4.9726Y-5.0274
X5.0394Y-2.5039
X5.0394Y-2.6929
X5.0394Y-4.8661
X5.0394Y-5.0551
X5.1062Y-2.5316
X5.1062Y-2.6652
X5.1062Y-4.8938
X5.1062Y-5.0274
X5.1339Y-2.5984
X5.1339Y-4.9606
X7.1102Y-2.5984
X7.1102Y-4.9606
X7.1379Y-2.5316
X7.1379Y-2.6652
X7.1379Y-4.8938
X7.1379Y-5.0274
X7.2047Y-2.5039
X7.2047Y-2.6929
X7.2047Y-4.8661
X7.2047Y-5.0551
X7.2715Y-2.5316
X7.2715Y-2.6652
X7.2715Y-4.8938
X7.2715Y-5.0274
X7.2992Y-2.5984
X7.2992Y-4.9606
T5
X5.0394Y-4.252
X5.0394Y-4.3504
X5.0394Y-4.4488
X5.0394Y-4.5472
X5.0394Y-4.6457
X5.3543Y-4.9606
X5.4528Y-4.9606
X5.5512Y-4.9606
X5.6496Y-4.9606
T6
X5.0394Y-3.9015
X5.0394Y-3.9999
X5.8792Y-4.1756
X5.9055Y-4.9606
X5.9792Y-4.1756
X6.0039Y-4.9606
X6.0792Y-4.1756
X6.1792Y-4.1756
X6.2792Y-4.1756
X7.2047Y-3.0906
X7.2047Y-3.189
X7.2805Y-3.4941
X7.2805Y-3.6713
X7.2805Y-3.9272
X7.2805Y-4.1043
T7
X7.1821Y-3.4449
X7.1821Y-3.7205
X7.1821Y-3.878
X7.1821Y-4.1535
T8
X5.1004Y-3.2039
X5.1004Y-3.3598
X5.1004Y-3.5157
X5.1004Y-3.6716
X5.101Y-2.8456
X5.101Y-3.0015
T9
X5.0394Y-2.5984
X5.0394Y-4.9606
X7.2047Y-2.5984
X7.2047Y-4.9606
T4
G00X7.1406Y-4.3575
M15
G01X7.0972Y-4.3575
M16
G05
G00X7.1406Y-4.6976
M15
G01X7.0972Y-4.6976
M16
G05
G00X7.3051Y-4.3575
M15
G01X7.2618Y-4.3575
M16
G05
G00X7.3051Y-4.6976
M15
G01X7.2618Y-4.6976
M16
G05
T0
M30
