%TF.GenerationSoftware,KiCad,Pcbnew,7.0.7*%
%TF.CreationDate,2024-02-22T09:52:41+01:00*%
%TF.ProjectId,Floppy Soldering station 3.0,466c6f70-7079-4205-936f-6c646572696e,1.0*%
%TF.SameCoordinates,Original*%
%TF.FileFunction,Drillmap*%
%TF.FilePolarity,Positive*%
%FSLAX45Y45*%
G04 Gerber Fmt 4.5, Leading zero omitted, Abs format (unit mm)*
G04 Created by KiCad (PCBNEW 7.0.7) date 2024-02-22 09:52:41*
%MOMM*%
%LPD*%
G01*
G04 APERTURE LIST*
%ADD10C,0.100000*%
%ADD11C,0.200000*%
%ADD12C,0.065000*%
G04 APERTURE END LIST*
D10*
X18700000Y-6600000D02*
G75*
G03*
X18300000Y-6200000I-400000J0D01*
G01*
X18300000Y-13000000D02*
G75*
G03*
X18700000Y-12600000I0J400000D01*
G01*
X12800000Y-6200000D02*
G75*
G03*
X12400000Y-6600000I0J-400000D01*
G01*
X18700000Y-12600000D02*
X18700000Y-6600000D01*
X12400000Y-6600000D02*
X12400000Y-12600000D01*
X12800000Y-13000000D02*
X18300000Y-13000000D01*
X18300000Y-6200000D02*
X12800000Y-6200000D01*
X12400000Y-12600000D02*
G75*
G03*
X12800000Y-13000000I400000J0D01*
G01*
D11*
D12*
X18099500Y-11178500D02*
X18164500Y-11243500D01*
X18164500Y-11178500D02*
X18099500Y-11243500D01*
X18099500Y-11756500D02*
X18164500Y-11821500D01*
X18164500Y-11756500D02*
X18099500Y-11821500D01*
D11*
X12655777Y-13316484D02*
X12655777Y-13116484D01*
X12655777Y-13116484D02*
X12703396Y-13116484D01*
X12703396Y-13116484D02*
X12731967Y-13126008D01*
X12731967Y-13126008D02*
X12751015Y-13145055D01*
X12751015Y-13145055D02*
X12760539Y-13164103D01*
X12760539Y-13164103D02*
X12770062Y-13202198D01*
X12770062Y-13202198D02*
X12770062Y-13230769D01*
X12770062Y-13230769D02*
X12760539Y-13268865D01*
X12760539Y-13268865D02*
X12751015Y-13287912D01*
X12751015Y-13287912D02*
X12731967Y-13306960D01*
X12731967Y-13306960D02*
X12703396Y-13316484D01*
X12703396Y-13316484D02*
X12655777Y-13316484D01*
X12855777Y-13316484D02*
X12855777Y-13183150D01*
X12855777Y-13221246D02*
X12865301Y-13202198D01*
X12865301Y-13202198D02*
X12874824Y-13192674D01*
X12874824Y-13192674D02*
X12893872Y-13183150D01*
X12893872Y-13183150D02*
X12912920Y-13183150D01*
X12979586Y-13316484D02*
X12979586Y-13183150D01*
X12979586Y-13116484D02*
X12970062Y-13126008D01*
X12970062Y-13126008D02*
X12979586Y-13135531D01*
X12979586Y-13135531D02*
X12989110Y-13126008D01*
X12989110Y-13126008D02*
X12979586Y-13116484D01*
X12979586Y-13116484D02*
X12979586Y-13135531D01*
X13103396Y-13316484D02*
X13084348Y-13306960D01*
X13084348Y-13306960D02*
X13074824Y-13287912D01*
X13074824Y-13287912D02*
X13074824Y-13116484D01*
X13208158Y-13316484D02*
X13189110Y-13306960D01*
X13189110Y-13306960D02*
X13179586Y-13287912D01*
X13179586Y-13287912D02*
X13179586Y-13116484D01*
X13436729Y-13316484D02*
X13436729Y-13116484D01*
X13436729Y-13116484D02*
X13503396Y-13259341D01*
X13503396Y-13259341D02*
X13570062Y-13116484D01*
X13570062Y-13116484D02*
X13570062Y-13316484D01*
X13751015Y-13316484D02*
X13751015Y-13211722D01*
X13751015Y-13211722D02*
X13741491Y-13192674D01*
X13741491Y-13192674D02*
X13722443Y-13183150D01*
X13722443Y-13183150D02*
X13684348Y-13183150D01*
X13684348Y-13183150D02*
X13665301Y-13192674D01*
X13751015Y-13306960D02*
X13731967Y-13316484D01*
X13731967Y-13316484D02*
X13684348Y-13316484D01*
X13684348Y-13316484D02*
X13665301Y-13306960D01*
X13665301Y-13306960D02*
X13655777Y-13287912D01*
X13655777Y-13287912D02*
X13655777Y-13268865D01*
X13655777Y-13268865D02*
X13665301Y-13249817D01*
X13665301Y-13249817D02*
X13684348Y-13240293D01*
X13684348Y-13240293D02*
X13731967Y-13240293D01*
X13731967Y-13240293D02*
X13751015Y-13230769D01*
X13846253Y-13183150D02*
X13846253Y-13383150D01*
X13846253Y-13192674D02*
X13865301Y-13183150D01*
X13865301Y-13183150D02*
X13903396Y-13183150D01*
X13903396Y-13183150D02*
X13922443Y-13192674D01*
X13922443Y-13192674D02*
X13931967Y-13202198D01*
X13931967Y-13202198D02*
X13941491Y-13221246D01*
X13941491Y-13221246D02*
X13941491Y-13278388D01*
X13941491Y-13278388D02*
X13931967Y-13297436D01*
X13931967Y-13297436D02*
X13922443Y-13306960D01*
X13922443Y-13306960D02*
X13903396Y-13316484D01*
X13903396Y-13316484D02*
X13865301Y-13316484D01*
X13865301Y-13316484D02*
X13846253Y-13306960D01*
X14027205Y-13297436D02*
X14036729Y-13306960D01*
X14036729Y-13306960D02*
X14027205Y-13316484D01*
X14027205Y-13316484D02*
X14017682Y-13306960D01*
X14017682Y-13306960D02*
X14027205Y-13297436D01*
X14027205Y-13297436D02*
X14027205Y-13316484D01*
X14027205Y-13192674D02*
X14036729Y-13202198D01*
X14036729Y-13202198D02*
X14027205Y-13211722D01*
X14027205Y-13211722D02*
X14017682Y-13202198D01*
X14017682Y-13202198D02*
X14027205Y-13192674D01*
X14027205Y-13192674D02*
X14027205Y-13211722D01*
D12*
X12330000Y-13612500D02*
X12395000Y-13677500D01*
X12395000Y-13612500D02*
X12330000Y-13677500D01*
D11*
X12693872Y-13536484D02*
X12712920Y-13536484D01*
X12712920Y-13536484D02*
X12731967Y-13546008D01*
X12731967Y-13546008D02*
X12741491Y-13555531D01*
X12741491Y-13555531D02*
X12751015Y-13574579D01*
X12751015Y-13574579D02*
X12760539Y-13612674D01*
X12760539Y-13612674D02*
X12760539Y-13660293D01*
X12760539Y-13660293D02*
X12751015Y-13698388D01*
X12751015Y-13698388D02*
X12741491Y-13717436D01*
X12741491Y-13717436D02*
X12731967Y-13726960D01*
X12731967Y-13726960D02*
X12712920Y-13736484D01*
X12712920Y-13736484D02*
X12693872Y-13736484D01*
X12693872Y-13736484D02*
X12674824Y-13726960D01*
X12674824Y-13726960D02*
X12665301Y-13717436D01*
X12665301Y-13717436D02*
X12655777Y-13698388D01*
X12655777Y-13698388D02*
X12646253Y-13660293D01*
X12646253Y-13660293D02*
X12646253Y-13612674D01*
X12646253Y-13612674D02*
X12655777Y-13574579D01*
X12655777Y-13574579D02*
X12665301Y-13555531D01*
X12665301Y-13555531D02*
X12674824Y-13546008D01*
X12674824Y-13546008D02*
X12693872Y-13536484D01*
X12846253Y-13717436D02*
X12855777Y-13726960D01*
X12855777Y-13726960D02*
X12846253Y-13736484D01*
X12846253Y-13736484D02*
X12836729Y-13726960D01*
X12836729Y-13726960D02*
X12846253Y-13717436D01*
X12846253Y-13717436D02*
X12846253Y-13736484D01*
X13027205Y-13536484D02*
X12989110Y-13536484D01*
X12989110Y-13536484D02*
X12970062Y-13546008D01*
X12970062Y-13546008D02*
X12960539Y-13555531D01*
X12960539Y-13555531D02*
X12941491Y-13584103D01*
X12941491Y-13584103D02*
X12931967Y-13622198D01*
X12931967Y-13622198D02*
X12931967Y-13698388D01*
X12931967Y-13698388D02*
X12941491Y-13717436D01*
X12941491Y-13717436D02*
X12951015Y-13726960D01*
X12951015Y-13726960D02*
X12970062Y-13736484D01*
X12970062Y-13736484D02*
X13008158Y-13736484D01*
X13008158Y-13736484D02*
X13027205Y-13726960D01*
X13027205Y-13726960D02*
X13036729Y-13717436D01*
X13036729Y-13717436D02*
X13046253Y-13698388D01*
X13046253Y-13698388D02*
X13046253Y-13650769D01*
X13046253Y-13650769D02*
X13036729Y-13631722D01*
X13036729Y-13631722D02*
X13027205Y-13622198D01*
X13027205Y-13622198D02*
X13008158Y-13612674D01*
X13008158Y-13612674D02*
X12970062Y-13612674D01*
X12970062Y-13612674D02*
X12951015Y-13622198D01*
X12951015Y-13622198D02*
X12941491Y-13631722D01*
X12941491Y-13631722D02*
X12931967Y-13650769D01*
X13227205Y-13536484D02*
X13131967Y-13536484D01*
X13131967Y-13536484D02*
X13122443Y-13631722D01*
X13122443Y-13631722D02*
X13131967Y-13622198D01*
X13131967Y-13622198D02*
X13151015Y-13612674D01*
X13151015Y-13612674D02*
X13198634Y-13612674D01*
X13198634Y-13612674D02*
X13217682Y-13622198D01*
X13217682Y-13622198D02*
X13227205Y-13631722D01*
X13227205Y-13631722D02*
X13236729Y-13650769D01*
X13236729Y-13650769D02*
X13236729Y-13698388D01*
X13236729Y-13698388D02*
X13227205Y-13717436D01*
X13227205Y-13717436D02*
X13217682Y-13726960D01*
X13217682Y-13726960D02*
X13198634Y-13736484D01*
X13198634Y-13736484D02*
X13151015Y-13736484D01*
X13151015Y-13736484D02*
X13131967Y-13726960D01*
X13131967Y-13726960D02*
X13122443Y-13717436D01*
X13360539Y-13536484D02*
X13379586Y-13536484D01*
X13379586Y-13536484D02*
X13398634Y-13546008D01*
X13398634Y-13546008D02*
X13408158Y-13555531D01*
X13408158Y-13555531D02*
X13417682Y-13574579D01*
X13417682Y-13574579D02*
X13427205Y-13612674D01*
X13427205Y-13612674D02*
X13427205Y-13660293D01*
X13427205Y-13660293D02*
X13417682Y-13698388D01*
X13417682Y-13698388D02*
X13408158Y-13717436D01*
X13408158Y-13717436D02*
X13398634Y-13726960D01*
X13398634Y-13726960D02*
X13379586Y-13736484D01*
X13379586Y-13736484D02*
X13360539Y-13736484D01*
X13360539Y-13736484D02*
X13341491Y-13726960D01*
X13341491Y-13726960D02*
X13331967Y-13717436D01*
X13331967Y-13717436D02*
X13322443Y-13698388D01*
X13322443Y-13698388D02*
X13312920Y-13660293D01*
X13312920Y-13660293D02*
X13312920Y-13612674D01*
X13312920Y-13612674D02*
X13322443Y-13574579D01*
X13322443Y-13574579D02*
X13331967Y-13555531D01*
X13331967Y-13555531D02*
X13341491Y-13546008D01*
X13341491Y-13546008D02*
X13360539Y-13536484D01*
X13512920Y-13736484D02*
X13512920Y-13603150D01*
X13512920Y-13622198D02*
X13522443Y-13612674D01*
X13522443Y-13612674D02*
X13541491Y-13603150D01*
X13541491Y-13603150D02*
X13570063Y-13603150D01*
X13570063Y-13603150D02*
X13589110Y-13612674D01*
X13589110Y-13612674D02*
X13598634Y-13631722D01*
X13598634Y-13631722D02*
X13598634Y-13736484D01*
X13598634Y-13631722D02*
X13608158Y-13612674D01*
X13608158Y-13612674D02*
X13627205Y-13603150D01*
X13627205Y-13603150D02*
X13655777Y-13603150D01*
X13655777Y-13603150D02*
X13674824Y-13612674D01*
X13674824Y-13612674D02*
X13684348Y-13631722D01*
X13684348Y-13631722D02*
X13684348Y-13736484D01*
X13779586Y-13736484D02*
X13779586Y-13603150D01*
X13779586Y-13622198D02*
X13789110Y-13612674D01*
X13789110Y-13612674D02*
X13808158Y-13603150D01*
X13808158Y-13603150D02*
X13836729Y-13603150D01*
X13836729Y-13603150D02*
X13855777Y-13612674D01*
X13855777Y-13612674D02*
X13865301Y-13631722D01*
X13865301Y-13631722D02*
X13865301Y-13736484D01*
X13865301Y-13631722D02*
X13874824Y-13612674D01*
X13874824Y-13612674D02*
X13893872Y-13603150D01*
X13893872Y-13603150D02*
X13922443Y-13603150D01*
X13922443Y-13603150D02*
X13941491Y-13612674D01*
X13941491Y-13612674D02*
X13951015Y-13631722D01*
X13951015Y-13631722D02*
X13951015Y-13736484D01*
X14341491Y-13526960D02*
X14170063Y-13784103D01*
X14598634Y-13536484D02*
X14617682Y-13536484D01*
X14617682Y-13536484D02*
X14636729Y-13546008D01*
X14636729Y-13546008D02*
X14646253Y-13555531D01*
X14646253Y-13555531D02*
X14655777Y-13574579D01*
X14655777Y-13574579D02*
X14665301Y-13612674D01*
X14665301Y-13612674D02*
X14665301Y-13660293D01*
X14665301Y-13660293D02*
X14655777Y-13698388D01*
X14655777Y-13698388D02*
X14646253Y-13717436D01*
X14646253Y-13717436D02*
X14636729Y-13726960D01*
X14636729Y-13726960D02*
X14617682Y-13736484D01*
X14617682Y-13736484D02*
X14598634Y-13736484D01*
X14598634Y-13736484D02*
X14579586Y-13726960D01*
X14579586Y-13726960D02*
X14570063Y-13717436D01*
X14570063Y-13717436D02*
X14560539Y-13698388D01*
X14560539Y-13698388D02*
X14551015Y-13660293D01*
X14551015Y-13660293D02*
X14551015Y-13612674D01*
X14551015Y-13612674D02*
X14560539Y-13574579D01*
X14560539Y-13574579D02*
X14570063Y-13555531D01*
X14570063Y-13555531D02*
X14579586Y-13546008D01*
X14579586Y-13546008D02*
X14598634Y-13536484D01*
X14751015Y-13717436D02*
X14760539Y-13726960D01*
X14760539Y-13726960D02*
X14751015Y-13736484D01*
X14751015Y-13736484D02*
X14741491Y-13726960D01*
X14741491Y-13726960D02*
X14751015Y-13717436D01*
X14751015Y-13717436D02*
X14751015Y-13736484D01*
X14884348Y-13536484D02*
X14903396Y-13536484D01*
X14903396Y-13536484D02*
X14922444Y-13546008D01*
X14922444Y-13546008D02*
X14931967Y-13555531D01*
X14931967Y-13555531D02*
X14941491Y-13574579D01*
X14941491Y-13574579D02*
X14951015Y-13612674D01*
X14951015Y-13612674D02*
X14951015Y-13660293D01*
X14951015Y-13660293D02*
X14941491Y-13698388D01*
X14941491Y-13698388D02*
X14931967Y-13717436D01*
X14931967Y-13717436D02*
X14922444Y-13726960D01*
X14922444Y-13726960D02*
X14903396Y-13736484D01*
X14903396Y-13736484D02*
X14884348Y-13736484D01*
X14884348Y-13736484D02*
X14865301Y-13726960D01*
X14865301Y-13726960D02*
X14855777Y-13717436D01*
X14855777Y-13717436D02*
X14846253Y-13698388D01*
X14846253Y-13698388D02*
X14836729Y-13660293D01*
X14836729Y-13660293D02*
X14836729Y-13612674D01*
X14836729Y-13612674D02*
X14846253Y-13574579D01*
X14846253Y-13574579D02*
X14855777Y-13555531D01*
X14855777Y-13555531D02*
X14865301Y-13546008D01*
X14865301Y-13546008D02*
X14884348Y-13536484D01*
X15027206Y-13555531D02*
X15036729Y-13546008D01*
X15036729Y-13546008D02*
X15055777Y-13536484D01*
X15055777Y-13536484D02*
X15103396Y-13536484D01*
X15103396Y-13536484D02*
X15122444Y-13546008D01*
X15122444Y-13546008D02*
X15131967Y-13555531D01*
X15131967Y-13555531D02*
X15141491Y-13574579D01*
X15141491Y-13574579D02*
X15141491Y-13593627D01*
X15141491Y-13593627D02*
X15131967Y-13622198D01*
X15131967Y-13622198D02*
X15017682Y-13736484D01*
X15017682Y-13736484D02*
X15141491Y-13736484D01*
X15322444Y-13536484D02*
X15227206Y-13536484D01*
X15227206Y-13536484D02*
X15217682Y-13631722D01*
X15217682Y-13631722D02*
X15227206Y-13622198D01*
X15227206Y-13622198D02*
X15246253Y-13612674D01*
X15246253Y-13612674D02*
X15293872Y-13612674D01*
X15293872Y-13612674D02*
X15312920Y-13622198D01*
X15312920Y-13622198D02*
X15322444Y-13631722D01*
X15322444Y-13631722D02*
X15331967Y-13650769D01*
X15331967Y-13650769D02*
X15331967Y-13698388D01*
X15331967Y-13698388D02*
X15322444Y-13717436D01*
X15322444Y-13717436D02*
X15312920Y-13726960D01*
X15312920Y-13726960D02*
X15293872Y-13736484D01*
X15293872Y-13736484D02*
X15246253Y-13736484D01*
X15246253Y-13736484D02*
X15227206Y-13726960D01*
X15227206Y-13726960D02*
X15217682Y-13717436D01*
X15503396Y-13536484D02*
X15465301Y-13536484D01*
X15465301Y-13536484D02*
X15446253Y-13546008D01*
X15446253Y-13546008D02*
X15436729Y-13555531D01*
X15436729Y-13555531D02*
X15417682Y-13584103D01*
X15417682Y-13584103D02*
X15408158Y-13622198D01*
X15408158Y-13622198D02*
X15408158Y-13698388D01*
X15408158Y-13698388D02*
X15417682Y-13717436D01*
X15417682Y-13717436D02*
X15427206Y-13726960D01*
X15427206Y-13726960D02*
X15446253Y-13736484D01*
X15446253Y-13736484D02*
X15484348Y-13736484D01*
X15484348Y-13736484D02*
X15503396Y-13726960D01*
X15503396Y-13726960D02*
X15512920Y-13717436D01*
X15512920Y-13717436D02*
X15522444Y-13698388D01*
X15522444Y-13698388D02*
X15522444Y-13650769D01*
X15522444Y-13650769D02*
X15512920Y-13631722D01*
X15512920Y-13631722D02*
X15503396Y-13622198D01*
X15503396Y-13622198D02*
X15484348Y-13612674D01*
X15484348Y-13612674D02*
X15446253Y-13612674D01*
X15446253Y-13612674D02*
X15427206Y-13622198D01*
X15427206Y-13622198D02*
X15417682Y-13631722D01*
X15417682Y-13631722D02*
X15408158Y-13650769D01*
X15598634Y-13536484D02*
X15598634Y-13574579D01*
X15674825Y-13536484D02*
X15674825Y-13574579D01*
X15970063Y-13812674D02*
X15960539Y-13803150D01*
X15960539Y-13803150D02*
X15941491Y-13774579D01*
X15941491Y-13774579D02*
X15931968Y-13755531D01*
X15931968Y-13755531D02*
X15922444Y-13726960D01*
X15922444Y-13726960D02*
X15912920Y-13679341D01*
X15912920Y-13679341D02*
X15912920Y-13641246D01*
X15912920Y-13641246D02*
X15922444Y-13593627D01*
X15922444Y-13593627D02*
X15931968Y-13565055D01*
X15931968Y-13565055D02*
X15941491Y-13546008D01*
X15941491Y-13546008D02*
X15960539Y-13517436D01*
X15960539Y-13517436D02*
X15970063Y-13507912D01*
X16036729Y-13555531D02*
X16046253Y-13546008D01*
X16046253Y-13546008D02*
X16065301Y-13536484D01*
X16065301Y-13536484D02*
X16112920Y-13536484D01*
X16112920Y-13536484D02*
X16131968Y-13546008D01*
X16131968Y-13546008D02*
X16141491Y-13555531D01*
X16141491Y-13555531D02*
X16151015Y-13574579D01*
X16151015Y-13574579D02*
X16151015Y-13593627D01*
X16151015Y-13593627D02*
X16141491Y-13622198D01*
X16141491Y-13622198D02*
X16027206Y-13736484D01*
X16027206Y-13736484D02*
X16151015Y-13736484D01*
X16389110Y-13736484D02*
X16389110Y-13536484D01*
X16474825Y-13736484D02*
X16474825Y-13631722D01*
X16474825Y-13631722D02*
X16465301Y-13612674D01*
X16465301Y-13612674D02*
X16446253Y-13603150D01*
X16446253Y-13603150D02*
X16417682Y-13603150D01*
X16417682Y-13603150D02*
X16398634Y-13612674D01*
X16398634Y-13612674D02*
X16389110Y-13622198D01*
X16598634Y-13736484D02*
X16579587Y-13726960D01*
X16579587Y-13726960D02*
X16570063Y-13717436D01*
X16570063Y-13717436D02*
X16560539Y-13698388D01*
X16560539Y-13698388D02*
X16560539Y-13641246D01*
X16560539Y-13641246D02*
X16570063Y-13622198D01*
X16570063Y-13622198D02*
X16579587Y-13612674D01*
X16579587Y-13612674D02*
X16598634Y-13603150D01*
X16598634Y-13603150D02*
X16627206Y-13603150D01*
X16627206Y-13603150D02*
X16646253Y-13612674D01*
X16646253Y-13612674D02*
X16655777Y-13622198D01*
X16655777Y-13622198D02*
X16665301Y-13641246D01*
X16665301Y-13641246D02*
X16665301Y-13698388D01*
X16665301Y-13698388D02*
X16655777Y-13717436D01*
X16655777Y-13717436D02*
X16646253Y-13726960D01*
X16646253Y-13726960D02*
X16627206Y-13736484D01*
X16627206Y-13736484D02*
X16598634Y-13736484D01*
X16779587Y-13736484D02*
X16760539Y-13726960D01*
X16760539Y-13726960D02*
X16751015Y-13707912D01*
X16751015Y-13707912D02*
X16751015Y-13536484D01*
X16931968Y-13726960D02*
X16912920Y-13736484D01*
X16912920Y-13736484D02*
X16874825Y-13736484D01*
X16874825Y-13736484D02*
X16855777Y-13726960D01*
X16855777Y-13726960D02*
X16846253Y-13707912D01*
X16846253Y-13707912D02*
X16846253Y-13631722D01*
X16846253Y-13631722D02*
X16855777Y-13612674D01*
X16855777Y-13612674D02*
X16874825Y-13603150D01*
X16874825Y-13603150D02*
X16912920Y-13603150D01*
X16912920Y-13603150D02*
X16931968Y-13612674D01*
X16931968Y-13612674D02*
X16941492Y-13631722D01*
X16941492Y-13631722D02*
X16941492Y-13650769D01*
X16941492Y-13650769D02*
X16846253Y-13669817D01*
X17017682Y-13726960D02*
X17036730Y-13736484D01*
X17036730Y-13736484D02*
X17074825Y-13736484D01*
X17074825Y-13736484D02*
X17093873Y-13726960D01*
X17093873Y-13726960D02*
X17103396Y-13707912D01*
X17103396Y-13707912D02*
X17103396Y-13698388D01*
X17103396Y-13698388D02*
X17093873Y-13679341D01*
X17093873Y-13679341D02*
X17074825Y-13669817D01*
X17074825Y-13669817D02*
X17046253Y-13669817D01*
X17046253Y-13669817D02*
X17027206Y-13660293D01*
X17027206Y-13660293D02*
X17017682Y-13641246D01*
X17017682Y-13641246D02*
X17017682Y-13631722D01*
X17017682Y-13631722D02*
X17027206Y-13612674D01*
X17027206Y-13612674D02*
X17046253Y-13603150D01*
X17046253Y-13603150D02*
X17074825Y-13603150D01*
X17074825Y-13603150D02*
X17093873Y-13612674D01*
X17170063Y-13812674D02*
X17179587Y-13803150D01*
X17179587Y-13803150D02*
X17198634Y-13774579D01*
X17198634Y-13774579D02*
X17208158Y-13755531D01*
X17208158Y-13755531D02*
X17217682Y-13726960D01*
X17217682Y-13726960D02*
X17227206Y-13679341D01*
X17227206Y-13679341D02*
X17227206Y-13641246D01*
X17227206Y-13641246D02*
X17217682Y-13593627D01*
X17217682Y-13593627D02*
X17208158Y-13565055D01*
X17208158Y-13565055D02*
X17198634Y-13546008D01*
X17198634Y-13546008D02*
X17179587Y-13517436D01*
X17179587Y-13517436D02*
X17170063Y-13507912D01*
X17531968Y-13812674D02*
X17522444Y-13803150D01*
X17522444Y-13803150D02*
X17503396Y-13774579D01*
X17503396Y-13774579D02*
X17493873Y-13755531D01*
X17493873Y-13755531D02*
X17484349Y-13726960D01*
X17484349Y-13726960D02*
X17474825Y-13679341D01*
X17474825Y-13679341D02*
X17474825Y-13641246D01*
X17474825Y-13641246D02*
X17484349Y-13593627D01*
X17484349Y-13593627D02*
X17493873Y-13565055D01*
X17493873Y-13565055D02*
X17503396Y-13546008D01*
X17503396Y-13546008D02*
X17522444Y-13517436D01*
X17522444Y-13517436D02*
X17531968Y-13507912D01*
X17608158Y-13603150D02*
X17608158Y-13736484D01*
X17608158Y-13622198D02*
X17617682Y-13612674D01*
X17617682Y-13612674D02*
X17636730Y-13603150D01*
X17636730Y-13603150D02*
X17665301Y-13603150D01*
X17665301Y-13603150D02*
X17684349Y-13612674D01*
X17684349Y-13612674D02*
X17693873Y-13631722D01*
X17693873Y-13631722D02*
X17693873Y-13736484D01*
X17817682Y-13736484D02*
X17798634Y-13726960D01*
X17798634Y-13726960D02*
X17789111Y-13717436D01*
X17789111Y-13717436D02*
X17779587Y-13698388D01*
X17779587Y-13698388D02*
X17779587Y-13641246D01*
X17779587Y-13641246D02*
X17789111Y-13622198D01*
X17789111Y-13622198D02*
X17798634Y-13612674D01*
X17798634Y-13612674D02*
X17817682Y-13603150D01*
X17817682Y-13603150D02*
X17846254Y-13603150D01*
X17846254Y-13603150D02*
X17865301Y-13612674D01*
X17865301Y-13612674D02*
X17874825Y-13622198D01*
X17874825Y-13622198D02*
X17884349Y-13641246D01*
X17884349Y-13641246D02*
X17884349Y-13698388D01*
X17884349Y-13698388D02*
X17874825Y-13717436D01*
X17874825Y-13717436D02*
X17865301Y-13726960D01*
X17865301Y-13726960D02*
X17846254Y-13736484D01*
X17846254Y-13736484D02*
X17817682Y-13736484D01*
X17941492Y-13603150D02*
X18017682Y-13603150D01*
X17970063Y-13536484D02*
X17970063Y-13707912D01*
X17970063Y-13707912D02*
X17979587Y-13726960D01*
X17979587Y-13726960D02*
X17998634Y-13736484D01*
X17998634Y-13736484D02*
X18017682Y-13736484D01*
X18236730Y-13603150D02*
X18236730Y-13803150D01*
X18236730Y-13612674D02*
X18255777Y-13603150D01*
X18255777Y-13603150D02*
X18293873Y-13603150D01*
X18293873Y-13603150D02*
X18312920Y-13612674D01*
X18312920Y-13612674D02*
X18322444Y-13622198D01*
X18322444Y-13622198D02*
X18331968Y-13641246D01*
X18331968Y-13641246D02*
X18331968Y-13698388D01*
X18331968Y-13698388D02*
X18322444Y-13717436D01*
X18322444Y-13717436D02*
X18312920Y-13726960D01*
X18312920Y-13726960D02*
X18293873Y-13736484D01*
X18293873Y-13736484D02*
X18255777Y-13736484D01*
X18255777Y-13736484D02*
X18236730Y-13726960D01*
X18446254Y-13736484D02*
X18427206Y-13726960D01*
X18427206Y-13726960D02*
X18417682Y-13707912D01*
X18417682Y-13707912D02*
X18417682Y-13536484D01*
X18608158Y-13736484D02*
X18608158Y-13631722D01*
X18608158Y-13631722D02*
X18598635Y-13612674D01*
X18598635Y-13612674D02*
X18579587Y-13603150D01*
X18579587Y-13603150D02*
X18541492Y-13603150D01*
X18541492Y-13603150D02*
X18522444Y-13612674D01*
X18608158Y-13726960D02*
X18589111Y-13736484D01*
X18589111Y-13736484D02*
X18541492Y-13736484D01*
X18541492Y-13736484D02*
X18522444Y-13726960D01*
X18522444Y-13726960D02*
X18512920Y-13707912D01*
X18512920Y-13707912D02*
X18512920Y-13688865D01*
X18512920Y-13688865D02*
X18522444Y-13669817D01*
X18522444Y-13669817D02*
X18541492Y-13660293D01*
X18541492Y-13660293D02*
X18589111Y-13660293D01*
X18589111Y-13660293D02*
X18608158Y-13650769D01*
X18674825Y-13603150D02*
X18751015Y-13603150D01*
X18703396Y-13536484D02*
X18703396Y-13707912D01*
X18703396Y-13707912D02*
X18712920Y-13726960D01*
X18712920Y-13726960D02*
X18731968Y-13736484D01*
X18731968Y-13736484D02*
X18751015Y-13736484D01*
X18893873Y-13726960D02*
X18874825Y-13736484D01*
X18874825Y-13736484D02*
X18836730Y-13736484D01*
X18836730Y-13736484D02*
X18817682Y-13726960D01*
X18817682Y-13726960D02*
X18808158Y-13707912D01*
X18808158Y-13707912D02*
X18808158Y-13631722D01*
X18808158Y-13631722D02*
X18817682Y-13612674D01*
X18817682Y-13612674D02*
X18836730Y-13603150D01*
X18836730Y-13603150D02*
X18874825Y-13603150D01*
X18874825Y-13603150D02*
X18893873Y-13612674D01*
X18893873Y-13612674D02*
X18903396Y-13631722D01*
X18903396Y-13631722D02*
X18903396Y-13650769D01*
X18903396Y-13650769D02*
X18808158Y-13669817D01*
X19074825Y-13736484D02*
X19074825Y-13536484D01*
X19074825Y-13726960D02*
X19055777Y-13736484D01*
X19055777Y-13736484D02*
X19017682Y-13736484D01*
X19017682Y-13736484D02*
X18998635Y-13726960D01*
X18998635Y-13726960D02*
X18989111Y-13717436D01*
X18989111Y-13717436D02*
X18979587Y-13698388D01*
X18979587Y-13698388D02*
X18979587Y-13641246D01*
X18979587Y-13641246D02*
X18989111Y-13622198D01*
X18989111Y-13622198D02*
X18998635Y-13612674D01*
X18998635Y-13612674D02*
X19017682Y-13603150D01*
X19017682Y-13603150D02*
X19055777Y-13603150D01*
X19055777Y-13603150D02*
X19074825Y-13612674D01*
X19151016Y-13812674D02*
X19160539Y-13803150D01*
X19160539Y-13803150D02*
X19179587Y-13774579D01*
X19179587Y-13774579D02*
X19189111Y-13755531D01*
X19189111Y-13755531D02*
X19198635Y-13726960D01*
X19198635Y-13726960D02*
X19208158Y-13679341D01*
X19208158Y-13679341D02*
X19208158Y-13641246D01*
X19208158Y-13641246D02*
X19198635Y-13593627D01*
X19198635Y-13593627D02*
X19189111Y-13565055D01*
X19189111Y-13565055D02*
X19179587Y-13546008D01*
X19179587Y-13546008D02*
X19160539Y-13517436D01*
X19160539Y-13517436D02*
X19151016Y-13507912D01*
M02*
