%TF.GenerationSoftware,KiCad,Pcbnew,7.0.7*%
%TF.CreationDate,2024-02-22T09:52:41+01:00*%
%TF.ProjectId,Floppy Soldering station 3.0,466c6f70-7079-4205-936f-6c646572696e,1.0*%
%TF.SameCoordinates,Original*%
%TF.FileFunction,Drillmap*%
%TF.FilePolarity,Positive*%
%FSLAX45Y45*%
G04 Gerber Fmt 4.5, Leading zero omitted, Abs format (unit mm)*
G04 Created by KiCad (PCBNEW 7.0.7) date 2024-02-22 09:52:41*
%MOMM*%
%LPD*%
G01*
G04 APERTURE LIST*
%ADD10C,0.100000*%
%ADD11C,0.200000*%
%ADD12C,0.025400*%
%ADD13C,0.040000*%
%ADD14C,0.050000*%
%ADD15C,0.060000*%
%ADD16C,0.095000*%
%ADD17C,0.150000*%
%ADD18C,0.170000*%
%ADD19C,0.320000*%
G04 APERTURE END LIST*
D10*
X18700000Y-6600000D02*
G75*
G03*
X18300000Y-6200000I-400000J0D01*
G01*
X18300000Y-13000000D02*
G75*
G03*
X18700000Y-12600000I0J400000D01*
G01*
X12800000Y-6200000D02*
G75*
G03*
X12400000Y-6600000I0J-400000D01*
G01*
X18700000Y-12600000D02*
X18700000Y-6600000D01*
X12400000Y-6600000D02*
X12400000Y-12600000D01*
X12800000Y-13000000D02*
X18300000Y-13000000D01*
X18300000Y-6200000D02*
X12800000Y-6200000D01*
X12400000Y-12600000D02*
G75*
G03*
X12800000Y-13000000I400000J0D01*
G01*
D11*
D12*
X12431700Y-7812100D02*
X12457100Y-7837500D01*
X12457100Y-7812100D02*
X12431700Y-7837500D01*
X12482500Y-11571300D02*
X12507900Y-11596700D01*
X12507900Y-11571300D02*
X12482500Y-11596700D01*
X12520600Y-11012500D02*
X12546000Y-11037900D01*
X12546000Y-11012500D02*
X12520600Y-11037900D01*
X12533300Y-7812100D02*
X12558700Y-7837500D01*
X12558700Y-7812100D02*
X12533300Y-7837500D01*
X12634900Y-7812100D02*
X12660300Y-7837500D01*
X12660300Y-7812100D02*
X12634900Y-7837500D01*
X12660300Y-12155500D02*
X12685700Y-12180900D01*
X12685700Y-12155500D02*
X12660300Y-12180900D01*
X12736500Y-7812100D02*
X12761900Y-7837500D01*
X12761900Y-7812100D02*
X12736500Y-7837500D01*
X13092100Y-7812100D02*
X13117500Y-7837500D01*
X13117500Y-7812100D02*
X13092100Y-7837500D01*
X13130200Y-9818700D02*
X13155600Y-9844100D01*
X13155600Y-9818700D02*
X13130200Y-9844100D01*
X13193700Y-7812100D02*
X13219100Y-7837500D01*
X13219100Y-7812100D02*
X13193700Y-7837500D01*
X13206400Y-10415600D02*
X13231800Y-10441000D01*
X13231800Y-10415600D02*
X13206400Y-10441000D01*
X13269900Y-11965000D02*
X13295300Y-11990400D01*
X13295300Y-11965000D02*
X13269900Y-11990400D01*
X13295300Y-7812100D02*
X13320700Y-7837500D01*
X13320700Y-7812100D02*
X13295300Y-7837500D01*
X13384200Y-8866200D02*
X13409600Y-8891600D01*
X13409600Y-8866200D02*
X13384200Y-8891600D01*
X13396900Y-7812100D02*
X13422300Y-7837500D01*
X13422300Y-7812100D02*
X13396900Y-7837500D01*
X13409600Y-6605600D02*
X13435000Y-6631000D01*
X13435000Y-6605600D02*
X13409600Y-6631000D01*
X13442620Y-9513900D02*
X13468020Y-9539300D01*
X13468020Y-9513900D02*
X13442620Y-9539300D01*
X13498500Y-7812100D02*
X13523900Y-7837500D01*
X13523900Y-7812100D02*
X13498500Y-7837500D01*
X13600100Y-7812100D02*
X13625500Y-7837500D01*
X13625500Y-7812100D02*
X13600100Y-7837500D01*
X13701700Y-7812100D02*
X13727100Y-7837500D01*
X13727100Y-7812100D02*
X13701700Y-7837500D01*
X13803300Y-7812100D02*
X13828700Y-7837500D01*
X13828700Y-7812100D02*
X13803300Y-7837500D01*
X13841400Y-11241100D02*
X13866800Y-11266500D01*
X13866800Y-11241100D02*
X13841400Y-11266500D01*
X13904900Y-7812100D02*
X13930300Y-7837500D01*
X13930300Y-7812100D02*
X13904900Y-7837500D01*
X14006500Y-7812100D02*
X14031900Y-7837500D01*
X14031900Y-7812100D02*
X14006500Y-7837500D01*
X14044600Y-9234500D02*
X14070000Y-9259900D01*
X14070000Y-9234500D02*
X14044600Y-9259900D01*
X14057300Y-8040700D02*
X14082700Y-8066100D01*
X14082700Y-8040700D02*
X14057300Y-8066100D01*
X14057300Y-8116900D02*
X14082700Y-8142300D01*
X14082700Y-8116900D02*
X14057300Y-8142300D01*
X14057300Y-8193100D02*
X14082700Y-8218500D01*
X14082700Y-8193100D02*
X14057300Y-8218500D01*
X14057300Y-8269300D02*
X14082700Y-8294700D01*
X14082700Y-8269300D02*
X14057300Y-8294700D01*
X14057300Y-8345500D02*
X14082700Y-8370900D01*
X14082700Y-8345500D02*
X14057300Y-8370900D01*
X14108100Y-7812100D02*
X14133500Y-7837500D01*
X14133500Y-7812100D02*
X14108100Y-7837500D01*
X14133500Y-7964500D02*
X14158900Y-7989900D01*
X14158900Y-7964500D02*
X14133500Y-7989900D01*
X14133500Y-8040700D02*
X14158900Y-8066100D01*
X14158900Y-8040700D02*
X14133500Y-8066100D01*
X14133500Y-8116900D02*
X14158900Y-8142300D01*
X14158900Y-8116900D02*
X14133500Y-8142300D01*
X14133500Y-8193100D02*
X14158900Y-8218500D01*
X14158900Y-8193100D02*
X14133500Y-8218500D01*
X14133500Y-8269300D02*
X14158900Y-8294700D01*
X14158900Y-8269300D02*
X14133500Y-8294700D01*
X14133500Y-8345500D02*
X14158900Y-8370900D01*
X14158900Y-8345500D02*
X14133500Y-8370900D01*
X14209700Y-7812100D02*
X14235100Y-7837500D01*
X14235100Y-7812100D02*
X14209700Y-7837500D01*
X14209700Y-7964500D02*
X14235100Y-7989900D01*
X14235100Y-7964500D02*
X14209700Y-7989900D01*
X14209700Y-8040700D02*
X14235100Y-8066100D01*
X14235100Y-8040700D02*
X14209700Y-8066100D01*
X14209700Y-8116900D02*
X14235100Y-8142300D01*
X14235100Y-8116900D02*
X14209700Y-8142300D01*
X14209700Y-8193100D02*
X14235100Y-8218500D01*
X14235100Y-8193100D02*
X14209700Y-8218500D01*
X14209700Y-8269300D02*
X14235100Y-8294700D01*
X14235100Y-8269300D02*
X14209700Y-8294700D01*
X14209700Y-8345500D02*
X14235100Y-8370900D01*
X14235100Y-8345500D02*
X14209700Y-8370900D01*
X14260500Y-12053900D02*
X14285900Y-12079300D01*
X14285900Y-12053900D02*
X14260500Y-12079300D01*
X14285900Y-6529400D02*
X14311300Y-6554800D01*
X14311300Y-6529400D02*
X14285900Y-6554800D01*
X14311300Y-7812100D02*
X14336700Y-7837500D01*
X14336700Y-7812100D02*
X14311300Y-7837500D01*
X14374800Y-6529400D02*
X14400200Y-6554800D01*
X14400200Y-6529400D02*
X14374800Y-6554800D01*
X14374800Y-8764600D02*
X14400200Y-8790000D01*
X14400200Y-8764600D02*
X14374800Y-8790000D01*
X14412900Y-7100900D02*
X14438300Y-7126300D01*
X14438300Y-7100900D02*
X14412900Y-7126300D01*
X14412900Y-7812100D02*
X14438300Y-7837500D01*
X14438300Y-7812100D02*
X14412900Y-7837500D01*
X14425600Y-10593400D02*
X14451000Y-10618800D01*
X14451000Y-10593400D02*
X14425600Y-10618800D01*
X14438300Y-6491300D02*
X14463700Y-6516700D01*
X14463700Y-6491300D02*
X14438300Y-6516700D01*
X14438300Y-9310700D02*
X14463700Y-9336100D01*
X14463700Y-9310700D02*
X14438300Y-9336100D01*
X14438300Y-9437700D02*
X14463700Y-9463100D01*
X14463700Y-9437700D02*
X14438300Y-9463100D01*
X14463700Y-11279200D02*
X14489100Y-11304600D01*
X14489100Y-11279200D02*
X14463700Y-11304600D01*
X14489100Y-7100900D02*
X14514500Y-7126300D01*
X14514500Y-7100900D02*
X14489100Y-7126300D01*
X14514500Y-7812100D02*
X14539900Y-7837500D01*
X14539900Y-7812100D02*
X14514500Y-7837500D01*
X14557680Y-7100900D02*
X14583080Y-7126300D01*
X14583080Y-7100900D02*
X14557680Y-7126300D01*
X14616100Y-7812100D02*
X14641500Y-7837500D01*
X14641500Y-7812100D02*
X14616100Y-7837500D01*
X14616100Y-12815900D02*
X14641500Y-12841300D01*
X14641500Y-12815900D02*
X14616100Y-12841300D01*
X14638960Y-7100900D02*
X14664360Y-7126300D01*
X14664360Y-7100900D02*
X14638960Y-7126300D01*
X14717700Y-7812100D02*
X14743100Y-7837500D01*
X14743100Y-7812100D02*
X14717700Y-7837500D01*
X14755800Y-9183700D02*
X14781200Y-9209100D01*
X14781200Y-9183700D02*
X14755800Y-9209100D01*
X14819300Y-7812100D02*
X14844700Y-7837500D01*
X14844700Y-7812100D02*
X14819300Y-7837500D01*
X14832000Y-10326700D02*
X14857400Y-10352100D01*
X14857400Y-10326700D02*
X14832000Y-10352100D01*
X14920900Y-7812100D02*
X14946300Y-7837500D01*
X14946300Y-7812100D02*
X14920900Y-7837500D01*
X14933600Y-10910900D02*
X14959000Y-10936300D01*
X14959000Y-10910900D02*
X14933600Y-10936300D01*
X14946300Y-9051620D02*
X14971700Y-9077020D01*
X14971700Y-9051620D02*
X14946300Y-9077020D01*
X14946300Y-9183700D02*
X14971700Y-9209100D01*
X14971700Y-9183700D02*
X14946300Y-9209100D01*
X14984400Y-10326700D02*
X15009800Y-10352100D01*
X15009800Y-10326700D02*
X14984400Y-10352100D01*
X15022500Y-6758000D02*
X15047900Y-6783400D01*
X15047900Y-6758000D02*
X15022500Y-6783400D01*
X15022500Y-7812100D02*
X15047900Y-7837500D01*
X15047900Y-7812100D02*
X15022500Y-7837500D01*
X15022500Y-9247200D02*
X15047900Y-9272600D01*
X15047900Y-9247200D02*
X15022500Y-9272600D01*
X15098700Y-8637600D02*
X15124100Y-8663000D01*
X15124100Y-8637600D02*
X15098700Y-8663000D01*
X15111400Y-10339400D02*
X15136800Y-10364800D01*
X15136800Y-10339400D02*
X15111400Y-10364800D01*
X15124100Y-7812100D02*
X15149500Y-7837500D01*
X15149500Y-7812100D02*
X15124100Y-7837500D01*
X15187600Y-9513900D02*
X15213000Y-9539300D01*
X15213000Y-9513900D02*
X15187600Y-9539300D01*
X15213000Y-8028000D02*
X15238400Y-8053400D01*
X15238400Y-8028000D02*
X15213000Y-8053400D01*
X15225700Y-7812100D02*
X15251100Y-7837500D01*
X15251100Y-7812100D02*
X15225700Y-7837500D01*
X15326277Y-9374200D02*
X15351677Y-9399600D01*
X15351677Y-9374200D02*
X15326277Y-9399600D01*
X15327300Y-7812100D02*
X15352700Y-7837500D01*
X15352700Y-7812100D02*
X15327300Y-7837500D01*
X15352700Y-9907600D02*
X15378100Y-9933000D01*
X15378100Y-9907600D02*
X15352700Y-9933000D01*
X15352700Y-11838000D02*
X15378100Y-11863400D01*
X15378100Y-11838000D02*
X15352700Y-11863400D01*
X15428900Y-7812100D02*
X15454300Y-7837500D01*
X15454300Y-7812100D02*
X15428900Y-7837500D01*
X15508356Y-9326656D02*
X15533756Y-9352056D01*
X15533756Y-9326656D02*
X15508356Y-9352056D01*
X15530500Y-7812100D02*
X15555900Y-7837500D01*
X15555900Y-7812100D02*
X15530500Y-7837500D01*
X15581300Y-11698300D02*
X15606700Y-11723700D01*
X15606700Y-11698300D02*
X15581300Y-11723700D01*
X15594000Y-11990400D02*
X15619400Y-12015800D01*
X15619400Y-11990400D02*
X15594000Y-12015800D01*
X15632100Y-7812100D02*
X15657500Y-7837500D01*
X15657500Y-7812100D02*
X15632100Y-7837500D01*
X15670200Y-11368100D02*
X15695600Y-11393500D01*
X15695600Y-11368100D02*
X15670200Y-11393500D01*
X15682900Y-7761300D02*
X15708300Y-7786700D01*
X15708300Y-7761300D02*
X15682900Y-7786700D01*
X15721000Y-8523300D02*
X15746400Y-8548700D01*
X15746400Y-8523300D02*
X15721000Y-8548700D01*
X15733700Y-6237300D02*
X15759100Y-6262700D01*
X15759100Y-6237300D02*
X15733700Y-6262700D01*
X15733700Y-6338900D02*
X15759100Y-6364300D01*
X15759100Y-6338900D02*
X15733700Y-6364300D01*
X15733700Y-6440500D02*
X15759100Y-6465900D01*
X15759100Y-6440500D02*
X15733700Y-6465900D01*
X15733700Y-6592900D02*
X15759100Y-6618300D01*
X15759100Y-6592900D02*
X15733700Y-6618300D01*
X15733700Y-6694500D02*
X15759100Y-6719900D01*
X15759100Y-6694500D02*
X15733700Y-6719900D01*
X15733700Y-6796100D02*
X15759100Y-6821500D01*
X15759100Y-6796100D02*
X15733700Y-6821500D01*
X15733700Y-6897700D02*
X15759100Y-6923100D01*
X15759100Y-6897700D02*
X15733700Y-6923100D01*
X15733700Y-6999300D02*
X15759100Y-7024700D01*
X15759100Y-6999300D02*
X15733700Y-7024700D01*
X15733700Y-7100900D02*
X15759100Y-7126300D01*
X15759100Y-7100900D02*
X15733700Y-7126300D01*
X15733700Y-7354900D02*
X15759100Y-7380300D01*
X15759100Y-7354900D02*
X15733700Y-7380300D01*
X15733700Y-7456500D02*
X15759100Y-7481900D01*
X15759100Y-7456500D02*
X15733700Y-7481900D01*
X15733700Y-7710500D02*
X15759100Y-7735900D01*
X15759100Y-7710500D02*
X15733700Y-7735900D01*
X15860700Y-11736400D02*
X15886100Y-11761800D01*
X15886100Y-11736400D02*
X15860700Y-11761800D01*
X15873400Y-6821500D02*
X15898800Y-6846900D01*
X15898800Y-6821500D02*
X15873400Y-6846900D01*
X15924200Y-12879400D02*
X15949600Y-12904800D01*
X15949600Y-12879400D02*
X15924200Y-12904800D01*
X16051200Y-7608900D02*
X16076600Y-7634300D01*
X16076600Y-7608900D02*
X16051200Y-7634300D01*
X16190900Y-10009200D02*
X16216300Y-10034600D01*
X16216300Y-10009200D02*
X16190900Y-10034600D01*
X16190900Y-10187000D02*
X16216300Y-10212400D01*
X16216300Y-10187000D02*
X16190900Y-10212400D01*
X16216300Y-7837500D02*
X16241700Y-7862900D01*
X16241700Y-7837500D02*
X16216300Y-7862900D01*
X16267100Y-9323400D02*
X16292500Y-9348800D01*
X16292500Y-9323400D02*
X16267100Y-9348800D01*
X16292500Y-7202500D02*
X16317900Y-7227900D01*
X16317900Y-7202500D02*
X16292500Y-7227900D01*
X16292500Y-11838000D02*
X16317900Y-11863400D01*
X16317900Y-11838000D02*
X16292500Y-11863400D01*
X16425800Y-6650100D02*
X16451200Y-6675500D01*
X16451200Y-6650100D02*
X16425800Y-6675500D01*
X16559200Y-10187000D02*
X16584600Y-10212400D01*
X16584600Y-10187000D02*
X16559200Y-10212400D01*
X16610000Y-9158300D02*
X16635400Y-9183700D01*
X16635400Y-9158300D02*
X16610000Y-9183700D01*
X16635400Y-8891600D02*
X16660800Y-8917000D01*
X16660800Y-8891600D02*
X16635400Y-8917000D01*
X16663340Y-10006660D02*
X16688740Y-10032060D01*
X16688740Y-10006660D02*
X16663340Y-10032060D01*
X16787800Y-10923600D02*
X16813200Y-10949000D01*
X16813200Y-10923600D02*
X16787800Y-10949000D01*
X16825900Y-12269800D02*
X16851300Y-12295200D01*
X16851300Y-12269800D02*
X16825900Y-12295200D01*
X16851300Y-6897700D02*
X16876700Y-6923100D01*
X16876700Y-6897700D02*
X16851300Y-6923100D01*
X17054500Y-12701600D02*
X17079900Y-12727000D01*
X17079900Y-12701600D02*
X17054500Y-12727000D01*
X17105300Y-9488500D02*
X17130700Y-9513900D01*
X17130700Y-9488500D02*
X17105300Y-9513900D01*
X17168800Y-7894700D02*
X17194200Y-7920100D01*
X17194200Y-7894700D02*
X17168800Y-7920100D01*
X17422800Y-11990400D02*
X17448200Y-12015800D01*
X17448200Y-11990400D02*
X17422800Y-12015800D01*
X17435500Y-8497900D02*
X17460900Y-8523300D01*
X17460900Y-8497900D02*
X17435500Y-8523300D01*
X17714900Y-6897700D02*
X17740300Y-6923100D01*
X17740300Y-6897700D02*
X17714900Y-6923100D01*
X17803800Y-12333300D02*
X17829200Y-12358700D01*
X17829200Y-12333300D02*
X17803800Y-12358700D01*
X18141620Y-11454460D02*
X18167020Y-11479860D01*
X18167020Y-11454460D02*
X18141620Y-11479860D01*
X18141620Y-11565110D02*
X18167020Y-11590510D01*
X18167020Y-11565110D02*
X18141620Y-11590510D01*
X18159400Y-10199700D02*
X18184800Y-10225100D01*
X18184800Y-10199700D02*
X18159400Y-10225100D01*
X18451500Y-11495100D02*
X18476900Y-11520500D01*
X18476900Y-11495100D02*
X18451500Y-11520500D01*
X18527700Y-7939100D02*
X18553100Y-7964500D01*
X18553100Y-7939100D02*
X18527700Y-7964500D01*
X18527700Y-9666300D02*
X18553100Y-9691700D01*
X18553100Y-9666300D02*
X18527700Y-9691700D01*
X18591200Y-10199700D02*
X18616600Y-10225100D01*
X18616600Y-10199700D02*
X18591200Y-10225100D01*
D13*
X13817455Y-10091015D02*
G75*
G03*
X13817455Y-10091015I-20000J0D01*
G01*
X14267800Y-7291400D02*
G75*
G03*
X14267800Y-7291400I-20000J0D01*
G01*
X14763100Y-7291400D02*
G75*
G03*
X14763100Y-7291400I-20000J0D01*
G01*
X14890100Y-7037400D02*
G75*
G03*
X14890100Y-7037400I-20000J0D01*
G01*
X15677500Y-7596200D02*
G75*
G03*
X15677500Y-7596200I-20000J0D01*
G01*
X17874600Y-10212400D02*
G75*
G03*
X17874600Y-10212400I-20000J0D01*
G01*
X17929000Y-11262600D02*
G75*
G03*
X17929000Y-11262600I-20000J0D01*
G01*
X17929000Y-11740000D02*
G75*
G03*
X17929000Y-11740000I-20000J0D01*
G01*
D14*
X12560000Y-6575000D02*
X12560000Y-6625000D01*
X12535000Y-6600000D02*
X12585000Y-6600000D01*
X12560000Y-12575000D02*
X12560000Y-12625000D01*
X12535000Y-12600000D02*
X12585000Y-12600000D01*
X12630294Y-6405294D02*
X12630294Y-6455294D01*
X12605294Y-6430294D02*
X12655294Y-6430294D01*
X12630294Y-6744706D02*
X12630294Y-6794706D01*
X12605294Y-6769706D02*
X12655294Y-6769706D01*
X12630294Y-12405294D02*
X12630294Y-12455294D01*
X12605294Y-12430294D02*
X12655294Y-12430294D01*
X12630294Y-12744706D02*
X12630294Y-12794706D01*
X12605294Y-12769706D02*
X12655294Y-12769706D01*
X12800000Y-6335000D02*
X12800000Y-6385000D01*
X12775000Y-6360000D02*
X12825000Y-6360000D01*
X12800000Y-6815000D02*
X12800000Y-6865000D01*
X12775000Y-6840000D02*
X12825000Y-6840000D01*
X12800000Y-12335000D02*
X12800000Y-12385000D01*
X12775000Y-12360000D02*
X12825000Y-12360000D01*
X12800000Y-12815000D02*
X12800000Y-12865000D01*
X12775000Y-12840000D02*
X12825000Y-12840000D01*
X12969706Y-6405294D02*
X12969706Y-6455294D01*
X12944706Y-6430294D02*
X12994706Y-6430294D01*
X12969706Y-6744706D02*
X12969706Y-6794706D01*
X12944706Y-6769706D02*
X12994706Y-6769706D01*
X12969706Y-12405294D02*
X12969706Y-12455294D01*
X12944706Y-12430294D02*
X12994706Y-12430294D01*
X12969706Y-12744706D02*
X12969706Y-12794706D01*
X12944706Y-12769706D02*
X12994706Y-12769706D01*
X13040000Y-6575000D02*
X13040000Y-6625000D01*
X13015000Y-6600000D02*
X13065000Y-6600000D01*
X13040000Y-12575000D02*
X13040000Y-12625000D01*
X13015000Y-12600000D02*
X13065000Y-12600000D01*
X18060000Y-6575000D02*
X18060000Y-6625000D01*
X18035000Y-6600000D02*
X18085000Y-6600000D01*
X18060000Y-12575000D02*
X18060000Y-12625000D01*
X18035000Y-12600000D02*
X18085000Y-12600000D01*
X18130294Y-6405294D02*
X18130294Y-6455294D01*
X18105294Y-6430294D02*
X18155294Y-6430294D01*
X18130294Y-6744706D02*
X18130294Y-6794706D01*
X18105294Y-6769706D02*
X18155294Y-6769706D01*
X18130294Y-12405294D02*
X18130294Y-12455294D01*
X18105294Y-12430294D02*
X18155294Y-12430294D01*
X18130294Y-12744706D02*
X18130294Y-12794706D01*
X18105294Y-12769706D02*
X18155294Y-12769706D01*
X18300000Y-6335000D02*
X18300000Y-6385000D01*
X18275000Y-6360000D02*
X18325000Y-6360000D01*
X18300000Y-6815000D02*
X18300000Y-6865000D01*
X18275000Y-6840000D02*
X18325000Y-6840000D01*
X18300000Y-12335000D02*
X18300000Y-12385000D01*
X18275000Y-12360000D02*
X18325000Y-12360000D01*
X18300000Y-12815000D02*
X18300000Y-12865000D01*
X18275000Y-12840000D02*
X18325000Y-12840000D01*
X18469706Y-6405294D02*
X18469706Y-6455294D01*
X18444706Y-6430294D02*
X18494706Y-6430294D01*
X18469706Y-6744706D02*
X18469706Y-6794706D01*
X18444706Y-6769706D02*
X18494706Y-6769706D01*
X18469706Y-12405294D02*
X18469706Y-12455294D01*
X18444706Y-12430294D02*
X18494706Y-12430294D01*
X18469706Y-12744706D02*
X18469706Y-12794706D01*
X18444706Y-12769706D02*
X18494706Y-12769706D01*
X18540000Y-6575000D02*
X18540000Y-6625000D01*
X18515000Y-6600000D02*
X18565000Y-6600000D01*
X18540000Y-12575000D02*
X18540000Y-12625000D01*
X18515000Y-12600000D02*
X18565000Y-12600000D01*
D15*
X18103213Y-11089213D02*
X18103213Y-11046787D01*
X18060787Y-11046787D01*
X18060787Y-11089213D01*
X18103213Y-11089213D01*
D11*
X18137000Y-11038000D02*
X18027000Y-11038000D01*
X18027000Y-11038000D02*
G75*
G03*
X18027000Y-11098000I0J-30000D01*
G01*
X18027000Y-11098000D02*
X18137000Y-11098000D01*
X18137000Y-11098000D02*
G75*
G03*
X18137000Y-11038000I0J30000D01*
G01*
D15*
X18103213Y-11953213D02*
X18103213Y-11910787D01*
X18060787Y-11910787D01*
X18060787Y-11953213D01*
X18103213Y-11953213D01*
D11*
X18137000Y-11902000D02*
X18027000Y-11902000D01*
X18027000Y-11902000D02*
G75*
G03*
X18027000Y-11962000I0J-30000D01*
G01*
X18027000Y-11962000D02*
X18137000Y-11962000D01*
X18137000Y-11962000D02*
G75*
G03*
X18137000Y-11902000I0J30000D01*
G01*
D15*
X18521213Y-11089213D02*
X18521213Y-11046787D01*
X18478787Y-11046787D01*
X18478787Y-11089213D01*
X18521213Y-11089213D01*
D11*
X18555000Y-11038000D02*
X18445000Y-11038000D01*
X18445000Y-11038000D02*
G75*
G03*
X18445000Y-11098000I0J-30000D01*
G01*
X18445000Y-11098000D02*
X18555000Y-11098000D01*
X18555000Y-11098000D02*
G75*
G03*
X18555000Y-11038000I0J30000D01*
G01*
D15*
X18521213Y-11953213D02*
X18521213Y-11910787D01*
X18478787Y-11910787D01*
X18478787Y-11953213D01*
X18521213Y-11953213D01*
D11*
X18555000Y-11902000D02*
X18445000Y-11902000D01*
X18445000Y-11902000D02*
G75*
G03*
X18445000Y-11962000I0J-30000D01*
G01*
X18445000Y-11962000D02*
X18555000Y-11962000D01*
X18555000Y-11962000D02*
G75*
G03*
X18555000Y-11902000I0J30000D01*
G01*
D16*
X12800000Y-10847500D02*
X12847500Y-10800000D01*
X12800000Y-10752500D01*
X12752500Y-10800000D01*
X12800000Y-10847500D01*
X12800000Y-11097500D02*
X12847500Y-11050000D01*
X12800000Y-11002500D01*
X12752500Y-11050000D01*
X12800000Y-11097500D01*
X12800000Y-11347500D02*
X12847500Y-11300000D01*
X12800000Y-11252500D01*
X12752500Y-11300000D01*
X12800000Y-11347500D01*
X12800000Y-11597500D02*
X12847500Y-11550000D01*
X12800000Y-11502500D01*
X12752500Y-11550000D01*
X12800000Y-11597500D01*
X12800000Y-11847500D02*
X12847500Y-11800000D01*
X12800000Y-11752500D01*
X12752500Y-11800000D01*
X12800000Y-11847500D01*
X13600000Y-12647500D02*
X13647500Y-12600000D01*
X13600000Y-12552500D01*
X13552500Y-12600000D01*
X13600000Y-12647500D01*
X13850000Y-12647500D02*
X13897500Y-12600000D01*
X13850000Y-12552500D01*
X13802500Y-12600000D01*
X13850000Y-12647500D01*
X14100000Y-12647500D02*
X14147500Y-12600000D01*
X14100000Y-12552500D01*
X14052500Y-12600000D01*
X14100000Y-12647500D01*
X14350000Y-12647500D02*
X14397500Y-12600000D01*
X14350000Y-12552500D01*
X14302500Y-12600000D01*
X14350000Y-12647500D01*
D10*
X12750000Y-9859700D02*
X12850000Y-9959700D01*
X12850000Y-9859700D02*
X12750000Y-9959700D01*
X12850000Y-9909700D02*
G75*
G03*
X12850000Y-9909700I-50000J0D01*
G01*
X12750000Y-10109700D02*
X12850000Y-10209700D01*
X12850000Y-10109700D02*
X12750000Y-10209700D01*
X12850000Y-10159700D02*
G75*
G03*
X12850000Y-10159700I-50000J0D01*
G01*
X14883100Y-10556100D02*
X14983100Y-10656100D01*
X14983100Y-10556100D02*
X14883100Y-10656100D01*
X14983100Y-10606100D02*
G75*
G03*
X14983100Y-10606100I-50000J0D01*
G01*
X14950000Y-12550000D02*
X15050000Y-12650000D01*
X15050000Y-12550000D02*
X14950000Y-12650000D01*
X15050000Y-12600000D02*
G75*
G03*
X15050000Y-12600000I-50000J0D01*
G01*
X15137100Y-10556100D02*
X15237100Y-10656100D01*
X15237100Y-10556100D02*
X15137100Y-10656100D01*
X15237100Y-10606100D02*
G75*
G03*
X15237100Y-10606100I-50000J0D01*
G01*
X15200000Y-12550000D02*
X15300000Y-12650000D01*
X15300000Y-12550000D02*
X15200000Y-12650000D01*
X15300000Y-12600000D02*
G75*
G03*
X15300000Y-12600000I-50000J0D01*
G01*
X15391100Y-10556100D02*
X15491100Y-10656100D01*
X15491100Y-10556100D02*
X15391100Y-10656100D01*
X15491100Y-10606100D02*
G75*
G03*
X15491100Y-10606100I-50000J0D01*
G01*
X15645100Y-10556100D02*
X15745100Y-10656100D01*
X15745100Y-10556100D02*
X15645100Y-10656100D01*
X15745100Y-10606100D02*
G75*
G03*
X15745100Y-10606100I-50000J0D01*
G01*
X15899100Y-10556100D02*
X15999100Y-10656100D01*
X15999100Y-10556100D02*
X15899100Y-10656100D01*
X15999100Y-10606100D02*
G75*
G03*
X15999100Y-10606100I-50000J0D01*
G01*
X18250000Y-7800000D02*
X18350000Y-7900000D01*
X18350000Y-7800000D02*
X18250000Y-7900000D01*
X18350000Y-7850000D02*
G75*
G03*
X18350000Y-7850000I-50000J0D01*
G01*
X18250000Y-8050000D02*
X18350000Y-8150000D01*
X18350000Y-8050000D02*
X18250000Y-8150000D01*
X18350000Y-8100000D02*
G75*
G03*
X18350000Y-8100000I-50000J0D01*
G01*
X18442500Y-8825000D02*
X18542500Y-8925000D01*
X18542500Y-8825000D02*
X18442500Y-8925000D01*
X18542500Y-8875000D02*
G75*
G03*
X18542500Y-8875000I-50000J0D01*
G01*
X18442500Y-9275000D02*
X18542500Y-9375000D01*
X18542500Y-9275000D02*
X18442500Y-9375000D01*
X18542500Y-9325000D02*
G75*
G03*
X18542500Y-9325000I-50000J0D01*
G01*
X18442500Y-9925000D02*
X18542500Y-10025000D01*
X18542500Y-9925000D02*
X18442500Y-10025000D01*
X18542500Y-9975000D02*
G75*
G03*
X18542500Y-9975000I-50000J0D01*
G01*
X18442500Y-10375000D02*
X18542500Y-10475000D01*
X18542500Y-10375000D02*
X18442500Y-10475000D01*
X18542500Y-10425000D02*
G75*
G03*
X18542500Y-10425000I-50000J0D01*
G01*
D17*
X18167500Y-8675000D02*
X18317500Y-8825000D01*
X18317500Y-8675000D02*
X18167500Y-8825000D01*
X18242500Y-8675000D02*
X18242500Y-8825000D01*
X18167500Y-8750000D02*
X18317500Y-8750000D01*
X18167500Y-9375000D02*
X18317500Y-9525000D01*
X18317500Y-9375000D02*
X18167500Y-9525000D01*
X18242500Y-9375000D02*
X18242500Y-9525000D01*
X18167500Y-9450000D02*
X18317500Y-9450000D01*
X18167500Y-9775000D02*
X18317500Y-9925000D01*
X18317500Y-9775000D02*
X18167500Y-9925000D01*
X18242500Y-9775000D02*
X18242500Y-9925000D01*
X18167500Y-9850000D02*
X18317500Y-9850000D01*
X18167500Y-10475000D02*
X18317500Y-10625000D01*
X18317500Y-10475000D02*
X18167500Y-10625000D01*
X18242500Y-10475000D02*
X18242500Y-10625000D01*
X18167500Y-10550000D02*
X18317500Y-10550000D01*
D18*
X12870000Y-8052950D02*
X13040000Y-8222950D01*
X13040000Y-8052950D02*
X12870000Y-8222950D01*
X13015105Y-8198055D02*
X13015105Y-8077845D01*
X12894895Y-8077845D01*
X12894895Y-8198055D01*
X13015105Y-8198055D01*
X12870000Y-8448950D02*
X13040000Y-8618950D01*
X13040000Y-8448950D02*
X12870000Y-8618950D01*
X13015105Y-8594055D02*
X13015105Y-8473845D01*
X12894895Y-8473845D01*
X12894895Y-8594055D01*
X13015105Y-8594055D01*
X12870000Y-8844950D02*
X13040000Y-9014950D01*
X13040000Y-8844950D02*
X12870000Y-9014950D01*
X13015105Y-8990055D02*
X13015105Y-8869845D01*
X12894895Y-8869845D01*
X12894895Y-8990055D01*
X13015105Y-8990055D01*
X12870000Y-9240950D02*
X13040000Y-9410950D01*
X13040000Y-9240950D02*
X12870000Y-9410950D01*
X13015105Y-9386055D02*
X13015105Y-9265845D01*
X12894895Y-9265845D01*
X12894895Y-9386055D01*
X13015105Y-9386055D01*
X12871600Y-7142900D02*
X13041600Y-7312900D01*
X13041600Y-7142900D02*
X12871600Y-7312900D01*
X13016705Y-7288005D02*
X13016705Y-7167795D01*
X12896495Y-7167795D01*
X12896495Y-7288005D01*
X13016705Y-7288005D01*
X12871600Y-7538900D02*
X13041600Y-7708900D01*
X13041600Y-7538900D02*
X12871600Y-7708900D01*
X13016705Y-7684005D02*
X13016705Y-7563795D01*
X12896495Y-7563795D01*
X12896495Y-7684005D01*
X13016705Y-7684005D01*
D19*
X12640000Y-6440000D02*
X12960000Y-6760000D01*
X12960000Y-6440000D02*
X12640000Y-6760000D01*
X12800000Y-6760000D02*
X12960000Y-6600000D01*
X12800000Y-6440000D01*
X12640000Y-6600000D01*
X12800000Y-6760000D01*
X12640000Y-12440000D02*
X12960000Y-12760000D01*
X12960000Y-12440000D02*
X12640000Y-12760000D01*
X12800000Y-12760000D02*
X12960000Y-12600000D01*
X12800000Y-12440000D01*
X12640000Y-12600000D01*
X12800000Y-12760000D01*
X18140000Y-6440000D02*
X18460000Y-6760000D01*
X18460000Y-6440000D02*
X18140000Y-6760000D01*
X18300000Y-6760000D02*
X18460000Y-6600000D01*
X18300000Y-6440000D01*
X18140000Y-6600000D01*
X18300000Y-6760000D01*
X18140000Y-12440000D02*
X18460000Y-12760000D01*
X18460000Y-12440000D02*
X18140000Y-12760000D01*
X18300000Y-12760000D02*
X18460000Y-12600000D01*
X18300000Y-12440000D01*
X18140000Y-12600000D01*
X18300000Y-12760000D01*
D11*
X12655777Y-13316484D02*
X12655777Y-13116484D01*
X12655777Y-13116484D02*
X12703396Y-13116484D01*
X12703396Y-13116484D02*
X12731967Y-13126008D01*
X12731967Y-13126008D02*
X12751015Y-13145055D01*
X12751015Y-13145055D02*
X12760539Y-13164103D01*
X12760539Y-13164103D02*
X12770062Y-13202198D01*
X12770062Y-13202198D02*
X12770062Y-13230769D01*
X12770062Y-13230769D02*
X12760539Y-13268865D01*
X12760539Y-13268865D02*
X12751015Y-13287912D01*
X12751015Y-13287912D02*
X12731967Y-13306960D01*
X12731967Y-13306960D02*
X12703396Y-13316484D01*
X12703396Y-13316484D02*
X12655777Y-13316484D01*
X12855777Y-13316484D02*
X12855777Y-13183150D01*
X12855777Y-13221246D02*
X12865301Y-13202198D01*
X12865301Y-13202198D02*
X12874824Y-13192674D01*
X12874824Y-13192674D02*
X12893872Y-13183150D01*
X12893872Y-13183150D02*
X12912920Y-13183150D01*
X12979586Y-13316484D02*
X12979586Y-13183150D01*
X12979586Y-13116484D02*
X12970062Y-13126008D01*
X12970062Y-13126008D02*
X12979586Y-13135531D01*
X12979586Y-13135531D02*
X12989110Y-13126008D01*
X12989110Y-13126008D02*
X12979586Y-13116484D01*
X12979586Y-13116484D02*
X12979586Y-13135531D01*
X13103396Y-13316484D02*
X13084348Y-13306960D01*
X13084348Y-13306960D02*
X13074824Y-13287912D01*
X13074824Y-13287912D02*
X13074824Y-13116484D01*
X13208158Y-13316484D02*
X13189110Y-13306960D01*
X13189110Y-13306960D02*
X13179586Y-13287912D01*
X13179586Y-13287912D02*
X13179586Y-13116484D01*
X13436729Y-13316484D02*
X13436729Y-13116484D01*
X13436729Y-13116484D02*
X13503396Y-13259341D01*
X13503396Y-13259341D02*
X13570062Y-13116484D01*
X13570062Y-13116484D02*
X13570062Y-13316484D01*
X13751015Y-13316484D02*
X13751015Y-13211722D01*
X13751015Y-13211722D02*
X13741491Y-13192674D01*
X13741491Y-13192674D02*
X13722443Y-13183150D01*
X13722443Y-13183150D02*
X13684348Y-13183150D01*
X13684348Y-13183150D02*
X13665301Y-13192674D01*
X13751015Y-13306960D02*
X13731967Y-13316484D01*
X13731967Y-13316484D02*
X13684348Y-13316484D01*
X13684348Y-13316484D02*
X13665301Y-13306960D01*
X13665301Y-13306960D02*
X13655777Y-13287912D01*
X13655777Y-13287912D02*
X13655777Y-13268865D01*
X13655777Y-13268865D02*
X13665301Y-13249817D01*
X13665301Y-13249817D02*
X13684348Y-13240293D01*
X13684348Y-13240293D02*
X13731967Y-13240293D01*
X13731967Y-13240293D02*
X13751015Y-13230769D01*
X13846253Y-13183150D02*
X13846253Y-13383150D01*
X13846253Y-13192674D02*
X13865301Y-13183150D01*
X13865301Y-13183150D02*
X13903396Y-13183150D01*
X13903396Y-13183150D02*
X13922443Y-13192674D01*
X13922443Y-13192674D02*
X13931967Y-13202198D01*
X13931967Y-13202198D02*
X13941491Y-13221246D01*
X13941491Y-13221246D02*
X13941491Y-13278388D01*
X13941491Y-13278388D02*
X13931967Y-13297436D01*
X13931967Y-13297436D02*
X13922443Y-13306960D01*
X13922443Y-13306960D02*
X13903396Y-13316484D01*
X13903396Y-13316484D02*
X13865301Y-13316484D01*
X13865301Y-13316484D02*
X13846253Y-13306960D01*
X14027205Y-13297436D02*
X14036729Y-13306960D01*
X14036729Y-13306960D02*
X14027205Y-13316484D01*
X14027205Y-13316484D02*
X14017682Y-13306960D01*
X14017682Y-13306960D02*
X14027205Y-13297436D01*
X14027205Y-13297436D02*
X14027205Y-13316484D01*
X14027205Y-13192674D02*
X14036729Y-13202198D01*
X14036729Y-13202198D02*
X14027205Y-13211722D01*
X14027205Y-13211722D02*
X14017682Y-13202198D01*
X14017682Y-13202198D02*
X14027205Y-13192674D01*
X14027205Y-13192674D02*
X14027205Y-13211722D01*
D12*
X12369600Y-13632300D02*
X12395000Y-13657700D01*
X12395000Y-13632300D02*
X12369600Y-13657700D01*
D11*
X12693872Y-13536484D02*
X12712920Y-13536484D01*
X12712920Y-13536484D02*
X12731967Y-13546008D01*
X12731967Y-13546008D02*
X12741491Y-13555531D01*
X12741491Y-13555531D02*
X12751015Y-13574579D01*
X12751015Y-13574579D02*
X12760539Y-13612674D01*
X12760539Y-13612674D02*
X12760539Y-13660293D01*
X12760539Y-13660293D02*
X12751015Y-13698388D01*
X12751015Y-13698388D02*
X12741491Y-13717436D01*
X12741491Y-13717436D02*
X12731967Y-13726960D01*
X12731967Y-13726960D02*
X12712920Y-13736484D01*
X12712920Y-13736484D02*
X12693872Y-13736484D01*
X12693872Y-13736484D02*
X12674824Y-13726960D01*
X12674824Y-13726960D02*
X12665301Y-13717436D01*
X12665301Y-13717436D02*
X12655777Y-13698388D01*
X12655777Y-13698388D02*
X12646253Y-13660293D01*
X12646253Y-13660293D02*
X12646253Y-13612674D01*
X12646253Y-13612674D02*
X12655777Y-13574579D01*
X12655777Y-13574579D02*
X12665301Y-13555531D01*
X12665301Y-13555531D02*
X12674824Y-13546008D01*
X12674824Y-13546008D02*
X12693872Y-13536484D01*
X12846253Y-13717436D02*
X12855777Y-13726960D01*
X12855777Y-13726960D02*
X12846253Y-13736484D01*
X12846253Y-13736484D02*
X12836729Y-13726960D01*
X12836729Y-13726960D02*
X12846253Y-13717436D01*
X12846253Y-13717436D02*
X12846253Y-13736484D01*
X12931967Y-13555531D02*
X12941491Y-13546008D01*
X12941491Y-13546008D02*
X12960539Y-13536484D01*
X12960539Y-13536484D02*
X13008158Y-13536484D01*
X13008158Y-13536484D02*
X13027205Y-13546008D01*
X13027205Y-13546008D02*
X13036729Y-13555531D01*
X13036729Y-13555531D02*
X13046253Y-13574579D01*
X13046253Y-13574579D02*
X13046253Y-13593627D01*
X13046253Y-13593627D02*
X13036729Y-13622198D01*
X13036729Y-13622198D02*
X12922443Y-13736484D01*
X12922443Y-13736484D02*
X13046253Y-13736484D01*
X13227205Y-13536484D02*
X13131967Y-13536484D01*
X13131967Y-13536484D02*
X13122443Y-13631722D01*
X13122443Y-13631722D02*
X13131967Y-13622198D01*
X13131967Y-13622198D02*
X13151015Y-13612674D01*
X13151015Y-13612674D02*
X13198634Y-13612674D01*
X13198634Y-13612674D02*
X13217682Y-13622198D01*
X13217682Y-13622198D02*
X13227205Y-13631722D01*
X13227205Y-13631722D02*
X13236729Y-13650769D01*
X13236729Y-13650769D02*
X13236729Y-13698388D01*
X13236729Y-13698388D02*
X13227205Y-13717436D01*
X13227205Y-13717436D02*
X13217682Y-13726960D01*
X13217682Y-13726960D02*
X13198634Y-13736484D01*
X13198634Y-13736484D02*
X13151015Y-13736484D01*
X13151015Y-13736484D02*
X13131967Y-13726960D01*
X13131967Y-13726960D02*
X13122443Y-13717436D01*
X13408158Y-13603150D02*
X13408158Y-13736484D01*
X13360539Y-13526960D02*
X13312920Y-13669817D01*
X13312920Y-13669817D02*
X13436729Y-13669817D01*
X13512920Y-13736484D02*
X13512920Y-13603150D01*
X13512920Y-13622198D02*
X13522443Y-13612674D01*
X13522443Y-13612674D02*
X13541491Y-13603150D01*
X13541491Y-13603150D02*
X13570063Y-13603150D01*
X13570063Y-13603150D02*
X13589110Y-13612674D01*
X13589110Y-13612674D02*
X13598634Y-13631722D01*
X13598634Y-13631722D02*
X13598634Y-13736484D01*
X13598634Y-13631722D02*
X13608158Y-13612674D01*
X13608158Y-13612674D02*
X13627205Y-13603150D01*
X13627205Y-13603150D02*
X13655777Y-13603150D01*
X13655777Y-13603150D02*
X13674824Y-13612674D01*
X13674824Y-13612674D02*
X13684348Y-13631722D01*
X13684348Y-13631722D02*
X13684348Y-13736484D01*
X13779586Y-13736484D02*
X13779586Y-13603150D01*
X13779586Y-13622198D02*
X13789110Y-13612674D01*
X13789110Y-13612674D02*
X13808158Y-13603150D01*
X13808158Y-13603150D02*
X13836729Y-13603150D01*
X13836729Y-13603150D02*
X13855777Y-13612674D01*
X13855777Y-13612674D02*
X13865301Y-13631722D01*
X13865301Y-13631722D02*
X13865301Y-13736484D01*
X13865301Y-13631722D02*
X13874824Y-13612674D01*
X13874824Y-13612674D02*
X13893872Y-13603150D01*
X13893872Y-13603150D02*
X13922443Y-13603150D01*
X13922443Y-13603150D02*
X13941491Y-13612674D01*
X13941491Y-13612674D02*
X13951015Y-13631722D01*
X13951015Y-13631722D02*
X13951015Y-13736484D01*
X14341491Y-13526960D02*
X14170063Y-13784103D01*
X14598634Y-13536484D02*
X14617682Y-13536484D01*
X14617682Y-13536484D02*
X14636729Y-13546008D01*
X14636729Y-13546008D02*
X14646253Y-13555531D01*
X14646253Y-13555531D02*
X14655777Y-13574579D01*
X14655777Y-13574579D02*
X14665301Y-13612674D01*
X14665301Y-13612674D02*
X14665301Y-13660293D01*
X14665301Y-13660293D02*
X14655777Y-13698388D01*
X14655777Y-13698388D02*
X14646253Y-13717436D01*
X14646253Y-13717436D02*
X14636729Y-13726960D01*
X14636729Y-13726960D02*
X14617682Y-13736484D01*
X14617682Y-13736484D02*
X14598634Y-13736484D01*
X14598634Y-13736484D02*
X14579586Y-13726960D01*
X14579586Y-13726960D02*
X14570063Y-13717436D01*
X14570063Y-13717436D02*
X14560539Y-13698388D01*
X14560539Y-13698388D02*
X14551015Y-13660293D01*
X14551015Y-13660293D02*
X14551015Y-13612674D01*
X14551015Y-13612674D02*
X14560539Y-13574579D01*
X14560539Y-13574579D02*
X14570063Y-13555531D01*
X14570063Y-13555531D02*
X14579586Y-13546008D01*
X14579586Y-13546008D02*
X14598634Y-13536484D01*
X14751015Y-13717436D02*
X14760539Y-13726960D01*
X14760539Y-13726960D02*
X14751015Y-13736484D01*
X14751015Y-13736484D02*
X14741491Y-13726960D01*
X14741491Y-13726960D02*
X14751015Y-13717436D01*
X14751015Y-13717436D02*
X14751015Y-13736484D01*
X14884348Y-13536484D02*
X14903396Y-13536484D01*
X14903396Y-13536484D02*
X14922444Y-13546008D01*
X14922444Y-13546008D02*
X14931967Y-13555531D01*
X14931967Y-13555531D02*
X14941491Y-13574579D01*
X14941491Y-13574579D02*
X14951015Y-13612674D01*
X14951015Y-13612674D02*
X14951015Y-13660293D01*
X14951015Y-13660293D02*
X14941491Y-13698388D01*
X14941491Y-13698388D02*
X14931967Y-13717436D01*
X14931967Y-13717436D02*
X14922444Y-13726960D01*
X14922444Y-13726960D02*
X14903396Y-13736484D01*
X14903396Y-13736484D02*
X14884348Y-13736484D01*
X14884348Y-13736484D02*
X14865301Y-13726960D01*
X14865301Y-13726960D02*
X14855777Y-13717436D01*
X14855777Y-13717436D02*
X14846253Y-13698388D01*
X14846253Y-13698388D02*
X14836729Y-13660293D01*
X14836729Y-13660293D02*
X14836729Y-13612674D01*
X14836729Y-13612674D02*
X14846253Y-13574579D01*
X14846253Y-13574579D02*
X14855777Y-13555531D01*
X14855777Y-13555531D02*
X14865301Y-13546008D01*
X14865301Y-13546008D02*
X14884348Y-13536484D01*
X15141491Y-13736484D02*
X15027206Y-13736484D01*
X15084348Y-13736484D02*
X15084348Y-13536484D01*
X15084348Y-13536484D02*
X15065301Y-13565055D01*
X15065301Y-13565055D02*
X15046253Y-13584103D01*
X15046253Y-13584103D02*
X15027206Y-13593627D01*
X15265301Y-13536484D02*
X15284348Y-13536484D01*
X15284348Y-13536484D02*
X15303396Y-13546008D01*
X15303396Y-13546008D02*
X15312920Y-13555531D01*
X15312920Y-13555531D02*
X15322444Y-13574579D01*
X15322444Y-13574579D02*
X15331967Y-13612674D01*
X15331967Y-13612674D02*
X15331967Y-13660293D01*
X15331967Y-13660293D02*
X15322444Y-13698388D01*
X15322444Y-13698388D02*
X15312920Y-13717436D01*
X15312920Y-13717436D02*
X15303396Y-13726960D01*
X15303396Y-13726960D02*
X15284348Y-13736484D01*
X15284348Y-13736484D02*
X15265301Y-13736484D01*
X15265301Y-13736484D02*
X15246253Y-13726960D01*
X15246253Y-13726960D02*
X15236729Y-13717436D01*
X15236729Y-13717436D02*
X15227206Y-13698388D01*
X15227206Y-13698388D02*
X15217682Y-13660293D01*
X15217682Y-13660293D02*
X15217682Y-13612674D01*
X15217682Y-13612674D02*
X15227206Y-13574579D01*
X15227206Y-13574579D02*
X15236729Y-13555531D01*
X15236729Y-13555531D02*
X15246253Y-13546008D01*
X15246253Y-13546008D02*
X15265301Y-13536484D01*
X15455777Y-13536484D02*
X15474825Y-13536484D01*
X15474825Y-13536484D02*
X15493872Y-13546008D01*
X15493872Y-13546008D02*
X15503396Y-13555531D01*
X15503396Y-13555531D02*
X15512920Y-13574579D01*
X15512920Y-13574579D02*
X15522444Y-13612674D01*
X15522444Y-13612674D02*
X15522444Y-13660293D01*
X15522444Y-13660293D02*
X15512920Y-13698388D01*
X15512920Y-13698388D02*
X15503396Y-13717436D01*
X15503396Y-13717436D02*
X15493872Y-13726960D01*
X15493872Y-13726960D02*
X15474825Y-13736484D01*
X15474825Y-13736484D02*
X15455777Y-13736484D01*
X15455777Y-13736484D02*
X15436729Y-13726960D01*
X15436729Y-13726960D02*
X15427206Y-13717436D01*
X15427206Y-13717436D02*
X15417682Y-13698388D01*
X15417682Y-13698388D02*
X15408158Y-13660293D01*
X15408158Y-13660293D02*
X15408158Y-13612674D01*
X15408158Y-13612674D02*
X15417682Y-13574579D01*
X15417682Y-13574579D02*
X15427206Y-13555531D01*
X15427206Y-13555531D02*
X15436729Y-13546008D01*
X15436729Y-13546008D02*
X15455777Y-13536484D01*
X15598634Y-13536484D02*
X15598634Y-13574579D01*
X15674825Y-13536484D02*
X15674825Y-13574579D01*
X15970063Y-13812674D02*
X15960539Y-13803150D01*
X15960539Y-13803150D02*
X15941491Y-13774579D01*
X15941491Y-13774579D02*
X15931968Y-13755531D01*
X15931968Y-13755531D02*
X15922444Y-13726960D01*
X15922444Y-13726960D02*
X15912920Y-13679341D01*
X15912920Y-13679341D02*
X15912920Y-13641246D01*
X15912920Y-13641246D02*
X15922444Y-13593627D01*
X15922444Y-13593627D02*
X15931968Y-13565055D01*
X15931968Y-13565055D02*
X15941491Y-13546008D01*
X15941491Y-13546008D02*
X15960539Y-13517436D01*
X15960539Y-13517436D02*
X15970063Y-13507912D01*
X16151015Y-13736484D02*
X16036729Y-13736484D01*
X16093872Y-13736484D02*
X16093872Y-13536484D01*
X16093872Y-13536484D02*
X16074825Y-13565055D01*
X16074825Y-13565055D02*
X16055777Y-13584103D01*
X16055777Y-13584103D02*
X16036729Y-13593627D01*
X16217682Y-13536484D02*
X16341491Y-13536484D01*
X16341491Y-13536484D02*
X16274825Y-13612674D01*
X16274825Y-13612674D02*
X16303396Y-13612674D01*
X16303396Y-13612674D02*
X16322444Y-13622198D01*
X16322444Y-13622198D02*
X16331968Y-13631722D01*
X16331968Y-13631722D02*
X16341491Y-13650769D01*
X16341491Y-13650769D02*
X16341491Y-13698388D01*
X16341491Y-13698388D02*
X16331968Y-13717436D01*
X16331968Y-13717436D02*
X16322444Y-13726960D01*
X16322444Y-13726960D02*
X16303396Y-13736484D01*
X16303396Y-13736484D02*
X16246253Y-13736484D01*
X16246253Y-13736484D02*
X16227206Y-13726960D01*
X16227206Y-13726960D02*
X16217682Y-13717436D01*
X16408158Y-13536484D02*
X16541491Y-13536484D01*
X16541491Y-13536484D02*
X16455777Y-13736484D01*
X16770063Y-13736484D02*
X16770063Y-13536484D01*
X16855777Y-13736484D02*
X16855777Y-13631722D01*
X16855777Y-13631722D02*
X16846253Y-13612674D01*
X16846253Y-13612674D02*
X16827206Y-13603150D01*
X16827206Y-13603150D02*
X16798634Y-13603150D01*
X16798634Y-13603150D02*
X16779587Y-13612674D01*
X16779587Y-13612674D02*
X16770063Y-13622198D01*
X16979587Y-13736484D02*
X16960539Y-13726960D01*
X16960539Y-13726960D02*
X16951015Y-13717436D01*
X16951015Y-13717436D02*
X16941492Y-13698388D01*
X16941492Y-13698388D02*
X16941492Y-13641246D01*
X16941492Y-13641246D02*
X16951015Y-13622198D01*
X16951015Y-13622198D02*
X16960539Y-13612674D01*
X16960539Y-13612674D02*
X16979587Y-13603150D01*
X16979587Y-13603150D02*
X17008158Y-13603150D01*
X17008158Y-13603150D02*
X17027206Y-13612674D01*
X17027206Y-13612674D02*
X17036730Y-13622198D01*
X17036730Y-13622198D02*
X17046253Y-13641246D01*
X17046253Y-13641246D02*
X17046253Y-13698388D01*
X17046253Y-13698388D02*
X17036730Y-13717436D01*
X17036730Y-13717436D02*
X17027206Y-13726960D01*
X17027206Y-13726960D02*
X17008158Y-13736484D01*
X17008158Y-13736484D02*
X16979587Y-13736484D01*
X17160539Y-13736484D02*
X17141492Y-13726960D01*
X17141492Y-13726960D02*
X17131968Y-13707912D01*
X17131968Y-13707912D02*
X17131968Y-13536484D01*
X17312920Y-13726960D02*
X17293873Y-13736484D01*
X17293873Y-13736484D02*
X17255777Y-13736484D01*
X17255777Y-13736484D02*
X17236730Y-13726960D01*
X17236730Y-13726960D02*
X17227206Y-13707912D01*
X17227206Y-13707912D02*
X17227206Y-13631722D01*
X17227206Y-13631722D02*
X17236730Y-13612674D01*
X17236730Y-13612674D02*
X17255777Y-13603150D01*
X17255777Y-13603150D02*
X17293873Y-13603150D01*
X17293873Y-13603150D02*
X17312920Y-13612674D01*
X17312920Y-13612674D02*
X17322444Y-13631722D01*
X17322444Y-13631722D02*
X17322444Y-13650769D01*
X17322444Y-13650769D02*
X17227206Y-13669817D01*
X17398634Y-13726960D02*
X17417682Y-13736484D01*
X17417682Y-13736484D02*
X17455777Y-13736484D01*
X17455777Y-13736484D02*
X17474825Y-13726960D01*
X17474825Y-13726960D02*
X17484349Y-13707912D01*
X17484349Y-13707912D02*
X17484349Y-13698388D01*
X17484349Y-13698388D02*
X17474825Y-13679341D01*
X17474825Y-13679341D02*
X17455777Y-13669817D01*
X17455777Y-13669817D02*
X17427206Y-13669817D01*
X17427206Y-13669817D02*
X17408158Y-13660293D01*
X17408158Y-13660293D02*
X17398634Y-13641246D01*
X17398634Y-13641246D02*
X17398634Y-13631722D01*
X17398634Y-13631722D02*
X17408158Y-13612674D01*
X17408158Y-13612674D02*
X17427206Y-13603150D01*
X17427206Y-13603150D02*
X17455777Y-13603150D01*
X17455777Y-13603150D02*
X17474825Y-13612674D01*
X17551015Y-13812674D02*
X17560539Y-13803150D01*
X17560539Y-13803150D02*
X17579587Y-13774579D01*
X17579587Y-13774579D02*
X17589111Y-13755531D01*
X17589111Y-13755531D02*
X17598634Y-13726960D01*
X17598634Y-13726960D02*
X17608158Y-13679341D01*
X17608158Y-13679341D02*
X17608158Y-13641246D01*
X17608158Y-13641246D02*
X17598634Y-13593627D01*
X17598634Y-13593627D02*
X17589111Y-13565055D01*
X17589111Y-13565055D02*
X17579587Y-13546008D01*
X17579587Y-13546008D02*
X17560539Y-13517436D01*
X17560539Y-13517436D02*
X17551015Y-13507912D01*
D13*
X12395000Y-13909000D02*
G75*
G03*
X12395000Y-13909000I-20000J0D01*
G01*
D11*
X12693872Y-13800484D02*
X12712920Y-13800484D01*
X12712920Y-13800484D02*
X12731967Y-13810008D01*
X12731967Y-13810008D02*
X12741491Y-13819531D01*
X12741491Y-13819531D02*
X12751015Y-13838579D01*
X12751015Y-13838579D02*
X12760539Y-13876674D01*
X12760539Y-13876674D02*
X12760539Y-13924293D01*
X12760539Y-13924293D02*
X12751015Y-13962388D01*
X12751015Y-13962388D02*
X12741491Y-13981436D01*
X12741491Y-13981436D02*
X12731967Y-13990960D01*
X12731967Y-13990960D02*
X12712920Y-14000484D01*
X12712920Y-14000484D02*
X12693872Y-14000484D01*
X12693872Y-14000484D02*
X12674824Y-13990960D01*
X12674824Y-13990960D02*
X12665301Y-13981436D01*
X12665301Y-13981436D02*
X12655777Y-13962388D01*
X12655777Y-13962388D02*
X12646253Y-13924293D01*
X12646253Y-13924293D02*
X12646253Y-13876674D01*
X12646253Y-13876674D02*
X12655777Y-13838579D01*
X12655777Y-13838579D02*
X12665301Y-13819531D01*
X12665301Y-13819531D02*
X12674824Y-13810008D01*
X12674824Y-13810008D02*
X12693872Y-13800484D01*
X12846253Y-13981436D02*
X12855777Y-13990960D01*
X12855777Y-13990960D02*
X12846253Y-14000484D01*
X12846253Y-14000484D02*
X12836729Y-13990960D01*
X12836729Y-13990960D02*
X12846253Y-13981436D01*
X12846253Y-13981436D02*
X12846253Y-14000484D01*
X13027205Y-13867150D02*
X13027205Y-14000484D01*
X12979586Y-13790960D02*
X12931967Y-13933817D01*
X12931967Y-13933817D02*
X13055777Y-13933817D01*
X13170062Y-13800484D02*
X13189110Y-13800484D01*
X13189110Y-13800484D02*
X13208158Y-13810008D01*
X13208158Y-13810008D02*
X13217682Y-13819531D01*
X13217682Y-13819531D02*
X13227205Y-13838579D01*
X13227205Y-13838579D02*
X13236729Y-13876674D01*
X13236729Y-13876674D02*
X13236729Y-13924293D01*
X13236729Y-13924293D02*
X13227205Y-13962388D01*
X13227205Y-13962388D02*
X13217682Y-13981436D01*
X13217682Y-13981436D02*
X13208158Y-13990960D01*
X13208158Y-13990960D02*
X13189110Y-14000484D01*
X13189110Y-14000484D02*
X13170062Y-14000484D01*
X13170062Y-14000484D02*
X13151015Y-13990960D01*
X13151015Y-13990960D02*
X13141491Y-13981436D01*
X13141491Y-13981436D02*
X13131967Y-13962388D01*
X13131967Y-13962388D02*
X13122443Y-13924293D01*
X13122443Y-13924293D02*
X13122443Y-13876674D01*
X13122443Y-13876674D02*
X13131967Y-13838579D01*
X13131967Y-13838579D02*
X13141491Y-13819531D01*
X13141491Y-13819531D02*
X13151015Y-13810008D01*
X13151015Y-13810008D02*
X13170062Y-13800484D01*
X13360539Y-13800484D02*
X13379586Y-13800484D01*
X13379586Y-13800484D02*
X13398634Y-13810008D01*
X13398634Y-13810008D02*
X13408158Y-13819531D01*
X13408158Y-13819531D02*
X13417682Y-13838579D01*
X13417682Y-13838579D02*
X13427205Y-13876674D01*
X13427205Y-13876674D02*
X13427205Y-13924293D01*
X13427205Y-13924293D02*
X13417682Y-13962388D01*
X13417682Y-13962388D02*
X13408158Y-13981436D01*
X13408158Y-13981436D02*
X13398634Y-13990960D01*
X13398634Y-13990960D02*
X13379586Y-14000484D01*
X13379586Y-14000484D02*
X13360539Y-14000484D01*
X13360539Y-14000484D02*
X13341491Y-13990960D01*
X13341491Y-13990960D02*
X13331967Y-13981436D01*
X13331967Y-13981436D02*
X13322443Y-13962388D01*
X13322443Y-13962388D02*
X13312920Y-13924293D01*
X13312920Y-13924293D02*
X13312920Y-13876674D01*
X13312920Y-13876674D02*
X13322443Y-13838579D01*
X13322443Y-13838579D02*
X13331967Y-13819531D01*
X13331967Y-13819531D02*
X13341491Y-13810008D01*
X13341491Y-13810008D02*
X13360539Y-13800484D01*
X13512920Y-14000484D02*
X13512920Y-13867150D01*
X13512920Y-13886198D02*
X13522443Y-13876674D01*
X13522443Y-13876674D02*
X13541491Y-13867150D01*
X13541491Y-13867150D02*
X13570063Y-13867150D01*
X13570063Y-13867150D02*
X13589110Y-13876674D01*
X13589110Y-13876674D02*
X13598634Y-13895722D01*
X13598634Y-13895722D02*
X13598634Y-14000484D01*
X13598634Y-13895722D02*
X13608158Y-13876674D01*
X13608158Y-13876674D02*
X13627205Y-13867150D01*
X13627205Y-13867150D02*
X13655777Y-13867150D01*
X13655777Y-13867150D02*
X13674824Y-13876674D01*
X13674824Y-13876674D02*
X13684348Y-13895722D01*
X13684348Y-13895722D02*
X13684348Y-14000484D01*
X13779586Y-14000484D02*
X13779586Y-13867150D01*
X13779586Y-13886198D02*
X13789110Y-13876674D01*
X13789110Y-13876674D02*
X13808158Y-13867150D01*
X13808158Y-13867150D02*
X13836729Y-13867150D01*
X13836729Y-13867150D02*
X13855777Y-13876674D01*
X13855777Y-13876674D02*
X13865301Y-13895722D01*
X13865301Y-13895722D02*
X13865301Y-14000484D01*
X13865301Y-13895722D02*
X13874824Y-13876674D01*
X13874824Y-13876674D02*
X13893872Y-13867150D01*
X13893872Y-13867150D02*
X13922443Y-13867150D01*
X13922443Y-13867150D02*
X13941491Y-13876674D01*
X13941491Y-13876674D02*
X13951015Y-13895722D01*
X13951015Y-13895722D02*
X13951015Y-14000484D01*
X14341491Y-13790960D02*
X14170063Y-14048103D01*
X14598634Y-13800484D02*
X14617682Y-13800484D01*
X14617682Y-13800484D02*
X14636729Y-13810008D01*
X14636729Y-13810008D02*
X14646253Y-13819531D01*
X14646253Y-13819531D02*
X14655777Y-13838579D01*
X14655777Y-13838579D02*
X14665301Y-13876674D01*
X14665301Y-13876674D02*
X14665301Y-13924293D01*
X14665301Y-13924293D02*
X14655777Y-13962388D01*
X14655777Y-13962388D02*
X14646253Y-13981436D01*
X14646253Y-13981436D02*
X14636729Y-13990960D01*
X14636729Y-13990960D02*
X14617682Y-14000484D01*
X14617682Y-14000484D02*
X14598634Y-14000484D01*
X14598634Y-14000484D02*
X14579586Y-13990960D01*
X14579586Y-13990960D02*
X14570063Y-13981436D01*
X14570063Y-13981436D02*
X14560539Y-13962388D01*
X14560539Y-13962388D02*
X14551015Y-13924293D01*
X14551015Y-13924293D02*
X14551015Y-13876674D01*
X14551015Y-13876674D02*
X14560539Y-13838579D01*
X14560539Y-13838579D02*
X14570063Y-13819531D01*
X14570063Y-13819531D02*
X14579586Y-13810008D01*
X14579586Y-13810008D02*
X14598634Y-13800484D01*
X14751015Y-13981436D02*
X14760539Y-13990960D01*
X14760539Y-13990960D02*
X14751015Y-14000484D01*
X14751015Y-14000484D02*
X14741491Y-13990960D01*
X14741491Y-13990960D02*
X14751015Y-13981436D01*
X14751015Y-13981436D02*
X14751015Y-14000484D01*
X14884348Y-13800484D02*
X14903396Y-13800484D01*
X14903396Y-13800484D02*
X14922444Y-13810008D01*
X14922444Y-13810008D02*
X14931967Y-13819531D01*
X14931967Y-13819531D02*
X14941491Y-13838579D01*
X14941491Y-13838579D02*
X14951015Y-13876674D01*
X14951015Y-13876674D02*
X14951015Y-13924293D01*
X14951015Y-13924293D02*
X14941491Y-13962388D01*
X14941491Y-13962388D02*
X14931967Y-13981436D01*
X14931967Y-13981436D02*
X14922444Y-13990960D01*
X14922444Y-13990960D02*
X14903396Y-14000484D01*
X14903396Y-14000484D02*
X14884348Y-14000484D01*
X14884348Y-14000484D02*
X14865301Y-13990960D01*
X14865301Y-13990960D02*
X14855777Y-13981436D01*
X14855777Y-13981436D02*
X14846253Y-13962388D01*
X14846253Y-13962388D02*
X14836729Y-13924293D01*
X14836729Y-13924293D02*
X14836729Y-13876674D01*
X14836729Y-13876674D02*
X14846253Y-13838579D01*
X14846253Y-13838579D02*
X14855777Y-13819531D01*
X14855777Y-13819531D02*
X14865301Y-13810008D01*
X14865301Y-13810008D02*
X14884348Y-13800484D01*
X15141491Y-14000484D02*
X15027206Y-14000484D01*
X15084348Y-14000484D02*
X15084348Y-13800484D01*
X15084348Y-13800484D02*
X15065301Y-13829055D01*
X15065301Y-13829055D02*
X15046253Y-13848103D01*
X15046253Y-13848103D02*
X15027206Y-13857627D01*
X15322444Y-13800484D02*
X15227206Y-13800484D01*
X15227206Y-13800484D02*
X15217682Y-13895722D01*
X15217682Y-13895722D02*
X15227206Y-13886198D01*
X15227206Y-13886198D02*
X15246253Y-13876674D01*
X15246253Y-13876674D02*
X15293872Y-13876674D01*
X15293872Y-13876674D02*
X15312920Y-13886198D01*
X15312920Y-13886198D02*
X15322444Y-13895722D01*
X15322444Y-13895722D02*
X15331967Y-13914769D01*
X15331967Y-13914769D02*
X15331967Y-13962388D01*
X15331967Y-13962388D02*
X15322444Y-13981436D01*
X15322444Y-13981436D02*
X15312920Y-13990960D01*
X15312920Y-13990960D02*
X15293872Y-14000484D01*
X15293872Y-14000484D02*
X15246253Y-14000484D01*
X15246253Y-14000484D02*
X15227206Y-13990960D01*
X15227206Y-13990960D02*
X15217682Y-13981436D01*
X15398634Y-13800484D02*
X15531967Y-13800484D01*
X15531967Y-13800484D02*
X15446253Y-14000484D01*
X15598634Y-13800484D02*
X15598634Y-13838579D01*
X15674825Y-13800484D02*
X15674825Y-13838579D01*
X15970063Y-14076674D02*
X15960539Y-14067150D01*
X15960539Y-14067150D02*
X15941491Y-14038579D01*
X15941491Y-14038579D02*
X15931968Y-14019531D01*
X15931968Y-14019531D02*
X15922444Y-13990960D01*
X15922444Y-13990960D02*
X15912920Y-13943341D01*
X15912920Y-13943341D02*
X15912920Y-13905246D01*
X15912920Y-13905246D02*
X15922444Y-13857627D01*
X15922444Y-13857627D02*
X15931968Y-13829055D01*
X15931968Y-13829055D02*
X15941491Y-13810008D01*
X15941491Y-13810008D02*
X15960539Y-13781436D01*
X15960539Y-13781436D02*
X15970063Y-13771912D01*
X16074825Y-13886198D02*
X16055777Y-13876674D01*
X16055777Y-13876674D02*
X16046253Y-13867150D01*
X16046253Y-13867150D02*
X16036729Y-13848103D01*
X16036729Y-13848103D02*
X16036729Y-13838579D01*
X16036729Y-13838579D02*
X16046253Y-13819531D01*
X16046253Y-13819531D02*
X16055777Y-13810008D01*
X16055777Y-13810008D02*
X16074825Y-13800484D01*
X16074825Y-13800484D02*
X16112920Y-13800484D01*
X16112920Y-13800484D02*
X16131968Y-13810008D01*
X16131968Y-13810008D02*
X16141491Y-13819531D01*
X16141491Y-13819531D02*
X16151015Y-13838579D01*
X16151015Y-13838579D02*
X16151015Y-13848103D01*
X16151015Y-13848103D02*
X16141491Y-13867150D01*
X16141491Y-13867150D02*
X16131968Y-13876674D01*
X16131968Y-13876674D02*
X16112920Y-13886198D01*
X16112920Y-13886198D02*
X16074825Y-13886198D01*
X16074825Y-13886198D02*
X16055777Y-13895722D01*
X16055777Y-13895722D02*
X16046253Y-13905246D01*
X16046253Y-13905246D02*
X16036729Y-13924293D01*
X16036729Y-13924293D02*
X16036729Y-13962388D01*
X16036729Y-13962388D02*
X16046253Y-13981436D01*
X16046253Y-13981436D02*
X16055777Y-13990960D01*
X16055777Y-13990960D02*
X16074825Y-14000484D01*
X16074825Y-14000484D02*
X16112920Y-14000484D01*
X16112920Y-14000484D02*
X16131968Y-13990960D01*
X16131968Y-13990960D02*
X16141491Y-13981436D01*
X16141491Y-13981436D02*
X16151015Y-13962388D01*
X16151015Y-13962388D02*
X16151015Y-13924293D01*
X16151015Y-13924293D02*
X16141491Y-13905246D01*
X16141491Y-13905246D02*
X16131968Y-13895722D01*
X16131968Y-13895722D02*
X16112920Y-13886198D01*
X16389110Y-14000484D02*
X16389110Y-13800484D01*
X16474825Y-14000484D02*
X16474825Y-13895722D01*
X16474825Y-13895722D02*
X16465301Y-13876674D01*
X16465301Y-13876674D02*
X16446253Y-13867150D01*
X16446253Y-13867150D02*
X16417682Y-13867150D01*
X16417682Y-13867150D02*
X16398634Y-13876674D01*
X16398634Y-13876674D02*
X16389110Y-13886198D01*
X16598634Y-14000484D02*
X16579587Y-13990960D01*
X16579587Y-13990960D02*
X16570063Y-13981436D01*
X16570063Y-13981436D02*
X16560539Y-13962388D01*
X16560539Y-13962388D02*
X16560539Y-13905246D01*
X16560539Y-13905246D02*
X16570063Y-13886198D01*
X16570063Y-13886198D02*
X16579587Y-13876674D01*
X16579587Y-13876674D02*
X16598634Y-13867150D01*
X16598634Y-13867150D02*
X16627206Y-13867150D01*
X16627206Y-13867150D02*
X16646253Y-13876674D01*
X16646253Y-13876674D02*
X16655777Y-13886198D01*
X16655777Y-13886198D02*
X16665301Y-13905246D01*
X16665301Y-13905246D02*
X16665301Y-13962388D01*
X16665301Y-13962388D02*
X16655777Y-13981436D01*
X16655777Y-13981436D02*
X16646253Y-13990960D01*
X16646253Y-13990960D02*
X16627206Y-14000484D01*
X16627206Y-14000484D02*
X16598634Y-14000484D01*
X16779587Y-14000484D02*
X16760539Y-13990960D01*
X16760539Y-13990960D02*
X16751015Y-13971912D01*
X16751015Y-13971912D02*
X16751015Y-13800484D01*
X16931968Y-13990960D02*
X16912920Y-14000484D01*
X16912920Y-14000484D02*
X16874825Y-14000484D01*
X16874825Y-14000484D02*
X16855777Y-13990960D01*
X16855777Y-13990960D02*
X16846253Y-13971912D01*
X16846253Y-13971912D02*
X16846253Y-13895722D01*
X16846253Y-13895722D02*
X16855777Y-13876674D01*
X16855777Y-13876674D02*
X16874825Y-13867150D01*
X16874825Y-13867150D02*
X16912920Y-13867150D01*
X16912920Y-13867150D02*
X16931968Y-13876674D01*
X16931968Y-13876674D02*
X16941492Y-13895722D01*
X16941492Y-13895722D02*
X16941492Y-13914769D01*
X16941492Y-13914769D02*
X16846253Y-13933817D01*
X17017682Y-13990960D02*
X17036730Y-14000484D01*
X17036730Y-14000484D02*
X17074825Y-14000484D01*
X17074825Y-14000484D02*
X17093873Y-13990960D01*
X17093873Y-13990960D02*
X17103396Y-13971912D01*
X17103396Y-13971912D02*
X17103396Y-13962388D01*
X17103396Y-13962388D02*
X17093873Y-13943341D01*
X17093873Y-13943341D02*
X17074825Y-13933817D01*
X17074825Y-13933817D02*
X17046253Y-13933817D01*
X17046253Y-13933817D02*
X17027206Y-13924293D01*
X17027206Y-13924293D02*
X17017682Y-13905246D01*
X17017682Y-13905246D02*
X17017682Y-13895722D01*
X17017682Y-13895722D02*
X17027206Y-13876674D01*
X17027206Y-13876674D02*
X17046253Y-13867150D01*
X17046253Y-13867150D02*
X17074825Y-13867150D01*
X17074825Y-13867150D02*
X17093873Y-13876674D01*
X17170063Y-14076674D02*
X17179587Y-14067150D01*
X17179587Y-14067150D02*
X17198634Y-14038579D01*
X17198634Y-14038579D02*
X17208158Y-14019531D01*
X17208158Y-14019531D02*
X17217682Y-13990960D01*
X17217682Y-13990960D02*
X17227206Y-13943341D01*
X17227206Y-13943341D02*
X17227206Y-13905246D01*
X17227206Y-13905246D02*
X17217682Y-13857627D01*
X17217682Y-13857627D02*
X17208158Y-13829055D01*
X17208158Y-13829055D02*
X17198634Y-13810008D01*
X17198634Y-13810008D02*
X17179587Y-13781436D01*
X17179587Y-13781436D02*
X17170063Y-13771912D01*
D14*
X12370000Y-14148000D02*
X12370000Y-14198000D01*
X12345000Y-14173000D02*
X12395000Y-14173000D01*
D11*
X12693872Y-14064484D02*
X12712920Y-14064484D01*
X12712920Y-14064484D02*
X12731967Y-14074008D01*
X12731967Y-14074008D02*
X12741491Y-14083531D01*
X12741491Y-14083531D02*
X12751015Y-14102579D01*
X12751015Y-14102579D02*
X12760539Y-14140674D01*
X12760539Y-14140674D02*
X12760539Y-14188293D01*
X12760539Y-14188293D02*
X12751015Y-14226388D01*
X12751015Y-14226388D02*
X12741491Y-14245436D01*
X12741491Y-14245436D02*
X12731967Y-14254960D01*
X12731967Y-14254960D02*
X12712920Y-14264484D01*
X12712920Y-14264484D02*
X12693872Y-14264484D01*
X12693872Y-14264484D02*
X12674824Y-14254960D01*
X12674824Y-14254960D02*
X12665301Y-14245436D01*
X12665301Y-14245436D02*
X12655777Y-14226388D01*
X12655777Y-14226388D02*
X12646253Y-14188293D01*
X12646253Y-14188293D02*
X12646253Y-14140674D01*
X12646253Y-14140674D02*
X12655777Y-14102579D01*
X12655777Y-14102579D02*
X12665301Y-14083531D01*
X12665301Y-14083531D02*
X12674824Y-14074008D01*
X12674824Y-14074008D02*
X12693872Y-14064484D01*
X12846253Y-14245436D02*
X12855777Y-14254960D01*
X12855777Y-14254960D02*
X12846253Y-14264484D01*
X12846253Y-14264484D02*
X12836729Y-14254960D01*
X12836729Y-14254960D02*
X12846253Y-14245436D01*
X12846253Y-14245436D02*
X12846253Y-14264484D01*
X13036729Y-14064484D02*
X12941491Y-14064484D01*
X12941491Y-14064484D02*
X12931967Y-14159722D01*
X12931967Y-14159722D02*
X12941491Y-14150198D01*
X12941491Y-14150198D02*
X12960539Y-14140674D01*
X12960539Y-14140674D02*
X13008158Y-14140674D01*
X13008158Y-14140674D02*
X13027205Y-14150198D01*
X13027205Y-14150198D02*
X13036729Y-14159722D01*
X13036729Y-14159722D02*
X13046253Y-14178769D01*
X13046253Y-14178769D02*
X13046253Y-14226388D01*
X13046253Y-14226388D02*
X13036729Y-14245436D01*
X13036729Y-14245436D02*
X13027205Y-14254960D01*
X13027205Y-14254960D02*
X13008158Y-14264484D01*
X13008158Y-14264484D02*
X12960539Y-14264484D01*
X12960539Y-14264484D02*
X12941491Y-14254960D01*
X12941491Y-14254960D02*
X12931967Y-14245436D01*
X13170062Y-14064484D02*
X13189110Y-14064484D01*
X13189110Y-14064484D02*
X13208158Y-14074008D01*
X13208158Y-14074008D02*
X13217682Y-14083531D01*
X13217682Y-14083531D02*
X13227205Y-14102579D01*
X13227205Y-14102579D02*
X13236729Y-14140674D01*
X13236729Y-14140674D02*
X13236729Y-14188293D01*
X13236729Y-14188293D02*
X13227205Y-14226388D01*
X13227205Y-14226388D02*
X13217682Y-14245436D01*
X13217682Y-14245436D02*
X13208158Y-14254960D01*
X13208158Y-14254960D02*
X13189110Y-14264484D01*
X13189110Y-14264484D02*
X13170062Y-14264484D01*
X13170062Y-14264484D02*
X13151015Y-14254960D01*
X13151015Y-14254960D02*
X13141491Y-14245436D01*
X13141491Y-14245436D02*
X13131967Y-14226388D01*
X13131967Y-14226388D02*
X13122443Y-14188293D01*
X13122443Y-14188293D02*
X13122443Y-14140674D01*
X13122443Y-14140674D02*
X13131967Y-14102579D01*
X13131967Y-14102579D02*
X13141491Y-14083531D01*
X13141491Y-14083531D02*
X13151015Y-14074008D01*
X13151015Y-14074008D02*
X13170062Y-14064484D01*
X13360539Y-14064484D02*
X13379586Y-14064484D01*
X13379586Y-14064484D02*
X13398634Y-14074008D01*
X13398634Y-14074008D02*
X13408158Y-14083531D01*
X13408158Y-14083531D02*
X13417682Y-14102579D01*
X13417682Y-14102579D02*
X13427205Y-14140674D01*
X13427205Y-14140674D02*
X13427205Y-14188293D01*
X13427205Y-14188293D02*
X13417682Y-14226388D01*
X13417682Y-14226388D02*
X13408158Y-14245436D01*
X13408158Y-14245436D02*
X13398634Y-14254960D01*
X13398634Y-14254960D02*
X13379586Y-14264484D01*
X13379586Y-14264484D02*
X13360539Y-14264484D01*
X13360539Y-14264484D02*
X13341491Y-14254960D01*
X13341491Y-14254960D02*
X13331967Y-14245436D01*
X13331967Y-14245436D02*
X13322443Y-14226388D01*
X13322443Y-14226388D02*
X13312920Y-14188293D01*
X13312920Y-14188293D02*
X13312920Y-14140674D01*
X13312920Y-14140674D02*
X13322443Y-14102579D01*
X13322443Y-14102579D02*
X13331967Y-14083531D01*
X13331967Y-14083531D02*
X13341491Y-14074008D01*
X13341491Y-14074008D02*
X13360539Y-14064484D01*
X13512920Y-14264484D02*
X13512920Y-14131150D01*
X13512920Y-14150198D02*
X13522443Y-14140674D01*
X13522443Y-14140674D02*
X13541491Y-14131150D01*
X13541491Y-14131150D02*
X13570063Y-14131150D01*
X13570063Y-14131150D02*
X13589110Y-14140674D01*
X13589110Y-14140674D02*
X13598634Y-14159722D01*
X13598634Y-14159722D02*
X13598634Y-14264484D01*
X13598634Y-14159722D02*
X13608158Y-14140674D01*
X13608158Y-14140674D02*
X13627205Y-14131150D01*
X13627205Y-14131150D02*
X13655777Y-14131150D01*
X13655777Y-14131150D02*
X13674824Y-14140674D01*
X13674824Y-14140674D02*
X13684348Y-14159722D01*
X13684348Y-14159722D02*
X13684348Y-14264484D01*
X13779586Y-14264484D02*
X13779586Y-14131150D01*
X13779586Y-14150198D02*
X13789110Y-14140674D01*
X13789110Y-14140674D02*
X13808158Y-14131150D01*
X13808158Y-14131150D02*
X13836729Y-14131150D01*
X13836729Y-14131150D02*
X13855777Y-14140674D01*
X13855777Y-14140674D02*
X13865301Y-14159722D01*
X13865301Y-14159722D02*
X13865301Y-14264484D01*
X13865301Y-14159722D02*
X13874824Y-14140674D01*
X13874824Y-14140674D02*
X13893872Y-14131150D01*
X13893872Y-14131150D02*
X13922443Y-14131150D01*
X13922443Y-14131150D02*
X13941491Y-14140674D01*
X13941491Y-14140674D02*
X13951015Y-14159722D01*
X13951015Y-14159722D02*
X13951015Y-14264484D01*
X14341491Y-14054960D02*
X14170063Y-14312103D01*
X14598634Y-14064484D02*
X14617682Y-14064484D01*
X14617682Y-14064484D02*
X14636729Y-14074008D01*
X14636729Y-14074008D02*
X14646253Y-14083531D01*
X14646253Y-14083531D02*
X14655777Y-14102579D01*
X14655777Y-14102579D02*
X14665301Y-14140674D01*
X14665301Y-14140674D02*
X14665301Y-14188293D01*
X14665301Y-14188293D02*
X14655777Y-14226388D01*
X14655777Y-14226388D02*
X14646253Y-14245436D01*
X14646253Y-14245436D02*
X14636729Y-14254960D01*
X14636729Y-14254960D02*
X14617682Y-14264484D01*
X14617682Y-14264484D02*
X14598634Y-14264484D01*
X14598634Y-14264484D02*
X14579586Y-14254960D01*
X14579586Y-14254960D02*
X14570063Y-14245436D01*
X14570063Y-14245436D02*
X14560539Y-14226388D01*
X14560539Y-14226388D02*
X14551015Y-14188293D01*
X14551015Y-14188293D02*
X14551015Y-14140674D01*
X14551015Y-14140674D02*
X14560539Y-14102579D01*
X14560539Y-14102579D02*
X14570063Y-14083531D01*
X14570063Y-14083531D02*
X14579586Y-14074008D01*
X14579586Y-14074008D02*
X14598634Y-14064484D01*
X14751015Y-14245436D02*
X14760539Y-14254960D01*
X14760539Y-14254960D02*
X14751015Y-14264484D01*
X14751015Y-14264484D02*
X14741491Y-14254960D01*
X14741491Y-14254960D02*
X14751015Y-14245436D01*
X14751015Y-14245436D02*
X14751015Y-14264484D01*
X14884348Y-14064484D02*
X14903396Y-14064484D01*
X14903396Y-14064484D02*
X14922444Y-14074008D01*
X14922444Y-14074008D02*
X14931967Y-14083531D01*
X14931967Y-14083531D02*
X14941491Y-14102579D01*
X14941491Y-14102579D02*
X14951015Y-14140674D01*
X14951015Y-14140674D02*
X14951015Y-14188293D01*
X14951015Y-14188293D02*
X14941491Y-14226388D01*
X14941491Y-14226388D02*
X14931967Y-14245436D01*
X14931967Y-14245436D02*
X14922444Y-14254960D01*
X14922444Y-14254960D02*
X14903396Y-14264484D01*
X14903396Y-14264484D02*
X14884348Y-14264484D01*
X14884348Y-14264484D02*
X14865301Y-14254960D01*
X14865301Y-14254960D02*
X14855777Y-14245436D01*
X14855777Y-14245436D02*
X14846253Y-14226388D01*
X14846253Y-14226388D02*
X14836729Y-14188293D01*
X14836729Y-14188293D02*
X14836729Y-14140674D01*
X14836729Y-14140674D02*
X14846253Y-14102579D01*
X14846253Y-14102579D02*
X14855777Y-14083531D01*
X14855777Y-14083531D02*
X14865301Y-14074008D01*
X14865301Y-14074008D02*
X14884348Y-14064484D01*
X15141491Y-14264484D02*
X15027206Y-14264484D01*
X15084348Y-14264484D02*
X15084348Y-14064484D01*
X15084348Y-14064484D02*
X15065301Y-14093055D01*
X15065301Y-14093055D02*
X15046253Y-14112103D01*
X15046253Y-14112103D02*
X15027206Y-14121627D01*
X15236729Y-14264484D02*
X15274825Y-14264484D01*
X15274825Y-14264484D02*
X15293872Y-14254960D01*
X15293872Y-14254960D02*
X15303396Y-14245436D01*
X15303396Y-14245436D02*
X15322444Y-14216865D01*
X15322444Y-14216865D02*
X15331967Y-14178769D01*
X15331967Y-14178769D02*
X15331967Y-14102579D01*
X15331967Y-14102579D02*
X15322444Y-14083531D01*
X15322444Y-14083531D02*
X15312920Y-14074008D01*
X15312920Y-14074008D02*
X15293872Y-14064484D01*
X15293872Y-14064484D02*
X15255777Y-14064484D01*
X15255777Y-14064484D02*
X15236729Y-14074008D01*
X15236729Y-14074008D02*
X15227206Y-14083531D01*
X15227206Y-14083531D02*
X15217682Y-14102579D01*
X15217682Y-14102579D02*
X15217682Y-14150198D01*
X15217682Y-14150198D02*
X15227206Y-14169246D01*
X15227206Y-14169246D02*
X15236729Y-14178769D01*
X15236729Y-14178769D02*
X15255777Y-14188293D01*
X15255777Y-14188293D02*
X15293872Y-14188293D01*
X15293872Y-14188293D02*
X15312920Y-14178769D01*
X15312920Y-14178769D02*
X15322444Y-14169246D01*
X15322444Y-14169246D02*
X15331967Y-14150198D01*
X15398634Y-14064484D02*
X15531967Y-14064484D01*
X15531967Y-14064484D02*
X15446253Y-14264484D01*
X15598634Y-14064484D02*
X15598634Y-14102579D01*
X15674825Y-14064484D02*
X15674825Y-14102579D01*
X15970063Y-14340674D02*
X15960539Y-14331150D01*
X15960539Y-14331150D02*
X15941491Y-14302579D01*
X15941491Y-14302579D02*
X15931968Y-14283531D01*
X15931968Y-14283531D02*
X15922444Y-14254960D01*
X15922444Y-14254960D02*
X15912920Y-14207341D01*
X15912920Y-14207341D02*
X15912920Y-14169246D01*
X15912920Y-14169246D02*
X15922444Y-14121627D01*
X15922444Y-14121627D02*
X15931968Y-14093055D01*
X15931968Y-14093055D02*
X15941491Y-14074008D01*
X15941491Y-14074008D02*
X15960539Y-14045436D01*
X15960539Y-14045436D02*
X15970063Y-14035912D01*
X16027206Y-14064484D02*
X16151015Y-14064484D01*
X16151015Y-14064484D02*
X16084348Y-14140674D01*
X16084348Y-14140674D02*
X16112920Y-14140674D01*
X16112920Y-14140674D02*
X16131968Y-14150198D01*
X16131968Y-14150198D02*
X16141491Y-14159722D01*
X16141491Y-14159722D02*
X16151015Y-14178769D01*
X16151015Y-14178769D02*
X16151015Y-14226388D01*
X16151015Y-14226388D02*
X16141491Y-14245436D01*
X16141491Y-14245436D02*
X16131968Y-14254960D01*
X16131968Y-14254960D02*
X16112920Y-14264484D01*
X16112920Y-14264484D02*
X16055777Y-14264484D01*
X16055777Y-14264484D02*
X16036729Y-14254960D01*
X16036729Y-14254960D02*
X16027206Y-14245436D01*
X16227206Y-14083531D02*
X16236729Y-14074008D01*
X16236729Y-14074008D02*
X16255777Y-14064484D01*
X16255777Y-14064484D02*
X16303396Y-14064484D01*
X16303396Y-14064484D02*
X16322444Y-14074008D01*
X16322444Y-14074008D02*
X16331968Y-14083531D01*
X16331968Y-14083531D02*
X16341491Y-14102579D01*
X16341491Y-14102579D02*
X16341491Y-14121627D01*
X16341491Y-14121627D02*
X16331968Y-14150198D01*
X16331968Y-14150198D02*
X16217682Y-14264484D01*
X16217682Y-14264484D02*
X16341491Y-14264484D01*
X16579587Y-14264484D02*
X16579587Y-14064484D01*
X16665301Y-14264484D02*
X16665301Y-14159722D01*
X16665301Y-14159722D02*
X16655777Y-14140674D01*
X16655777Y-14140674D02*
X16636730Y-14131150D01*
X16636730Y-14131150D02*
X16608158Y-14131150D01*
X16608158Y-14131150D02*
X16589110Y-14140674D01*
X16589110Y-14140674D02*
X16579587Y-14150198D01*
X16789111Y-14264484D02*
X16770063Y-14254960D01*
X16770063Y-14254960D02*
X16760539Y-14245436D01*
X16760539Y-14245436D02*
X16751015Y-14226388D01*
X16751015Y-14226388D02*
X16751015Y-14169246D01*
X16751015Y-14169246D02*
X16760539Y-14150198D01*
X16760539Y-14150198D02*
X16770063Y-14140674D01*
X16770063Y-14140674D02*
X16789111Y-14131150D01*
X16789111Y-14131150D02*
X16817682Y-14131150D01*
X16817682Y-14131150D02*
X16836730Y-14140674D01*
X16836730Y-14140674D02*
X16846253Y-14150198D01*
X16846253Y-14150198D02*
X16855777Y-14169246D01*
X16855777Y-14169246D02*
X16855777Y-14226388D01*
X16855777Y-14226388D02*
X16846253Y-14245436D01*
X16846253Y-14245436D02*
X16836730Y-14254960D01*
X16836730Y-14254960D02*
X16817682Y-14264484D01*
X16817682Y-14264484D02*
X16789111Y-14264484D01*
X16970063Y-14264484D02*
X16951015Y-14254960D01*
X16951015Y-14254960D02*
X16941492Y-14235912D01*
X16941492Y-14235912D02*
X16941492Y-14064484D01*
X17122444Y-14254960D02*
X17103396Y-14264484D01*
X17103396Y-14264484D02*
X17065301Y-14264484D01*
X17065301Y-14264484D02*
X17046253Y-14254960D01*
X17046253Y-14254960D02*
X17036730Y-14235912D01*
X17036730Y-14235912D02*
X17036730Y-14159722D01*
X17036730Y-14159722D02*
X17046253Y-14140674D01*
X17046253Y-14140674D02*
X17065301Y-14131150D01*
X17065301Y-14131150D02*
X17103396Y-14131150D01*
X17103396Y-14131150D02*
X17122444Y-14140674D01*
X17122444Y-14140674D02*
X17131968Y-14159722D01*
X17131968Y-14159722D02*
X17131968Y-14178769D01*
X17131968Y-14178769D02*
X17036730Y-14197817D01*
X17208158Y-14254960D02*
X17227206Y-14264484D01*
X17227206Y-14264484D02*
X17265301Y-14264484D01*
X17265301Y-14264484D02*
X17284349Y-14254960D01*
X17284349Y-14254960D02*
X17293873Y-14235912D01*
X17293873Y-14235912D02*
X17293873Y-14226388D01*
X17293873Y-14226388D02*
X17284349Y-14207341D01*
X17284349Y-14207341D02*
X17265301Y-14197817D01*
X17265301Y-14197817D02*
X17236730Y-14197817D01*
X17236730Y-14197817D02*
X17217682Y-14188293D01*
X17217682Y-14188293D02*
X17208158Y-14169246D01*
X17208158Y-14169246D02*
X17208158Y-14159722D01*
X17208158Y-14159722D02*
X17217682Y-14140674D01*
X17217682Y-14140674D02*
X17236730Y-14131150D01*
X17236730Y-14131150D02*
X17265301Y-14131150D01*
X17265301Y-14131150D02*
X17284349Y-14140674D01*
X17360539Y-14340674D02*
X17370063Y-14331150D01*
X17370063Y-14331150D02*
X17389111Y-14302579D01*
X17389111Y-14302579D02*
X17398634Y-14283531D01*
X17398634Y-14283531D02*
X17408158Y-14254960D01*
X17408158Y-14254960D02*
X17417682Y-14207341D01*
X17417682Y-14207341D02*
X17417682Y-14169246D01*
X17417682Y-14169246D02*
X17408158Y-14121627D01*
X17408158Y-14121627D02*
X17398634Y-14093055D01*
X17398634Y-14093055D02*
X17389111Y-14074008D01*
X17389111Y-14074008D02*
X17370063Y-14045436D01*
X17370063Y-14045436D02*
X17360539Y-14035912D01*
D15*
X12386213Y-14458213D02*
X12386213Y-14415787D01*
X12343787Y-14415787D01*
X12343787Y-14458213D01*
X12386213Y-14458213D01*
D11*
X12693872Y-14328484D02*
X12712920Y-14328484D01*
X12712920Y-14328484D02*
X12731967Y-14338008D01*
X12731967Y-14338008D02*
X12741491Y-14347531D01*
X12741491Y-14347531D02*
X12751015Y-14366579D01*
X12751015Y-14366579D02*
X12760539Y-14404674D01*
X12760539Y-14404674D02*
X12760539Y-14452293D01*
X12760539Y-14452293D02*
X12751015Y-14490388D01*
X12751015Y-14490388D02*
X12741491Y-14509436D01*
X12741491Y-14509436D02*
X12731967Y-14518960D01*
X12731967Y-14518960D02*
X12712920Y-14528484D01*
X12712920Y-14528484D02*
X12693872Y-14528484D01*
X12693872Y-14528484D02*
X12674824Y-14518960D01*
X12674824Y-14518960D02*
X12665301Y-14509436D01*
X12665301Y-14509436D02*
X12655777Y-14490388D01*
X12655777Y-14490388D02*
X12646253Y-14452293D01*
X12646253Y-14452293D02*
X12646253Y-14404674D01*
X12646253Y-14404674D02*
X12655777Y-14366579D01*
X12655777Y-14366579D02*
X12665301Y-14347531D01*
X12665301Y-14347531D02*
X12674824Y-14338008D01*
X12674824Y-14338008D02*
X12693872Y-14328484D01*
X12846253Y-14509436D02*
X12855777Y-14518960D01*
X12855777Y-14518960D02*
X12846253Y-14528484D01*
X12846253Y-14528484D02*
X12836729Y-14518960D01*
X12836729Y-14518960D02*
X12846253Y-14509436D01*
X12846253Y-14509436D02*
X12846253Y-14528484D01*
X13027205Y-14328484D02*
X12989110Y-14328484D01*
X12989110Y-14328484D02*
X12970062Y-14338008D01*
X12970062Y-14338008D02*
X12960539Y-14347531D01*
X12960539Y-14347531D02*
X12941491Y-14376103D01*
X12941491Y-14376103D02*
X12931967Y-14414198D01*
X12931967Y-14414198D02*
X12931967Y-14490388D01*
X12931967Y-14490388D02*
X12941491Y-14509436D01*
X12941491Y-14509436D02*
X12951015Y-14518960D01*
X12951015Y-14518960D02*
X12970062Y-14528484D01*
X12970062Y-14528484D02*
X13008158Y-14528484D01*
X13008158Y-14528484D02*
X13027205Y-14518960D01*
X13027205Y-14518960D02*
X13036729Y-14509436D01*
X13036729Y-14509436D02*
X13046253Y-14490388D01*
X13046253Y-14490388D02*
X13046253Y-14442769D01*
X13046253Y-14442769D02*
X13036729Y-14423722D01*
X13036729Y-14423722D02*
X13027205Y-14414198D01*
X13027205Y-14414198D02*
X13008158Y-14404674D01*
X13008158Y-14404674D02*
X12970062Y-14404674D01*
X12970062Y-14404674D02*
X12951015Y-14414198D01*
X12951015Y-14414198D02*
X12941491Y-14423722D01*
X12941491Y-14423722D02*
X12931967Y-14442769D01*
X13170062Y-14328484D02*
X13189110Y-14328484D01*
X13189110Y-14328484D02*
X13208158Y-14338008D01*
X13208158Y-14338008D02*
X13217682Y-14347531D01*
X13217682Y-14347531D02*
X13227205Y-14366579D01*
X13227205Y-14366579D02*
X13236729Y-14404674D01*
X13236729Y-14404674D02*
X13236729Y-14452293D01*
X13236729Y-14452293D02*
X13227205Y-14490388D01*
X13227205Y-14490388D02*
X13217682Y-14509436D01*
X13217682Y-14509436D02*
X13208158Y-14518960D01*
X13208158Y-14518960D02*
X13189110Y-14528484D01*
X13189110Y-14528484D02*
X13170062Y-14528484D01*
X13170062Y-14528484D02*
X13151015Y-14518960D01*
X13151015Y-14518960D02*
X13141491Y-14509436D01*
X13141491Y-14509436D02*
X13131967Y-14490388D01*
X13131967Y-14490388D02*
X13122443Y-14452293D01*
X13122443Y-14452293D02*
X13122443Y-14404674D01*
X13122443Y-14404674D02*
X13131967Y-14366579D01*
X13131967Y-14366579D02*
X13141491Y-14347531D01*
X13141491Y-14347531D02*
X13151015Y-14338008D01*
X13151015Y-14338008D02*
X13170062Y-14328484D01*
X13360539Y-14328484D02*
X13379586Y-14328484D01*
X13379586Y-14328484D02*
X13398634Y-14338008D01*
X13398634Y-14338008D02*
X13408158Y-14347531D01*
X13408158Y-14347531D02*
X13417682Y-14366579D01*
X13417682Y-14366579D02*
X13427205Y-14404674D01*
X13427205Y-14404674D02*
X13427205Y-14452293D01*
X13427205Y-14452293D02*
X13417682Y-14490388D01*
X13417682Y-14490388D02*
X13408158Y-14509436D01*
X13408158Y-14509436D02*
X13398634Y-14518960D01*
X13398634Y-14518960D02*
X13379586Y-14528484D01*
X13379586Y-14528484D02*
X13360539Y-14528484D01*
X13360539Y-14528484D02*
X13341491Y-14518960D01*
X13341491Y-14518960D02*
X13331967Y-14509436D01*
X13331967Y-14509436D02*
X13322443Y-14490388D01*
X13322443Y-14490388D02*
X13312920Y-14452293D01*
X13312920Y-14452293D02*
X13312920Y-14404674D01*
X13312920Y-14404674D02*
X13322443Y-14366579D01*
X13322443Y-14366579D02*
X13331967Y-14347531D01*
X13331967Y-14347531D02*
X13341491Y-14338008D01*
X13341491Y-14338008D02*
X13360539Y-14328484D01*
X13512920Y-14528484D02*
X13512920Y-14395150D01*
X13512920Y-14414198D02*
X13522443Y-14404674D01*
X13522443Y-14404674D02*
X13541491Y-14395150D01*
X13541491Y-14395150D02*
X13570063Y-14395150D01*
X13570063Y-14395150D02*
X13589110Y-14404674D01*
X13589110Y-14404674D02*
X13598634Y-14423722D01*
X13598634Y-14423722D02*
X13598634Y-14528484D01*
X13598634Y-14423722D02*
X13608158Y-14404674D01*
X13608158Y-14404674D02*
X13627205Y-14395150D01*
X13627205Y-14395150D02*
X13655777Y-14395150D01*
X13655777Y-14395150D02*
X13674824Y-14404674D01*
X13674824Y-14404674D02*
X13684348Y-14423722D01*
X13684348Y-14423722D02*
X13684348Y-14528484D01*
X13779586Y-14528484D02*
X13779586Y-14395150D01*
X13779586Y-14414198D02*
X13789110Y-14404674D01*
X13789110Y-14404674D02*
X13808158Y-14395150D01*
X13808158Y-14395150D02*
X13836729Y-14395150D01*
X13836729Y-14395150D02*
X13855777Y-14404674D01*
X13855777Y-14404674D02*
X13865301Y-14423722D01*
X13865301Y-14423722D02*
X13865301Y-14528484D01*
X13865301Y-14423722D02*
X13874824Y-14404674D01*
X13874824Y-14404674D02*
X13893872Y-14395150D01*
X13893872Y-14395150D02*
X13922443Y-14395150D01*
X13922443Y-14395150D02*
X13941491Y-14404674D01*
X13941491Y-14404674D02*
X13951015Y-14423722D01*
X13951015Y-14423722D02*
X13951015Y-14528484D01*
X14341491Y-14318960D02*
X14170063Y-14576103D01*
X14598634Y-14328484D02*
X14617682Y-14328484D01*
X14617682Y-14328484D02*
X14636729Y-14338008D01*
X14636729Y-14338008D02*
X14646253Y-14347531D01*
X14646253Y-14347531D02*
X14655777Y-14366579D01*
X14655777Y-14366579D02*
X14665301Y-14404674D01*
X14665301Y-14404674D02*
X14665301Y-14452293D01*
X14665301Y-14452293D02*
X14655777Y-14490388D01*
X14655777Y-14490388D02*
X14646253Y-14509436D01*
X14646253Y-14509436D02*
X14636729Y-14518960D01*
X14636729Y-14518960D02*
X14617682Y-14528484D01*
X14617682Y-14528484D02*
X14598634Y-14528484D01*
X14598634Y-14528484D02*
X14579586Y-14518960D01*
X14579586Y-14518960D02*
X14570063Y-14509436D01*
X14570063Y-14509436D02*
X14560539Y-14490388D01*
X14560539Y-14490388D02*
X14551015Y-14452293D01*
X14551015Y-14452293D02*
X14551015Y-14404674D01*
X14551015Y-14404674D02*
X14560539Y-14366579D01*
X14560539Y-14366579D02*
X14570063Y-14347531D01*
X14570063Y-14347531D02*
X14579586Y-14338008D01*
X14579586Y-14338008D02*
X14598634Y-14328484D01*
X14751015Y-14509436D02*
X14760539Y-14518960D01*
X14760539Y-14518960D02*
X14751015Y-14528484D01*
X14751015Y-14528484D02*
X14741491Y-14518960D01*
X14741491Y-14518960D02*
X14751015Y-14509436D01*
X14751015Y-14509436D02*
X14751015Y-14528484D01*
X14884348Y-14328484D02*
X14903396Y-14328484D01*
X14903396Y-14328484D02*
X14922444Y-14338008D01*
X14922444Y-14338008D02*
X14931967Y-14347531D01*
X14931967Y-14347531D02*
X14941491Y-14366579D01*
X14941491Y-14366579D02*
X14951015Y-14404674D01*
X14951015Y-14404674D02*
X14951015Y-14452293D01*
X14951015Y-14452293D02*
X14941491Y-14490388D01*
X14941491Y-14490388D02*
X14931967Y-14509436D01*
X14931967Y-14509436D02*
X14922444Y-14518960D01*
X14922444Y-14518960D02*
X14903396Y-14528484D01*
X14903396Y-14528484D02*
X14884348Y-14528484D01*
X14884348Y-14528484D02*
X14865301Y-14518960D01*
X14865301Y-14518960D02*
X14855777Y-14509436D01*
X14855777Y-14509436D02*
X14846253Y-14490388D01*
X14846253Y-14490388D02*
X14836729Y-14452293D01*
X14836729Y-14452293D02*
X14836729Y-14404674D01*
X14836729Y-14404674D02*
X14846253Y-14366579D01*
X14846253Y-14366579D02*
X14855777Y-14347531D01*
X14855777Y-14347531D02*
X14865301Y-14338008D01*
X14865301Y-14338008D02*
X14884348Y-14328484D01*
X15027206Y-14347531D02*
X15036729Y-14338008D01*
X15036729Y-14338008D02*
X15055777Y-14328484D01*
X15055777Y-14328484D02*
X15103396Y-14328484D01*
X15103396Y-14328484D02*
X15122444Y-14338008D01*
X15122444Y-14338008D02*
X15131967Y-14347531D01*
X15131967Y-14347531D02*
X15141491Y-14366579D01*
X15141491Y-14366579D02*
X15141491Y-14385627D01*
X15141491Y-14385627D02*
X15131967Y-14414198D01*
X15131967Y-14414198D02*
X15017682Y-14528484D01*
X15017682Y-14528484D02*
X15141491Y-14528484D01*
X15208158Y-14328484D02*
X15331967Y-14328484D01*
X15331967Y-14328484D02*
X15265301Y-14404674D01*
X15265301Y-14404674D02*
X15293872Y-14404674D01*
X15293872Y-14404674D02*
X15312920Y-14414198D01*
X15312920Y-14414198D02*
X15322444Y-14423722D01*
X15322444Y-14423722D02*
X15331967Y-14442769D01*
X15331967Y-14442769D02*
X15331967Y-14490388D01*
X15331967Y-14490388D02*
X15322444Y-14509436D01*
X15322444Y-14509436D02*
X15312920Y-14518960D01*
X15312920Y-14518960D02*
X15293872Y-14528484D01*
X15293872Y-14528484D02*
X15236729Y-14528484D01*
X15236729Y-14528484D02*
X15217682Y-14518960D01*
X15217682Y-14518960D02*
X15208158Y-14509436D01*
X15503396Y-14328484D02*
X15465301Y-14328484D01*
X15465301Y-14328484D02*
X15446253Y-14338008D01*
X15446253Y-14338008D02*
X15436729Y-14347531D01*
X15436729Y-14347531D02*
X15417682Y-14376103D01*
X15417682Y-14376103D02*
X15408158Y-14414198D01*
X15408158Y-14414198D02*
X15408158Y-14490388D01*
X15408158Y-14490388D02*
X15417682Y-14509436D01*
X15417682Y-14509436D02*
X15427206Y-14518960D01*
X15427206Y-14518960D02*
X15446253Y-14528484D01*
X15446253Y-14528484D02*
X15484348Y-14528484D01*
X15484348Y-14528484D02*
X15503396Y-14518960D01*
X15503396Y-14518960D02*
X15512920Y-14509436D01*
X15512920Y-14509436D02*
X15522444Y-14490388D01*
X15522444Y-14490388D02*
X15522444Y-14442769D01*
X15522444Y-14442769D02*
X15512920Y-14423722D01*
X15512920Y-14423722D02*
X15503396Y-14414198D01*
X15503396Y-14414198D02*
X15484348Y-14404674D01*
X15484348Y-14404674D02*
X15446253Y-14404674D01*
X15446253Y-14404674D02*
X15427206Y-14414198D01*
X15427206Y-14414198D02*
X15417682Y-14423722D01*
X15417682Y-14423722D02*
X15408158Y-14442769D01*
X15598634Y-14328484D02*
X15598634Y-14366579D01*
X15674825Y-14328484D02*
X15674825Y-14366579D01*
X15970063Y-14604674D02*
X15960539Y-14595150D01*
X15960539Y-14595150D02*
X15941491Y-14566579D01*
X15941491Y-14566579D02*
X15931968Y-14547531D01*
X15931968Y-14547531D02*
X15922444Y-14518960D01*
X15922444Y-14518960D02*
X15912920Y-14471341D01*
X15912920Y-14471341D02*
X15912920Y-14433246D01*
X15912920Y-14433246D02*
X15922444Y-14385627D01*
X15922444Y-14385627D02*
X15931968Y-14357055D01*
X15931968Y-14357055D02*
X15941491Y-14338008D01*
X15941491Y-14338008D02*
X15960539Y-14309436D01*
X15960539Y-14309436D02*
X15970063Y-14299912D01*
X16084348Y-14328484D02*
X16103396Y-14328484D01*
X16103396Y-14328484D02*
X16122444Y-14338008D01*
X16122444Y-14338008D02*
X16131968Y-14347531D01*
X16131968Y-14347531D02*
X16141491Y-14366579D01*
X16141491Y-14366579D02*
X16151015Y-14404674D01*
X16151015Y-14404674D02*
X16151015Y-14452293D01*
X16151015Y-14452293D02*
X16141491Y-14490388D01*
X16141491Y-14490388D02*
X16131968Y-14509436D01*
X16131968Y-14509436D02*
X16122444Y-14518960D01*
X16122444Y-14518960D02*
X16103396Y-14528484D01*
X16103396Y-14528484D02*
X16084348Y-14528484D01*
X16084348Y-14528484D02*
X16065301Y-14518960D01*
X16065301Y-14518960D02*
X16055777Y-14509436D01*
X16055777Y-14509436D02*
X16046253Y-14490388D01*
X16046253Y-14490388D02*
X16036729Y-14452293D01*
X16036729Y-14452293D02*
X16036729Y-14404674D01*
X16036729Y-14404674D02*
X16046253Y-14366579D01*
X16046253Y-14366579D02*
X16055777Y-14347531D01*
X16055777Y-14347531D02*
X16065301Y-14338008D01*
X16065301Y-14338008D02*
X16084348Y-14328484D01*
X16389110Y-14528484D02*
X16389110Y-14328484D01*
X16474825Y-14528484D02*
X16474825Y-14423722D01*
X16474825Y-14423722D02*
X16465301Y-14404674D01*
X16465301Y-14404674D02*
X16446253Y-14395150D01*
X16446253Y-14395150D02*
X16417682Y-14395150D01*
X16417682Y-14395150D02*
X16398634Y-14404674D01*
X16398634Y-14404674D02*
X16389110Y-14414198D01*
X16598634Y-14528484D02*
X16579587Y-14518960D01*
X16579587Y-14518960D02*
X16570063Y-14509436D01*
X16570063Y-14509436D02*
X16560539Y-14490388D01*
X16560539Y-14490388D02*
X16560539Y-14433246D01*
X16560539Y-14433246D02*
X16570063Y-14414198D01*
X16570063Y-14414198D02*
X16579587Y-14404674D01*
X16579587Y-14404674D02*
X16598634Y-14395150D01*
X16598634Y-14395150D02*
X16627206Y-14395150D01*
X16627206Y-14395150D02*
X16646253Y-14404674D01*
X16646253Y-14404674D02*
X16655777Y-14414198D01*
X16655777Y-14414198D02*
X16665301Y-14433246D01*
X16665301Y-14433246D02*
X16665301Y-14490388D01*
X16665301Y-14490388D02*
X16655777Y-14509436D01*
X16655777Y-14509436D02*
X16646253Y-14518960D01*
X16646253Y-14518960D02*
X16627206Y-14528484D01*
X16627206Y-14528484D02*
X16598634Y-14528484D01*
X16779587Y-14528484D02*
X16760539Y-14518960D01*
X16760539Y-14518960D02*
X16751015Y-14499912D01*
X16751015Y-14499912D02*
X16751015Y-14328484D01*
X16931968Y-14518960D02*
X16912920Y-14528484D01*
X16912920Y-14528484D02*
X16874825Y-14528484D01*
X16874825Y-14528484D02*
X16855777Y-14518960D01*
X16855777Y-14518960D02*
X16846253Y-14499912D01*
X16846253Y-14499912D02*
X16846253Y-14423722D01*
X16846253Y-14423722D02*
X16855777Y-14404674D01*
X16855777Y-14404674D02*
X16874825Y-14395150D01*
X16874825Y-14395150D02*
X16912920Y-14395150D01*
X16912920Y-14395150D02*
X16931968Y-14404674D01*
X16931968Y-14404674D02*
X16941492Y-14423722D01*
X16941492Y-14423722D02*
X16941492Y-14442769D01*
X16941492Y-14442769D02*
X16846253Y-14461817D01*
X17017682Y-14518960D02*
X17036730Y-14528484D01*
X17036730Y-14528484D02*
X17074825Y-14528484D01*
X17074825Y-14528484D02*
X17093873Y-14518960D01*
X17093873Y-14518960D02*
X17103396Y-14499912D01*
X17103396Y-14499912D02*
X17103396Y-14490388D01*
X17103396Y-14490388D02*
X17093873Y-14471341D01*
X17093873Y-14471341D02*
X17074825Y-14461817D01*
X17074825Y-14461817D02*
X17046253Y-14461817D01*
X17046253Y-14461817D02*
X17027206Y-14452293D01*
X17027206Y-14452293D02*
X17017682Y-14433246D01*
X17017682Y-14433246D02*
X17017682Y-14423722D01*
X17017682Y-14423722D02*
X17027206Y-14404674D01*
X17027206Y-14404674D02*
X17046253Y-14395150D01*
X17046253Y-14395150D02*
X17074825Y-14395150D01*
X17074825Y-14395150D02*
X17093873Y-14404674D01*
X17341492Y-14452293D02*
X17493873Y-14452293D01*
X17417682Y-14528484D02*
X17417682Y-14376103D01*
X17827206Y-14395150D02*
X17827206Y-14528484D01*
X17779587Y-14318960D02*
X17731968Y-14461817D01*
X17731968Y-14461817D02*
X17855777Y-14461817D01*
X18074825Y-14518960D02*
X18093873Y-14528484D01*
X18093873Y-14528484D02*
X18131968Y-14528484D01*
X18131968Y-14528484D02*
X18151016Y-14518960D01*
X18151016Y-14518960D02*
X18160539Y-14499912D01*
X18160539Y-14499912D02*
X18160539Y-14490388D01*
X18160539Y-14490388D02*
X18151016Y-14471341D01*
X18151016Y-14471341D02*
X18131968Y-14461817D01*
X18131968Y-14461817D02*
X18103396Y-14461817D01*
X18103396Y-14461817D02*
X18084349Y-14452293D01*
X18084349Y-14452293D02*
X18074825Y-14433246D01*
X18074825Y-14433246D02*
X18074825Y-14423722D01*
X18074825Y-14423722D02*
X18084349Y-14404674D01*
X18084349Y-14404674D02*
X18103396Y-14395150D01*
X18103396Y-14395150D02*
X18131968Y-14395150D01*
X18131968Y-14395150D02*
X18151016Y-14404674D01*
X18274825Y-14528484D02*
X18255777Y-14518960D01*
X18255777Y-14518960D02*
X18246254Y-14499912D01*
X18246254Y-14499912D02*
X18246254Y-14328484D01*
X18379587Y-14528484D02*
X18360539Y-14518960D01*
X18360539Y-14518960D02*
X18351016Y-14509436D01*
X18351016Y-14509436D02*
X18341492Y-14490388D01*
X18341492Y-14490388D02*
X18341492Y-14433246D01*
X18341492Y-14433246D02*
X18351016Y-14414198D01*
X18351016Y-14414198D02*
X18360539Y-14404674D01*
X18360539Y-14404674D02*
X18379587Y-14395150D01*
X18379587Y-14395150D02*
X18408158Y-14395150D01*
X18408158Y-14395150D02*
X18427206Y-14404674D01*
X18427206Y-14404674D02*
X18436730Y-14414198D01*
X18436730Y-14414198D02*
X18446254Y-14433246D01*
X18446254Y-14433246D02*
X18446254Y-14490388D01*
X18446254Y-14490388D02*
X18436730Y-14509436D01*
X18436730Y-14509436D02*
X18427206Y-14518960D01*
X18427206Y-14518960D02*
X18408158Y-14528484D01*
X18408158Y-14528484D02*
X18379587Y-14528484D01*
X18503397Y-14395150D02*
X18579587Y-14395150D01*
X18531968Y-14328484D02*
X18531968Y-14499912D01*
X18531968Y-14499912D02*
X18541492Y-14518960D01*
X18541492Y-14518960D02*
X18560539Y-14528484D01*
X18560539Y-14528484D02*
X18579587Y-14528484D01*
X18636730Y-14518960D02*
X18655777Y-14528484D01*
X18655777Y-14528484D02*
X18693873Y-14528484D01*
X18693873Y-14528484D02*
X18712920Y-14518960D01*
X18712920Y-14518960D02*
X18722444Y-14499912D01*
X18722444Y-14499912D02*
X18722444Y-14490388D01*
X18722444Y-14490388D02*
X18712920Y-14471341D01*
X18712920Y-14471341D02*
X18693873Y-14461817D01*
X18693873Y-14461817D02*
X18665301Y-14461817D01*
X18665301Y-14461817D02*
X18646254Y-14452293D01*
X18646254Y-14452293D02*
X18636730Y-14433246D01*
X18636730Y-14433246D02*
X18636730Y-14423722D01*
X18636730Y-14423722D02*
X18646254Y-14404674D01*
X18646254Y-14404674D02*
X18665301Y-14395150D01*
X18665301Y-14395150D02*
X18693873Y-14395150D01*
X18693873Y-14395150D02*
X18712920Y-14404674D01*
X18789111Y-14604674D02*
X18798635Y-14595150D01*
X18798635Y-14595150D02*
X18817682Y-14566579D01*
X18817682Y-14566579D02*
X18827206Y-14547531D01*
X18827206Y-14547531D02*
X18836730Y-14518960D01*
X18836730Y-14518960D02*
X18846254Y-14471341D01*
X18846254Y-14471341D02*
X18846254Y-14433246D01*
X18846254Y-14433246D02*
X18836730Y-14385627D01*
X18836730Y-14385627D02*
X18827206Y-14357055D01*
X18827206Y-14357055D02*
X18817682Y-14338008D01*
X18817682Y-14338008D02*
X18798635Y-14309436D01*
X18798635Y-14309436D02*
X18789111Y-14299912D01*
D16*
X12347500Y-14748500D02*
X12395000Y-14701000D01*
X12347500Y-14653500D01*
X12300000Y-14701000D01*
X12347500Y-14748500D01*
D11*
X12693872Y-14592484D02*
X12712920Y-14592484D01*
X12712920Y-14592484D02*
X12731967Y-14602008D01*
X12731967Y-14602008D02*
X12741491Y-14611531D01*
X12741491Y-14611531D02*
X12751015Y-14630579D01*
X12751015Y-14630579D02*
X12760539Y-14668674D01*
X12760539Y-14668674D02*
X12760539Y-14716293D01*
X12760539Y-14716293D02*
X12751015Y-14754388D01*
X12751015Y-14754388D02*
X12741491Y-14773436D01*
X12741491Y-14773436D02*
X12731967Y-14782960D01*
X12731967Y-14782960D02*
X12712920Y-14792484D01*
X12712920Y-14792484D02*
X12693872Y-14792484D01*
X12693872Y-14792484D02*
X12674824Y-14782960D01*
X12674824Y-14782960D02*
X12665301Y-14773436D01*
X12665301Y-14773436D02*
X12655777Y-14754388D01*
X12655777Y-14754388D02*
X12646253Y-14716293D01*
X12646253Y-14716293D02*
X12646253Y-14668674D01*
X12646253Y-14668674D02*
X12655777Y-14630579D01*
X12655777Y-14630579D02*
X12665301Y-14611531D01*
X12665301Y-14611531D02*
X12674824Y-14602008D01*
X12674824Y-14602008D02*
X12693872Y-14592484D01*
X12846253Y-14773436D02*
X12855777Y-14782960D01*
X12855777Y-14782960D02*
X12846253Y-14792484D01*
X12846253Y-14792484D02*
X12836729Y-14782960D01*
X12836729Y-14782960D02*
X12846253Y-14773436D01*
X12846253Y-14773436D02*
X12846253Y-14792484D01*
X12951015Y-14792484D02*
X12989110Y-14792484D01*
X12989110Y-14792484D02*
X13008158Y-14782960D01*
X13008158Y-14782960D02*
X13017682Y-14773436D01*
X13017682Y-14773436D02*
X13036729Y-14744865D01*
X13036729Y-14744865D02*
X13046253Y-14706769D01*
X13046253Y-14706769D02*
X13046253Y-14630579D01*
X13046253Y-14630579D02*
X13036729Y-14611531D01*
X13036729Y-14611531D02*
X13027205Y-14602008D01*
X13027205Y-14602008D02*
X13008158Y-14592484D01*
X13008158Y-14592484D02*
X12970062Y-14592484D01*
X12970062Y-14592484D02*
X12951015Y-14602008D01*
X12951015Y-14602008D02*
X12941491Y-14611531D01*
X12941491Y-14611531D02*
X12931967Y-14630579D01*
X12931967Y-14630579D02*
X12931967Y-14678198D01*
X12931967Y-14678198D02*
X12941491Y-14697246D01*
X12941491Y-14697246D02*
X12951015Y-14706769D01*
X12951015Y-14706769D02*
X12970062Y-14716293D01*
X12970062Y-14716293D02*
X13008158Y-14716293D01*
X13008158Y-14716293D02*
X13027205Y-14706769D01*
X13027205Y-14706769D02*
X13036729Y-14697246D01*
X13036729Y-14697246D02*
X13046253Y-14678198D01*
X13227205Y-14592484D02*
X13131967Y-14592484D01*
X13131967Y-14592484D02*
X13122443Y-14687722D01*
X13122443Y-14687722D02*
X13131967Y-14678198D01*
X13131967Y-14678198D02*
X13151015Y-14668674D01*
X13151015Y-14668674D02*
X13198634Y-14668674D01*
X13198634Y-14668674D02*
X13217682Y-14678198D01*
X13217682Y-14678198D02*
X13227205Y-14687722D01*
X13227205Y-14687722D02*
X13236729Y-14706769D01*
X13236729Y-14706769D02*
X13236729Y-14754388D01*
X13236729Y-14754388D02*
X13227205Y-14773436D01*
X13227205Y-14773436D02*
X13217682Y-14782960D01*
X13217682Y-14782960D02*
X13198634Y-14792484D01*
X13198634Y-14792484D02*
X13151015Y-14792484D01*
X13151015Y-14792484D02*
X13131967Y-14782960D01*
X13131967Y-14782960D02*
X13122443Y-14773436D01*
X13360539Y-14592484D02*
X13379586Y-14592484D01*
X13379586Y-14592484D02*
X13398634Y-14602008D01*
X13398634Y-14602008D02*
X13408158Y-14611531D01*
X13408158Y-14611531D02*
X13417682Y-14630579D01*
X13417682Y-14630579D02*
X13427205Y-14668674D01*
X13427205Y-14668674D02*
X13427205Y-14716293D01*
X13427205Y-14716293D02*
X13417682Y-14754388D01*
X13417682Y-14754388D02*
X13408158Y-14773436D01*
X13408158Y-14773436D02*
X13398634Y-14782960D01*
X13398634Y-14782960D02*
X13379586Y-14792484D01*
X13379586Y-14792484D02*
X13360539Y-14792484D01*
X13360539Y-14792484D02*
X13341491Y-14782960D01*
X13341491Y-14782960D02*
X13331967Y-14773436D01*
X13331967Y-14773436D02*
X13322443Y-14754388D01*
X13322443Y-14754388D02*
X13312920Y-14716293D01*
X13312920Y-14716293D02*
X13312920Y-14668674D01*
X13312920Y-14668674D02*
X13322443Y-14630579D01*
X13322443Y-14630579D02*
X13331967Y-14611531D01*
X13331967Y-14611531D02*
X13341491Y-14602008D01*
X13341491Y-14602008D02*
X13360539Y-14592484D01*
X13512920Y-14792484D02*
X13512920Y-14659150D01*
X13512920Y-14678198D02*
X13522443Y-14668674D01*
X13522443Y-14668674D02*
X13541491Y-14659150D01*
X13541491Y-14659150D02*
X13570063Y-14659150D01*
X13570063Y-14659150D02*
X13589110Y-14668674D01*
X13589110Y-14668674D02*
X13598634Y-14687722D01*
X13598634Y-14687722D02*
X13598634Y-14792484D01*
X13598634Y-14687722D02*
X13608158Y-14668674D01*
X13608158Y-14668674D02*
X13627205Y-14659150D01*
X13627205Y-14659150D02*
X13655777Y-14659150D01*
X13655777Y-14659150D02*
X13674824Y-14668674D01*
X13674824Y-14668674D02*
X13684348Y-14687722D01*
X13684348Y-14687722D02*
X13684348Y-14792484D01*
X13779586Y-14792484D02*
X13779586Y-14659150D01*
X13779586Y-14678198D02*
X13789110Y-14668674D01*
X13789110Y-14668674D02*
X13808158Y-14659150D01*
X13808158Y-14659150D02*
X13836729Y-14659150D01*
X13836729Y-14659150D02*
X13855777Y-14668674D01*
X13855777Y-14668674D02*
X13865301Y-14687722D01*
X13865301Y-14687722D02*
X13865301Y-14792484D01*
X13865301Y-14687722D02*
X13874824Y-14668674D01*
X13874824Y-14668674D02*
X13893872Y-14659150D01*
X13893872Y-14659150D02*
X13922443Y-14659150D01*
X13922443Y-14659150D02*
X13941491Y-14668674D01*
X13941491Y-14668674D02*
X13951015Y-14687722D01*
X13951015Y-14687722D02*
X13951015Y-14792484D01*
X14341491Y-14582960D02*
X14170063Y-14840103D01*
X14598634Y-14592484D02*
X14617682Y-14592484D01*
X14617682Y-14592484D02*
X14636729Y-14602008D01*
X14636729Y-14602008D02*
X14646253Y-14611531D01*
X14646253Y-14611531D02*
X14655777Y-14630579D01*
X14655777Y-14630579D02*
X14665301Y-14668674D01*
X14665301Y-14668674D02*
X14665301Y-14716293D01*
X14665301Y-14716293D02*
X14655777Y-14754388D01*
X14655777Y-14754388D02*
X14646253Y-14773436D01*
X14646253Y-14773436D02*
X14636729Y-14782960D01*
X14636729Y-14782960D02*
X14617682Y-14792484D01*
X14617682Y-14792484D02*
X14598634Y-14792484D01*
X14598634Y-14792484D02*
X14579586Y-14782960D01*
X14579586Y-14782960D02*
X14570063Y-14773436D01*
X14570063Y-14773436D02*
X14560539Y-14754388D01*
X14560539Y-14754388D02*
X14551015Y-14716293D01*
X14551015Y-14716293D02*
X14551015Y-14668674D01*
X14551015Y-14668674D02*
X14560539Y-14630579D01*
X14560539Y-14630579D02*
X14570063Y-14611531D01*
X14570063Y-14611531D02*
X14579586Y-14602008D01*
X14579586Y-14602008D02*
X14598634Y-14592484D01*
X14751015Y-14773436D02*
X14760539Y-14782960D01*
X14760539Y-14782960D02*
X14751015Y-14792484D01*
X14751015Y-14792484D02*
X14741491Y-14782960D01*
X14741491Y-14782960D02*
X14751015Y-14773436D01*
X14751015Y-14773436D02*
X14751015Y-14792484D01*
X14884348Y-14592484D02*
X14903396Y-14592484D01*
X14903396Y-14592484D02*
X14922444Y-14602008D01*
X14922444Y-14602008D02*
X14931967Y-14611531D01*
X14931967Y-14611531D02*
X14941491Y-14630579D01*
X14941491Y-14630579D02*
X14951015Y-14668674D01*
X14951015Y-14668674D02*
X14951015Y-14716293D01*
X14951015Y-14716293D02*
X14941491Y-14754388D01*
X14941491Y-14754388D02*
X14931967Y-14773436D01*
X14931967Y-14773436D02*
X14922444Y-14782960D01*
X14922444Y-14782960D02*
X14903396Y-14792484D01*
X14903396Y-14792484D02*
X14884348Y-14792484D01*
X14884348Y-14792484D02*
X14865301Y-14782960D01*
X14865301Y-14782960D02*
X14855777Y-14773436D01*
X14855777Y-14773436D02*
X14846253Y-14754388D01*
X14846253Y-14754388D02*
X14836729Y-14716293D01*
X14836729Y-14716293D02*
X14836729Y-14668674D01*
X14836729Y-14668674D02*
X14846253Y-14630579D01*
X14846253Y-14630579D02*
X14855777Y-14611531D01*
X14855777Y-14611531D02*
X14865301Y-14602008D01*
X14865301Y-14602008D02*
X14884348Y-14592484D01*
X15017682Y-14592484D02*
X15141491Y-14592484D01*
X15141491Y-14592484D02*
X15074825Y-14668674D01*
X15074825Y-14668674D02*
X15103396Y-14668674D01*
X15103396Y-14668674D02*
X15122444Y-14678198D01*
X15122444Y-14678198D02*
X15131967Y-14687722D01*
X15131967Y-14687722D02*
X15141491Y-14706769D01*
X15141491Y-14706769D02*
X15141491Y-14754388D01*
X15141491Y-14754388D02*
X15131967Y-14773436D01*
X15131967Y-14773436D02*
X15122444Y-14782960D01*
X15122444Y-14782960D02*
X15103396Y-14792484D01*
X15103396Y-14792484D02*
X15046253Y-14792484D01*
X15046253Y-14792484D02*
X15027206Y-14782960D01*
X15027206Y-14782960D02*
X15017682Y-14773436D01*
X15208158Y-14592484D02*
X15341491Y-14592484D01*
X15341491Y-14592484D02*
X15255777Y-14792484D01*
X15503396Y-14659150D02*
X15503396Y-14792484D01*
X15455777Y-14582960D02*
X15408158Y-14725817D01*
X15408158Y-14725817D02*
X15531967Y-14725817D01*
X15598634Y-14592484D02*
X15598634Y-14630579D01*
X15674825Y-14592484D02*
X15674825Y-14630579D01*
X15970063Y-14868674D02*
X15960539Y-14859150D01*
X15960539Y-14859150D02*
X15941491Y-14830579D01*
X15941491Y-14830579D02*
X15931968Y-14811531D01*
X15931968Y-14811531D02*
X15922444Y-14782960D01*
X15922444Y-14782960D02*
X15912920Y-14735341D01*
X15912920Y-14735341D02*
X15912920Y-14697246D01*
X15912920Y-14697246D02*
X15922444Y-14649627D01*
X15922444Y-14649627D02*
X15931968Y-14621055D01*
X15931968Y-14621055D02*
X15941491Y-14602008D01*
X15941491Y-14602008D02*
X15960539Y-14573436D01*
X15960539Y-14573436D02*
X15970063Y-14563912D01*
X16055777Y-14792484D02*
X16093872Y-14792484D01*
X16093872Y-14792484D02*
X16112920Y-14782960D01*
X16112920Y-14782960D02*
X16122444Y-14773436D01*
X16122444Y-14773436D02*
X16141491Y-14744865D01*
X16141491Y-14744865D02*
X16151015Y-14706769D01*
X16151015Y-14706769D02*
X16151015Y-14630579D01*
X16151015Y-14630579D02*
X16141491Y-14611531D01*
X16141491Y-14611531D02*
X16131968Y-14602008D01*
X16131968Y-14602008D02*
X16112920Y-14592484D01*
X16112920Y-14592484D02*
X16074825Y-14592484D01*
X16074825Y-14592484D02*
X16055777Y-14602008D01*
X16055777Y-14602008D02*
X16046253Y-14611531D01*
X16046253Y-14611531D02*
X16036729Y-14630579D01*
X16036729Y-14630579D02*
X16036729Y-14678198D01*
X16036729Y-14678198D02*
X16046253Y-14697246D01*
X16046253Y-14697246D02*
X16055777Y-14706769D01*
X16055777Y-14706769D02*
X16074825Y-14716293D01*
X16074825Y-14716293D02*
X16112920Y-14716293D01*
X16112920Y-14716293D02*
X16131968Y-14706769D01*
X16131968Y-14706769D02*
X16141491Y-14697246D01*
X16141491Y-14697246D02*
X16151015Y-14678198D01*
X16389110Y-14792484D02*
X16389110Y-14592484D01*
X16474825Y-14792484D02*
X16474825Y-14687722D01*
X16474825Y-14687722D02*
X16465301Y-14668674D01*
X16465301Y-14668674D02*
X16446253Y-14659150D01*
X16446253Y-14659150D02*
X16417682Y-14659150D01*
X16417682Y-14659150D02*
X16398634Y-14668674D01*
X16398634Y-14668674D02*
X16389110Y-14678198D01*
X16598634Y-14792484D02*
X16579587Y-14782960D01*
X16579587Y-14782960D02*
X16570063Y-14773436D01*
X16570063Y-14773436D02*
X16560539Y-14754388D01*
X16560539Y-14754388D02*
X16560539Y-14697246D01*
X16560539Y-14697246D02*
X16570063Y-14678198D01*
X16570063Y-14678198D02*
X16579587Y-14668674D01*
X16579587Y-14668674D02*
X16598634Y-14659150D01*
X16598634Y-14659150D02*
X16627206Y-14659150D01*
X16627206Y-14659150D02*
X16646253Y-14668674D01*
X16646253Y-14668674D02*
X16655777Y-14678198D01*
X16655777Y-14678198D02*
X16665301Y-14697246D01*
X16665301Y-14697246D02*
X16665301Y-14754388D01*
X16665301Y-14754388D02*
X16655777Y-14773436D01*
X16655777Y-14773436D02*
X16646253Y-14782960D01*
X16646253Y-14782960D02*
X16627206Y-14792484D01*
X16627206Y-14792484D02*
X16598634Y-14792484D01*
X16779587Y-14792484D02*
X16760539Y-14782960D01*
X16760539Y-14782960D02*
X16751015Y-14763912D01*
X16751015Y-14763912D02*
X16751015Y-14592484D01*
X16931968Y-14782960D02*
X16912920Y-14792484D01*
X16912920Y-14792484D02*
X16874825Y-14792484D01*
X16874825Y-14792484D02*
X16855777Y-14782960D01*
X16855777Y-14782960D02*
X16846253Y-14763912D01*
X16846253Y-14763912D02*
X16846253Y-14687722D01*
X16846253Y-14687722D02*
X16855777Y-14668674D01*
X16855777Y-14668674D02*
X16874825Y-14659150D01*
X16874825Y-14659150D02*
X16912920Y-14659150D01*
X16912920Y-14659150D02*
X16931968Y-14668674D01*
X16931968Y-14668674D02*
X16941492Y-14687722D01*
X16941492Y-14687722D02*
X16941492Y-14706769D01*
X16941492Y-14706769D02*
X16846253Y-14725817D01*
X17017682Y-14782960D02*
X17036730Y-14792484D01*
X17036730Y-14792484D02*
X17074825Y-14792484D01*
X17074825Y-14792484D02*
X17093873Y-14782960D01*
X17093873Y-14782960D02*
X17103396Y-14763912D01*
X17103396Y-14763912D02*
X17103396Y-14754388D01*
X17103396Y-14754388D02*
X17093873Y-14735341D01*
X17093873Y-14735341D02*
X17074825Y-14725817D01*
X17074825Y-14725817D02*
X17046253Y-14725817D01*
X17046253Y-14725817D02*
X17027206Y-14716293D01*
X17027206Y-14716293D02*
X17017682Y-14697246D01*
X17017682Y-14697246D02*
X17017682Y-14687722D01*
X17017682Y-14687722D02*
X17027206Y-14668674D01*
X17027206Y-14668674D02*
X17046253Y-14659150D01*
X17046253Y-14659150D02*
X17074825Y-14659150D01*
X17074825Y-14659150D02*
X17093873Y-14668674D01*
X17170063Y-14868674D02*
X17179587Y-14859150D01*
X17179587Y-14859150D02*
X17198634Y-14830579D01*
X17198634Y-14830579D02*
X17208158Y-14811531D01*
X17208158Y-14811531D02*
X17217682Y-14782960D01*
X17217682Y-14782960D02*
X17227206Y-14735341D01*
X17227206Y-14735341D02*
X17227206Y-14697246D01*
X17227206Y-14697246D02*
X17217682Y-14649627D01*
X17217682Y-14649627D02*
X17208158Y-14621055D01*
X17208158Y-14621055D02*
X17198634Y-14602008D01*
X17198634Y-14602008D02*
X17179587Y-14573436D01*
X17179587Y-14573436D02*
X17170063Y-14563912D01*
D10*
X12295000Y-14915000D02*
X12395000Y-15015000D01*
X12395000Y-14915000D02*
X12295000Y-15015000D01*
X12395000Y-14965000D02*
G75*
G03*
X12395000Y-14965000I-50000J0D01*
G01*
D11*
X12760539Y-15056484D02*
X12646253Y-15056484D01*
X12703396Y-15056484D02*
X12703396Y-14856484D01*
X12703396Y-14856484D02*
X12684348Y-14885055D01*
X12684348Y-14885055D02*
X12665301Y-14904103D01*
X12665301Y-14904103D02*
X12646253Y-14913627D01*
X12846253Y-15037436D02*
X12855777Y-15046960D01*
X12855777Y-15046960D02*
X12846253Y-15056484D01*
X12846253Y-15056484D02*
X12836729Y-15046960D01*
X12836729Y-15046960D02*
X12846253Y-15037436D01*
X12846253Y-15037436D02*
X12846253Y-15056484D01*
X12979586Y-14856484D02*
X12998634Y-14856484D01*
X12998634Y-14856484D02*
X13017682Y-14866008D01*
X13017682Y-14866008D02*
X13027205Y-14875531D01*
X13027205Y-14875531D02*
X13036729Y-14894579D01*
X13036729Y-14894579D02*
X13046253Y-14932674D01*
X13046253Y-14932674D02*
X13046253Y-14980293D01*
X13046253Y-14980293D02*
X13036729Y-15018388D01*
X13036729Y-15018388D02*
X13027205Y-15037436D01*
X13027205Y-15037436D02*
X13017682Y-15046960D01*
X13017682Y-15046960D02*
X12998634Y-15056484D01*
X12998634Y-15056484D02*
X12979586Y-15056484D01*
X12979586Y-15056484D02*
X12960539Y-15046960D01*
X12960539Y-15046960D02*
X12951015Y-15037436D01*
X12951015Y-15037436D02*
X12941491Y-15018388D01*
X12941491Y-15018388D02*
X12931967Y-14980293D01*
X12931967Y-14980293D02*
X12931967Y-14932674D01*
X12931967Y-14932674D02*
X12941491Y-14894579D01*
X12941491Y-14894579D02*
X12951015Y-14875531D01*
X12951015Y-14875531D02*
X12960539Y-14866008D01*
X12960539Y-14866008D02*
X12979586Y-14856484D01*
X13170062Y-14856484D02*
X13189110Y-14856484D01*
X13189110Y-14856484D02*
X13208158Y-14866008D01*
X13208158Y-14866008D02*
X13217682Y-14875531D01*
X13217682Y-14875531D02*
X13227205Y-14894579D01*
X13227205Y-14894579D02*
X13236729Y-14932674D01*
X13236729Y-14932674D02*
X13236729Y-14980293D01*
X13236729Y-14980293D02*
X13227205Y-15018388D01*
X13227205Y-15018388D02*
X13217682Y-15037436D01*
X13217682Y-15037436D02*
X13208158Y-15046960D01*
X13208158Y-15046960D02*
X13189110Y-15056484D01*
X13189110Y-15056484D02*
X13170062Y-15056484D01*
X13170062Y-15056484D02*
X13151015Y-15046960D01*
X13151015Y-15046960D02*
X13141491Y-15037436D01*
X13141491Y-15037436D02*
X13131967Y-15018388D01*
X13131967Y-15018388D02*
X13122443Y-14980293D01*
X13122443Y-14980293D02*
X13122443Y-14932674D01*
X13122443Y-14932674D02*
X13131967Y-14894579D01*
X13131967Y-14894579D02*
X13141491Y-14875531D01*
X13141491Y-14875531D02*
X13151015Y-14866008D01*
X13151015Y-14866008D02*
X13170062Y-14856484D01*
X13360539Y-14856484D02*
X13379586Y-14856484D01*
X13379586Y-14856484D02*
X13398634Y-14866008D01*
X13398634Y-14866008D02*
X13408158Y-14875531D01*
X13408158Y-14875531D02*
X13417682Y-14894579D01*
X13417682Y-14894579D02*
X13427205Y-14932674D01*
X13427205Y-14932674D02*
X13427205Y-14980293D01*
X13427205Y-14980293D02*
X13417682Y-15018388D01*
X13417682Y-15018388D02*
X13408158Y-15037436D01*
X13408158Y-15037436D02*
X13398634Y-15046960D01*
X13398634Y-15046960D02*
X13379586Y-15056484D01*
X13379586Y-15056484D02*
X13360539Y-15056484D01*
X13360539Y-15056484D02*
X13341491Y-15046960D01*
X13341491Y-15046960D02*
X13331967Y-15037436D01*
X13331967Y-15037436D02*
X13322443Y-15018388D01*
X13322443Y-15018388D02*
X13312920Y-14980293D01*
X13312920Y-14980293D02*
X13312920Y-14932674D01*
X13312920Y-14932674D02*
X13322443Y-14894579D01*
X13322443Y-14894579D02*
X13331967Y-14875531D01*
X13331967Y-14875531D02*
X13341491Y-14866008D01*
X13341491Y-14866008D02*
X13360539Y-14856484D01*
X13512920Y-15056484D02*
X13512920Y-14923150D01*
X13512920Y-14942198D02*
X13522443Y-14932674D01*
X13522443Y-14932674D02*
X13541491Y-14923150D01*
X13541491Y-14923150D02*
X13570063Y-14923150D01*
X13570063Y-14923150D02*
X13589110Y-14932674D01*
X13589110Y-14932674D02*
X13598634Y-14951722D01*
X13598634Y-14951722D02*
X13598634Y-15056484D01*
X13598634Y-14951722D02*
X13608158Y-14932674D01*
X13608158Y-14932674D02*
X13627205Y-14923150D01*
X13627205Y-14923150D02*
X13655777Y-14923150D01*
X13655777Y-14923150D02*
X13674824Y-14932674D01*
X13674824Y-14932674D02*
X13684348Y-14951722D01*
X13684348Y-14951722D02*
X13684348Y-15056484D01*
X13779586Y-15056484D02*
X13779586Y-14923150D01*
X13779586Y-14942198D02*
X13789110Y-14932674D01*
X13789110Y-14932674D02*
X13808158Y-14923150D01*
X13808158Y-14923150D02*
X13836729Y-14923150D01*
X13836729Y-14923150D02*
X13855777Y-14932674D01*
X13855777Y-14932674D02*
X13865301Y-14951722D01*
X13865301Y-14951722D02*
X13865301Y-15056484D01*
X13865301Y-14951722D02*
X13874824Y-14932674D01*
X13874824Y-14932674D02*
X13893872Y-14923150D01*
X13893872Y-14923150D02*
X13922443Y-14923150D01*
X13922443Y-14923150D02*
X13941491Y-14932674D01*
X13941491Y-14932674D02*
X13951015Y-14951722D01*
X13951015Y-14951722D02*
X13951015Y-15056484D01*
X14341491Y-14846960D02*
X14170063Y-15104103D01*
X14598634Y-14856484D02*
X14617682Y-14856484D01*
X14617682Y-14856484D02*
X14636729Y-14866008D01*
X14636729Y-14866008D02*
X14646253Y-14875531D01*
X14646253Y-14875531D02*
X14655777Y-14894579D01*
X14655777Y-14894579D02*
X14665301Y-14932674D01*
X14665301Y-14932674D02*
X14665301Y-14980293D01*
X14665301Y-14980293D02*
X14655777Y-15018388D01*
X14655777Y-15018388D02*
X14646253Y-15037436D01*
X14646253Y-15037436D02*
X14636729Y-15046960D01*
X14636729Y-15046960D02*
X14617682Y-15056484D01*
X14617682Y-15056484D02*
X14598634Y-15056484D01*
X14598634Y-15056484D02*
X14579586Y-15046960D01*
X14579586Y-15046960D02*
X14570063Y-15037436D01*
X14570063Y-15037436D02*
X14560539Y-15018388D01*
X14560539Y-15018388D02*
X14551015Y-14980293D01*
X14551015Y-14980293D02*
X14551015Y-14932674D01*
X14551015Y-14932674D02*
X14560539Y-14894579D01*
X14560539Y-14894579D02*
X14570063Y-14875531D01*
X14570063Y-14875531D02*
X14579586Y-14866008D01*
X14579586Y-14866008D02*
X14598634Y-14856484D01*
X14751015Y-15037436D02*
X14760539Y-15046960D01*
X14760539Y-15046960D02*
X14751015Y-15056484D01*
X14751015Y-15056484D02*
X14741491Y-15046960D01*
X14741491Y-15046960D02*
X14751015Y-15037436D01*
X14751015Y-15037436D02*
X14751015Y-15056484D01*
X14884348Y-14856484D02*
X14903396Y-14856484D01*
X14903396Y-14856484D02*
X14922444Y-14866008D01*
X14922444Y-14866008D02*
X14931967Y-14875531D01*
X14931967Y-14875531D02*
X14941491Y-14894579D01*
X14941491Y-14894579D02*
X14951015Y-14932674D01*
X14951015Y-14932674D02*
X14951015Y-14980293D01*
X14951015Y-14980293D02*
X14941491Y-15018388D01*
X14941491Y-15018388D02*
X14931967Y-15037436D01*
X14931967Y-15037436D02*
X14922444Y-15046960D01*
X14922444Y-15046960D02*
X14903396Y-15056484D01*
X14903396Y-15056484D02*
X14884348Y-15056484D01*
X14884348Y-15056484D02*
X14865301Y-15046960D01*
X14865301Y-15046960D02*
X14855777Y-15037436D01*
X14855777Y-15037436D02*
X14846253Y-15018388D01*
X14846253Y-15018388D02*
X14836729Y-14980293D01*
X14836729Y-14980293D02*
X14836729Y-14932674D01*
X14836729Y-14932674D02*
X14846253Y-14894579D01*
X14846253Y-14894579D02*
X14855777Y-14875531D01*
X14855777Y-14875531D02*
X14865301Y-14866008D01*
X14865301Y-14866008D02*
X14884348Y-14856484D01*
X15017682Y-14856484D02*
X15141491Y-14856484D01*
X15141491Y-14856484D02*
X15074825Y-14932674D01*
X15074825Y-14932674D02*
X15103396Y-14932674D01*
X15103396Y-14932674D02*
X15122444Y-14942198D01*
X15122444Y-14942198D02*
X15131967Y-14951722D01*
X15131967Y-14951722D02*
X15141491Y-14970769D01*
X15141491Y-14970769D02*
X15141491Y-15018388D01*
X15141491Y-15018388D02*
X15131967Y-15037436D01*
X15131967Y-15037436D02*
X15122444Y-15046960D01*
X15122444Y-15046960D02*
X15103396Y-15056484D01*
X15103396Y-15056484D02*
X15046253Y-15056484D01*
X15046253Y-15056484D02*
X15027206Y-15046960D01*
X15027206Y-15046960D02*
X15017682Y-15037436D01*
X15236729Y-15056484D02*
X15274825Y-15056484D01*
X15274825Y-15056484D02*
X15293872Y-15046960D01*
X15293872Y-15046960D02*
X15303396Y-15037436D01*
X15303396Y-15037436D02*
X15322444Y-15008865D01*
X15322444Y-15008865D02*
X15331967Y-14970769D01*
X15331967Y-14970769D02*
X15331967Y-14894579D01*
X15331967Y-14894579D02*
X15322444Y-14875531D01*
X15322444Y-14875531D02*
X15312920Y-14866008D01*
X15312920Y-14866008D02*
X15293872Y-14856484D01*
X15293872Y-14856484D02*
X15255777Y-14856484D01*
X15255777Y-14856484D02*
X15236729Y-14866008D01*
X15236729Y-14866008D02*
X15227206Y-14875531D01*
X15227206Y-14875531D02*
X15217682Y-14894579D01*
X15217682Y-14894579D02*
X15217682Y-14942198D01*
X15217682Y-14942198D02*
X15227206Y-14961246D01*
X15227206Y-14961246D02*
X15236729Y-14970769D01*
X15236729Y-14970769D02*
X15255777Y-14980293D01*
X15255777Y-14980293D02*
X15293872Y-14980293D01*
X15293872Y-14980293D02*
X15312920Y-14970769D01*
X15312920Y-14970769D02*
X15322444Y-14961246D01*
X15322444Y-14961246D02*
X15331967Y-14942198D01*
X15503396Y-14923150D02*
X15503396Y-15056484D01*
X15455777Y-14846960D02*
X15408158Y-14989817D01*
X15408158Y-14989817D02*
X15531967Y-14989817D01*
X15598634Y-14856484D02*
X15598634Y-14894579D01*
X15674825Y-14856484D02*
X15674825Y-14894579D01*
X15970063Y-15132674D02*
X15960539Y-15123150D01*
X15960539Y-15123150D02*
X15941491Y-15094579D01*
X15941491Y-15094579D02*
X15931968Y-15075531D01*
X15931968Y-15075531D02*
X15922444Y-15046960D01*
X15922444Y-15046960D02*
X15912920Y-14999341D01*
X15912920Y-14999341D02*
X15912920Y-14961246D01*
X15912920Y-14961246D02*
X15922444Y-14913627D01*
X15922444Y-14913627D02*
X15931968Y-14885055D01*
X15931968Y-14885055D02*
X15941491Y-14866008D01*
X15941491Y-14866008D02*
X15960539Y-14837436D01*
X15960539Y-14837436D02*
X15970063Y-14827912D01*
X16151015Y-15056484D02*
X16036729Y-15056484D01*
X16093872Y-15056484D02*
X16093872Y-14856484D01*
X16093872Y-14856484D02*
X16074825Y-14885055D01*
X16074825Y-14885055D02*
X16055777Y-14904103D01*
X16055777Y-14904103D02*
X16036729Y-14913627D01*
X16331968Y-14856484D02*
X16236729Y-14856484D01*
X16236729Y-14856484D02*
X16227206Y-14951722D01*
X16227206Y-14951722D02*
X16236729Y-14942198D01*
X16236729Y-14942198D02*
X16255777Y-14932674D01*
X16255777Y-14932674D02*
X16303396Y-14932674D01*
X16303396Y-14932674D02*
X16322444Y-14942198D01*
X16322444Y-14942198D02*
X16331968Y-14951722D01*
X16331968Y-14951722D02*
X16341491Y-14970769D01*
X16341491Y-14970769D02*
X16341491Y-15018388D01*
X16341491Y-15018388D02*
X16331968Y-15037436D01*
X16331968Y-15037436D02*
X16322444Y-15046960D01*
X16322444Y-15046960D02*
X16303396Y-15056484D01*
X16303396Y-15056484D02*
X16255777Y-15056484D01*
X16255777Y-15056484D02*
X16236729Y-15046960D01*
X16236729Y-15046960D02*
X16227206Y-15037436D01*
X16579587Y-15056484D02*
X16579587Y-14856484D01*
X16665301Y-15056484D02*
X16665301Y-14951722D01*
X16665301Y-14951722D02*
X16655777Y-14932674D01*
X16655777Y-14932674D02*
X16636730Y-14923150D01*
X16636730Y-14923150D02*
X16608158Y-14923150D01*
X16608158Y-14923150D02*
X16589110Y-14932674D01*
X16589110Y-14932674D02*
X16579587Y-14942198D01*
X16789111Y-15056484D02*
X16770063Y-15046960D01*
X16770063Y-15046960D02*
X16760539Y-15037436D01*
X16760539Y-15037436D02*
X16751015Y-15018388D01*
X16751015Y-15018388D02*
X16751015Y-14961246D01*
X16751015Y-14961246D02*
X16760539Y-14942198D01*
X16760539Y-14942198D02*
X16770063Y-14932674D01*
X16770063Y-14932674D02*
X16789111Y-14923150D01*
X16789111Y-14923150D02*
X16817682Y-14923150D01*
X16817682Y-14923150D02*
X16836730Y-14932674D01*
X16836730Y-14932674D02*
X16846253Y-14942198D01*
X16846253Y-14942198D02*
X16855777Y-14961246D01*
X16855777Y-14961246D02*
X16855777Y-15018388D01*
X16855777Y-15018388D02*
X16846253Y-15037436D01*
X16846253Y-15037436D02*
X16836730Y-15046960D01*
X16836730Y-15046960D02*
X16817682Y-15056484D01*
X16817682Y-15056484D02*
X16789111Y-15056484D01*
X16970063Y-15056484D02*
X16951015Y-15046960D01*
X16951015Y-15046960D02*
X16941492Y-15027912D01*
X16941492Y-15027912D02*
X16941492Y-14856484D01*
X17122444Y-15046960D02*
X17103396Y-15056484D01*
X17103396Y-15056484D02*
X17065301Y-15056484D01*
X17065301Y-15056484D02*
X17046253Y-15046960D01*
X17046253Y-15046960D02*
X17036730Y-15027912D01*
X17036730Y-15027912D02*
X17036730Y-14951722D01*
X17036730Y-14951722D02*
X17046253Y-14932674D01*
X17046253Y-14932674D02*
X17065301Y-14923150D01*
X17065301Y-14923150D02*
X17103396Y-14923150D01*
X17103396Y-14923150D02*
X17122444Y-14932674D01*
X17122444Y-14932674D02*
X17131968Y-14951722D01*
X17131968Y-14951722D02*
X17131968Y-14970769D01*
X17131968Y-14970769D02*
X17036730Y-14989817D01*
X17208158Y-15046960D02*
X17227206Y-15056484D01*
X17227206Y-15056484D02*
X17265301Y-15056484D01*
X17265301Y-15056484D02*
X17284349Y-15046960D01*
X17284349Y-15046960D02*
X17293873Y-15027912D01*
X17293873Y-15027912D02*
X17293873Y-15018388D01*
X17293873Y-15018388D02*
X17284349Y-14999341D01*
X17284349Y-14999341D02*
X17265301Y-14989817D01*
X17265301Y-14989817D02*
X17236730Y-14989817D01*
X17236730Y-14989817D02*
X17217682Y-14980293D01*
X17217682Y-14980293D02*
X17208158Y-14961246D01*
X17208158Y-14961246D02*
X17208158Y-14951722D01*
X17208158Y-14951722D02*
X17217682Y-14932674D01*
X17217682Y-14932674D02*
X17236730Y-14923150D01*
X17236730Y-14923150D02*
X17265301Y-14923150D01*
X17265301Y-14923150D02*
X17284349Y-14932674D01*
X17360539Y-15132674D02*
X17370063Y-15123150D01*
X17370063Y-15123150D02*
X17389111Y-15094579D01*
X17389111Y-15094579D02*
X17398634Y-15075531D01*
X17398634Y-15075531D02*
X17408158Y-15046960D01*
X17408158Y-15046960D02*
X17417682Y-14999341D01*
X17417682Y-14999341D02*
X17417682Y-14961246D01*
X17417682Y-14961246D02*
X17408158Y-14913627D01*
X17408158Y-14913627D02*
X17398634Y-14885055D01*
X17398634Y-14885055D02*
X17389111Y-14866008D01*
X17389111Y-14866008D02*
X17370063Y-14837436D01*
X17370063Y-14837436D02*
X17360539Y-14827912D01*
D17*
X12245000Y-15154000D02*
X12395000Y-15304000D01*
X12395000Y-15154000D02*
X12245000Y-15304000D01*
X12320000Y-15154000D02*
X12320000Y-15304000D01*
X12245000Y-15229000D02*
X12395000Y-15229000D01*
D11*
X12760539Y-15320484D02*
X12646253Y-15320484D01*
X12703396Y-15320484D02*
X12703396Y-15120484D01*
X12703396Y-15120484D02*
X12684348Y-15149055D01*
X12684348Y-15149055D02*
X12665301Y-15168103D01*
X12665301Y-15168103D02*
X12646253Y-15177627D01*
X12846253Y-15301436D02*
X12855777Y-15310960D01*
X12855777Y-15310960D02*
X12846253Y-15320484D01*
X12846253Y-15320484D02*
X12836729Y-15310960D01*
X12836729Y-15310960D02*
X12846253Y-15301436D01*
X12846253Y-15301436D02*
X12846253Y-15320484D01*
X13036729Y-15120484D02*
X12941491Y-15120484D01*
X12941491Y-15120484D02*
X12931967Y-15215722D01*
X12931967Y-15215722D02*
X12941491Y-15206198D01*
X12941491Y-15206198D02*
X12960539Y-15196674D01*
X12960539Y-15196674D02*
X13008158Y-15196674D01*
X13008158Y-15196674D02*
X13027205Y-15206198D01*
X13027205Y-15206198D02*
X13036729Y-15215722D01*
X13036729Y-15215722D02*
X13046253Y-15234769D01*
X13046253Y-15234769D02*
X13046253Y-15282388D01*
X13046253Y-15282388D02*
X13036729Y-15301436D01*
X13036729Y-15301436D02*
X13027205Y-15310960D01*
X13027205Y-15310960D02*
X13008158Y-15320484D01*
X13008158Y-15320484D02*
X12960539Y-15320484D01*
X12960539Y-15320484D02*
X12941491Y-15310960D01*
X12941491Y-15310960D02*
X12931967Y-15301436D01*
X13170062Y-15120484D02*
X13189110Y-15120484D01*
X13189110Y-15120484D02*
X13208158Y-15130008D01*
X13208158Y-15130008D02*
X13217682Y-15139531D01*
X13217682Y-15139531D02*
X13227205Y-15158579D01*
X13227205Y-15158579D02*
X13236729Y-15196674D01*
X13236729Y-15196674D02*
X13236729Y-15244293D01*
X13236729Y-15244293D02*
X13227205Y-15282388D01*
X13227205Y-15282388D02*
X13217682Y-15301436D01*
X13217682Y-15301436D02*
X13208158Y-15310960D01*
X13208158Y-15310960D02*
X13189110Y-15320484D01*
X13189110Y-15320484D02*
X13170062Y-15320484D01*
X13170062Y-15320484D02*
X13151015Y-15310960D01*
X13151015Y-15310960D02*
X13141491Y-15301436D01*
X13141491Y-15301436D02*
X13131967Y-15282388D01*
X13131967Y-15282388D02*
X13122443Y-15244293D01*
X13122443Y-15244293D02*
X13122443Y-15196674D01*
X13122443Y-15196674D02*
X13131967Y-15158579D01*
X13131967Y-15158579D02*
X13141491Y-15139531D01*
X13141491Y-15139531D02*
X13151015Y-15130008D01*
X13151015Y-15130008D02*
X13170062Y-15120484D01*
X13360539Y-15120484D02*
X13379586Y-15120484D01*
X13379586Y-15120484D02*
X13398634Y-15130008D01*
X13398634Y-15130008D02*
X13408158Y-15139531D01*
X13408158Y-15139531D02*
X13417682Y-15158579D01*
X13417682Y-15158579D02*
X13427205Y-15196674D01*
X13427205Y-15196674D02*
X13427205Y-15244293D01*
X13427205Y-15244293D02*
X13417682Y-15282388D01*
X13417682Y-15282388D02*
X13408158Y-15301436D01*
X13408158Y-15301436D02*
X13398634Y-15310960D01*
X13398634Y-15310960D02*
X13379586Y-15320484D01*
X13379586Y-15320484D02*
X13360539Y-15320484D01*
X13360539Y-15320484D02*
X13341491Y-15310960D01*
X13341491Y-15310960D02*
X13331967Y-15301436D01*
X13331967Y-15301436D02*
X13322443Y-15282388D01*
X13322443Y-15282388D02*
X13312920Y-15244293D01*
X13312920Y-15244293D02*
X13312920Y-15196674D01*
X13312920Y-15196674D02*
X13322443Y-15158579D01*
X13322443Y-15158579D02*
X13331967Y-15139531D01*
X13331967Y-15139531D02*
X13341491Y-15130008D01*
X13341491Y-15130008D02*
X13360539Y-15120484D01*
X13512920Y-15320484D02*
X13512920Y-15187150D01*
X13512920Y-15206198D02*
X13522443Y-15196674D01*
X13522443Y-15196674D02*
X13541491Y-15187150D01*
X13541491Y-15187150D02*
X13570063Y-15187150D01*
X13570063Y-15187150D02*
X13589110Y-15196674D01*
X13589110Y-15196674D02*
X13598634Y-15215722D01*
X13598634Y-15215722D02*
X13598634Y-15320484D01*
X13598634Y-15215722D02*
X13608158Y-15196674D01*
X13608158Y-15196674D02*
X13627205Y-15187150D01*
X13627205Y-15187150D02*
X13655777Y-15187150D01*
X13655777Y-15187150D02*
X13674824Y-15196674D01*
X13674824Y-15196674D02*
X13684348Y-15215722D01*
X13684348Y-15215722D02*
X13684348Y-15320484D01*
X13779586Y-15320484D02*
X13779586Y-15187150D01*
X13779586Y-15206198D02*
X13789110Y-15196674D01*
X13789110Y-15196674D02*
X13808158Y-15187150D01*
X13808158Y-15187150D02*
X13836729Y-15187150D01*
X13836729Y-15187150D02*
X13855777Y-15196674D01*
X13855777Y-15196674D02*
X13865301Y-15215722D01*
X13865301Y-15215722D02*
X13865301Y-15320484D01*
X13865301Y-15215722D02*
X13874824Y-15196674D01*
X13874824Y-15196674D02*
X13893872Y-15187150D01*
X13893872Y-15187150D02*
X13922443Y-15187150D01*
X13922443Y-15187150D02*
X13941491Y-15196674D01*
X13941491Y-15196674D02*
X13951015Y-15215722D01*
X13951015Y-15215722D02*
X13951015Y-15320484D01*
X14341491Y-15110960D02*
X14170063Y-15368103D01*
X14598634Y-15120484D02*
X14617682Y-15120484D01*
X14617682Y-15120484D02*
X14636729Y-15130008D01*
X14636729Y-15130008D02*
X14646253Y-15139531D01*
X14646253Y-15139531D02*
X14655777Y-15158579D01*
X14655777Y-15158579D02*
X14665301Y-15196674D01*
X14665301Y-15196674D02*
X14665301Y-15244293D01*
X14665301Y-15244293D02*
X14655777Y-15282388D01*
X14655777Y-15282388D02*
X14646253Y-15301436D01*
X14646253Y-15301436D02*
X14636729Y-15310960D01*
X14636729Y-15310960D02*
X14617682Y-15320484D01*
X14617682Y-15320484D02*
X14598634Y-15320484D01*
X14598634Y-15320484D02*
X14579586Y-15310960D01*
X14579586Y-15310960D02*
X14570063Y-15301436D01*
X14570063Y-15301436D02*
X14560539Y-15282388D01*
X14560539Y-15282388D02*
X14551015Y-15244293D01*
X14551015Y-15244293D02*
X14551015Y-15196674D01*
X14551015Y-15196674D02*
X14560539Y-15158579D01*
X14560539Y-15158579D02*
X14570063Y-15139531D01*
X14570063Y-15139531D02*
X14579586Y-15130008D01*
X14579586Y-15130008D02*
X14598634Y-15120484D01*
X14751015Y-15301436D02*
X14760539Y-15310960D01*
X14760539Y-15310960D02*
X14751015Y-15320484D01*
X14751015Y-15320484D02*
X14741491Y-15310960D01*
X14741491Y-15310960D02*
X14751015Y-15301436D01*
X14751015Y-15301436D02*
X14751015Y-15320484D01*
X14884348Y-15120484D02*
X14903396Y-15120484D01*
X14903396Y-15120484D02*
X14922444Y-15130008D01*
X14922444Y-15130008D02*
X14931967Y-15139531D01*
X14931967Y-15139531D02*
X14941491Y-15158579D01*
X14941491Y-15158579D02*
X14951015Y-15196674D01*
X14951015Y-15196674D02*
X14951015Y-15244293D01*
X14951015Y-15244293D02*
X14941491Y-15282388D01*
X14941491Y-15282388D02*
X14931967Y-15301436D01*
X14931967Y-15301436D02*
X14922444Y-15310960D01*
X14922444Y-15310960D02*
X14903396Y-15320484D01*
X14903396Y-15320484D02*
X14884348Y-15320484D01*
X14884348Y-15320484D02*
X14865301Y-15310960D01*
X14865301Y-15310960D02*
X14855777Y-15301436D01*
X14855777Y-15301436D02*
X14846253Y-15282388D01*
X14846253Y-15282388D02*
X14836729Y-15244293D01*
X14836729Y-15244293D02*
X14836729Y-15196674D01*
X14836729Y-15196674D02*
X14846253Y-15158579D01*
X14846253Y-15158579D02*
X14855777Y-15139531D01*
X14855777Y-15139531D02*
X14865301Y-15130008D01*
X14865301Y-15130008D02*
X14884348Y-15120484D01*
X15131967Y-15120484D02*
X15036729Y-15120484D01*
X15036729Y-15120484D02*
X15027206Y-15215722D01*
X15027206Y-15215722D02*
X15036729Y-15206198D01*
X15036729Y-15206198D02*
X15055777Y-15196674D01*
X15055777Y-15196674D02*
X15103396Y-15196674D01*
X15103396Y-15196674D02*
X15122444Y-15206198D01*
X15122444Y-15206198D02*
X15131967Y-15215722D01*
X15131967Y-15215722D02*
X15141491Y-15234769D01*
X15141491Y-15234769D02*
X15141491Y-15282388D01*
X15141491Y-15282388D02*
X15131967Y-15301436D01*
X15131967Y-15301436D02*
X15122444Y-15310960D01*
X15122444Y-15310960D02*
X15103396Y-15320484D01*
X15103396Y-15320484D02*
X15055777Y-15320484D01*
X15055777Y-15320484D02*
X15036729Y-15310960D01*
X15036729Y-15310960D02*
X15027206Y-15301436D01*
X15236729Y-15320484D02*
X15274825Y-15320484D01*
X15274825Y-15320484D02*
X15293872Y-15310960D01*
X15293872Y-15310960D02*
X15303396Y-15301436D01*
X15303396Y-15301436D02*
X15322444Y-15272865D01*
X15322444Y-15272865D02*
X15331967Y-15234769D01*
X15331967Y-15234769D02*
X15331967Y-15158579D01*
X15331967Y-15158579D02*
X15322444Y-15139531D01*
X15322444Y-15139531D02*
X15312920Y-15130008D01*
X15312920Y-15130008D02*
X15293872Y-15120484D01*
X15293872Y-15120484D02*
X15255777Y-15120484D01*
X15255777Y-15120484D02*
X15236729Y-15130008D01*
X15236729Y-15130008D02*
X15227206Y-15139531D01*
X15227206Y-15139531D02*
X15217682Y-15158579D01*
X15217682Y-15158579D02*
X15217682Y-15206198D01*
X15217682Y-15206198D02*
X15227206Y-15225246D01*
X15227206Y-15225246D02*
X15236729Y-15234769D01*
X15236729Y-15234769D02*
X15255777Y-15244293D01*
X15255777Y-15244293D02*
X15293872Y-15244293D01*
X15293872Y-15244293D02*
X15312920Y-15234769D01*
X15312920Y-15234769D02*
X15322444Y-15225246D01*
X15322444Y-15225246D02*
X15331967Y-15206198D01*
X15522444Y-15320484D02*
X15408158Y-15320484D01*
X15465301Y-15320484D02*
X15465301Y-15120484D01*
X15465301Y-15120484D02*
X15446253Y-15149055D01*
X15446253Y-15149055D02*
X15427206Y-15168103D01*
X15427206Y-15168103D02*
X15408158Y-15177627D01*
X15598634Y-15120484D02*
X15598634Y-15158579D01*
X15674825Y-15120484D02*
X15674825Y-15158579D01*
X15970063Y-15396674D02*
X15960539Y-15387150D01*
X15960539Y-15387150D02*
X15941491Y-15358579D01*
X15941491Y-15358579D02*
X15931968Y-15339531D01*
X15931968Y-15339531D02*
X15922444Y-15310960D01*
X15922444Y-15310960D02*
X15912920Y-15263341D01*
X15912920Y-15263341D02*
X15912920Y-15225246D01*
X15912920Y-15225246D02*
X15922444Y-15177627D01*
X15922444Y-15177627D02*
X15931968Y-15149055D01*
X15931968Y-15149055D02*
X15941491Y-15130008D01*
X15941491Y-15130008D02*
X15960539Y-15101436D01*
X15960539Y-15101436D02*
X15970063Y-15091912D01*
X16131968Y-15187150D02*
X16131968Y-15320484D01*
X16084348Y-15110960D02*
X16036729Y-15253817D01*
X16036729Y-15253817D02*
X16160539Y-15253817D01*
X16389110Y-15320484D02*
X16389110Y-15120484D01*
X16474825Y-15320484D02*
X16474825Y-15215722D01*
X16474825Y-15215722D02*
X16465301Y-15196674D01*
X16465301Y-15196674D02*
X16446253Y-15187150D01*
X16446253Y-15187150D02*
X16417682Y-15187150D01*
X16417682Y-15187150D02*
X16398634Y-15196674D01*
X16398634Y-15196674D02*
X16389110Y-15206198D01*
X16598634Y-15320484D02*
X16579587Y-15310960D01*
X16579587Y-15310960D02*
X16570063Y-15301436D01*
X16570063Y-15301436D02*
X16560539Y-15282388D01*
X16560539Y-15282388D02*
X16560539Y-15225246D01*
X16560539Y-15225246D02*
X16570063Y-15206198D01*
X16570063Y-15206198D02*
X16579587Y-15196674D01*
X16579587Y-15196674D02*
X16598634Y-15187150D01*
X16598634Y-15187150D02*
X16627206Y-15187150D01*
X16627206Y-15187150D02*
X16646253Y-15196674D01*
X16646253Y-15196674D02*
X16655777Y-15206198D01*
X16655777Y-15206198D02*
X16665301Y-15225246D01*
X16665301Y-15225246D02*
X16665301Y-15282388D01*
X16665301Y-15282388D02*
X16655777Y-15301436D01*
X16655777Y-15301436D02*
X16646253Y-15310960D01*
X16646253Y-15310960D02*
X16627206Y-15320484D01*
X16627206Y-15320484D02*
X16598634Y-15320484D01*
X16779587Y-15320484D02*
X16760539Y-15310960D01*
X16760539Y-15310960D02*
X16751015Y-15291912D01*
X16751015Y-15291912D02*
X16751015Y-15120484D01*
X16931968Y-15310960D02*
X16912920Y-15320484D01*
X16912920Y-15320484D02*
X16874825Y-15320484D01*
X16874825Y-15320484D02*
X16855777Y-15310960D01*
X16855777Y-15310960D02*
X16846253Y-15291912D01*
X16846253Y-15291912D02*
X16846253Y-15215722D01*
X16846253Y-15215722D02*
X16855777Y-15196674D01*
X16855777Y-15196674D02*
X16874825Y-15187150D01*
X16874825Y-15187150D02*
X16912920Y-15187150D01*
X16912920Y-15187150D02*
X16931968Y-15196674D01*
X16931968Y-15196674D02*
X16941492Y-15215722D01*
X16941492Y-15215722D02*
X16941492Y-15234769D01*
X16941492Y-15234769D02*
X16846253Y-15253817D01*
X17017682Y-15310960D02*
X17036730Y-15320484D01*
X17036730Y-15320484D02*
X17074825Y-15320484D01*
X17074825Y-15320484D02*
X17093873Y-15310960D01*
X17093873Y-15310960D02*
X17103396Y-15291912D01*
X17103396Y-15291912D02*
X17103396Y-15282388D01*
X17103396Y-15282388D02*
X17093873Y-15263341D01*
X17093873Y-15263341D02*
X17074825Y-15253817D01*
X17074825Y-15253817D02*
X17046253Y-15253817D01*
X17046253Y-15253817D02*
X17027206Y-15244293D01*
X17027206Y-15244293D02*
X17017682Y-15225246D01*
X17017682Y-15225246D02*
X17017682Y-15215722D01*
X17017682Y-15215722D02*
X17027206Y-15196674D01*
X17027206Y-15196674D02*
X17046253Y-15187150D01*
X17046253Y-15187150D02*
X17074825Y-15187150D01*
X17074825Y-15187150D02*
X17093873Y-15196674D01*
X17170063Y-15396674D02*
X17179587Y-15387150D01*
X17179587Y-15387150D02*
X17198634Y-15358579D01*
X17198634Y-15358579D02*
X17208158Y-15339531D01*
X17208158Y-15339531D02*
X17217682Y-15310960D01*
X17217682Y-15310960D02*
X17227206Y-15263341D01*
X17227206Y-15263341D02*
X17227206Y-15225246D01*
X17227206Y-15225246D02*
X17217682Y-15177627D01*
X17217682Y-15177627D02*
X17208158Y-15149055D01*
X17208158Y-15149055D02*
X17198634Y-15130008D01*
X17198634Y-15130008D02*
X17179587Y-15101436D01*
X17179587Y-15101436D02*
X17170063Y-15091912D01*
D18*
X12225000Y-15414000D02*
X12395000Y-15584000D01*
X12395000Y-15414000D02*
X12225000Y-15584000D01*
X12370105Y-15559105D02*
X12370105Y-15438895D01*
X12249895Y-15438895D01*
X12249895Y-15559105D01*
X12370105Y-15559105D01*
D11*
X12760539Y-15590484D02*
X12646253Y-15590484D01*
X12703396Y-15590484D02*
X12703396Y-15390484D01*
X12703396Y-15390484D02*
X12684348Y-15419055D01*
X12684348Y-15419055D02*
X12665301Y-15438103D01*
X12665301Y-15438103D02*
X12646253Y-15447627D01*
X12846253Y-15571436D02*
X12855777Y-15580960D01*
X12855777Y-15580960D02*
X12846253Y-15590484D01*
X12846253Y-15590484D02*
X12836729Y-15580960D01*
X12836729Y-15580960D02*
X12846253Y-15571436D01*
X12846253Y-15571436D02*
X12846253Y-15590484D01*
X12922443Y-15390484D02*
X13055777Y-15390484D01*
X13055777Y-15390484D02*
X12970062Y-15590484D01*
X13170062Y-15390484D02*
X13189110Y-15390484D01*
X13189110Y-15390484D02*
X13208158Y-15400008D01*
X13208158Y-15400008D02*
X13217682Y-15409531D01*
X13217682Y-15409531D02*
X13227205Y-15428579D01*
X13227205Y-15428579D02*
X13236729Y-15466674D01*
X13236729Y-15466674D02*
X13236729Y-15514293D01*
X13236729Y-15514293D02*
X13227205Y-15552388D01*
X13227205Y-15552388D02*
X13217682Y-15571436D01*
X13217682Y-15571436D02*
X13208158Y-15580960D01*
X13208158Y-15580960D02*
X13189110Y-15590484D01*
X13189110Y-15590484D02*
X13170062Y-15590484D01*
X13170062Y-15590484D02*
X13151015Y-15580960D01*
X13151015Y-15580960D02*
X13141491Y-15571436D01*
X13141491Y-15571436D02*
X13131967Y-15552388D01*
X13131967Y-15552388D02*
X13122443Y-15514293D01*
X13122443Y-15514293D02*
X13122443Y-15466674D01*
X13122443Y-15466674D02*
X13131967Y-15428579D01*
X13131967Y-15428579D02*
X13141491Y-15409531D01*
X13141491Y-15409531D02*
X13151015Y-15400008D01*
X13151015Y-15400008D02*
X13170062Y-15390484D01*
X13360539Y-15390484D02*
X13379586Y-15390484D01*
X13379586Y-15390484D02*
X13398634Y-15400008D01*
X13398634Y-15400008D02*
X13408158Y-15409531D01*
X13408158Y-15409531D02*
X13417682Y-15428579D01*
X13417682Y-15428579D02*
X13427205Y-15466674D01*
X13427205Y-15466674D02*
X13427205Y-15514293D01*
X13427205Y-15514293D02*
X13417682Y-15552388D01*
X13417682Y-15552388D02*
X13408158Y-15571436D01*
X13408158Y-15571436D02*
X13398634Y-15580960D01*
X13398634Y-15580960D02*
X13379586Y-15590484D01*
X13379586Y-15590484D02*
X13360539Y-15590484D01*
X13360539Y-15590484D02*
X13341491Y-15580960D01*
X13341491Y-15580960D02*
X13331967Y-15571436D01*
X13331967Y-15571436D02*
X13322443Y-15552388D01*
X13322443Y-15552388D02*
X13312920Y-15514293D01*
X13312920Y-15514293D02*
X13312920Y-15466674D01*
X13312920Y-15466674D02*
X13322443Y-15428579D01*
X13322443Y-15428579D02*
X13331967Y-15409531D01*
X13331967Y-15409531D02*
X13341491Y-15400008D01*
X13341491Y-15400008D02*
X13360539Y-15390484D01*
X13512920Y-15590484D02*
X13512920Y-15457150D01*
X13512920Y-15476198D02*
X13522443Y-15466674D01*
X13522443Y-15466674D02*
X13541491Y-15457150D01*
X13541491Y-15457150D02*
X13570063Y-15457150D01*
X13570063Y-15457150D02*
X13589110Y-15466674D01*
X13589110Y-15466674D02*
X13598634Y-15485722D01*
X13598634Y-15485722D02*
X13598634Y-15590484D01*
X13598634Y-15485722D02*
X13608158Y-15466674D01*
X13608158Y-15466674D02*
X13627205Y-15457150D01*
X13627205Y-15457150D02*
X13655777Y-15457150D01*
X13655777Y-15457150D02*
X13674824Y-15466674D01*
X13674824Y-15466674D02*
X13684348Y-15485722D01*
X13684348Y-15485722D02*
X13684348Y-15590484D01*
X13779586Y-15590484D02*
X13779586Y-15457150D01*
X13779586Y-15476198D02*
X13789110Y-15466674D01*
X13789110Y-15466674D02*
X13808158Y-15457150D01*
X13808158Y-15457150D02*
X13836729Y-15457150D01*
X13836729Y-15457150D02*
X13855777Y-15466674D01*
X13855777Y-15466674D02*
X13865301Y-15485722D01*
X13865301Y-15485722D02*
X13865301Y-15590484D01*
X13865301Y-15485722D02*
X13874824Y-15466674D01*
X13874824Y-15466674D02*
X13893872Y-15457150D01*
X13893872Y-15457150D02*
X13922443Y-15457150D01*
X13922443Y-15457150D02*
X13941491Y-15466674D01*
X13941491Y-15466674D02*
X13951015Y-15485722D01*
X13951015Y-15485722D02*
X13951015Y-15590484D01*
X14341491Y-15380960D02*
X14170063Y-15638103D01*
X14598634Y-15390484D02*
X14617682Y-15390484D01*
X14617682Y-15390484D02*
X14636729Y-15400008D01*
X14636729Y-15400008D02*
X14646253Y-15409531D01*
X14646253Y-15409531D02*
X14655777Y-15428579D01*
X14655777Y-15428579D02*
X14665301Y-15466674D01*
X14665301Y-15466674D02*
X14665301Y-15514293D01*
X14665301Y-15514293D02*
X14655777Y-15552388D01*
X14655777Y-15552388D02*
X14646253Y-15571436D01*
X14646253Y-15571436D02*
X14636729Y-15580960D01*
X14636729Y-15580960D02*
X14617682Y-15590484D01*
X14617682Y-15590484D02*
X14598634Y-15590484D01*
X14598634Y-15590484D02*
X14579586Y-15580960D01*
X14579586Y-15580960D02*
X14570063Y-15571436D01*
X14570063Y-15571436D02*
X14560539Y-15552388D01*
X14560539Y-15552388D02*
X14551015Y-15514293D01*
X14551015Y-15514293D02*
X14551015Y-15466674D01*
X14551015Y-15466674D02*
X14560539Y-15428579D01*
X14560539Y-15428579D02*
X14570063Y-15409531D01*
X14570063Y-15409531D02*
X14579586Y-15400008D01*
X14579586Y-15400008D02*
X14598634Y-15390484D01*
X14751015Y-15571436D02*
X14760539Y-15580960D01*
X14760539Y-15580960D02*
X14751015Y-15590484D01*
X14751015Y-15590484D02*
X14741491Y-15580960D01*
X14741491Y-15580960D02*
X14751015Y-15571436D01*
X14751015Y-15571436D02*
X14751015Y-15590484D01*
X14884348Y-15390484D02*
X14903396Y-15390484D01*
X14903396Y-15390484D02*
X14922444Y-15400008D01*
X14922444Y-15400008D02*
X14931967Y-15409531D01*
X14931967Y-15409531D02*
X14941491Y-15428579D01*
X14941491Y-15428579D02*
X14951015Y-15466674D01*
X14951015Y-15466674D02*
X14951015Y-15514293D01*
X14951015Y-15514293D02*
X14941491Y-15552388D01*
X14941491Y-15552388D02*
X14931967Y-15571436D01*
X14931967Y-15571436D02*
X14922444Y-15580960D01*
X14922444Y-15580960D02*
X14903396Y-15590484D01*
X14903396Y-15590484D02*
X14884348Y-15590484D01*
X14884348Y-15590484D02*
X14865301Y-15580960D01*
X14865301Y-15580960D02*
X14855777Y-15571436D01*
X14855777Y-15571436D02*
X14846253Y-15552388D01*
X14846253Y-15552388D02*
X14836729Y-15514293D01*
X14836729Y-15514293D02*
X14836729Y-15466674D01*
X14836729Y-15466674D02*
X14846253Y-15428579D01*
X14846253Y-15428579D02*
X14855777Y-15409531D01*
X14855777Y-15409531D02*
X14865301Y-15400008D01*
X14865301Y-15400008D02*
X14884348Y-15390484D01*
X15122444Y-15390484D02*
X15084348Y-15390484D01*
X15084348Y-15390484D02*
X15065301Y-15400008D01*
X15065301Y-15400008D02*
X15055777Y-15409531D01*
X15055777Y-15409531D02*
X15036729Y-15438103D01*
X15036729Y-15438103D02*
X15027206Y-15476198D01*
X15027206Y-15476198D02*
X15027206Y-15552388D01*
X15027206Y-15552388D02*
X15036729Y-15571436D01*
X15036729Y-15571436D02*
X15046253Y-15580960D01*
X15046253Y-15580960D02*
X15065301Y-15590484D01*
X15065301Y-15590484D02*
X15103396Y-15590484D01*
X15103396Y-15590484D02*
X15122444Y-15580960D01*
X15122444Y-15580960D02*
X15131967Y-15571436D01*
X15131967Y-15571436D02*
X15141491Y-15552388D01*
X15141491Y-15552388D02*
X15141491Y-15504769D01*
X15141491Y-15504769D02*
X15131967Y-15485722D01*
X15131967Y-15485722D02*
X15122444Y-15476198D01*
X15122444Y-15476198D02*
X15103396Y-15466674D01*
X15103396Y-15466674D02*
X15065301Y-15466674D01*
X15065301Y-15466674D02*
X15046253Y-15476198D01*
X15046253Y-15476198D02*
X15036729Y-15485722D01*
X15036729Y-15485722D02*
X15027206Y-15504769D01*
X15312920Y-15390484D02*
X15274825Y-15390484D01*
X15274825Y-15390484D02*
X15255777Y-15400008D01*
X15255777Y-15400008D02*
X15246253Y-15409531D01*
X15246253Y-15409531D02*
X15227206Y-15438103D01*
X15227206Y-15438103D02*
X15217682Y-15476198D01*
X15217682Y-15476198D02*
X15217682Y-15552388D01*
X15217682Y-15552388D02*
X15227206Y-15571436D01*
X15227206Y-15571436D02*
X15236729Y-15580960D01*
X15236729Y-15580960D02*
X15255777Y-15590484D01*
X15255777Y-15590484D02*
X15293872Y-15590484D01*
X15293872Y-15590484D02*
X15312920Y-15580960D01*
X15312920Y-15580960D02*
X15322444Y-15571436D01*
X15322444Y-15571436D02*
X15331967Y-15552388D01*
X15331967Y-15552388D02*
X15331967Y-15504769D01*
X15331967Y-15504769D02*
X15322444Y-15485722D01*
X15322444Y-15485722D02*
X15312920Y-15476198D01*
X15312920Y-15476198D02*
X15293872Y-15466674D01*
X15293872Y-15466674D02*
X15255777Y-15466674D01*
X15255777Y-15466674D02*
X15236729Y-15476198D01*
X15236729Y-15476198D02*
X15227206Y-15485722D01*
X15227206Y-15485722D02*
X15217682Y-15504769D01*
X15427206Y-15590484D02*
X15465301Y-15590484D01*
X15465301Y-15590484D02*
X15484348Y-15580960D01*
X15484348Y-15580960D02*
X15493872Y-15571436D01*
X15493872Y-15571436D02*
X15512920Y-15542865D01*
X15512920Y-15542865D02*
X15522444Y-15504769D01*
X15522444Y-15504769D02*
X15522444Y-15428579D01*
X15522444Y-15428579D02*
X15512920Y-15409531D01*
X15512920Y-15409531D02*
X15503396Y-15400008D01*
X15503396Y-15400008D02*
X15484348Y-15390484D01*
X15484348Y-15390484D02*
X15446253Y-15390484D01*
X15446253Y-15390484D02*
X15427206Y-15400008D01*
X15427206Y-15400008D02*
X15417682Y-15409531D01*
X15417682Y-15409531D02*
X15408158Y-15428579D01*
X15408158Y-15428579D02*
X15408158Y-15476198D01*
X15408158Y-15476198D02*
X15417682Y-15495246D01*
X15417682Y-15495246D02*
X15427206Y-15504769D01*
X15427206Y-15504769D02*
X15446253Y-15514293D01*
X15446253Y-15514293D02*
X15484348Y-15514293D01*
X15484348Y-15514293D02*
X15503396Y-15504769D01*
X15503396Y-15504769D02*
X15512920Y-15495246D01*
X15512920Y-15495246D02*
X15522444Y-15476198D01*
X15598634Y-15390484D02*
X15598634Y-15428579D01*
X15674825Y-15390484D02*
X15674825Y-15428579D01*
X15970063Y-15666674D02*
X15960539Y-15657150D01*
X15960539Y-15657150D02*
X15941491Y-15628579D01*
X15941491Y-15628579D02*
X15931968Y-15609531D01*
X15931968Y-15609531D02*
X15922444Y-15580960D01*
X15922444Y-15580960D02*
X15912920Y-15533341D01*
X15912920Y-15533341D02*
X15912920Y-15495246D01*
X15912920Y-15495246D02*
X15922444Y-15447627D01*
X15922444Y-15447627D02*
X15931968Y-15419055D01*
X15931968Y-15419055D02*
X15941491Y-15400008D01*
X15941491Y-15400008D02*
X15960539Y-15371436D01*
X15960539Y-15371436D02*
X15970063Y-15361912D01*
X16131968Y-15390484D02*
X16093872Y-15390484D01*
X16093872Y-15390484D02*
X16074825Y-15400008D01*
X16074825Y-15400008D02*
X16065301Y-15409531D01*
X16065301Y-15409531D02*
X16046253Y-15438103D01*
X16046253Y-15438103D02*
X16036729Y-15476198D01*
X16036729Y-15476198D02*
X16036729Y-15552388D01*
X16036729Y-15552388D02*
X16046253Y-15571436D01*
X16046253Y-15571436D02*
X16055777Y-15580960D01*
X16055777Y-15580960D02*
X16074825Y-15590484D01*
X16074825Y-15590484D02*
X16112920Y-15590484D01*
X16112920Y-15590484D02*
X16131968Y-15580960D01*
X16131968Y-15580960D02*
X16141491Y-15571436D01*
X16141491Y-15571436D02*
X16151015Y-15552388D01*
X16151015Y-15552388D02*
X16151015Y-15504769D01*
X16151015Y-15504769D02*
X16141491Y-15485722D01*
X16141491Y-15485722D02*
X16131968Y-15476198D01*
X16131968Y-15476198D02*
X16112920Y-15466674D01*
X16112920Y-15466674D02*
X16074825Y-15466674D01*
X16074825Y-15466674D02*
X16055777Y-15476198D01*
X16055777Y-15476198D02*
X16046253Y-15485722D01*
X16046253Y-15485722D02*
X16036729Y-15504769D01*
X16389110Y-15590484D02*
X16389110Y-15390484D01*
X16474825Y-15590484D02*
X16474825Y-15485722D01*
X16474825Y-15485722D02*
X16465301Y-15466674D01*
X16465301Y-15466674D02*
X16446253Y-15457150D01*
X16446253Y-15457150D02*
X16417682Y-15457150D01*
X16417682Y-15457150D02*
X16398634Y-15466674D01*
X16398634Y-15466674D02*
X16389110Y-15476198D01*
X16598634Y-15590484D02*
X16579587Y-15580960D01*
X16579587Y-15580960D02*
X16570063Y-15571436D01*
X16570063Y-15571436D02*
X16560539Y-15552388D01*
X16560539Y-15552388D02*
X16560539Y-15495246D01*
X16560539Y-15495246D02*
X16570063Y-15476198D01*
X16570063Y-15476198D02*
X16579587Y-15466674D01*
X16579587Y-15466674D02*
X16598634Y-15457150D01*
X16598634Y-15457150D02*
X16627206Y-15457150D01*
X16627206Y-15457150D02*
X16646253Y-15466674D01*
X16646253Y-15466674D02*
X16655777Y-15476198D01*
X16655777Y-15476198D02*
X16665301Y-15495246D01*
X16665301Y-15495246D02*
X16665301Y-15552388D01*
X16665301Y-15552388D02*
X16655777Y-15571436D01*
X16655777Y-15571436D02*
X16646253Y-15580960D01*
X16646253Y-15580960D02*
X16627206Y-15590484D01*
X16627206Y-15590484D02*
X16598634Y-15590484D01*
X16779587Y-15590484D02*
X16760539Y-15580960D01*
X16760539Y-15580960D02*
X16751015Y-15561912D01*
X16751015Y-15561912D02*
X16751015Y-15390484D01*
X16931968Y-15580960D02*
X16912920Y-15590484D01*
X16912920Y-15590484D02*
X16874825Y-15590484D01*
X16874825Y-15590484D02*
X16855777Y-15580960D01*
X16855777Y-15580960D02*
X16846253Y-15561912D01*
X16846253Y-15561912D02*
X16846253Y-15485722D01*
X16846253Y-15485722D02*
X16855777Y-15466674D01*
X16855777Y-15466674D02*
X16874825Y-15457150D01*
X16874825Y-15457150D02*
X16912920Y-15457150D01*
X16912920Y-15457150D02*
X16931968Y-15466674D01*
X16931968Y-15466674D02*
X16941492Y-15485722D01*
X16941492Y-15485722D02*
X16941492Y-15504769D01*
X16941492Y-15504769D02*
X16846253Y-15523817D01*
X17017682Y-15580960D02*
X17036730Y-15590484D01*
X17036730Y-15590484D02*
X17074825Y-15590484D01*
X17074825Y-15590484D02*
X17093873Y-15580960D01*
X17093873Y-15580960D02*
X17103396Y-15561912D01*
X17103396Y-15561912D02*
X17103396Y-15552388D01*
X17103396Y-15552388D02*
X17093873Y-15533341D01*
X17093873Y-15533341D02*
X17074825Y-15523817D01*
X17074825Y-15523817D02*
X17046253Y-15523817D01*
X17046253Y-15523817D02*
X17027206Y-15514293D01*
X17027206Y-15514293D02*
X17017682Y-15495246D01*
X17017682Y-15495246D02*
X17017682Y-15485722D01*
X17017682Y-15485722D02*
X17027206Y-15466674D01*
X17027206Y-15466674D02*
X17046253Y-15457150D01*
X17046253Y-15457150D02*
X17074825Y-15457150D01*
X17074825Y-15457150D02*
X17093873Y-15466674D01*
X17170063Y-15666674D02*
X17179587Y-15657150D01*
X17179587Y-15657150D02*
X17198634Y-15628579D01*
X17198634Y-15628579D02*
X17208158Y-15609531D01*
X17208158Y-15609531D02*
X17217682Y-15580960D01*
X17217682Y-15580960D02*
X17227206Y-15533341D01*
X17227206Y-15533341D02*
X17227206Y-15495246D01*
X17227206Y-15495246D02*
X17217682Y-15447627D01*
X17217682Y-15447627D02*
X17208158Y-15419055D01*
X17208158Y-15419055D02*
X17198634Y-15400008D01*
X17198634Y-15400008D02*
X17179587Y-15371436D01*
X17179587Y-15371436D02*
X17170063Y-15361912D01*
X12195000Y-15689000D02*
X12395000Y-15889000D01*
X12395000Y-15689000D02*
X12195000Y-15889000D01*
X12295000Y-15889000D02*
X12395000Y-15789000D01*
X12295000Y-15689000D01*
X12195000Y-15789000D01*
X12295000Y-15889000D01*
X12636729Y-15680484D02*
X12760539Y-15680484D01*
X12760539Y-15680484D02*
X12693872Y-15756674D01*
X12693872Y-15756674D02*
X12722443Y-15756674D01*
X12722443Y-15756674D02*
X12741491Y-15766198D01*
X12741491Y-15766198D02*
X12751015Y-15775722D01*
X12751015Y-15775722D02*
X12760539Y-15794769D01*
X12760539Y-15794769D02*
X12760539Y-15842388D01*
X12760539Y-15842388D02*
X12751015Y-15861436D01*
X12751015Y-15861436D02*
X12741491Y-15870960D01*
X12741491Y-15870960D02*
X12722443Y-15880484D01*
X12722443Y-15880484D02*
X12665301Y-15880484D01*
X12665301Y-15880484D02*
X12646253Y-15870960D01*
X12646253Y-15870960D02*
X12636729Y-15861436D01*
X12846253Y-15861436D02*
X12855777Y-15870960D01*
X12855777Y-15870960D02*
X12846253Y-15880484D01*
X12846253Y-15880484D02*
X12836729Y-15870960D01*
X12836729Y-15870960D02*
X12846253Y-15861436D01*
X12846253Y-15861436D02*
X12846253Y-15880484D01*
X12931967Y-15699531D02*
X12941491Y-15690008D01*
X12941491Y-15690008D02*
X12960539Y-15680484D01*
X12960539Y-15680484D02*
X13008158Y-15680484D01*
X13008158Y-15680484D02*
X13027205Y-15690008D01*
X13027205Y-15690008D02*
X13036729Y-15699531D01*
X13036729Y-15699531D02*
X13046253Y-15718579D01*
X13046253Y-15718579D02*
X13046253Y-15737627D01*
X13046253Y-15737627D02*
X13036729Y-15766198D01*
X13036729Y-15766198D02*
X12922443Y-15880484D01*
X12922443Y-15880484D02*
X13046253Y-15880484D01*
X13170062Y-15680484D02*
X13189110Y-15680484D01*
X13189110Y-15680484D02*
X13208158Y-15690008D01*
X13208158Y-15690008D02*
X13217682Y-15699531D01*
X13217682Y-15699531D02*
X13227205Y-15718579D01*
X13227205Y-15718579D02*
X13236729Y-15756674D01*
X13236729Y-15756674D02*
X13236729Y-15804293D01*
X13236729Y-15804293D02*
X13227205Y-15842388D01*
X13227205Y-15842388D02*
X13217682Y-15861436D01*
X13217682Y-15861436D02*
X13208158Y-15870960D01*
X13208158Y-15870960D02*
X13189110Y-15880484D01*
X13189110Y-15880484D02*
X13170062Y-15880484D01*
X13170062Y-15880484D02*
X13151015Y-15870960D01*
X13151015Y-15870960D02*
X13141491Y-15861436D01*
X13141491Y-15861436D02*
X13131967Y-15842388D01*
X13131967Y-15842388D02*
X13122443Y-15804293D01*
X13122443Y-15804293D02*
X13122443Y-15756674D01*
X13122443Y-15756674D02*
X13131967Y-15718579D01*
X13131967Y-15718579D02*
X13141491Y-15699531D01*
X13141491Y-15699531D02*
X13151015Y-15690008D01*
X13151015Y-15690008D02*
X13170062Y-15680484D01*
X13360539Y-15680484D02*
X13379586Y-15680484D01*
X13379586Y-15680484D02*
X13398634Y-15690008D01*
X13398634Y-15690008D02*
X13408158Y-15699531D01*
X13408158Y-15699531D02*
X13417682Y-15718579D01*
X13417682Y-15718579D02*
X13427205Y-15756674D01*
X13427205Y-15756674D02*
X13427205Y-15804293D01*
X13427205Y-15804293D02*
X13417682Y-15842388D01*
X13417682Y-15842388D02*
X13408158Y-15861436D01*
X13408158Y-15861436D02*
X13398634Y-15870960D01*
X13398634Y-15870960D02*
X13379586Y-15880484D01*
X13379586Y-15880484D02*
X13360539Y-15880484D01*
X13360539Y-15880484D02*
X13341491Y-15870960D01*
X13341491Y-15870960D02*
X13331967Y-15861436D01*
X13331967Y-15861436D02*
X13322443Y-15842388D01*
X13322443Y-15842388D02*
X13312920Y-15804293D01*
X13312920Y-15804293D02*
X13312920Y-15756674D01*
X13312920Y-15756674D02*
X13322443Y-15718579D01*
X13322443Y-15718579D02*
X13331967Y-15699531D01*
X13331967Y-15699531D02*
X13341491Y-15690008D01*
X13341491Y-15690008D02*
X13360539Y-15680484D01*
X13512920Y-15880484D02*
X13512920Y-15747150D01*
X13512920Y-15766198D02*
X13522443Y-15756674D01*
X13522443Y-15756674D02*
X13541491Y-15747150D01*
X13541491Y-15747150D02*
X13570063Y-15747150D01*
X13570063Y-15747150D02*
X13589110Y-15756674D01*
X13589110Y-15756674D02*
X13598634Y-15775722D01*
X13598634Y-15775722D02*
X13598634Y-15880484D01*
X13598634Y-15775722D02*
X13608158Y-15756674D01*
X13608158Y-15756674D02*
X13627205Y-15747150D01*
X13627205Y-15747150D02*
X13655777Y-15747150D01*
X13655777Y-15747150D02*
X13674824Y-15756674D01*
X13674824Y-15756674D02*
X13684348Y-15775722D01*
X13684348Y-15775722D02*
X13684348Y-15880484D01*
X13779586Y-15880484D02*
X13779586Y-15747150D01*
X13779586Y-15766198D02*
X13789110Y-15756674D01*
X13789110Y-15756674D02*
X13808158Y-15747150D01*
X13808158Y-15747150D02*
X13836729Y-15747150D01*
X13836729Y-15747150D02*
X13855777Y-15756674D01*
X13855777Y-15756674D02*
X13865301Y-15775722D01*
X13865301Y-15775722D02*
X13865301Y-15880484D01*
X13865301Y-15775722D02*
X13874824Y-15756674D01*
X13874824Y-15756674D02*
X13893872Y-15747150D01*
X13893872Y-15747150D02*
X13922443Y-15747150D01*
X13922443Y-15747150D02*
X13941491Y-15756674D01*
X13941491Y-15756674D02*
X13951015Y-15775722D01*
X13951015Y-15775722D02*
X13951015Y-15880484D01*
X14341491Y-15670960D02*
X14170063Y-15928103D01*
X14598634Y-15680484D02*
X14617682Y-15680484D01*
X14617682Y-15680484D02*
X14636729Y-15690008D01*
X14636729Y-15690008D02*
X14646253Y-15699531D01*
X14646253Y-15699531D02*
X14655777Y-15718579D01*
X14655777Y-15718579D02*
X14665301Y-15756674D01*
X14665301Y-15756674D02*
X14665301Y-15804293D01*
X14665301Y-15804293D02*
X14655777Y-15842388D01*
X14655777Y-15842388D02*
X14646253Y-15861436D01*
X14646253Y-15861436D02*
X14636729Y-15870960D01*
X14636729Y-15870960D02*
X14617682Y-15880484D01*
X14617682Y-15880484D02*
X14598634Y-15880484D01*
X14598634Y-15880484D02*
X14579586Y-15870960D01*
X14579586Y-15870960D02*
X14570063Y-15861436D01*
X14570063Y-15861436D02*
X14560539Y-15842388D01*
X14560539Y-15842388D02*
X14551015Y-15804293D01*
X14551015Y-15804293D02*
X14551015Y-15756674D01*
X14551015Y-15756674D02*
X14560539Y-15718579D01*
X14560539Y-15718579D02*
X14570063Y-15699531D01*
X14570063Y-15699531D02*
X14579586Y-15690008D01*
X14579586Y-15690008D02*
X14598634Y-15680484D01*
X14751015Y-15861436D02*
X14760539Y-15870960D01*
X14760539Y-15870960D02*
X14751015Y-15880484D01*
X14751015Y-15880484D02*
X14741491Y-15870960D01*
X14741491Y-15870960D02*
X14751015Y-15861436D01*
X14751015Y-15861436D02*
X14751015Y-15880484D01*
X14951015Y-15880484D02*
X14836729Y-15880484D01*
X14893872Y-15880484D02*
X14893872Y-15680484D01*
X14893872Y-15680484D02*
X14874825Y-15709055D01*
X14874825Y-15709055D02*
X14855777Y-15728103D01*
X14855777Y-15728103D02*
X14836729Y-15737627D01*
X15027206Y-15699531D02*
X15036729Y-15690008D01*
X15036729Y-15690008D02*
X15055777Y-15680484D01*
X15055777Y-15680484D02*
X15103396Y-15680484D01*
X15103396Y-15680484D02*
X15122444Y-15690008D01*
X15122444Y-15690008D02*
X15131967Y-15699531D01*
X15131967Y-15699531D02*
X15141491Y-15718579D01*
X15141491Y-15718579D02*
X15141491Y-15737627D01*
X15141491Y-15737627D02*
X15131967Y-15766198D01*
X15131967Y-15766198D02*
X15017682Y-15880484D01*
X15017682Y-15880484D02*
X15141491Y-15880484D01*
X15312920Y-15680484D02*
X15274825Y-15680484D01*
X15274825Y-15680484D02*
X15255777Y-15690008D01*
X15255777Y-15690008D02*
X15246253Y-15699531D01*
X15246253Y-15699531D02*
X15227206Y-15728103D01*
X15227206Y-15728103D02*
X15217682Y-15766198D01*
X15217682Y-15766198D02*
X15217682Y-15842388D01*
X15217682Y-15842388D02*
X15227206Y-15861436D01*
X15227206Y-15861436D02*
X15236729Y-15870960D01*
X15236729Y-15870960D02*
X15255777Y-15880484D01*
X15255777Y-15880484D02*
X15293872Y-15880484D01*
X15293872Y-15880484D02*
X15312920Y-15870960D01*
X15312920Y-15870960D02*
X15322444Y-15861436D01*
X15322444Y-15861436D02*
X15331967Y-15842388D01*
X15331967Y-15842388D02*
X15331967Y-15794769D01*
X15331967Y-15794769D02*
X15322444Y-15775722D01*
X15322444Y-15775722D02*
X15312920Y-15766198D01*
X15312920Y-15766198D02*
X15293872Y-15756674D01*
X15293872Y-15756674D02*
X15255777Y-15756674D01*
X15255777Y-15756674D02*
X15236729Y-15766198D01*
X15236729Y-15766198D02*
X15227206Y-15775722D01*
X15227206Y-15775722D02*
X15217682Y-15794769D01*
X15455777Y-15680484D02*
X15474825Y-15680484D01*
X15474825Y-15680484D02*
X15493872Y-15690008D01*
X15493872Y-15690008D02*
X15503396Y-15699531D01*
X15503396Y-15699531D02*
X15512920Y-15718579D01*
X15512920Y-15718579D02*
X15522444Y-15756674D01*
X15522444Y-15756674D02*
X15522444Y-15804293D01*
X15522444Y-15804293D02*
X15512920Y-15842388D01*
X15512920Y-15842388D02*
X15503396Y-15861436D01*
X15503396Y-15861436D02*
X15493872Y-15870960D01*
X15493872Y-15870960D02*
X15474825Y-15880484D01*
X15474825Y-15880484D02*
X15455777Y-15880484D01*
X15455777Y-15880484D02*
X15436729Y-15870960D01*
X15436729Y-15870960D02*
X15427206Y-15861436D01*
X15427206Y-15861436D02*
X15417682Y-15842388D01*
X15417682Y-15842388D02*
X15408158Y-15804293D01*
X15408158Y-15804293D02*
X15408158Y-15756674D01*
X15408158Y-15756674D02*
X15417682Y-15718579D01*
X15417682Y-15718579D02*
X15427206Y-15699531D01*
X15427206Y-15699531D02*
X15436729Y-15690008D01*
X15436729Y-15690008D02*
X15455777Y-15680484D01*
X15598634Y-15680484D02*
X15598634Y-15718579D01*
X15674825Y-15680484D02*
X15674825Y-15718579D01*
X15970063Y-15956674D02*
X15960539Y-15947150D01*
X15960539Y-15947150D02*
X15941491Y-15918579D01*
X15941491Y-15918579D02*
X15931968Y-15899531D01*
X15931968Y-15899531D02*
X15922444Y-15870960D01*
X15922444Y-15870960D02*
X15912920Y-15823341D01*
X15912920Y-15823341D02*
X15912920Y-15785246D01*
X15912920Y-15785246D02*
X15922444Y-15737627D01*
X15922444Y-15737627D02*
X15931968Y-15709055D01*
X15931968Y-15709055D02*
X15941491Y-15690008D01*
X15941491Y-15690008D02*
X15960539Y-15661436D01*
X15960539Y-15661436D02*
X15970063Y-15651912D01*
X16131968Y-15747150D02*
X16131968Y-15880484D01*
X16084348Y-15670960D02*
X16036729Y-15813817D01*
X16036729Y-15813817D02*
X16160539Y-15813817D01*
X16389110Y-15880484D02*
X16389110Y-15680484D01*
X16474825Y-15880484D02*
X16474825Y-15775722D01*
X16474825Y-15775722D02*
X16465301Y-15756674D01*
X16465301Y-15756674D02*
X16446253Y-15747150D01*
X16446253Y-15747150D02*
X16417682Y-15747150D01*
X16417682Y-15747150D02*
X16398634Y-15756674D01*
X16398634Y-15756674D02*
X16389110Y-15766198D01*
X16598634Y-15880484D02*
X16579587Y-15870960D01*
X16579587Y-15870960D02*
X16570063Y-15861436D01*
X16570063Y-15861436D02*
X16560539Y-15842388D01*
X16560539Y-15842388D02*
X16560539Y-15785246D01*
X16560539Y-15785246D02*
X16570063Y-15766198D01*
X16570063Y-15766198D02*
X16579587Y-15756674D01*
X16579587Y-15756674D02*
X16598634Y-15747150D01*
X16598634Y-15747150D02*
X16627206Y-15747150D01*
X16627206Y-15747150D02*
X16646253Y-15756674D01*
X16646253Y-15756674D02*
X16655777Y-15766198D01*
X16655777Y-15766198D02*
X16665301Y-15785246D01*
X16665301Y-15785246D02*
X16665301Y-15842388D01*
X16665301Y-15842388D02*
X16655777Y-15861436D01*
X16655777Y-15861436D02*
X16646253Y-15870960D01*
X16646253Y-15870960D02*
X16627206Y-15880484D01*
X16627206Y-15880484D02*
X16598634Y-15880484D01*
X16779587Y-15880484D02*
X16760539Y-15870960D01*
X16760539Y-15870960D02*
X16751015Y-15851912D01*
X16751015Y-15851912D02*
X16751015Y-15680484D01*
X16931968Y-15870960D02*
X16912920Y-15880484D01*
X16912920Y-15880484D02*
X16874825Y-15880484D01*
X16874825Y-15880484D02*
X16855777Y-15870960D01*
X16855777Y-15870960D02*
X16846253Y-15851912D01*
X16846253Y-15851912D02*
X16846253Y-15775722D01*
X16846253Y-15775722D02*
X16855777Y-15756674D01*
X16855777Y-15756674D02*
X16874825Y-15747150D01*
X16874825Y-15747150D02*
X16912920Y-15747150D01*
X16912920Y-15747150D02*
X16931968Y-15756674D01*
X16931968Y-15756674D02*
X16941492Y-15775722D01*
X16941492Y-15775722D02*
X16941492Y-15794769D01*
X16941492Y-15794769D02*
X16846253Y-15813817D01*
X17017682Y-15870960D02*
X17036730Y-15880484D01*
X17036730Y-15880484D02*
X17074825Y-15880484D01*
X17074825Y-15880484D02*
X17093873Y-15870960D01*
X17093873Y-15870960D02*
X17103396Y-15851912D01*
X17103396Y-15851912D02*
X17103396Y-15842388D01*
X17103396Y-15842388D02*
X17093873Y-15823341D01*
X17093873Y-15823341D02*
X17074825Y-15813817D01*
X17074825Y-15813817D02*
X17046253Y-15813817D01*
X17046253Y-15813817D02*
X17027206Y-15804293D01*
X17027206Y-15804293D02*
X17017682Y-15785246D01*
X17017682Y-15785246D02*
X17017682Y-15775722D01*
X17017682Y-15775722D02*
X17027206Y-15756674D01*
X17027206Y-15756674D02*
X17046253Y-15747150D01*
X17046253Y-15747150D02*
X17074825Y-15747150D01*
X17074825Y-15747150D02*
X17093873Y-15756674D01*
X17170063Y-15956674D02*
X17179587Y-15947150D01*
X17179587Y-15947150D02*
X17198634Y-15918579D01*
X17198634Y-15918579D02*
X17208158Y-15899531D01*
X17208158Y-15899531D02*
X17217682Y-15870960D01*
X17217682Y-15870960D02*
X17227206Y-15823341D01*
X17227206Y-15823341D02*
X17227206Y-15785246D01*
X17227206Y-15785246D02*
X17217682Y-15737627D01*
X17217682Y-15737627D02*
X17208158Y-15709055D01*
X17208158Y-15709055D02*
X17198634Y-15690008D01*
X17198634Y-15690008D02*
X17179587Y-15661436D01*
X17179587Y-15661436D02*
X17170063Y-15651912D01*
M02*
